<?xml version="1.0" encoding="utf-8"?>
<!-- Generator: Adobe Illustrator 19.0.0, SVG Export Plug-In . SVG Version: 6.00 Build 0)  -->
<svg version="1.1" id="Layer_1" xmlns="http://www.w3.org/2000/svg" xmlns:xlink="http://www.w3.org/1999/xlink" x="0px" y="0px"
	 viewBox="0 0 1422.1 1117.9" style="enable-background:new 0 0 1422.1 1117.9;" xml:space="preserve">
<style type="text/css">
	.st0{fill:#FBCF58;}
	.st1{fill:#DBC2AD;}
	.st2{fill:#D7B49D;}
	.st3{fill:#E0E0E0;}
	.st4{fill:#CCCCCC;}
	.st5{fill:#EEEEEE;}
	.st6{fill:#111111;}
	.st7{fill:#252222;}
	.st8{fill:#111111;stroke:#252525;stroke-miterlimit:10;}
	.st9{fill:none;stroke:#252222;stroke-miterlimit:10;}
	.st10{fill:#252525;}
	.st11{fill:#0096C1;}
	.st12{fill:#0096C1;stroke:#04B2D9;stroke-miterlimit:10;}
	.st13{fill:#111111;stroke:#0096C1;stroke-miterlimit:10;}
	.st14{fill:#0096C1;stroke:#111111;stroke-miterlimit:10;}
	.st15{fill:#111111;stroke:#111111;stroke-miterlimit:10;}
	.st16{fill:#F2F2F2;}
	.st17{fill:#04B2D9;}
	.st18{fill:none;}
	.st19{fill:#D7B49D;stroke:#E0C09C;stroke-miterlimit:10;}
	.st20{fill:#E0C09C;}
	.st21{fill:#FBCF58;stroke:#F4C756;stroke-miterlimit:10;}
	.st22{fill:#E7CFB4;}
	.st23{fill:#222222;}
	.st24{fill:#FFFFFF;}
	.st25{fill:#CA9A93;}
	.st26{fill:#F4C756;}
	.st27{opacity:0.14;fill:#CA9A93;}
</style>
<polygon class="st0" points="777.5,254.6 776.1,263.4 745.2,251.5 750,243.2 "/>
<path class="st1" d="M733.7,230.1c0,0-0.9,44.1,1.6,53.5c2.5,9.4-8.4,8.6-21.3,2c-12.8-6.6-29.6-17.5-33.8-31.5
	c-4.3-14,12.3-54.3,12.3-54.3S712.5,224.7,733.7,230.1z"/>
<path class="st2" d="M614.3,324.4C615.8,327.2,595,435,595,435l-35.1,0.7c0,0-11.5-5.3,20-132L614.3,324.4z"/>
<path class="st2" d="M802,286.8c-2.6,0.7,22.6,124.4,22.6,124.4l-30.7,6.5c-4.9,3.3-23.7-94.6-23-116.4
	C771.6,279.8,802,286.8,802,286.8z"/>
<path class="st3" d="M794.7,771.2c0,2.8-0.6,81.7-16.8,117.7c-16.3,36-28.4,51.6-28.5,68.3c-0.1,16.7,2.8,25.1,2.8,25.1l-36,1.4
	c0,0-8.3-102.2-1-147.6c7.3-45.4,13.5-67.6,13.5-67.6L794.7,771.2z"/>
<path class="st3" d="M688,987.9c0,0,1.4-40.9,5.9-59.6c4.5-18.7,31.5-114.3,31.7-143.5c0,0-62.1-35.9-84.2-15.1
	c-22,20.8,7.6,166.3,9.7,174.5c2.1,8.2,7.5,16.5,4.2,24.6C652,976.9,688,987.9,688,987.9z"/>
<path class="st4" d="M641,799.4c0,5.1-0.3,41.8,4.1,51.6s5.4,13.5,2.9,20.5c-2.5,6.9-1.3,45.9-1.3,45.9s-6.7-38.1-8.2-47.9
	s-4.2-40.4-4.6-53.4c-0.4-13-0.3-21.4-0.3-21.4L641,799.4z"/>
<path class="st4" d="M784.4,801.8c-0.5,4-2.4,42.5-2.4,42.5c-0.5-1.5-15.1-42.2-33.1-36.3c-10.1,3.2-17,8.2-21.7,13l-10.9-12.2
	C725.9,801.8,785,798,784.4,801.8z"/>
<path class="st4" d="M721,798.1c0,1.4-16.5,70.3-19.6,80.5c-3.1,10.2-8.8,39.8-10.9,50c-2.1,10.2-1.2,25-1.2,25s2.7-27.8,7.3-39.8
	c4.6-12,16.5-64.8,16.5-64.8l9.9-50.9L721,798.1z"/>
<path class="st4" d="M700.4,881.8c-1,1.4-17.3,62.4-25.3,70.7c-8.1,8.3-10.8,17.8-10.8,17.8l-12.6,15.3c0,0,35.9,7.4,36,6
	c0-1.4,0.3-39.9,1.8-46.4C691,938.8,700.4,881.8,700.4,881.8z"/>
<path class="st4" d="M791.9,813.4c0,0-10.4,61.6-15.5,69.9s-15.2,28.1-18.2,35c-3,6.9-6.2,22.7-6.2,22.7s17.8-38.8,21.3-45.7
	c3.5-6.9,10.2-27.7,12.8-35.6c2.6-7.9,6.3-48.2,6.3-48.2L791.9,813.4z"/>
<path class="st4" d="M785.4,802.9c0.6,3.1-20,100-20,100c-4.7,11.7-6.1,17.9-6.1,17.9s23.7-45.5,27.9-77s3.7-47,3.7-47L785.4,802.9z
	"/>
<g id="left_x5F_converse">
	<path class="st5" d="M709.4,986.3c-1.6-0.7-19-0.5-21,0.1c-2,0.6-0.9,1.3-0.9,1.3s5.8,0.1,8.5,1.1c2.7,1,1.8,2.1,5.5,1.4
		c3.6-0.7,8.6-0.2,8.6-0.2L709.4,986.3z"/>
	<path class="st6" d="M817.3,1036.5c0,0,4.4-0.4,3.8,0.8s-4.2,1.8-5.9,2.8c-1.7,1-9.6,3.7-12.8,2.4c-3.2-1.3-14.7-3.3-16.9-4.1
		c-2.2-0.8-13.2-1.3-15.1-2.5c-1.9-1.2-12.6-4.3-12.6-4.3L817.3,1036.5z"/>
	<path class="st5" d="M749.9,956.4c0,0,10.1,5,10.6,8.8c0.5,3.8,1,14.9,1,14.9l-2.5-3.4c0,0,0.3-5.8-0.3-8.5s-8.4-9.8-8.4-9.8
		L749.9,956.4z"/>
	<path class="st5" d="M805.7,1009.2c0,0-16.9,1.4-25.9,15.4c0,0,0.7,3.3,15.9,3s17,1.5,21.1-2c4-3.5,5.7-4.8,0.4-9
		C811.9,1012.3,805.7,1009.2,805.7,1009.2z"/>
	<path class="st7" d="M805.7,1009.2c-0.8-0.5-22.4-9.9-25.6-12.4c-3.2-2.6-9.8-8.1-12.7-10.5s-11.8-12.4-13.7-18.4
		c-1.9-6-2.1-14.2-1.3-16.2c2.1-5.3-7.2-4.2-12.1-2.2c-3.1,1.2-7.8,2.2-9,2.6s16.8,41.1,23,48c6.3,6.9,25.6,24.5,25.6,24.5
		L805.7,1009.2z"/>
	<path class="st6" d="M713.8,950.9c0.5,1.6,0.4,18.7-1.9,26.7c-2.3,8-4,8.3-1.9,11.3c2.1,2.9,33.7,22.7,37.1,25s23,9.9,31.2,10.7
		c0,0,2.9-9.3,2.2-11.9c-0.7-2.7-5.9-8.4-8.9-10.1s-17-14.4-20.9-18.1c-4-3.7-9.4-10.8-9.8-14.7c-0.4-4-0.6-5.3,0.1-8.8
		c0.7-3.5,2.7-4.3-1.1-5.5c-3.8-1.3-12.6-2.4-15.3-2.9s-7.4-2.1-8.4-3C714.3,947.5,713.8,950.9,713.8,950.9z"/>
	<path class="st8" d="M737.1,950.4c0,0-5.9-3.1-9.8-3.5c-3.8-0.4-13.5,0.1-13.6,1.4c-0.1,1.3,1.5,2.2,4.8,3
		c3.3,0.8,13.4,2.2,13.4,2.2L737.1,950.4z"/>
	<path class="st5" d="M820.8,1021.5c0,0,4.6,8.3-0.6,12.9c-5.2,4.6-11.7,7.3-27,5.3c-15.4-2.1-36.9-7.9-39-8.7l1.7-12.6
		c0,0,23.9,8.2,33.2,9.1c9.3,0.9,16.8,1.3,19.3,0.5C810.9,1027.2,817.5,1026.6,820.8,1021.5z"/>
	<path class="st5" d="M710.4,989c0,0.9,0,6.6,2.3,10s16.1,9.8,20.5,14.6c4.5,4.8,10.7,11.7,20.9,17.4l1.7-12.6
		c0,0-15.5-9.5-18.5-11.6c-2.9-2.1-13.9-8.6-16.9-10.9C717.6,993.5,710.4,989,710.4,989z"/>
	
		<ellipse transform="matrix(-0.9988 -4.855050e-002 4.855050e-002 -0.9988 1420.5189 1958.2473)" class="st9" cx="734" cy="961.9" rx="2.7" ry="2.1"/>
	<g id="holes">
		
			<ellipse transform="matrix(-0.9988 -4.855050e-002 4.855050e-002 -0.9988 1489.8441 2056.7449)" class="st9" cx="769.9" cy="1010.3" rx="3" ry="2.4"/>
		
			<ellipse transform="matrix(-0.9988 -4.855050e-002 4.855050e-002 -0.9988 1436.3286 2006.5588)" class="st9" cx="742.5" cy="985.8" rx="2.7" ry="2.1"/>
		
			<ellipse transform="matrix(-0.9988 -4.855050e-002 4.855050e-002 -0.9988 1427.4404 1992.0918)" class="st9" cx="737.9" cy="978.7" rx="2.7" ry="2.1"/>
		
			<ellipse transform="matrix(-0.9988 -4.855050e-002 4.855050e-002 -0.9988 1446.5906 2021.1261)" class="st9" cx="747.8" cy="993" rx="2.7" ry="2.1"/>
		
			<ellipse transform="matrix(-0.9988 -4.855050e-002 4.855050e-002 -0.9988 1474.6405 2045.5458)" class="st9" cx="762.2" cy="1004.9" rx="3" ry="2.4"/>
		
			<ellipse transform="matrix(-0.9988 -4.855050e-002 4.855050e-002 -0.9988 1458.951 2033.4338)" class="st9" cx="754.2" cy="999" rx="3" ry="2.4"/>
	</g>
	<path class="st5" d="M794.8,1003.4c-0.8-0.3-8.5-6.9-32.2-1.5l1.9,3.1c0,0,11.4-5.1,23.7-3C800.5,1004.1,794.8,1003.4,794.8,1003.4
		z"/>
	<path class="st5" d="M755,996.7c0,0,10.5-2.9,21.7-1.2l3.4,3c0,0-13.5-2.4-23.3,0.6L755,996.7z"/>
	<path class="st5" d="M770,991.4c-1.1-0.3-9.8-1.8-15.5,0.3c-5.6,2.1-4.8,1.5-4.8,1.5l-1.8-2.4c0,0,10.7-4.4,15.1-3.5s7,3.2,7,3.2
		L770,991.4z"/>
	<path class="st5" d="M745.2,986l-1.8-2.1c0,0,11.7-4.6,16.3-2.4l-2.6,2.3C757.1,983.8,750.6,984.1,745.2,986z"/>
	<path class="st5" d="M739.5,979.6l-0.6-2.8c0,0,7-2.3,13.3-0.5l-1.2,1.9c0,0-8.3,0.9-10.8,1.4S739.5,979.6,739.5,979.6z"/>
	<path class="st5" d="M756.2,975c0,0-15.1-6.4-19.7-3.6s1.3-3.9,1.3-3.9s16.5,1,17.2,3.2C755.7,973,756.2,975,756.2,975z"/>
	<path class="st5" d="M745.9,961.8l-5.2-1.8c0,0-1.7,1.7-1.8,2.3s4.1,1.3,4.1,1.3L745.9,961.8z"/>
	<path class="st10" d="M761,1020.4c1.8-1.6-2.5,11.1-3.2,11.9C757.1,1033.1,760.4,1021,761,1020.4z"/>
	<path class="st10" d="M823.5,1028.9c0,0-10.5,12-56.6,0.5C767.7,1030.3,809.3,1042,823.5,1028.9z"/>
	<path d="M820.4,1019.5c0,0-2.8,6-8.6,7.2c-5.9,1.2-20.5,1.2-24.3,0.4s-7.6-2.6-7.6-2.6s4.1,5.9,27.1,4.6
		C806.9,1029.2,819.1,1028.7,820.4,1019.5z"/>
	<path d="M806,1008.7l-26.1,15.2C779.9,1023.9,799.9,1009.3,806,1008.7z"/>
	<path class="st6" d="M800.7,1007.2c-0.7-0.1-12.3-3-13.7-4.1c-1.5-1.1-13.1-9.6-13.8-11c-0.8-1.4-11.4-9.1-14.3-14.2
		c-2.9-5.1-6-12.2-6-12.2s5.7,13.7,13.1,19.4c7.5,5.6,13.5,10.8,15.2,11.8"/>
	<path class="st5" d="M785.9,998.1c0,0-1.5-2.9-4-2.2s-5.4,3.2-7.7,5.8c-2.3,2.5-4.9,4.8-5.8,6.3c-0.9,1.5,3.8,1.3,3.8,1.3
		s7-7.5,9-9.2S784,997.8,785.9,998.1z"/>
	<path class="st5" d="M777.9,992.9c0,0-2.6-3-3.7-2.6s-7.8,7.9-7.8,7.9l2.6,2.3L777.9,992.9z"/>
	<path class="st5" d="M769.6,988.1c0,0,0.1-3.1-2.6-2.8c0,0-3.6,5.3-7,7.5l2.6,2.3L769.6,988.1z"/>
	<path class="st5" d="M764.3,983.1c-0.8,0.4-8,6-8,6l-3.5-2.6l8.6-6.4L764.3,983.1z"/>
	<path class="st5" d="M757.5,973.5c0,0,2.9,2.3,1.5,3.1c-1.4,0.8-5.2,4.6-5.2,4.6l-5.6,0.8l-1.1-0.9L757.5,973.5z"/>
	<path class="st5" d="M753.2,967.8c-0.7,0.3-9.7,4-10.3,5.7c-0.6,1.7,1.5,2.3,1.5,2.3s11.4-5.3,11.5-6.6
		C756,968,755.7,966.9,753.2,967.8z"/>
	<path class="st5" d="M751.5,958.3c-1.4,0.8-10.7,6.9-10.7,6.9l0.1,2.9l1.9,0.5l10.7-8L751.5,958.3z"/>
	<path class="st5" d="M745.9,961.8c-0.2-0.9,0.8-4.3-2-4.3c-2.8,0.1-4.4-0.2-5.9,1.5c-1.5,1.7-4.1,4.6-5.9,13.3
		c-1.8,8.7-2.9,25.7-3.8,27.4c-0.9,1.7,0.3,11.4-1.5,12.9c-1.7,1.4-4.5,1.3-8.4,2.4c-3.9,1.1-4.4-0.7-8.4,2.2
		c-4,2.9-4.5,8.3-3.6,10.8c1,2.5,7,3,6.6,1c-0.5-2-5,0.2-4-2.4c1-2.6,0-5.9,5-7s16.4-1.8,17-4.4c0.7-2.6,1-21.2,1.7-24.2
		c0.7-3,3.8-20.8,5.3-23.4c0,0-0.7-2.9,0.8-5.2s4.5-2.2,4.5-2.2l-0.1,1.3L745.9,961.8z"/>
	<path d="M743.5,960.1c0,0-4.3-0.9-5.3,4.4c-1,5.4-2,11.6-2.6,12.7c-0.6,1.1-2.8,15.8-3,16.8c-0.2,1-0.4,16.5-1.1,18.1
		s-0.2,3.5-0.9,3.9c-0.8,0.4-3,1.3-3,1.3s2.7,0.3,3.3-7.9c0,0,0.8-8.7,1.1-10.6c0.3-1.9,0.6-8.7,1.6-13.8c1-5.1,2.7-13.2,3.1-15.3
		c0.5-2.2,0.5-7.1,1.3-7.8C738.8,961.2,740,959.1,743.5,960.1z"/>
</g>
<g>
	<path class="st8" d="M654.4,960.6c1.7-0.7,10.2-1.5,13.6-2.8s-0.2-0.8,3.4-1.3c3.7-0.6,15.2,5.7,15.2,5.7s-2.9,1.3-3.2,3
		c-0.4,1.7-1.1,5.4-1.1,5.4l-23.1-0.4c0,0,1.3-4.6,0.3-6.1C658.6,962.5,654.4,960.6,654.4,960.6z"/>
	<path class="st7" d="M682.4,970.5c-0.5-1-7.1-5-10.2-4.9s-10.4,0.5-12.9,4.5c-2.4,4.1-3.2,1.8-3.5,2.5c-0.3,0.7-0.6,30.5-0.6,30.5
		l-12.4,34.1c0,0,36,0.8,39.5,3.4c3.5,2.6,3.2,3.6,3.2,3.6L682.4,970.5z"/>
	<path d="M690.4,1058.6c0,0-1.5,7.6-9.7,10.2c-8.2,2.6-18.7,2.5-22.1,2.4c-3.6-0.2-18.1-1.4-21-3.5c-2.9-2.1-6.5-4.9-6.8-7.1
		S690.4,1058.6,690.4,1058.6z"/>
	<path class="st6" d="M652.9,998.9c0,0-2,1.3-4.5,3.6c-3,2.7-6.7,6.6-8.6,11c-3.5,8.2-8.5,19.3-8.6,20.8c-0.1,1.5,3.7,9.8,3.7,9.8
		s9.6-7.4,13.7-9.7c4-2.3,5.3-4.7,6.8-6.1c1.5-1.4,5.9-28.3,6.6-32.2c0.8-3.9,0.5-10.1-1.9-12.2c-2.4-2.1-5.6-6.2-4.3-9.8
		c1.3-3.6,5-3.9,4.3-7.7c-0.7-3.7-1.5-4-2.8-5.1s-2.8-0.9-2.8-0.9s1.1,0.5,0.1,4.7c-1,4.1-3.9,10.2-2.6,13.7s2.3,4.8,2.3,4.8
		s1.3,8.4,0.3,11.3C653.5,997.9,652.9,998.9,652.9,998.9z"/>
	<path class="st6" d="M692.8,1039c-0.5-1.7-2.4-8-1.3-12.9c1.1-4.9-1.5-14.9-3-18.6c-1.5-3.8-4.9-10.1-4.4-13.5
		c0.4-3.4,2.5-6,3.3-9.4c0.7-3.4,0.6-12.5,0.5-15.5s3.2-5.1,1.6-6.5c-2-1.7-1.6,0.3-3.3,1c-1.7,0.7-3.1,0.6-3.6,3.8
		c-0.4,3.2-1,8.1-1.1,11.3c-0.2,3.2-2.2,15.4-4,19.3s-2.3,1.1-3.4,6.7c-1.1,5.6-1,9.8-2.4,15.4c-1.4,5.6-0.3,12.5,3.2,15.2
		c3.5,2.6,10.6,7.2,10.8,9.1c0.2,2,0.2,2,0.2,2L692.8,1039z"/>
	
		<ellipse transform="matrix(-0.9988 -4.855050e-002 4.855050e-002 -0.9988 1313.2286 2091.6577)" class="st9" cx="682" cy="1029.9" rx="2.7" ry="2.4"/>
	
		<ellipse transform="matrix(-0.9988 -4.855050e-002 4.855050e-002 -0.9988 1310.3082 2077.634)" class="st9" cx="680.4" cy="1022.9" rx="2.7" ry="2.4"/>
	
		<ellipse transform="matrix(-0.9988 -4.855050e-002 4.855050e-002 -0.9988 1308.4728 2064.1829)" class="st9" cx="679.3" cy="1016.2" rx="3" ry="2.4"/>
	
		<ellipse transform="matrix(-0.9988 -4.855050e-002 4.855050e-002 -0.9988 1238.512 2088.6709)" class="st9" cx="644.6" cy="1029.3" rx="3" ry="2.4"/>
	
		<ellipse transform="matrix(-0.9988 -4.855050e-002 4.855050e-002 -0.9988 1244.9819 2073.3596)" class="st9" cx="647.7" cy="1021.6" rx="2.8" ry="2.4"/>
	
		<ellipse transform="matrix(-0.9988 -4.855050e-002 4.855050e-002 -0.9988 1250.9747 2060.7263)" class="st9" cx="650.5" cy="1015.2" rx="2.6" ry="2.1"/>
	
		<ellipse transform="matrix(-0.9988 -4.855050e-002 4.855050e-002 -0.9988 1259.0723 2046.2737)" class="st9" cx="654.4" cy="1007.8" rx="2.4" ry="1.7"/>
	<path class="st5" d="M692.8,1039c0-1.8-8.2,13.4-21.2,12.8c-12.9-0.6-34.9-4.9-36.8-7.7c-1.8-2.8-5.9-11.1-4.2-12.5
		c1.8-1.4-3.4,1.3-3.7,11.6c-0.2,10.3,3.9,17.7,6.4,19.5c2.4,1.8,17,9,29.7,7.8s18.7-3,22.8-5.5C690,1062.5,692.9,1049.6,692.8,1039
		z"/>
	<path class="st5" d="M685.7,1046.3c0,0-8.7,5.5-14.1,5.5c-5.3,0-32.4-4.8-36.8-7.7l9.6-6.9c0,0,33.7,0.4,36.2,2.5s4.8,4.7,4.8,4.7
		L685.7,1046.3z"/>
	<path d="M685.7,1046.3c0,0-4.7,8.1-25.8,5.4c-20.2-2.6-25-7.6-25-7.6s20.9,7.6,28.1,7.3C670.1,1051.1,668.5,1053.1,685.7,1046.3z"
		/>
	<path d="M678.8,1038.8c-1.1-0.1-34.2-1.7-34.2-1.7l1.5-0.9l32.9,1.8l0.5,1.3L678.8,1038.8z"/>
	<path d="M689.2,1051.3c-0.4,0.6-2.3,8.6-14.9,9.9c-12.6,1.4-32-2-36-4.2c-4-2.2-8.6-12.2-8.9-13.9c-0.3-1.7,1.7,6.5,3.9,9.4
		c2.1,2.9,4.2,6.1,10,7.2c5.8,1.1,21.4,2.7,21.4,2.7s13-0.2,13.9-0.6c1-0.4,4.8-2.6,6.6-3.6C686.9,1057.1,689.2,1051.3,689.2,1051.3
		z"/>
	<path class="st5" d="M680.6,1031c-0.9-0.4-8.1-4-11.1-3.5s-12.1,1.2-13,1.2c-0.9,0-10.7-0.4-11.1,0.3s-2.5,0.4-1.8-0.7
		c0.6-1.1,2.4-3,2.4-3s0.7-2.1,13.1-0.3l9.2,0.1c0,0,6-0.5,7.9,0.1c1.8,0.6,5.5,2.9,5.5,2.9L680.6,1031z"/>
	<path class="st5" d="M679.7,1023.3l0.1-2.5c0,0-6.3-1.8-8.3-0.8c-2,1-6.8,2.2-7.7,2.5c-1,0.3-3.7,2.4-3.7,2.4l8.3,0.1
		c0,0,4.6-2.4,7.4-2.1C678.6,1023.2,679.7,1023.3,679.7,1023.3z"/>
	<path class="st5" d="M647,1021.4c0,0,0.9-3.7,5.2-3.2c4.3,0.5,8.2,0.7,9.9,1.8c1.6,1.1,2.5,2.3,2.5,2.3l-5.4,2.7
		c0,0-2.5-3.4-6.4-3.4C648.8,1021.5,647,1021.4,647,1021.4z"/>
	<path class="st5" d="M678.3,1017.6l1.1-3.4c0,0-2.9-1.8-5.6-1.4c-2.6,0.4-7.9,0.3-9.1,1c-1.2,0.8-5.9,4.6-5.9,4.6l3.1,1.5
		c0,0,8-3.1,9.5-3.1C673.1,1016.7,678.3,1017.6,678.3,1017.6z"/>
	<path class="st5" d="M649.9,1014.4c3.7-2.9,4.9-4,6.4-3.8c1.5,0.2,7.1,1,8.5,3.2l-3.5,2.8c0,0-4.7-3.2-6.8-3
		c-2.1,0.2-3.3,1.8-3.3,1.8L649.9,1014.4z"/>
	<path class="st5" d="M678.9,1010.1l1.4-4.9c0,0-2-0.9-5.5,0.6c-3.4,1.5-8.1,4-9.6,4.3s-4,1.3-4,1.3l3.6,2.5c0,0,2.7-2,6.7-2.5
		c4-0.5,4-1.9,5.2-1.9C677.8,1009.6,678.9,1010.1,678.9,1010.1z"/>
	<path class="st5" d="M653.6,1006.6c0,0,3.4-6.2,7.3-4.6c3.9,1.7,8.8,3.6,9.3,4.9c0.5,1.3-5,3.2-5,3.2s-6.9-5.8-8.1-4.1
		C655.8,1007.7,654.1,1007.8,653.6,1006.6z"/>
	<path class="st5" d="M681.7,996.4c0,0,1,2.8-0.5,4.2s-2.9,2.1-5.4,1.7c-2.5-0.4-6.1-2.8-7.8-1.4c-1.8,1.4-3.8,2-3.8,2
		s4.5-5.7,8.1-5.5s3.6,0.4,6.8-0.2c3.1-0.6,3.1-0.6,3.1-0.6L681.7,996.4z"/>
	<path class="st5" d="M655.9,995.1c0,0,1-2.4,4.6-1.3c3.6,1.2,5.3,1.5,7.5,1.4c2.3-0.1,5.6,0.3,5.8,1.3c0.2,1-4,1.8-4,1.8
		s-9.9,1-11.6,1.2s-2.8,0.1-2.8,0.1L655.9,995.1z"/>
	<path class="st5" d="M678.4,994.2c0,0-13.5,0.1-14.3-0.2s-0.7-3-0.7-3s5.2-2.7,8.8-2.5s7.5,1.1,7.5,1.1L678.4,994.2z"/>
	<path class="st5" d="M654.2,983.7l21,3c0,0,1.6,2.3-1.8,1.6c-3.3-0.7-6.7-0.6-6.7-0.6s-3.7,1.1-5.4,1.2s-5.3,0-5.3,0L654.2,983.7z"
		/>
	<path class="st5" d="M657.9,981.4c0,0,7.5-4.6,10.6-3.9c3.1,0.6,6.1,1,8.2,0.1s5.1-1.5,5.1-1.5l-0.4,2.4c0,0-3.7,0.8-5.1,1.7
		c-1.5,0.9-6.6,1.9-8.6,2.5c-2,0.6-6.9,2.1-6.9,2.1L657.9,981.4z"/>
	<path class="st5" d="M650.9,970c0,0-1.6,3.6-0.5,4.7s11.6,5,11.6,5s13.3,4.6,14.3,6.1c1.1,1.5,3.2,2.9,3.2,2.9l0.8-4.2l-22-10.2
		L650.9,970z"/>
	<path class="st5" d="M681.4,973.4c-1.4-0.1-3.6,3.8-3.6,3.8c-0.7,3.4,3.2,10.3,3.2,10.3s5.3,12.6,5.5,14.3c0.2,1.7,5.9,5.5,5.5,8.6
		c-0.4,3.2,0.9,10.1,2.1,15.1c1.2,5,0.1,9.4,5.7,10.9s11.4,1.8,11.3,4.2s-0.3,5.9,1.7,5.7c2-0.2,2.7-3.1,2.7-3.1s-2.3-5.5-3.1-6.6
		s-12.8-2.6-13.3-4.6c-0.5-2-5.8-19-4.9-21.2c0.9-2.2-2.1-8.5-3.5-9.3c-1.4-0.8-3.3-12.5-3.3-12.5s-4.1-8.8-4.6-9.8
		C682.3,978.4,681.4,973.4,681.4,973.4z"/>
	<path class="st10" d="M712.6,1038c0,0-1-2-3.4-2.4s-5.6-0.8-6.7-1.6c-1.1-0.8-4.3-3.3-4.8-5.4c-0.5-2.1-1.6-7.5-2.2-9.2
		c-0.6-1.8-2.3-5.4-1.3-7s-0.9-6.8-0.9-6.8s-2.9-4.1-3.1-5c-0.2-0.9-2.4-5.4-2.2-7.1c0.2-1.7,0.8,6,1.3,7.2c0.5,1.3,2.9,4.1,3.1,5.1
		c0.2,1,0.9,4.1,1.1,5.5s0.4,4.1,0.6,5.4s2.5,11.9,3.3,12.7c0.8,0.8,4,4.9,5.4,5.3C704.1,1035.3,710,1035.3,712.6,1038z"/>
</g>
<path class="st3" d="M737.5,949.7l-6.2,3.1c0,0-15.1-2.1-15.9-3.1c-0.8-1-1.9-5.4-1.9-5.4l25.2,2.6L737.5,949.7z"/>
<path class="st4" d="M688.3,961.1c0,0-2.2,2.7-4.6,3.6c-2.7,1.1-1.8,5-1.8,5s-5.3-4.3-8.8-4.1c-3.5,0.1-10.9,0.7-12,2.2
	c-1.1,1.5,0.1-1.7-0.5-3.1c-0.6-1.4-3.3-3.3-3.3-3.3l-0.9-2.3c0,0,16.4-4.5,18.7-6.6S688.3,961.1,688.3,961.1z"/>
<path class="st11" d="M771.8,338.5c3,14.7,97-66.2-41-88.9L771.8,338.5z"/>
<path class="st11" d="M735.2,242.9c0,0-20.5,33.8-55.5,8.9c0,0-64.4,14.2-77.5,15.1l100.9,68.6l68.5-58.5L735.2,242.9z"/>
<path class="st12" d="M741.6,437.3c-8.7-0.4,152.8,56.8,208.9,331.1l-497.3-15.6l-13.8-4l-34-9.9c0,0,109-271.6,222.1-318.2
	L741.6,437.3z"/>
<path class="st11" d="M628.6,418.8c4.7-7-16-67.4-31.8-100s8.3-51.7,8.3-51.7S726,410.4,661.2,423.3
	C614.4,432.6,628.6,418.8,628.6,418.8z"/>
<path class="st13" d="M734.6,244c0,0,13.7,16.5-5.6,38.1l-21.7-18.5C707.3,263.6,724.6,260.4,734.6,244z"/>
<path class="st12" d="M579.3,485.9c0,0-100.2,140-124.6,283.6c0,0,120.1,31.9,272.5,24.8s124-18.6,124-18.6s-7.6-142.3-72-216.4"/>
<path class="st6" d="M910.6,777.7c-2.9,1.9-46.3,29.1-97.5,39.3c-51.2,10.2-112.7,11.9-129.4,11.1c-16.6-0.8-90.2-11.1-104.2-13.1
	s-65.2-18.9-65.2-18.9L910.6,777.7z"/>
<path class="st12" d="M784.7,506c0,0,117.3,149.1,123,269.6c0,0-148,94.2-396.3,18.4c0,0,27.3-205,77.1-275"/>
<path class="st14" d="M735.2,242.9c0,0,12.3,15.6-5.1,36l-19.4-17.4C710.6,261.5,726.2,258.4,735.2,242.9z"/>
<path class="st6" d="M711.3,260.8l-12.4,22c0,0-8.9,13.9-20.4-33.8C678.5,249.1,691.7,262.2,711.3,260.8z"/>
<path class="st15" d="M750.6,282.7c0,0-34.1,26.3-50.9,25c-16.8-1.3-26.6-8.5-26.6-8.5l30,18.4l42.5-20.6L750.6,282.7z"/>
<path class="st14" d="M710.6,261.5l-11.5,17.8c0,0-8.3,11.2-19.4-27.5C679.7,251.8,692.2,262.6,710.6,261.5z"/>
<g id="right_x5F_converse">
	<path class="st15" d="M658.9,406.4c0.3,2.2,0.5,4.4,0.7,6.7L658.9,406.4z"/>
	<path class="st15" d="M647.1,356c0,0,8.6,24.4,11.8,50.4l-3.2-32l0.8-2.8c6-33.7-32-55.9-32-55.9c7.2,11.3,16.4,27.6,23,40.2
		L647.1,356z M655.6,374.3l-0.1-0.5C655.6,374,655.7,374.1,655.6,374.3z"/>
</g>
<path class="st11" d="M596.2,273.1c3.8-0.9,7.5-1.2,11.2-1.2l19.3,83.9c-3.3,1.6-6.8,2.9-10.6,3.8c-24.8,5.7-49.4-9-54.9-32.9
	C555.7,302.7,571.4,278.8,596.2,273.1z"/>
<path class="st16" d="M659.5,416.4c-0.2-0.1-0.4-0.3-0.6-0.5C659,415.9,659.2,416.1,659.5,416.4z"/>
<path class="st16" d="M650.1,354.7c-7.8-19.2-58.5-78.2-47.9-87.8c10.6-9.6,26,1.3,26,1.3s58.4,49.2,80.5,43s32.9-21.6,46.5-33.9
	S777,286,777,286s-3,81.9-8.5,106.3c-5.5,24.4-19.6,45.4-19.6,45.4c-42.8,20.1-80.9-5.1-91.3-13.1l-0.2-2.7
	C660.9,414.1,655.8,368.7,650.1,354.7z"/>
<path class="st15" d="M951.5,679.2c-3.8-1.6-278.8,54.5-373.8,2.1L951.5,679.2z"/>
<path class="st15" d="M643.8,503.5c0,0-42.1,111.9-67.5,177.7C576.3,681.3,635.9,566.9,643.8,503.5z"/>
<path class="st16" d="M750.1,437.7c0,0,192.9,146,202.8,241.6c-6.8,0.2-299.4,44.8-376.6,2c0,0,78.2-166.6,81.6-257.2
	C663.6,425.3,696.8,462.7,750.1,437.7z"/>
<path class="st17" d="M528.3,694.4c-1-7.2-12.5,92.3-1.9,103.9l-15-4.3L528.3,694.4z"/>
<path class="st17" d="M888.6,690.7c-1.3-3.4,13.6,63.7,9.4,90.2c0,0,8.1-1.8,9.7-5.3S900.2,721.6,888.6,690.7z"/>
<path class="st17" d="M487.6,777.6c0.1-2.2-32.3-6.6-22.7-54.7c0,0-7.2,43.1-9.6,48.1L487.6,777.6z"/>
<path class="st17" d="M577.1,456.1c0,0-84.8,105.2-101.2,145.7l-53,107.5c0,0-12.4,16.8,5.5,35c-2.1-1.6-22.9-5.5-22.9-5.5
	s39.2-91.5,56.5-119.6c17.3-28.1,56.2-99.4,72.4-118.1C550.5,482.3,577.1,456.1,577.1,456.1z"/>
<path class="st17" d="M465.4,757c-0.4,4.2-11.6-16.4,22.3-101c33-82.4,32.3-68.2,32.3-68.2S469.9,710.1,465.4,757z"/>
<path class="st17" d="M936.6,766.9c0,0,7.7-9.3,1.2-45.3l-10.7-38.2c0,0,22.2,72.3,23.5,85L936.6,766.9z"/>
<path class="st17" d="M562.5,806.6c0,0-49.7-19.3-21.8-136.7c27.9-117.4,37.9-133.8,37.9-133.8s-37.3,72-49.6,156.4
	S518,797.2,518,797.2L562.5,806.6z"/>
<path class="st17" d="M695.5,276.1c0,0-10.8-8.9-10.5-15.4C685.1,260.8,689,269.7,695.5,276.1z"/>
<line class="st18" x1="653.2" y1="423.8" x2="653.4" y2="423.9"/>
<path class="st17" d="M569.3,342.6c-4.4-5.3-6.7-9.4-8.4-20.6c-2.2-14.8,0.8-15.6,0.8-15.6c-0.1,1.3,1.5,21.7,4.4,26.7
	s9.6,12.6,13.9,15c4.3,2.4,16.7,10.7,29.9,7.5c13.2-3.2,15.1-9.8,15.1-9.8s-8.9,12.6-10.5,13.2c-1.6,0.6-6.8,3.2-16.6,0.8
	s-15.8-2-23.7-11.3C572.3,346.2,570.7,344.3,569.3,342.6"/>
<path class="st17" d="M631.9,353.1c0.2,1.6,16.6,57.5,16.2,60.4c-0.5,2.8-10.2,7.5-10.2,7.5s5.1-1,4.8-7.1c-0.3-6.1-8-32.9-8-32.9
	l-7.2-23L631.9,353.1z"/>
<path class="st17" d="M788.1,268.5c-1.3-1.1,34.6,16.5,13.8,45.5C802.5,311.2,815.4,291.2,788.1,268.5z"/>
<path class="st2" d="M558,433.2l98.7,74l9.5-14.4c0,0-69-56.8-72.1-58.9C591,431.9,558,433.2,558,433.2z"/>
<path class="st2" d="M824.2,404.9c0,0-4.2,17.2-18,34.6c-13.8,17.4-29.5,37.2-35.9,43.6c-6.3,6.3-6.3,6.3-6.3,6.3l-16.5-8.3
	l45.1-69.9L824.2,404.9z"/>
<path class="st19" d="M664.3,495.3c0,0-62.3-61.5-88.4-63.6l-11.8-0.3"/>
<path class="st20" d="M596.7,438.7c0,0-16.4-7.6-19.9-7.3c-3.5,0.3-5.5,0.4-5.5,0.4s10.7,0.6,23.2,8.2L596.7,438.7z"/>
<path class="st20" d="M564.9,369.5c-7.5,24.1-8.1,59.1-8.1,59.1s0,0,2.1-12.4c1.4-8.4,8-45.9,12.6-69.5l-1.7-1.4L564.9,369.5z"/>
<path class="st2" d="M792.6,412.1c0,0-41.7,53.7-45.1,69l6.4,2.4L792.6,412.1z"/>
<path class="st20" d="M803.4,406.4c-1.3-0.5-8.4,2.5-16.1,12.2c-7.8,9.7-23.1,33.2-23.1,33.2s-12.6,21.5-18,32.5l4.7-2.6
	c0,0-0.6-16.8,42.1-67.1L803.4,406.4z"/>
<path class="st20" d="M803.6,307.5c0,0,18.4,92.2,18.2,95.1c-0.1,2.9-7.4,21.4-7.4,21.4l-28,40.1l21.4-25.8c0,0,11.5-20.4,13.1-24.9
	s4.5-7.3,3.7-10.7c-0.7-3.4-18.3-93.9-18.3-93.9l-0.7-4.6L803.6,307.5z"/>
<g id="hand_x5F_:">
	<path class="st2" d="M764.2,489l-18-9l-8.2,6.2l-11.1,0.1l-4,1.9l-0.6,2.9l-10.9-1l0.8,3.2l6.1,1.1l10.4-2.1l3.3,0.8
		c0,0-1.1,2.5-2.8,3.3s-8.1,4.4-8.1,4.4l-10.5,0.3c0,0-1.6-1.2-4.7,0.5c-3.1,1.7-3.8,3.1-3.8,3.1l5.1,2c0,0,1.6,1.3,5.5,1.9
		c3.9,0.5,14.6-0.3,14.6-0.3l7.3-3.9l14.2-7.9l12.7-6.1L764.2,489z"/>
	<g>
		<path class="st20" d="M763.6,489.3c1.5-0.4-24.3,12.4-28.4,14.4c-1.6,0.8-3,1.9-4.2,3c-2,1.6-3.9,3-6.8,2.7
			c-4.9-0.6-18.9,0.3-18.7-1.5c0.2-1.8,4-3.6,6.6-3.3c2.6,0.3,10.8-0.1,13.7-1s11.9-5.5,13.5-8c1.6-2.6,1.6-4.7,1.6-4.7
			s0.2,6.8-2.3,7.5c-2.6,0.7-10.1,8.6-17.2,7.4c-7.1-1.2-14-0.1-14,1c0,1.1,9.9,1,11.8,1.5c2,0.5,8.4,0.9,19.2-7
			C739.1,501.5,761,490.1,763.6,489.3z"/>
		<path class="st20" d="M706.9,505.6c0,0-7.4,0.9-6-1.1c1.5-2.1,6.1-4.7,8.6-4.1c2.5,0.6,12.6,0.8,15.3-0.1c2.7-1,8.2-5,9-5.6
			c0.8-0.6-3.6,3.2-6.3,4.7c-2.8,1.5-8.2,3.7-13.2,2.5c-5-1.2-5.9-1.4-8.3-0.1c-2.4,1.3-4.5,2.4-3.8,3.1S706.9,505.6,706.9,505.6z"
			/>
		<path class="st20" d="M720.5,500.8c0,0,9.3-4.5,10.1-6.4c0.8-1.9-2-2.4-5.3-1.3c-3.3,1.1-9.7,2.8-13.2,0.1
			c-3.4-2.7-1.8-4.4,0.8-3.8c2.5,0.6,6.4,2.9,8.1,0.9c1.7-2,3.6,0,1.3,0.8c-2.3,0.8-7.9-0.5-9.2,0s0,2.1,2.3,2.7
			c2.2,0.5,8.7-2.5,11-1.9s8.9,0.2,6.1,2.8C729.5,497.1,720.5,500.8,720.5,500.8z"/>
		<path class="st20" d="M738.2,490.5c3.5-0.6,8.2-0.5,8.2-0.5S742.2,490.4,738.2,490.5z"/>
		<path class="st20" d="M764.1,479.6c1.6,0.6,2.7,1.1,2.7,1.1S765.6,480.3,764.1,479.6z"/>
		<path class="st20" d="M723.3,487c4-1.5,7.6-1.7,10.1-0.8c2.5,0.8,8.2-2.9,10.8-4.4c2.1-1.3,2.7-2.6,5.5-3.4l-0.7,2.3
			c-2.5,1.2-4.9,2.5-6.3,3.4c-2.9,2-4.9,3.9-8.3,3.1c-3.4-0.8-6.7-0.5-8.1,0.2c-1.4,0.7,1.8,2.3,4.6,3c1.2,0.3,4.3,0.3,7.4,0.2
			c-0.2,0-0.4,0.1-0.6,0.1c-3.5,0.8-7.6,1.7-10.6-0.4C723.9,488.2,719.4,488.5,723.3,487z"/>
	</g>
</g>
<g id="hand_x5F_:_1_">
	<path class="st2" d="M652.5,504.2l14.6-12.5l10.5,4.1l11.2-3.2l4.7,0.8l1.6,2.9l10.7-4.4l0.3,3.6l-5.8,3.1l-11.2,1l-3.1,1.9
		c0,0,2,2.4,4,2.7c2,0.3,9.7,2.2,9.7,2.2l10.7-2.8c0,0,1.1-1.8,4.9-0.9c3.8,0.9,5,2.1,5,2.1l-4.5,3.7c0,0-1.1,1.9-4.9,3.7
		c-3.8,1.8-14.9,4.1-14.9,4.1l-8.8-2l-17.2-4l-14.8-4.1L652.5,504.2z"/>
	<g>
		<path class="st20" d="M653.4,505c-6.8-1,26.7,7.6,33.3,8.7c1.9,0.3,3.7,1.2,5.4,1.9c2.6,1.1,5,2,7.9,0.7
			c4.7-2.2,19.2-5.4,18.4-7.3c-0.8-1.9-5.3-2.6-7.8-1.5c-2.5,1.2-10.9,3.2-14.2,3.1s-14-2.2-16.5-4.4c-2.5-2.2-3.3-4.5-3.3-4.5
			s2.1,7.3,5,7.2c2.9,0,13.2,6,20,2.6c6.8-3.4,14.1-4.4,14.5-3.3c0.4,1.1-9.6,4.1-11.4,5.2s-8.2,3.6-21.9-1.5
			C681.9,512.5,656.2,505.4,653.4,505z"/>
		<path class="st20" d="M715.8,507.1c0,0,7.8-1.3,5.6-3c-2.2-1.7-7.8-3.2-10.1-1.8c-2.3,1.4-12.4,4.8-15.5,4.5
			c-3-0.2-10.1-2.8-11.1-3.2c-1-0.4,4.7,2.3,8,3c3.3,0.7,9.5,1.4,14.2-1.4c4.7-2.8,5.5-3.3,8.4-2.7c2.9,0.6,5.4,1.2,5,2.1
			S715.8,507.1,715.8,507.1z"/>
		<path class="st20" d="M700.5,506.1c0,0-11-1.9-12.5-3.8c-1.5-1.8,1.2-3.1,4.9-3s10.8,0,13.3-3.9c2.5-3.9,0.2-5.3-2.1-3.9
			c-2.3,1.4-5.4,5-7.9,3.4c-2.5-1.6-3.6,1.1-1,1.3c2.6,0.1,7.8-3,9.3-2.9c1.5,0.1,0.7,2.3-1.3,3.5s-9.7,0-11.8,1.3
			c-2.1,1.3-8.9,3-5.2,4.8C690,504.9,700.5,506.1,700.5,506.1z"/>
		<path class="st20" d="M679,500.6c-3.7,0.4-8.5,2-8.5,2S674.8,501.7,679,500.6z"/>
		<path class="st20" d="M648.9,496.9c-1.4,1.1-2.4,2-2.4,2S647.6,498.1,648.9,496.9z"/>
		<path class="st20" d="M692.7,492.3c-4.5-0.3-8.3,0.6-10.5,2.2c-2.2,1.7-9.3-0.5-12.4-1.4c-2.6-0.7-3.7-1.9-6.8-2l1.5,2.3
			c2.9,0.5,5.9,1.1,7.6,1.7c3.7,1.2,6.4,2.6,9.5,0.8c3.1-1.9,6.6-2.6,8.3-2.3c1.7,0.4-1,3-3.6,4.5c-1.1,0.7-4.2,1.6-7.4,2.4
			c0.2,0,0.4,0,0.6-0.1c3.8-0.2,8.3-0.6,10.6-3.7C692.6,493.8,697.2,492.6,692.7,492.3z"/>
	</g>
</g>
<g>
	<path class="st21" d="M796.6,95.3c0,0,13.1,3.3,8.4,20.6s-12.1,25.7-12.5,35.7c-0.5,10,10.6,30.9,7.1,47.3s-16.4,32.3-18.3,41.2
		s-3.8,14.5-3.8,14.5l-32.3-3.1l-7-15.5l47.3-139.7C785.5,96.3,796.5,94.6,796.6,95.3z"/>
	<path class="st22" d="M789.4,139.5c0,0,3-41.6-11.7-47.3c-14.8-5.7-56.1-11.5-70.9-3.9c-14.8,7.5-30.7,20.5-34.7,38.4
		c-4,17.8,0.4,51,0.4,51l13.4,31.8l33,20.9c0,0,13.5,5.9,19.4,5.7c5.9-0.2,14.1-7.4,15.4-12.3s14.4-18.7,18.7-21.4
		c4.2-2.6,11.7-23.6,11-36.8S789.4,139.5,789.4,139.5z"/>
	<path class="st23" d="M727.1,135.7l-6-0.5l-28.4,4.9l-3.7,4.4l20.7-4.5l16.7-2.2C726.4,138,728.5,136.7,727.1,135.7z"/>
	<path class="st24" d="M696.2,161.3l26.9-3.6c1.5,1,2.5,2.2,2.7,3.7c0.7,4.4-5.9,9.1-14.6,10.4c-8.7,1.3-16.3-1.2-17-5.6
		C694,164.5,694.7,162.8,696.2,161.3z"/>
	<path class="st24" d="M755.7,157.4l23.4-3.8c1.4,1,2.3,2.3,2.5,3.8c0.7,4.4-4.8,8.9-12.3,10.1c-7.5,1.1-14-1.6-14.7-6
		C754.4,160.1,754.8,158.7,755.7,157.4z"/>
	<path class="st17" d="M772.8,154.9c0,0,3.9,5,2.4,8.3c-1.2,2.6-0.1,3.9-5.9,4.3c-5.8,0.4-8-0.6-8-0.6s-2.9-8.2-0.2-10.2
		S772.8,154.9,772.8,154.9z"/>
	<path class="st17" d="M714.1,159.1c0,0,5.9,6.4,3.4,9.4c-2.5,3-7.7,3.8-7.7,3.8l-8.1-0.8c0,0-6.6-4.3-1-11.1L714.1,159.1z"/>
	<path class="st23" d="M786.3,136.6c0,0-6.5-8-14.9-6.7c-8.4,1.3-10.9,2.6-10.9,2.6l-4.4,1.7l4.2,3.4c0,0,4.8-3,10.9-2.6
		c6,0.4,12.3,2.1,14.2,3.8C787.2,140.5,786.3,136.6,786.3,136.6z"/>
	<path class="st20" d="M749.8,176.2c0,0,6.6,4,5.8,7.4c-0.8,3.4-6.1,3.2-6.1,3.2S760.8,185.5,749.8,176.2z"/>
	<path class="st20" d="M743.2,187.5c0.8,0.5-3.8-1.1-5,0.1c-1.2,1.2-1.2,1.2-1.2,1.2S735.6,183,743.2,187.5z"/>
	<path class="st25" d="M751.5,205.2c0,0,3.5-5.2,0.3-6.7c-3.2-1.5-10.5,0.6-12.8,0.9c-2.3,0.3-8.4,3.6-9.7,3.8
		c-1.3,0.2-0.3,4.7-0.3,4.7s5.2,1.2,8.8-1.3c3.6-2.5,8.4-3.9,8.9-2.3S748.7,206.6,751.5,205.2z"/>
	<path class="st25" d="M749.8,207.1c0,0,1.4,9.1-6.8,10c-8.2,0.9-9.4-0.9-11.4-2.9s-2.6-6.2-2.6-6.2l8.8-1.3c0,0,3.9,8,9.9-0.2
		L749.8,207.1z"/>
	<path class="st21" d="M645.3,83.9c0,0-63.5,86.6-97,93.1c-33.5,6.5-46.9-2.6-46.9-2.6l-6.1-10.9c0,0-8.6,17.6-0.2,28.9
		s52.7,26.2,69.7,19.9c17.1-6.3,44.5-33.4,44.5-33.4l70.3-77L645.3,83.9z"/>
	<path class="st18" d="M658.7,192.2c-1.8,0.9-23.8,22.8-38,29.6c-14.2,6.8-23.5,6.8-25.2,17.7c-1.7,10.9-19.2,22.1-28.7,25.5
		s-37.9,8.3-40.2,23.9c-2.3,15.6-1.8,18.8-1.8,18.8s-11.3-40.1-3.3-48.6c8-8.5,22.9-19.4,41.8-30.8c18.8-11.4,33.5-46.1,40.6-56.5
		c7.1-10.3,42-29.5,41.6-27.5C645.2,146.5,658.7,192.2,658.7,192.2z"/>
	<path class="st21" d="M801.6,98.9c0,0,15.1-42-38.9-57.7c-54.1-15.7-77.9-10.9-77.9-10.9s-37.7,18.5-39.7,18.2s-9.6,11.2-9.6,11.2
		l1.1,11.4L801.6,98.9z"/>
	<path class="st21" d="M661.7,194.5c0.6,3.9-5,24-24.2,28.8c-19.2,4.9-32.3,1.5-42,16.3c-9.7,14.7-12.5,18.4-28.7,25.5
		c-16.2,7.1-29.3,3.7-29.3,3.7s-11.3,13-9.8,27.3s1.5,14.4,1.5,14.4s-12.7-31.9-11.7-42.7c1-10.8,6.1-25.4,14.9-28.8
		c8.8-3.3,23.2-17.4,23.2-17.4l89.6-101L661.7,194.5z"/>
	<path class="st21" d="M679,212.4c0,0,7.9,12.7-8.8,29.8s-34.7-1.4-47,18.3C611,280.3,608,296,610,309c1.9,13,4.3,28.5,4.3,28.5
		s-21.3-53.8-23-69.5s3.8-32.4,3.8-32.4s56.3-66.8,56.6-64.8C651.8,172.7,679,212.4,679,212.4z"/>
	<path class="st21" d="M776.9,100.4c-2.2-0.1-7.6-16.4-18.4-9.8c-10.9,6.6-19.3,23.5-32.7,26c-13.3,2.5-24.3,5.8-38.1,3
		s-18.8-8.3-33.1-9.7c-14.2-1.3-31.2,1.3-43.7,10.4c-12.5,9-25.1,30.2-35.2,40S548.5,185,532,193c-16.4,7.9-21.8,9.9-21.8,9.9
		s58.5-37.5,60.8-49.5c2.3-12,30.8-49.1,30.8-49.1s21.8-31.5,42.6-33.7c20.7-2.2,54.9-3.6,61.2-1.7c6.3,1.9,66.7-24.6,83.3,5.1
		c0,0,8.2,12.9,7.3,18.5C795.4,98.1,787.2,100.7,776.9,100.4z"/>
	<path class="st21" d="M680.3,150.6c1,2.5-1.1,14.8,0.2,27.8s5.5,23.7,6.2,36.9c0.7,13.2-1.3,22.1-5.7,32.7s-4.4,10.6-4.4,10.6
		s9.9-35.3,0.7-48.5c-9.3-13.2-16.7-18.7-23.2-31c-6.5-12.3-9.3-31.1-9.3-31.1l35.7-5.4L680.3,150.6z"/>
	<path class="st0" d="M735.7,104.4c0,0,5.6,11.1-5.1,23.3s-34.6,21.1-43.8,21.8c-9.2,0.7-36.6-1.1-46.1,2.3
		c-9.4,3.4-30.9,10.6-36.8,20.1c-5.9,9.5-16.4,36.3-16.4,36.3s-2.9-46,4.4-54.4c7.4-8.4,31.9-30.6,42-33.5
		c10.2-2.9,42.6-12.4,47.8-17.1C687.1,98.5,735.7,104.4,735.7,104.4z"/>
	<path class="st6" d="M705.6,167.4c0.7,1.8,2.9,2.7,4.9,2c2-0.7,3.1-2.7,2.4-4.5c-0.7-1.8-2.9-2.7-4.9-2S704.9,165.6,705.6,167.4z"
		/>
	<circle class="st6" cx="768.4" cy="161.7" r="3.6"/>
	<circle class="st5" cx="765.6" cy="160.1" r="1.5"/>
	<path class="st5" d="M705.2,165.1c0.4,0.9,1.5,1.4,2.5,1c1-0.3,1.6-1.4,1.2-2.3c-0.4-0.9-1.5-1.4-2.5-1
		C705.4,163.2,704.8,164.2,705.2,165.1z"/>
	<path class="st26" d="M680.3,150.6c0,0,2.1,25.6,2.5,30.6c0.4,5,2.1,14.2,2.5,16.5s4.4,22.6,3.2,27.8c-1.2,5.2-11.8,33.1-11.8,33.1
		s12.2-29.8,10.1-43.3c-2.1-13.5-7-45.8-6.4-48.2S680.3,150.6,680.3,150.6z"/>
	<path class="st26" d="M795.2,94.8c0,0-19.4-26.1-27.6-26.5c-8.2-0.5-38-1.7-42.4,0.6c-4.4,2.3-30.1,8.2-38.1,9.1
		c-8,0.9-39.1,2.2-45.7,3.2s-44.8,29.3-49.5,36.4s-6.9,7.8-6.9,7.8s26.6-40.7,42.8-49.6s55-8.6,55-8.6s28.7,0.4,29.7,0.3
		c1-0.1,35.9-8.1,39.5-8.3c3.7-0.2,21.3,0.5,25.4,2.9s10.5,6.9,12.4,10.6s7.6,12.7,7.8,15.7s-1,6.9-1,6.9L795.2,94.8z"/>
	<path class="st26" d="M771.1,93.4l-14.4-1.5C756.7,91.8,764.3,83.9,771.1,93.4z"/>
	<path class="st26" d="M662.8,112.7c1,0-42.8,17.9-47.1,25.6c-4.2,7.7-19.9,11.4-22.3,19.9c-2.4,8.5-6.3,48.1-6.3,48.1
		s-3.2-41.3,2.6-49.9s30-29.4,30-29.4S645.6,113.2,662.8,112.7z"/>
	<path class="st26" d="M648.9,171c-1.5,1.2-55,60.2-56.1,66.4s-5.9,21.1-2.9,29.8c3,8.7,20.9,65.3,24.9,73.5
		c3.9,8.2-17.3-61.4-17.3-61.4s-12.7-28.8,6.6-50.2s41.9-37.3,41.9-37.3l8.1-12.7L648.9,171z"/>
	<path class="st26" d="M649.6,150.7c0,0,3.4,16,7.1,24.9c3.7,8.9,16.7,26.1,16.7,26.1l7.1,15.8l1,2.2l-0.4,17.6l-1-17.7l-10.3-19.3
		c0,0-9-8.1-12.5-14c-3.6-5.9-9-17.5-9.8-22.5c-0.7-4.9-2.7-13.4-2.7-13.4L649.6,150.7z"/>
	<path class="st26" d="M586.4,192.6c0,0-26.8,28-30.3,31.9c-3.5,3.9-19.2,16-23.4,19.4c-4.2,3.3-11.9,12.9-11.9,21.7
		c0,8.8,8.4,45,8.4,45S518,282.4,517.9,279c-0.2-3.3-1.7-13.6,0.4-19.9c2.1-6.4,6.4-15.8,9.1-17.9c2.7-2.1,8.9-3.4,15.3-10.4
		c6.4-7,22.5-18.2,24.6-22.2s19.4-23.5,19.4-23.5L586.4,192.6z"/>
	<path class="st26" d="M661.4,110.2c0,0-39.6,0.9-45,5.4c-5.4,4.5-22,21.8-22,21.8s-25.3,31.4-31.2,36.7
		c-5.9,5.3-27.9,18.4-27.9,18.4l-25,10.4l41-22.9c0,0,21.5-18.4,24.1-23.5c2.6-5.1,22.3-26.3,25.9-31.5c3.6-5.3,9.6-10.2,14.3-12.6
		c4.7-2.4,14-3.1,21.3-6.6c7.2-3.4,25.9-4.9,25.9-4.9L661.4,110.2z"/>
	<path class="st26" d="M784.2,81.6c0,0,10.3,7.9,1.3,8.6c-9,0.7-20.2-6.7-20.2-6.7s-8.9-5.1-13.4,0.3c-4.6,5.4-17,12.7-26.3,20.5
		c-9.3,7.8-33.9,23.6-42.6,26c-8.8,2.3-10.7,5.3-10.7,5.3s7.4,22.5,8.1,31.5s2.1,20.9,2.3,19.9c0.2-1-2.7-38.4-2.7-38.4
		s5.7,2.2,11.5,0.3c5.8-1.9,17.8-5,24.2-9.7c6.4-4.7,18.5-9.5,20.5-23s19-21.4,19-21.4s13.9-3.8,16-1.4s5.8,7.1,5.8,7.1
		s13.4,1.5,15.8-2.2c2.5-3.7,0.6-9.5,0.6-9.5L784.2,81.6z"/>
	<path class="st26" d="M672.3,135.5c0,0-5.2,1.5-1.3,13.7c3.9,12.2,8.9,18.9,9.6,25.5s1.2,8.2,1.2,8.2l-4.2-41.5L672.3,135.5z"/>
</g>
<circle class="st27" cx="706.3" cy="192.5" r="6.7"/>
<path class="st27" d="M776.8,182.6c1.4,0.1,2.7,0.6,3.8,1.4l-3.5,11.9c-0.3,0-0.6,0-0.9,0c-3.7-0.2-6.5-3.3-6.3-7
	C770,185.2,773.2,182.4,776.8,182.6z"/>
<path class="st20" d="M778.9,152.7c0,0-16.7-2.4-23.3,4.7L778.9,152.7z"/>
<path class="st20" d="M723.1,157.7c0,0-17.9-2.5-26.9,3.6L723.1,157.7z"/>
<path class="st0" d="M745.2,251.5c0,0,13.1-0.5,10.6,17.5s-10,34-10,34s23-13.5,29-24.5s6.5-38.4,6.5-38.4L745.2,251.5z"/>
<path class="st0" d="M745.2,251.5c0,0,14.4,13.1,6.4,35.8c-8,22.7-14.7,26.7-14.7,26.7s34.7-24.7,37.3-33.3c2.7-8.7,0-35.3,0-35.3
	L745.2,251.5z"/>
</svg>
