<svg xmlns="http://www.w3.org/2000/svg" viewBox="0 0 549.21 1042.13"><defs><style>.cls-1,.cls-22{fill:#fbcf58;}.cls-2{fill:#dbc2ad;}.cls-20,.cls-3{fill:#d7b49d;}.cls-4{fill:#e0e0e0;}.cls-5{fill:#ccc;}.cls-6{fill:#eee;}.cls-14,.cls-16,.cls-7,.cls-9{fill:#111;}.cls-8{fill:#252222;}.cls-9{stroke:#252525;}.cls-10,.cls-13,.cls-14,.cls-15,.cls-16,.cls-20,.cls-22,.cls-9{stroke-miterlimit:10;}.cls-10,.cls-19{fill:none;}.cls-10{stroke:#252222;}.cls-11{fill:#252525;}.cls-12,.cls-13,.cls-15{fill:#0096c1;}.cls-13{stroke:#04b2d9;}.cls-14{stroke:#0096c1;}.cls-15,.cls-16{stroke:#111;}.cls-17{fill:#f2f2f2;}.cls-18{fill:#04b2d9;}.cls-20{stroke:#e0c09c;}.cls-21{fill:#e0c09c;}.cls-22{stroke:#f4c756;}.cls-23{fill:#e7cfb4;}.cls-24{fill:#222;}.cls-25{fill:#fff;}.cls-26,.cls-28{fill:#ca9a93;}.cls-27{fill:#f4c756;}.cls-28{opacity:0.14;isolation:isolate;}</style></defs><title>Asset 1</title><g id="Layer_2" data-name="Layer 2"><g id="Layer_1-2" data-name="Layer 1"><polygon class="cls-1" points="372.77 225.49 371.37 234.29 340.47 222.39 345.27 214.09 372.77 225.49"/><path class="cls-2" d="M329,201s-.9,44.1,1.6,53.5-8.4,8.6-21.3,2-29.6-17.5-33.8-31.5,12.3-54.3,12.3-54.3S307.77,195.59,329,201Z"/><path class="cls-3" d="M209.57,295.29c1.5,2.8-19.3,110.6-19.3,110.6l-35.1.7s-11.5-5.3,20-132Z"/><path class="cls-3" d="M397.27,257.69c-2.6.7,22.6,124.4,22.6,124.4l-30.7,6.5c-4.9,3.3-23.7-94.6-23-116.4C366.87,250.69,397.27,257.69,397.27,257.69Z"/><path class="cls-4" d="M390,742.09c0,2.8-.6,81.7-16.8,117.7s-28.4,51.6-28.5,68.3,2.8,25.1,2.8,25.1l-36,1.4s-8.3-102.2-1-147.6,13.5-67.6,13.5-67.6Z"/><path class="cls-4" d="M283.27,958.79s1.4-40.9,5.9-59.6,31.5-114.3,31.7-143.5c0,0-62.1-35.9-84.2-15.1s7.6,166.3,9.7,174.5,7.5,16.5,4.2,24.6S283.27,958.79,283.27,958.79Z"/><path class="cls-5" d="M236.27,770.29c0,5.1-.3,41.8,4.1,51.6s5.4,13.5,2.9,20.5-1.3,45.9-1.3,45.9-6.7-38.1-8.2-47.9-4.2-40.4-4.6-53.4-.3-21.4-.3-21.4Z"/><path class="cls-5" d="M379.67,772.69c-.5,4-2.4,42.5-2.4,42.5-.5-1.5-15.1-42.2-33.1-36.3a51.57,51.57,0,0,0-21.7,13l-10.9-12.2C321.17,772.69,380.27,768.89,379.67,772.69Z"/><path class="cls-5" d="M316.27,769c0,1.4-16.5,70.3-19.6,80.5s-8.8,39.8-10.9,50-1.2,25-1.2,25,2.7-27.8,7.3-39.8,16.5-64.8,16.5-64.8l9.9-50.9Z"/><path class="cls-5" d="M295.67,852.69c-1,1.4-17.3,62.4-25.3,70.7a46.71,46.71,0,0,0-10.8,17.8L247,956.49s35.9,7.4,36,6,.3-39.9,1.8-46.4S295.67,852.69,295.67,852.69Z"/><path class="cls-5" d="M387.17,784.29s-10.4,61.6-15.5,69.9-15.2,28.1-18.2,35-6.2,22.7-6.2,22.7,17.8-38.8,21.3-45.7,10.2-27.7,12.8-35.6,6.3-48.2,6.3-48.2Z"/><path class="cls-5" d="M380.67,773.79c.6,3.1-20,100-20,100-4.7,11.7-6.1,17.9-6.1,17.9s23.7-45.5,27.9-77,3.7-47,3.7-47Z"/><g id="left_converse"><path class="cls-6" d="M304.67,957.19c-1.6-.7-19-.5-21,.1s-.9,1.3-.9,1.3,5.8.1,8.5,1.1,1.8,2.1,5.5,1.4a36.2,36.2,0,0,1,8.6-.2Z"/><path class="cls-7" d="M412.57,1007.39s4.4-.4,3.8.8-4.2,1.8-5.9,2.8-9.6,3.7-12.8,2.4-14.7-3.3-16.9-4.1-13.2-1.3-15.1-2.5-12.6-4.3-12.6-4.3Z"/><path class="cls-6" d="M345.17,927.29s10.1,5,10.6,8.8,1,14.9,1,14.9l-2.5-3.4s.3-5.8-.3-8.5-8.4-9.8-8.4-9.8Z"/><path class="cls-6" d="M401,980.09s-16.9,1.4-25.9,15.4c0,0,.7,3.3,15.9,3s17,1.5,21.1-2,5.7-4.8.4-9A72,72,0,0,0,401,980.09Z"/><path class="cls-8" d="M401,980.09c-.8-.5-22.4-9.9-25.6-12.4s-9.8-8.1-12.7-10.5-11.8-12.4-13.7-18.4-2.1-14.2-1.3-16.2c2.1-5.3-7.2-4.2-12.1-2.2-3.1,1.2-7.8,2.2-9,2.6s16.8,41.1,23,48,25.6,24.5,25.6,24.5Z"/><path class="cls-7" d="M309.07,921.79c.5,1.6.4,18.7-1.9,26.7s-4,8.3-1.9,11.3,33.7,22.7,37.1,25,23,9.9,31.2,10.7c0,0,2.9-9.3,2.2-11.9s-5.9-8.4-8.9-10.1-17-14.4-20.9-18.1-9.4-10.8-9.8-14.7-.6-5.3.1-8.8,2.7-4.3-1.1-5.5-12.6-2.4-15.3-2.9-7.4-2.1-8.4-3C309.57,918.39,309.07,921.79,309.07,921.79Z"/><path class="cls-9" d="M332.37,921.29s-5.9-3.1-9.8-3.5-13.5.1-13.6,1.4,1.5,2.2,4.8,3,13.4,2.2,13.4,2.2Z"/><path class="cls-6" d="M416.07,992.39s4.6,8.3-.6,12.9-11.7,7.3-27,5.3a307.22,307.22,0,0,1-39-8.7l1.7-12.6s23.9,8.2,33.2,9.1,16.8,1.3,19.3.5S412.77,997.49,416.07,992.39Z"/><path class="cls-6" d="M305.67,959.89c0,.9,0,6.6,2.3,10s16.1,9.8,20.5,14.6,10.7,11.7,20.9,17.4l1.7-12.6s-15.5-9.5-18.5-11.6-13.9-8.6-16.9-10.9A121.27,121.27,0,0,0,305.67,959.89Z"/><ellipse class="cls-10" cx="329.37" cy="932.76" rx="2.1" ry="2.7" transform="translate(-618.28 1216.45) rotate(-87.22)"/><g id="holes"><ellipse class="cls-10" cx="365.19" cy="981.17" rx="2.4" ry="3" transform="translate(-632.55 1298.29) rotate(-87.22)"/><ellipse class="cls-10" cx="337.85" cy="956.78" rx="2.1" ry="2.7" transform="translate(-634.21 1247.78) rotate(-87.22)"/><ellipse class="cls-10" cx="333.21" cy="949.63" rx="2.1" ry="2.7" transform="translate(-631.48 1236.34) rotate(-87.22)"/><ellipse class="cls-10" cx="343.17" cy="963.9" rx="2.1" ry="2.7" transform="translate(-636.26 1259.87) rotate(-87.22)"/><ellipse class="cls-10" cx="357.41" cy="975.74" rx="2.4" ry="3" transform="translate(-634.53 1285.36) rotate(-87.22)"/><ellipse class="cls-10" cx="349.43" cy="969.91" rx="2.4" ry="3" transform="translate(-636.3 1271.83) rotate(-87.22)"/></g><path class="cls-6" d="M390.07,974.29c-.8-.3-8.5-6.9-32.2-1.5l1.9,3.1s11.4-5.1,23.7-3S390.07,974.29,390.07,974.29Z"/><path class="cls-6" d="M350.27,967.59a58.61,58.61,0,0,1,21.7-1.2l3.4,3s-13.5-2.4-23.3.6Z"/><path class="cls-6" d="M365.27,962.29c-1.1-.3-9.8-1.8-15.5.3s-4.8,1.5-4.8,1.5l-1.8-2.4s10.7-4.4,15.1-3.5a16.26,16.26,0,0,1,7,3.2Z"/><path class="cls-6" d="M340.47,956.89l-1.8-2.1s11.7-4.6,16.3-2.4l-2.6,2.3A48.5,48.5,0,0,0,340.47,956.89Z"/><path class="cls-6" d="M334.77,950.49l-.6-2.8s7-2.3,13.3-.5l-1.2,1.9s-8.3.9-10.8,1.4S334.77,950.49,334.77,950.49Z"/><path class="cls-6" d="M351.47,945.89s-15.1-6.4-19.7-3.6,1.3-3.9,1.3-3.9,16.5,1,17.2,3.2S351.47,945.89,351.47,945.89Z"/><path class="cls-6" d="M341.17,932.69l-5.2-1.8s-1.7,1.7-1.8,2.3,4.1,1.3,4.1,1.3Z"/><path class="cls-11" d="M356.27,991.29c1.8-1.6-2.5,11.1-3.2,11.9S355.67,991.89,356.27,991.29Z"/><path class="cls-11" d="M418.77,999.79s-10.5,12-56.6.5C363,1001.19,404.57,1012.89,418.77,999.79Z"/><path d="M415.67,990.39s-2.8,6-8.6,7.2-20.5,1.2-24.3.4a39.68,39.68,0,0,1-7.6-2.6s4.1,5.9,27.1,4.6C402.17,1000.09,414.37,999.59,415.67,990.39Z"/><path d="M401.27,979.59l-26.1,15.2S395.17,980.19,401.27,979.59Z"/><path class="cls-7" d="M396,978.09c-.7-.1-12.3-3-13.7-4.1s-13.1-9.6-13.8-11-11.4-9.1-14.3-14.2-6-12.2-6-12.2,5.7,13.7,13.1,19.4,13.5,10.8,15.2,11.8"/><path class="cls-6" d="M381.17,969s-1.5-2.9-4-2.2-5.4,3.2-7.7,5.8-4.9,4.8-5.8,6.3,3.8,1.3,3.8,1.3,7-7.5,9-9.2S379.27,968.69,381.17,969Z"/><path class="cls-6" d="M373.17,963.79s-2.6-3-3.7-2.6-7.8,7.9-7.8,7.9l2.6,2.3Z"/><path class="cls-6" d="M364.87,959s.1-3.1-2.6-2.8c0,0-3.6,5.3-7,7.5l2.6,2.3Z"/><path class="cls-6" d="M359.57,954c-.8.4-8,6-8,6l-3.5-2.6,8.6-6.4Z"/><path class="cls-6" d="M352.77,944.39s2.9,2.3,1.5,3.1a47.56,47.56,0,0,0-5.2,4.6l-5.6.8-1.1-.9Z"/><path class="cls-6" d="M348.47,938.69c-.7.3-9.7,4-10.3,5.7s1.5,2.3,1.5,2.3,11.4-5.3,11.5-6.6S351,937.79,348.47,938.69Z"/><path class="cls-6" d="M346.77,929.19c-1.4.8-10.7,6.9-10.7,6.9l.1,2.9,1.9.5,10.7-8Z"/><path class="cls-6" d="M341.17,932.69c-.2-.9.8-4.3-2-4.3s-4.4-.2-5.9,1.5-4.1,4.6-5.9,13.3-2.9,25.7-3.8,27.4.3,11.4-1.5,12.9-4.5,1.3-8.4,2.4-4.4-.7-8.4,2.2a10.27,10.27,0,0,0-3.6,10.8c1,2.5,7,3,6.6,1s-5,.2-4-2.4,0-5.9,5-7,16.4-1.8,17-4.4,1-21.2,1.7-24.2,3.8-20.8,5.3-23.4a7.38,7.38,0,0,1,.8-5.2,5.54,5.54,0,0,1,4.5-2.2l-.1,1.3Z"/><path d="M338.77,931s-4.3-.9-5.3,4.4-2,11.6-2.6,12.7-2.8,15.8-3,16.8-.4,16.5-1.1,18.1-.2,3.5-.9,3.9-3,1.3-3,1.3,2.7.3,3.3-7.9c0,0,.8-8.7,1.1-10.6s.6-8.7,1.6-13.8,2.7-13.2,3.1-15.3.5-7.1,1.3-7.8S335.27,930,338.77,931Z"/></g><path class="cls-9" d="M249.67,931.49c1.7-.7,10.2-1.5,13.6-2.8s-.2-.8,3.4-1.3,15.2,5.7,15.2,5.7-2.9,1.3-3.2,3-1.1,5.4-1.1,5.4l-23.1-.4s1.3-4.6.3-6.1S249.67,931.49,249.67,931.49Z"/><path class="cls-8" d="M277.67,941.39c-.5-1-7.1-5-10.2-4.9s-10.4.5-12.9,4.5-3.2,1.8-3.5,2.5-.6,30.5-.6,30.5l-12.4,34.1s36,.8,39.5,3.4,3.2,3.6,3.2,3.6Z"/><path d="M285.67,1029.49a14.41,14.41,0,0,1-9.7,10.2c-8.2,2.6-18.7,2.5-22.1,2.4-3.6-.2-18.1-1.4-21-3.5s-6.5-4.9-6.8-7.1S285.67,1029.49,285.67,1029.49Z"/><path class="cls-7" d="M248.17,969.79a38.13,38.13,0,0,0-4.5,3.6c-3,2.7-6.7,6.6-8.6,11-3.5,8.2-8.5,19.3-8.6,20.8s3.7,9.8,3.7,9.8,9.6-7.4,13.7-9.7,5.3-4.7,6.8-6.1,5.9-28.3,6.6-32.2.5-10.1-1.9-12.2-5.6-6.2-4.3-9.8,5-3.9,4.3-7.7-1.5-4-2.8-5.1a3.89,3.89,0,0,0-2.8-.9s1.1.5.1,4.7-3.9,10.2-2.6,13.7a20.26,20.26,0,0,0,2.3,4.8s1.3,8.4.3,11.3A27.3,27.3,0,0,1,248.17,969.79Z"/><path class="cls-7" d="M288.07,1009.89c-.5-1.7-2.4-8-1.3-12.9s-1.5-14.9-3-18.6-4.9-10.1-4.4-13.5,2.5-6,3.3-9.4.6-12.5.5-15.5,3.2-5.1,1.6-6.5c-2-1.7-1.6.3-3.3,1s-3.1.6-3.6,3.8-1,8.1-1.1,11.3-2.2,15.4-4,19.3-2.3,1.1-3.4,6.7-1,9.8-2.4,15.4-.3,12.5,3.2,15.2,10.6,7.2,10.8,9.1l.2,2Z"/><ellipse class="cls-10" cx="277.32" cy="1000.77" rx="2.4" ry="2.7" transform="translate(-735.74 1229.18) rotate(-87.22)"/><ellipse class="cls-10" cx="275.66" cy="993.82" rx="2.4" ry="2.7" transform="translate(-730.37 1220.9) rotate(-87.22)"/><ellipse class="cls-10" cx="274.59" cy="987.11" rx="2.4" ry="3" transform="translate(-724.69 1213.46) rotate(-87.22)"/><ellipse class="cls-10" cx="239.93" cy="1000.2" rx="2.4" ry="3" transform="translate(-770.74 1191.29) rotate(-87.22)"/><ellipse class="cls-10" cx="242.93" cy="992.43" rx="2.4" ry="2.8" transform="translate(-760.13 1186.89) rotate(-87.22)"/><ellipse class="cls-10" cx="245.81" cy="986.05" rx="2.1" ry="2.6" transform="translate(-751.01 1183.7) rotate(-87.22)"/><ellipse class="cls-10" cx="249.66" cy="978.8" rx="1.7" ry="2.4" transform="translate(-740.11 1180.64) rotate(-87.22)"/><path class="cls-6" d="M288.07,1009.89c0-1.8-8.2,13.4-21.2,12.8s-34.9-4.9-36.8-7.7-5.9-11.1-4.2-12.5-3.4,1.3-3.7,11.6,3.9,17.7,6.4,19.5,17,9,29.7,7.8,18.7-3,22.8-5.5S288.17,1020.49,288.07,1009.89Z"/><path class="cls-6" d="M281,1017.19s-8.7,5.5-14.1,5.5-32.4-4.8-36.8-7.7l9.6-6.9s33.7.4,36.2,2.5a52.58,52.58,0,0,1,4.8,4.7Z"/><path d="M281,1017.19s-4.7,8.1-25.8,5.4c-20.2-2.6-25-7.6-25-7.6s20.9,7.6,28.1,7.3S263.77,1024,281,1017.19Z"/><path d="M274.07,1009.69c-1.1-.1-34.2-1.7-34.2-1.7l1.5-.9,32.9,1.8.5,1.3Z"/><path d="M284.47,1022.19c-.4.6-2.3,8.6-14.9,9.9s-32-2-36-4.2-8.6-12.2-8.9-13.9,1.7,6.5,3.9,9.4,4.2,6.1,10,7.2,21.4,2.7,21.4,2.7,13-.2,13.9-.6,4.8-2.6,6.6-3.6S284.47,1022.19,284.47,1022.19Z"/><path class="cls-6" d="M275.87,1001.89c-.9-.4-8.1-4-11.1-3.5s-12.1,1.2-13,1.2-10.7-.4-11.1.3-2.5.4-1.8-.7a21.24,21.24,0,0,1,2.4-3s.7-2.1,13.1-.3l9.2.1s6-.5,7.9.1A39.67,39.67,0,0,1,277,999Z"/><path class="cls-6" d="M275,994.19l.1-2.5s-6.3-1.8-8.3-.8a66.14,66.14,0,0,1-7.7,2.5,21.58,21.58,0,0,0-3.7,2.4l8.3.1s4.6-2.4,7.4-2.1S275,994.19,275,994.19Z"/><path class="cls-6" d="M242.27,992.29a4.52,4.52,0,0,1,5.2-3.2c4.3.5,8.2.7,9.9,1.8a11.59,11.59,0,0,1,2.5,2.3l-5.4,2.7s-2.5-3.4-6.4-3.4S242.27,992.29,242.27,992.29Z"/><path class="cls-6" d="M273.57,988.49l1.1-3.4s-2.9-1.8-5.6-1.4-7.9.3-9.1,1-5.9,4.6-5.9,4.6l3.1,1.5s8-3.1,9.5-3.1A52.78,52.78,0,0,1,273.57,988.49Z"/><path class="cls-6" d="M245.17,985.29c3.7-2.9,4.9-4,6.4-3.8s7.1,1,8.5,3.2l-3.5,2.8s-4.7-3.2-6.8-3a5,5,0,0,0-3.3,1.8Z"/><path class="cls-6" d="M274.17,981l1.4-4.9s-2-.9-5.5.6-8.1,4-9.6,4.3a30.68,30.68,0,0,0-4,1.3l3.6,2.5a15.47,15.47,0,0,1,6.7-2.5c4-.5,4-1.9,5.2-1.9A7.88,7.88,0,0,1,274.17,981Z"/><path class="cls-6" d="M248.87,977.49s3.4-6.2,7.3-4.6,8.8,3.6,9.3,4.9-5,3.2-5,3.2-6.9-5.8-8.1-4.1S249.37,978.69,248.87,977.49Z"/><path class="cls-6" d="M277,967.29s1,2.8-.5,4.2a5.66,5.66,0,0,1-5.4,1.7c-2.5-.4-6.1-2.8-7.8-1.4a13.09,13.09,0,0,1-3.8,2s4.5-5.7,8.1-5.5,3.6.4,6.8-.2l3.1-.6Z"/><path class="cls-6" d="M251.17,966s1-2.4,4.6-1.3,5.3,1.5,7.5,1.4,5.6.3,5.8,1.3-4,1.8-4,1.8-9.9,1-11.6,1.2a14.91,14.91,0,0,1-2.8.1Z"/><path class="cls-6" d="M273.67,965.09s-13.5.1-14.3-.2-.7-3-.7-3,5.2-2.7,8.8-2.5a51.65,51.65,0,0,1,7.5,1.1Z"/><path class="cls-6" d="M249.47,954.59l21,3s1.6,2.3-1.8,1.6a32.32,32.32,0,0,0-6.7-.6,35.72,35.72,0,0,1-5.4,1.2c-1.7.1-5.3,0-5.3,0Z"/><path class="cls-6" d="M253.17,952.29s7.5-4.6,10.6-3.9,6.1,1,8.2.1a31.27,31.27,0,0,1,5.1-1.5l-.4,2.4a22.33,22.33,0,0,0-5.1,1.7c-1.5.9-6.6,1.9-8.6,2.5l-6.9,2.1Z"/><path class="cls-6" d="M246.17,940.89s-1.6,3.6-.5,4.7,11.6,5,11.6,5,13.3,4.6,14.3,6.1a15.09,15.09,0,0,0,3.2,2.9l.8-4.2-22-10.2Z"/><path class="cls-6" d="M276.67,944.29c-1.4-.1-3.6,3.8-3.6,3.8-.7,3.4,3.2,10.3,3.2,10.3s5.3,12.6,5.5,14.3,5.9,5.5,5.5,8.6.9,10.1,2.1,15.1.1,9.4,5.7,10.9,11.4,1.8,11.3,4.2-.3,5.9,1.7,5.7,2.7-3.1,2.7-3.1a67.85,67.85,0,0,0-3.1-6.6c-.8-1.1-12.8-2.6-13.3-4.6s-5.8-19-4.9-21.2-2.1-8.5-3.5-9.3-3.3-12.5-3.3-12.5-4.1-8.8-4.6-9.8C277.57,949.29,276.67,944.29,276.67,944.29Z"/><path class="cls-11" d="M307.87,1008.89a4.88,4.88,0,0,0-3.4-2.4c-2.4-.4-5.6-.8-6.7-1.6s-4.3-3.3-4.8-5.4-1.6-7.5-2.2-9.2-2.3-5.4-1.3-7-.9-6.8-.9-6.8-2.9-4.1-3.1-5-2.4-5.4-2.2-7.1.8,6,1.3,7.2,2.9,4.1,3.1,5.1.9,4.1,1.1,5.5.4,4.1.6,5.4,2.5,11.9,3.3,12.7,4,4.9,5.4,5.3C299.37,1006.19,305.27,1006.19,307.87,1008.89Z"/><path class="cls-4" d="M332.77,920.59l-6.2,3.1s-15.1-2.1-15.9-3.1-1.9-5.4-1.9-5.4l25.2,2.6Z"/><path class="cls-5" d="M283.57,932a13.48,13.48,0,0,1-4.6,3.6c-2.7,1.1-1.8,5-1.8,5s-5.3-4.3-8.8-4.1-10.9.7-12,2.2.1-1.7-.5-3.1-3.3-3.3-3.3-3.3l-.9-2.3s16.4-4.5,18.7-6.6S283.57,932,283.57,932Z"/><path class="cls-12" d="M367.07,309.39c3,14.7,97-66.2-41-88.9Z"/><path class="cls-12" d="M330.47,213.79s-20.5,33.8-55.5,8.9c0,0-64.4,14.2-77.5,15.1l100.9,68.6,68.5-58.5Z"/><path class="cls-13" d="M336.87,408.19c-8.7-.4,152.8,56.8,208.9,331.1l-497.3-15.6-13.8-4-34-9.9s109-271.6,222.1-318.2Z"/><path class="cls-12" d="M223.87,389.69c4.7-7-16-67.4-31.8-100s8.3-51.7,8.3-51.7,120.9,143.3,56.1,156.2C209.67,403.49,223.87,389.69,223.87,389.69Z"/><path class="cls-14" d="M329.87,214.89s13.7,16.5-5.6,38.1l-21.7-18.5A44.34,44.34,0,0,0,329.87,214.89Z"/><path class="cls-13" d="M174.57,456.79S74.37,596.79,50,740.39c0,0,120.1,31.9,272.5,24.8s124-18.6,124-18.6-7.6-142.3-72-216.4"/><path class="cls-7" d="M505.87,748.59c-2.9,1.9-46.3,29.1-97.5,39.3S295.67,799.79,279,799s-90.2-11.1-104.2-13.1-65.2-18.9-65.2-18.9Z"/><path class="cls-13" d="M380,476.89S497.27,626,503,746.49c0,0-148,94.2-396.3,18.4,0,0,27.3-205,77.1-275"/><path class="cls-15" d="M330.47,213.79s12.3,15.6-5.1,36L306,232.39A40.29,40.29,0,0,0,330.47,213.79Z"/><path class="cls-7" d="M306.57,231.69l-12.4,22s-8.9,13.9-20.4-33.8C273.77,220,287,233.09,306.57,231.69Z"/><path class="cls-16" d="M345.87,253.59s-34.1,26.3-50.9,25-26.6-8.5-26.6-8.5l30,18.4,42.5-20.6Z"/><path class="cls-15" d="M305.87,232.39l-11.5,17.8s-8.3,11.2-19.4-27.5A46.49,46.49,0,0,0,305.87,232.39Z"/><g id="right_converse"><path class="cls-16" d="M254.17,377.29c.3,2.2.5,4.4.7,6.7Z"/><path class="cls-16" d="M242.37,326.89s8.6,24.4,11.8,50.4l-3.2-32,.8-2.8c6-33.7-32-55.9-32-55.9,7.2,11.3,16.4,27.6,23,40.2Zm8.5,18.3-.1-.5C250.87,344.89,251,345,250.87,345.19Z"/></g><path class="cls-12" d="M191.47,244a48,48,0,0,1,11.2-1.2l19.3,83.9a51.21,51.21,0,0,1-10.6,3.8c-24.8,5.7-49.4-9-54.9-32.9S166.67,249.69,191.47,244Z"/><path class="cls-17" d="M254.77,387.29a2.65,2.65,0,0,1-.6-.5C254.27,386.79,254.47,387,254.77,387.29Z"/><path class="cls-17" d="M245.37,325.59c-7.8-19.2-58.5-78.2-47.9-87.8s26,1.3,26,1.3,58.4,49.2,80.5,43,32.9-21.6,46.5-33.9,21.8,8.7,21.8,8.7-3,81.9-8.5,106.3-19.6,45.4-19.6,45.4c-42.8,20.1-80.9-5.1-91.3-13.1l-.2-2.7C256.17,385,251.07,339.59,245.37,325.59Z"/><path class="cls-16" d="M546.77,650.09c-3.8-1.6-278.8,54.5-373.8,2.1Z"/><path class="cls-16" d="M239.07,474.39s-42.1,111.9-67.5,177.7C171.57,652.19,231.17,537.79,239.07,474.39Z"/><path class="cls-17" d="M345.37,408.59s192.9,146,202.8,241.6c-6.8.2-299.4,44.8-376.6,2,0,0,78.2-166.6,81.6-257.2C258.87,396.19,292.07,433.59,345.37,408.59Z"/><path class="cls-18" d="M123.57,665.29c-1-7.2-12.5,92.3-1.9,103.9l-15-4.3Z"/><path class="cls-18" d="M483.87,661.59c-1.3-3.4,13.6,63.7,9.4,90.2,0,0,8.1-1.8,9.7-5.3S495.47,692.49,483.87,661.59Z"/><path class="cls-18" d="M82.87,748.49c.1-2.2-32.3-6.6-22.7-54.7,0,0-7.2,43.1-9.6,48.1Z"/><path class="cls-18" d="M172.37,427s-84.8,105.2-101.2,145.7l-53,107.5s-12.4,16.8,5.5,35c-2.1-1.6-22.9-5.5-22.9-5.5s39.2-91.5,56.5-119.6,56.2-99.4,72.4-118.1S172.37,427,172.37,427Z"/><path class="cls-18" d="M60.67,727.89c-.4,4.2-11.6-16.4,22.3-101,33-82.4,32.3-68.2,32.3-68.2S65.17,681,60.67,727.89Z"/><path class="cls-18" d="M531.87,737.79s7.7-9.3,1.2-45.3l-10.7-38.2s22.2,72.3,23.5,85Z"/><path class="cls-18" d="M157.77,777.49s-49.7-19.3-21.8-136.7S173.87,507,173.87,507s-37.3,72-49.6,156.4-11,104.7-11,104.7Z"/><path class="cls-18" d="M290.77,247s-10.8-8.9-10.5-15.4C280.37,231.69,284.27,240.59,290.77,247Z"/><line class="cls-19" x1="248.47" y1="394.69" x2="248.67" y2="394.79"/><path class="cls-18" d="M164.57,313.49c-4.4-5.3-6.7-9.4-8.4-20.6-2.2-14.8.8-15.6.8-15.6-.1,1.3,1.5,21.7,4.4,26.7s9.6,12.6,13.9,15,16.7,10.7,29.9,7.5,15.1-9.8,15.1-9.8-8.9,12.6-10.5,13.2-6.8,3.2-16.6.8-15.8-2-23.7-11.3c-1.9-2.3-3.5-4.2-4.9-5.9"/><path class="cls-18" d="M227.17,324c.2,1.6,16.6,57.5,16.2,60.4s-10.2,7.5-10.2,7.5,5.1-1,4.8-7.1-8-32.9-8-32.9l-7.2-23Z"/><path class="cls-18" d="M383.37,239.39c-1.3-1.1,34.6,16.5,13.8,45.5C397.77,282.09,410.67,262.09,383.37,239.39Z"/><path class="cls-3" d="M153.27,404.09l98.7,74,9.5-14.4s-69-56.8-72.1-58.9S153.27,404.09,153.27,404.09Z"/><path class="cls-3" d="M419.47,375.79a100.34,100.34,0,0,1-18,34.6c-13.8,17.4-29.5,37.2-35.9,43.6l-6.3,6.3-16.5-8.3,45.1-69.9Z"/><path class="cls-20" d="M259.57,466.19s-62.3-61.5-88.4-63.6l-11.8-.3"/><path class="cls-21" d="M192,409.59s-16.4-7.6-19.9-7.3-5.5.4-5.5.4,10.7.6,23.2,8.2Z"/><path class="cls-21" d="M160.17,340.39c-7.5,24.1-8.1,59.1-8.1,59.1l2.1-12.4c1.4-8.4,8-45.9,12.6-69.5l-1.7-1.4Z"/><path class="cls-3" d="M387.87,383s-41.7,53.7-45.1,69l6.4,2.4Z"/><path class="cls-21" d="M398.67,377.29c-1.3-.5-8.4,2.5-16.1,12.2s-23.1,33.2-23.1,33.2-12.6,21.5-18,32.5l4.7-2.6s-.6-16.8,42.1-67.1Z"/><path class="cls-21" d="M398.87,278.39s18.4,92.2,18.2,95.1-7.4,21.4-7.4,21.4l-28,40.1,21.4-25.8s11.5-20.4,13.1-24.9,4.5-7.3,3.7-10.7-18.3-93.9-18.3-93.9l-.7-4.6Z"/><g id="hand_:"><path class="cls-3" d="M359.47,459.89l-18-9-8.2,6.2-11.1.1-4,1.9-.6,2.9-10.9-1,.8,3.2,6.1,1.1,10.4-2.1,3.3.8s-1.1,2.5-2.8,3.3-8.1,4.4-8.1,4.4l-10.5.3s-1.6-1.2-4.7.5-3.8,3.1-3.8,3.1l5.1,2s1.6,1.3,5.5,1.9,14.6-.3,14.6-.3l7.3-3.9,14.2-7.9,12.7-6.1Z"/><path class="cls-21" d="M358.87,460.19c1.5-.4-24.3,12.4-28.4,14.4a18.71,18.71,0,0,0-4.2,3c-2,1.6-3.9,3-6.8,2.7-4.9-.6-18.9.3-18.7-1.5s4-3.6,6.6-3.3,10.8-.1,13.7-1,11.9-5.5,13.5-8a9.88,9.88,0,0,0,1.6-4.7s.2,6.8-2.3,7.5-10.1,8.6-17.2,7.4-14-.1-14,1,9.9,1,11.8,1.5,8.4.9,19.2-7C334.37,472.39,356.27,461,358.87,460.19Z"/><path class="cls-21" d="M302.17,476.49s-7.4.9-6-1.1,6.1-4.7,8.6-4.1,12.6.8,15.3-.1,8.2-5,9-5.6a42.82,42.82,0,0,1-6.3,4.7c-2.8,1.5-8.2,3.7-13.2,2.5s-5.9-1.4-8.3-.1-4.5,2.4-3.8,3.1S302.17,476.49,302.17,476.49Z"/><path class="cls-21" d="M315.77,471.69s9.3-4.5,10.1-6.4-2-2.4-5.3-1.3-9.7,2.8-13.2.1-1.8-4.4.8-3.8,6.4,2.9,8.1.9,3.6,0,1.3.8-7.9-.5-9.2,0,0,2.1,2.3,2.7,8.7-2.5,11-1.9,8.9.2,6.1,2.8C324.77,468,315.77,471.69,315.77,471.69Z"/><path class="cls-21" d="M333.47,461.39a52.33,52.33,0,0,1,8.2-.5S337.47,461.29,333.47,461.39Z"/><path class="cls-21" d="M359.37,450.49c1.6.6,2.7,1.1,2.7,1.1A28.22,28.22,0,0,1,359.37,450.49Z"/><path class="cls-21" d="M318.57,457.89c4-1.5,7.6-1.7,10.1-.8s8.2-2.9,10.8-4.4c2.1-1.3,2.7-2.6,5.5-3.4l-.7,2.3A65.26,65.26,0,0,0,338,455c-2.9,2-4.9,3.9-8.3,3.1s-6.7-.5-8.1.2,1.8,2.3,4.6,3a39.1,39.1,0,0,0,7.4.2c-.2,0-.4.1-.6.1-3.5.8-7.6,1.7-10.6-.4C319.17,459.09,314.67,459.39,318.57,457.89Z"/></g><g id="hand_:-2" data-name="hand_:"><path class="cls-3" d="M247.77,475.09l14.6-12.5,10.5,4.1,11.2-3.2,4.7.8,1.6,2.9,10.7-4.4.3,3.6-5.8,3.1-11.2,1-3.1,1.9s2,2.4,4,2.7,9.7,2.2,9.7,2.2l10.7-2.8s1.1-1.8,4.9-.9,5,2.1,5,2.1l-4.5,3.7s-1.1,1.9-4.9,3.7-14.9,4.1-14.9,4.1l-8.8-2-17.2-4-14.8-4.1Z"/><path class="cls-21" d="M248.67,475.89c-6.8-1,26.7,7.6,33.3,8.7a24.7,24.7,0,0,1,5.4,1.9c2.6,1.1,5,2,7.9.7,4.7-2.2,19.2-5.4,18.4-7.3s-5.3-2.6-7.8-1.5-10.9,3.2-14.2,3.1-14-2.2-16.5-4.4a11.94,11.94,0,0,1-3.3-4.5s2.1,7.3,5,7.2,13.2,6,20,2.6,14.1-4.4,14.5-3.3-9.6,4.1-11.4,5.2-8.2,3.6-21.9-1.5C277.17,483.39,251.47,476.29,248.67,475.89Z"/><path class="cls-21" d="M311.07,478s7.8-1.3,5.6-3-7.8-3.2-10.1-1.8-12.4,4.8-15.5,4.5-10.1-2.8-11.1-3.2a43.22,43.22,0,0,0,8,3c3.3.7,9.5,1.4,14.2-1.4s5.5-3.3,8.4-2.7,5.4,1.2,5,2.1S311.07,478,311.07,478Z"/><path class="cls-21" d="M295.77,477s-11-1.9-12.5-3.8,1.2-3.1,4.9-3,10.8,0,13.3-3.9.2-5.3-2.1-3.9-5.4,5-7.9,3.4-3.6,1.1-1,1.3,7.8-3,9.3-2.9.7,2.3-1.3,3.5-9.7,0-11.8,1.3-8.9,3-5.2,4.8C285.27,475.79,295.77,477,295.77,477Z"/><path class="cls-21" d="M274.27,471.49a50,50,0,0,0-8.5,2S270.07,472.59,274.27,471.49Z"/><path class="cls-21" d="M244.17,467.79c-1.4,1.1-2.4,2-2.4,2A29.8,29.8,0,0,0,244.17,467.79Z"/><path class="cls-21" d="M288,463.19c-4.5-.3-8.3.6-10.5,2.2s-9.3-.5-12.4-1.4c-2.6-.7-3.7-1.9-6.8-2l1.5,2.3a55.61,55.61,0,0,1,7.6,1.7c3.7,1.2,6.4,2.6,9.5.8s6.6-2.6,8.3-2.3-1,3-3.6,4.5c-1.1.7-4.2,1.6-7.4,2.4a1.27,1.27,0,0,0,.6-.1c3.8-.2,8.3-.6,10.6-3.7C287.87,464.69,292.47,463.49,288,463.19Z"/></g><path class="cls-22" d="M391.87,66.19s13.1,3.3,8.4,20.6-12.1,25.7-12.5,35.7,10.6,30.9,7.1,47.3-16.4,32.3-18.3,41.2a142.12,142.12,0,0,1-3.8,14.5l-32.3-3.1-7-15.5,47.3-139.7S391.77,65.49,391.87,66.19Z"/><path class="cls-23" d="M384.67,110.39s3-41.6-11.7-47.3-56.1-11.5-70.9-3.9-30.7,20.5-34.7,38.4.4,51,.4,51l13.4,31.8,33,20.9s13.5,5.9,19.4,5.7,14.1-7.4,15.4-12.3,14.4-18.7,18.7-21.4,11.7-23.6,11-36.8S384.67,110.39,384.67,110.39Z"/><path class="cls-24" d="M322.37,106.59l-6-.5L288,111l-3.7,4.4,20.7-4.5,16.7-2.2C321.67,108.89,323.77,107.59,322.37,106.59Z"/><path class="cls-25" d="M291.47,132.19l26.9-3.6a5.44,5.44,0,0,1,2.7,3.7c.7,4.4-5.9,9.1-14.6,10.4s-16.3-1.2-17-5.6A6,6,0,0,1,291.47,132.19Z"/><path class="cls-25" d="M351,128.29l23.4-3.8a5.63,5.63,0,0,1,2.5,3.8c.7,4.4-4.8,8.9-12.3,10.1s-14-1.6-14.7-6A5.72,5.72,0,0,1,351,128.29Z"/><path class="cls-18" d="M368.07,125.79s3.9,5,2.4,8.3c-1.2,2.6-.1,3.9-5.9,4.3s-8-.6-8-.6-2.9-8.2-.2-10.2S368.07,125.79,368.07,125.79Z"/><path class="cls-18" d="M309.37,130s5.9,6.4,3.4,9.4-7.7,3.8-7.7,3.8l-8.1-.8s-6.6-4.3-1-11.1Z"/><path class="cls-24" d="M381.57,107.49s-6.5-8-14.9-6.7-10.9,2.6-10.9,2.6l-4.4,1.7,4.2,3.4a20.11,20.11,0,0,1,10.9-2.6c6,.4,12.3,2.1,14.2,3.8S381.57,107.49,381.57,107.49Z"/><path class="cls-21" d="M345.07,147.09s6.6,4,5.8,7.4-6.1,3.2-6.1,3.2S356.07,156.39,345.07,147.09Z"/><path class="cls-21" d="M338.47,158.39c.8.5-3.8-1.1-5,.1l-1.2,1.2S330.87,153.89,338.47,158.39Z"/><path class="cls-26" d="M346.77,176.09s3.5-5.2.3-6.7-10.5.6-12.8.9-8.4,3.6-9.7,3.8-.3,4.7-.3,4.7,5.2,1.2,8.8-1.3,8.4-3.9,8.9-2.3S344,177.49,346.77,176.09Z"/><path class="cls-26" d="M345.07,178s1.4,9.1-6.8,10-9.4-.9-11.4-2.9-2.6-6.2-2.6-6.2l8.8-1.3s3.9,8,9.9-.2Z"/><path class="cls-22" d="M240.57,54.79s-63.5,86.6-97,93.1-46.9-2.6-46.9-2.6l-6.1-10.9s-8.6,17.6-.2,28.9,52.7,26.2,69.7,19.9,44.5-33.4,44.5-33.4l70.3-77Z"/><path class="cls-19" d="M254,163.09c-1.8.9-23.8,22.8-38,29.6s-23.5,6.8-25.2,17.7-19.2,22.1-28.7,25.5-37.9,8.3-40.2,23.9-1.8,18.8-1.8,18.8-11.3-40.1-3.3-48.6,22.9-19.4,41.8-30.8,33.5-46.1,40.6-56.5,42-29.5,41.6-27.5C240.47,117.39,254,163.09,254,163.09Z"/><path class="cls-22" d="M396.87,69.79s15.1-42-38.9-57.7-77.9-10.9-77.9-10.9-37.7,18.5-39.7,18.2-9.6,11.2-9.6,11.2l1.1,11.4Z"/><path class="cls-22" d="M257,165.39c.6,3.9-5,24-24.2,28.8s-32.3,1.5-42,16.3-12.5,18.4-28.7,25.5-29.3,3.7-29.3,3.7-11.3,13-9.8,27.3,1.5,14.4,1.5,14.4-12.7-31.9-11.7-42.7,6.1-25.4,14.9-28.8,23.2-17.4,23.2-17.4l89.6-101Z"/><path class="cls-22" d="M274.27,183.29s7.9,12.7-8.8,29.8-34.7-1.4-47,18.3-15.2,35.5-13.2,48.5,4.3,28.5,4.3,28.5-21.3-53.8-23-69.5,3.8-32.4,3.8-32.4,56.3-66.8,56.6-64.8C247.07,143.59,274.27,183.29,274.27,183.29Z"/><path class="cls-22" d="M372.17,71.29c-2.2-.1-7.6-16.4-18.4-9.8s-19.3,23.5-32.7,26-24.3,5.8-38.1,3-18.8-8.3-33.1-9.7-31.2,1.3-43.7,10.4-25.1,30.2-35.2,40-27.2,24.7-43.7,32.7-21.8,9.9-21.8,9.9,58.5-37.5,60.8-49.5,30.8-49.1,30.8-49.1,21.8-31.5,42.6-33.7,54.9-3.6,61.2-1.7,66.7-24.6,83.3,5.1c0,0,8.2,12.9,7.3,18.5S382.47,71.59,372.17,71.29Z"/><path class="cls-22" d="M275.57,121.49c1,2.5-1.1,14.8.2,27.8s5.5,23.7,6.2,36.9-1.3,22.1-5.7,32.7l-4.4,10.6s9.9-35.3.7-48.5-16.7-18.7-23.2-31-9.3-31.1-9.3-31.1l35.7-5.4Z"/><path class="cls-1" d="M331,75.29s5.6,11.1-5.1,23.3-34.6,21.1-43.8,21.8-36.6-1.1-46.1,2.3-30.9,10.6-36.8,20.1-16.4,36.3-16.4,36.3-2.9-46,4.4-54.4,31.9-30.6,42-33.5,42.6-12.4,47.8-17.1C282.37,69.39,331,75.29,331,75.29Z"/><path class="cls-7" d="M300.87,138.29a3.85,3.85,0,0,0,4.9,2,3.53,3.53,0,0,0,2.4-4.5,3.85,3.85,0,0,0-4.9-2A3.53,3.53,0,0,0,300.87,138.29Z"/><circle class="cls-7" cx="363.67" cy="132.59" r="3.6"/><circle class="cls-6" cx="360.87" cy="130.99" r="1.5"/><path class="cls-6" d="M300.47,136a2,2,0,0,0,2.5,1,1.76,1.76,0,0,0,1.2-2.3,2,2,0,0,0-2.5-1A1.8,1.8,0,0,0,300.47,136Z"/><path class="cls-27" d="M275.57,121.49s2.1,25.6,2.5,30.6,2.1,14.2,2.5,16.5,4.4,22.6,3.2,27.8-11.8,33.1-11.8,33.1,12.2-29.8,10.1-43.3-7-45.8-6.4-48.2S275.57,121.49,275.57,121.49Z"/><path class="cls-27" d="M390.47,65.69s-19.4-26.1-27.6-26.5-38-1.7-42.4.6-30.1,8.2-38.1,9.1-39.1,2.2-45.7,3.2-44.8,29.3-49.5,36.4-6.9,7.8-6.9,7.8,26.6-40.7,42.8-49.6,55-8.6,55-8.6,28.7.4,29.7.3,35.9-8.1,39.5-8.3,21.3.5,25.4,2.9,10.5,6.9,12.4,10.6,7.6,12.7,7.8,15.7a23.36,23.36,0,0,1-1,6.9Z"/><path class="cls-27" d="M366.37,64.29,352,62.79C352,62.69,359.57,54.79,366.37,64.29Z"/><path class="cls-27" d="M258.07,83.59c1,0-42.8,17.9-47.1,25.6s-19.9,11.4-22.3,19.9-6.3,48.1-6.3,48.1-3.2-41.3,2.6-49.9,30-29.4,30-29.4S240.87,84.09,258.07,83.59Z"/><path class="cls-27" d="M244.17,141.89c-1.5,1.2-55,60.2-56.1,66.4s-5.9,21.1-2.9,29.8,20.9,65.3,24.9,73.5-17.3-61.4-17.3-61.4-12.7-28.8,6.6-50.2,41.9-37.3,41.9-37.3l8.1-12.7Z"/><path class="cls-27" d="M244.87,121.59s3.4,16,7.1,24.9,16.7,26.1,16.7,26.1l7.1,15.8,1,2.2-.4,17.6-1-17.7-10.3-19.3s-9-8.1-12.5-14-9-17.5-9.8-22.5-2.7-13.4-2.7-13.4Z"/><path class="cls-27" d="M181.67,163.49s-26.8,28-30.3,31.9-19.2,16-23.4,19.4-11.9,12.9-11.9,21.7,8.4,45,8.4,45-11.2-28.2-11.3-31.6-1.7-13.6.4-19.9,6.4-15.8,9.1-17.9,8.9-3.4,15.3-10.4,22.5-18.2,24.6-22.2S182,156,182,156Z"/><path class="cls-27" d="M256.67,81.09s-39.6.9-45,5.4-22,21.8-22,21.8-25.3,31.4-31.2,36.7-27.9,18.4-27.9,18.4l-25,10.4,41-22.9s21.5-18.4,24.1-23.5,22.3-26.3,25.9-31.5a42.18,42.18,0,0,1,14.3-12.6c4.7-2.4,14-3.1,21.3-6.6s25.9-4.9,25.9-4.9Z"/><path class="cls-27" d="M379.47,52.49s10.3,7.9,1.3,8.6-20.2-6.7-20.2-6.7-8.9-5.1-13.4.3-17,12.7-26.3,20.5-33.9,23.6-42.6,26-10.7,5.3-10.7,5.3,7.4,22.5,8.1,31.5,2.1,20.9,2.3,19.9-2.7-38.4-2.7-38.4a19,19,0,0,0,11.5.3c5.8-1.9,17.8-5,24.2-9.7s18.5-9.5,20.5-23,19-21.4,19-21.4,13.9-3.8,16-1.4,5.8,7.1,5.8,7.1,13.4,1.5,15.8-2.2.6-9.5.6-9.5Z"/><path class="cls-27" d="M267.57,106.39s-5.2,1.5-1.3,13.7,8.9,18.9,9.6,25.5a55.77,55.77,0,0,0,1.2,8.2l-4.2-41.5Z"/><circle class="cls-28" cx="301.57" cy="163.39" r="6.7"/><path class="cls-28" d="M372.07,153.49a7.33,7.33,0,0,1,3.8,1.4l-3.5,11.9h-.9a6.62,6.62,0,0,1-6.3-7A6.54,6.54,0,0,1,372.07,153.49Z"/><path class="cls-21" d="M374.17,123.59s-16.7-2.4-23.3,4.7Z"/><path class="cls-21" d="M318.37,128.59s-17.9-2.5-26.9,3.6Z"/><path class="cls-1" d="M340.47,222.39s13.1-.5,10.6,17.5a134.26,134.26,0,0,1-10,34s23-13.5,29-24.5,6.5-38.4,6.5-38.4Z"/><path class="cls-1" d="M340.47,222.39s14.4,13.1,6.4,35.8-14.7,26.7-14.7,26.7,34.7-24.7,37.3-33.3,0-35.3,0-35.3Z"/></g></g></svg>