<?xml version="1.0" encoding="utf-8"?>
<!-- Generator: Adobe Illustrator 20.1.0, SVG Export Plug-In . SVG Version: 6.00 Build 0)  -->
<svg version="1.1" id="Layer_1" xmlns="http://www.w3.org/2000/svg" xmlns:xlink="http://www.w3.org/1999/xlink" x="0px" y="0px"
	 viewBox="0 0 549.2 1042.1" style="enable-background:new 0 0 549.2 1042.1;" xml:space="preserve">
<style type="text/css">
	.st0{fill:#FBCF58;}
	.st1{fill:#DBC2AD;}
	.st2{fill:#D7B49D;}
	.st3{fill:#E0E0E0;}
	.st4{fill:#CCCCCC;}
	.st5{fill:#EEEEEE;}
	.st6{fill:#111111;}
	.st7{fill:#252222;}
	.st8{fill:#111111;stroke:#252525;stroke-miterlimit:10;}
	.st9{fill:none;stroke:#252222;stroke-miterlimit:10;}
	.st10{fill:#252525;}
	.st11{fill:#0096C1;}
	.st12{fill:#0096C1;stroke:#04B2D9;stroke-miterlimit:10;}
	.st13{fill:#111111;stroke:#0096C1;stroke-miterlimit:10;}
	.st14{fill:#0096C1;stroke:#111111;stroke-miterlimit:10;}
	.st15{fill:#111111;stroke:#111111;stroke-miterlimit:10;}
	.st16{fill:#F2F2F2;}
	.st17{fill:#04B2D9;}
	.st18{fill:none;}
	.st19{fill:#D7B49D;stroke:#E0C09C;stroke-miterlimit:10;}
	.st20{fill:#E0C09C;}
	.st21{fill:#FBCF58;stroke:#F4C756;stroke-miterlimit:10;}
	.st22{fill:#E7CFB4;}
	.st23{fill:#222222;}
	.st24{fill:#FFFFFF;}
	.st25{fill:#CA9A93;}
	.st26{fill:#F4C756;}
	.st27{opacity:0.14;fill:#CA9A93;enable-background:new    ;}
</style>
<title>Asset 1</title>
<g id="Layer_2">
	<g id="Layer_1-2">
		<polygon class="st0" points="203.6,214.1 208.4,222.4 177.5,234.3 176.1,225.5 		"/>
		<path class="st1" d="M261,170.7c0,0,16.5,40.3,12.3,54.3s-20.9,24.9-33.8,31.5s-23.8,7.4-21.3-2s1.6-53.5,1.6-53.5
			C241.1,195.6,261,170.7,261,170.7z"/>
		<path class="st2" d="M373.7,274.6c31.5,126.7,20,132,20,132l-35.1-0.7c0,0-20.8-107.8-19.3-110.6L373.7,274.6z"/>
		<path class="st2" d="M182.7,272.2c0.7,21.8-18.1,119.7-23,116.4l-30.7-6.5c0,0,25.2-123.7,22.6-124.4
			C151.6,257.7,182,250.7,182.7,272.2z"/>
		<path class="st3" d="M224.8,739.4c0,0,6.2,22.2,13.5,67.6s-1,147.6-1,147.6l-36-1.4c0,0,2.9-8.4,2.8-25.1s-12.3-32.3-28.5-68.3
			s-16.8-114.9-16.8-117.7L224.8,739.4z"/>
		<path class="st3" d="M298.3,939.7c-3.3-8.1,2.1-16.4,4.2-24.6c2.1-8.2,31.8-153.7,9.7-174.5c-22.1-20.8-84.2,15.1-84.2,15.1
			c0.2,29.2,27.2,124.8,31.7,143.5c4.5,18.7,5.9,59.6,5.9,59.6S301.6,947.8,298.3,939.7z"/>
		<path class="st4" d="M320,765.6c0,0,0.1,8.4-0.3,21.4c-0.4,13-3.1,43.6-4.6,53.4s-8.2,47.9-8.2,47.9s1.2-38.9-1.3-45.9
			s-1.5-10.7,2.9-20.5c4.4-9.8,4.1-46.5,4.1-51.6L320,765.6z"/>
		<path class="st4" d="M237.3,779.7l-10.9,12.2c-6-6.1-13.5-10.5-21.7-13c-18-5.9-32.6,34.8-33.1,36.3c0,0-1.9-38.5-2.4-42.5
			C168.6,768.9,227.7,772.7,237.3,779.7z"/>
		<path class="st4" d="M230.6,769l9.9,50.9c0,0,11.9,52.8,16.5,64.8c4.6,12,7.3,39.8,7.3,39.8s0.9-14.8-1.2-25s-7.8-39.8-10.9-50
			s-19.6-79.1-19.6-80.5H230.6z"/>
		<path class="st4" d="M264,916.1c1.5,6.5,1.7,45,1.8,46.4s36-6,36-6l-12.6-15.3c-2.2-6.7-5.9-12.8-10.8-17.8
			c-8-8.3-24.3-69.3-25.3-70.7C253.2,852.7,262.5,909.6,264,916.1z"/>
		<path class="st4" d="M161.2,782.4c0,0,3.7,40.3,6.3,48.2s9.3,28.7,12.8,35.6s21.3,45.7,21.3,45.7s-3.2-15.8-6.2-22.7
			s-13.1-26.7-18.2-35s-15.5-69.9-15.5-69.9L161.2,782.4z"/>
		<path class="st4" d="M162.7,767.7c0,0-0.5,15.5,3.7,47s27.9,77,27.9,77s-1.4-6.2-6.1-17.9c0,0-20.6-96.9-20-100L162.7,767.7z"/>
		<g id="left_converse">
			<path class="st5" d="M243.5,960.9c2.9-0.3,5.8-0.2,8.6,0.2c3.7,0.7,2.8-0.4,5.5-1.4c2.7-1,8.5-1.1,8.5-1.1s1.1-0.7-0.9-1.3
				s-19.4-0.8-21-0.1L243.5,960.9z"/>
			<path class="st6" d="M195.8,1002.5c0,0-10.7,3.1-12.6,4.3s-12.9,1.7-15.1,2.5s-13.7,2.8-16.9,4.1s-11.1-1.4-12.8-2.4
				s-5.3-1.6-5.9-2.8s3.8-0.8,3.8-0.8L195.8,1002.5z"/>
			<path class="st5" d="M203.3,929.3c0,0-7.8,7.1-8.4,9.8s-0.3,8.5-0.3,8.5l-2.5,3.4c0,0,0.5-11.1,1-14.9s10.6-8.8,10.6-8.8
				L203.3,929.3z"/>
			<path class="st5" d="M136.3,987.5c-5.3,4.2-3.7,5.5,0.4,9s5.9,1.7,21.1,2s15.9-3,15.9-3c-9-14-25.9-15.4-25.9-15.4
				C143.8,982.2,139.9,984.7,136.3,987.5z"/>
			<path class="st7" d="M173.6,995.5c0,0,19.4-17.6,25.6-24.5s24.2-47.6,23-48s-5.9-1.4-9-2.6c-4.9-2-14.2-3.1-12.1,2.2
				c0.8,2,0.6,10.2-1.3,16.2s-10.8,16-13.7,18.4s-9.5,8-12.7,10.5s-24.8,11.9-25.6,12.4L173.6,995.5z"/>
			<path class="st6" d="M237.4,920.5c-1,0.9-5.7,2.5-8.4,3s-11.5,1.7-15.3,2.9s-1.8,2-1.1,5.5s0.5,4.9,0.1,8.8s-5.9,11-9.8,14.7
				S185,971.8,182,973.5s-8.2,7.5-8.9,10.1s2.2,11.9,2.2,11.9c8.2-0.8,27.8-8.4,31.2-10.7s35-22,37.1-25s0.4-3.3-1.9-11.3
				s-2.4-25.1-1.9-26.7C239.8,921.8,239.3,918.4,237.4,920.5z"/>
			<path class="st8" d="M221.7,924.4c0,0,10.1-1.4,13.4-2.2s4.9-1.7,4.8-3s-9.7-1.8-13.6-1.4s-9.8,3.5-9.8,3.5L221.7,924.4z"/>
			<path class="st5" d="M145.2,998.9c2.5,0.8,10,0.4,19.3-0.5s33.2-9.1,33.2-9.1l1.7,12.6c-12.8,3.7-25.8,6.6-39,8.7
				c-15.3,2-21.8-0.7-27-5.3s-0.6-12.9-0.6-12.9C136.1,997.5,142.7,998.1,145.2,998.9z"/>
			<path class="st5" d="M233.2,966.8c-3,2.3-13.9,8.8-16.9,10.9s-18.5,11.6-18.5,11.6l1.7,12.6c10.2-5.7,16.5-12.6,20.9-17.4
				s18.2-11.2,20.5-14.6s2.3-9.1,2.3-10C239.7,962,236.4,964.3,233.2,966.8z"/>
			
				<ellipse transform="matrix(0.9988 -4.850110e-02 4.850110e-02 0.9988 -44.979 11.7428)" class="st9" cx="219.5" cy="932.7" rx="2.7" ry="2.1"/>
			<g id="holes">
				
					<ellipse transform="matrix(0.9988 -4.850110e-02 4.850110e-02 0.9988 -47.3691 10.0625)" class="st9" cx="183.7" cy="981.1" rx="3" ry="2.4"/>
				
					<ellipse transform="matrix(0.9988 -4.850110e-02 4.850110e-02 0.9988 -46.1542 11.3602)" class="st9" cx="211" cy="956.7" rx="2.7" ry="2.1"/>
				
					<ellipse transform="matrix(0.9988 -4.850110e-02 4.850110e-02 0.9988 -45.8019 11.5766)" class="st9" cx="215.6" cy="949.6" rx="2.7" ry="2.1"/>
				
					<ellipse transform="matrix(0.9988 -4.850110e-02 4.850110e-02 0.9988 -46.5059 11.1105)" class="st9" cx="205.7" cy="963.9" rx="2.7" ry="2.1"/>
				
					<ellipse transform="matrix(0.9988 -4.850110e-02 4.850110e-02 0.9988 -47.097 10.4335)" class="st9" cx="191.4" cy="975.7" rx="3" ry="2.4"/>
				
					<ellipse transform="matrix(0.9988 -4.850110e-02 4.850110e-02 0.9988 -46.8042 10.8137)" class="st9" cx="199.4" cy="969.9" rx="3" ry="2.4"/>
			</g>
			<path class="st5" d="M165.4,972.9c12.3-2.1,23.7,3,23.7,3l1.9-3.1c-23.7-5.4-31.4,1.2-32.2,1.5
				C158.8,974.3,153.1,975,165.4,972.9z"/>
			<path class="st5" d="M196.8,970c-9.8-3-23.3-0.6-23.3-0.6l3.4-3c7.2-1,14.6-0.5,21.7,1.2L196.8,970z"/>
			<path class="st5" d="M183.6,961.4c2-1.6,4.4-2.7,7-3.2c4.4-0.9,15.1,3.5,15.1,3.5l-1.8,2.4c0,0,0.9,0.6-4.8-1.5
				s-14.4-0.6-15.5-0.3L183.6,961.4z"/>
			<path class="st5" d="M196.5,954.7l-2.6-2.3c4.6-2.2,16.3,2.4,16.3,2.4l-1.8,2.1C204.5,955.7,200.5,954.9,196.5,954.7z"/>
			<path class="st5" d="M213.4,950.5c-2.5-0.5-10.8-1.4-10.8-1.4l-1.2-1.9c6.3-1.8,13.3,0.5,13.3,0.5l-0.6,2.8
				C214.1,950.5,215.9,951,213.4,950.5z"/>
			<path class="st5" d="M198.6,941.6c0.7-2.2,17.2-3.2,17.2-3.2s5.9,6.7,1.3,3.9s-19.7,3.6-19.7,3.6S197.9,943.8,198.6,941.6z"/>
			<path class="st5" d="M210.6,934.5c0,0,4.2-0.7,4.1-1.3s-1.8-2.3-1.8-2.3l-5.2,1.8L210.6,934.5z"/>
			<path class="st10" d="M195.8,1003.2c-0.7-0.8-5-13.5-3.2-11.9C193.2,991.9,196.5,1004,195.8,1003.2z"/>
			<path class="st10" d="M186.7,1000.3c-46.1,11.5-56.6-0.5-56.6-0.5C144.3,1012.9,185.8,1001.2,186.7,1000.3z"/>
			<path d="M146.6,1000c23,1.3,27.1-4.6,27.1-4.6c-2.4,1.1-5,2-7.6,2.6c-3.8,0.8-18.5,0.8-24.3-0.4s-8.6-7.2-8.6-7.2
				C134.5,999.6,146.7,1000.1,146.6,1000z"/>
			<path d="M173.7,994.8l-26.1-15.2C153.7,980.2,173.7,994.8,173.7,994.8z"/>
			<path class="st6" d="M172.3,967.8c1.7-1,7.8-6.1,15.2-11.8s13.1-19.4,13.1-19.4s-3.1,7.1-6,12.2S181,961.6,180.3,963
				s-12.4,9.9-13.8,11s-13,4-13.7,4.1"/>
			<path class="st5" d="M172.4,971c2,1.7,9,9.2,9,9.2s4.7,0.2,3.8-1.3s-3.5-3.7-5.8-6.3s-5.2-5.1-7.7-5.8s-4,2.2-4,2.2
				C169.6,968.7,170.4,969.3,172.4,971z"/>
			<path class="st5" d="M184.6,971.4l2.6-2.3c0,0-6.7-7.5-7.8-7.9s-3.7,2.6-3.7,2.6L184.6,971.4z"/>
			<path class="st5" d="M191,966l2.6-2.3c-3.4-2.2-7-7.5-7-7.5c-2.7-0.3-2.6,2.8-2.6,2.8L191,966z"/>
			<path class="st5" d="M192.2,951l8.6,6.4l-3.5,2.6c0,0-7.2-5.6-8-6L192.2,951z"/>
			<path class="st5" d="M206.5,952l-1.1,0.9l-5.6-0.8c-1.6-1.7-3.4-3.2-5.2-4.6c-1.4-0.8,1.5-3.1,1.5-3.1L206.5,952z"/>
			<path class="st5" d="M197.7,940.1c0.1,1.3,11.5,6.6,11.5,6.6s2.1-0.6,1.5-2.3s-9.6-5.4-10.3-5.7
				C197.8,937.8,197.6,938.8,197.7,940.1z"/>
			<path class="st5" d="M200.1,931.5l10.7,8l1.9-0.5l0.1-2.9c0,0-9.3-6.1-10.7-6.9L200.1,931.5z"/>
			<path class="st5" d="M210.4,932.4l-0.1-1.3c1.8,0,3.4,0.8,4.5,2.2c0.9,1.6,1.2,3.4,0.8,5.2c1.5,2.6,4.6,20.4,5.3,23.4
				s1.1,21.6,1.7,24.2s12,3.3,17,4.4s4,4.4,5,7s-3.6,0.4-4,2.4s5.6,1.5,6.6-1c1.1-4-0.3-8.3-3.6-10.8c-4-2.9-4.5-1.1-8.4-2.2
				s-6.6-0.9-8.4-2.4s-0.6-11.2-1.5-12.9s-2-18.7-3.8-27.4s-4.4-11.6-5.9-13.3s-3.1-1.5-5.9-1.5s-1.8,3.4-2,4.3L210.4,932.4z"/>
			<path d="M215.6,932.8c0.8,0.7,0.9,5.7,1.3,7.8s2.1,10.2,3.1,15.3s1.3,11.9,1.6,13.8s1.1,10.6,1.1,10.6c0.6,8.2,3.3,7.9,3.3,7.9
				s-2.3-0.9-3-1.3s-0.2-2.3-0.9-3.9s-0.9-17.1-1.1-18.1s-2.4-15.7-3-16.8s-1.6-7.4-2.6-12.7s-5.3-4.4-5.3-4.4
				C213.6,930,214.8,932.1,215.6,932.8z"/>
		</g>
		<path class="st8" d="M294.1,935c-1,1.5,0.3,6.1,0.3,6.1l-23.1,0.4c0,0-0.8-3.7-1.1-5.4s-3.2-3-3.2-3s11.6-6.2,15.2-5.7
			s0,0,3.4,1.3s11.9,2.1,13.6,2.8C299.2,931.5,295.1,933.5,294.1,935z"/>
		<path class="st7" d="M268.1,1015.1c0,0-0.3-1,3.2-3.6s39.5-3.4,39.5-3.4L298.4,974c0,0-0.3-29.8-0.6-30.5c-0.3-0.7-1,1.5-3.5-2.5
			s-9.8-4.4-12.9-4.5s-9.7,3.9-10.2,4.9L268.1,1015.1z"/>
		<path d="M322.8,1031.5c-0.3,2.2-3.9,5-6.8,7.1s-17.4,3.3-21,3.5c-3.4,0.1-13.9,0.2-22.1-2.4c-4.8-1.5-8.5-5.3-9.7-10.2
			C263.2,1029.5,323.1,1029.3,322.8,1031.5z"/>
		<path class="st6" d="M299,965.8c-1-2.9,0.3-11.3,0.3-11.3c1-1.5,1.7-3.1,2.3-4.8c1.3-3.5-1.6-9.5-2.6-13.7s0.1-4.7,0.1-4.7
			c-1-0.1-2,0.2-2.8,0.9c-1.3,1.1-2.1,1.3-2.8,5.1s3,4.1,4.3,7.7c1.3,3.6-1.9,7.7-4.3,9.8s-2.6,8.3-1.9,12.2s5.1,30.8,6.6,32.2
			s2.7,3.8,6.8,6.1c4.1,2.3,13.7,9.7,13.7,9.7s3.8-8.3,3.7-9.8s-5.1-12.6-8.6-20.8c-1.9-4.4-5.6-8.3-8.6-11
			c-1.4-1.3-2.9-2.5-4.5-3.6C300,968.5,299.4,967.2,299,965.8z"/>
		<path class="st6" d="M267.7,1017.3l0.2-2c0.2-1.9,7.3-6.4,10.8-9.1s4.6-9.6,3.2-15.2s-1.3-9.8-2.4-15.4s-1.6-2.8-3.4-6.7
			s-3.9-16.1-4-19.3s-0.6-8.1-1.1-11.3s-1.9-3.1-3.6-3.8s-1.3-2.7-3.3-1c-1.6,1.4,1.7,3.5,1.6,6.5s-0.3,12.1,0.5,15.5s2.8,6,3.3,9.4
			s-2.9,9.8-4.4,13.5s-4.1,13.7-3,18.6s-0.8,11.2-1.3,12.9L267.7,1017.3z"/>
		
			<ellipse transform="matrix(0.9988 -4.850110e-02 4.850110e-02 0.9988 -48.2167 14.3476)" class="st9" cx="271.5" cy="1000.7" rx="2.7" ry="2.4"/>
		
			<ellipse transform="matrix(0.9988 -4.850110e-02 4.850110e-02 0.9988 -47.8772 14.4195)" class="st9" cx="273.2" cy="993.8" rx="2.7" ry="2.4"/>
		
			<ellipse transform="matrix(0.9988 -4.850110e-02 4.850110e-02 0.9988 -47.5512 14.4637)" class="st9" cx="274.3" cy="987.1" rx="3" ry="2.4"/>
		
			<ellipse transform="matrix(0.9988 -4.850110e-02 4.850110e-02 0.9988 -48.145 16.16)" class="st9" cx="308.9" cy="1000.2" rx="3" ry="2.4"/>
		
			<ellipse transform="matrix(0.9988 -4.850110e-02 4.850110e-02 0.9988 -47.7715 16.0056)" class="st9" cx="305.9" cy="992.4" rx="2.8" ry="2.4"/>
		
			<ellipse transform="matrix(0.9988 -4.850110e-02 4.850110e-02 0.9988 -47.4656 15.8581)" class="st9" cx="303" cy="986" rx="2.6" ry="2.1"/>
		
			<ellipse transform="matrix(0.9988 -4.850110e-02 4.850110e-02 0.9988 -47.1182 15.6631)" class="st9" cx="299.2" cy="978.7" rx="2.4" ry="1.7"/>
		<path class="st5" d="M267.8,1035.9c4.1,2.5,10.1,4.3,22.8,5.5s27.2-6,29.7-7.8s6.7-9.2,6.4-19.5c-0.3-10.3-5.4-13-3.7-11.6
			c1.7,1.4-2.3,9.7-4.2,12.5c-1.9,2.8-23.8,7.1-36.8,7.7s-21.2-14.6-21.2-12.8C260.7,1020.5,263.7,1033.4,267.8,1035.9z"/>
		<path class="st5" d="M268.1,1015.3c1.5-1.7,3.1-3.2,4.8-4.7c2.5-2.1,36.2-2.5,36.2-2.5l9.6,6.9c-4.4,2.9-31.4,7.7-36.8,7.7
			s-14.1-5.5-14.1-5.5L268.1,1015.3z"/>
		<path d="M290.5,1022.3c7.2,0.3,28.1-7.3,28.1-7.3s-4.8,5-25,7.6c-21.1,2.7-25.8-5.4-25.8-5.4C285.1,1024,283.3,1022,290.5,1022.3z
			"/>
		<path d="M274.1,1010.2l0.5-1.3l32.9-1.8l1.5,0.9c0,0-33.1,1.6-34.2,1.7L274.1,1010.2z"/>
		<path d="M268.4,1029.1c1.8,1,5.7,3.2,6.6,3.6s13.9,0.6,13.9,0.6s15.6-1.6,21.4-2.7c5.8-1.1,7.8-4.3,10-7.2
			c2.2-2.9,4.2-11.1,3.9-9.4s-4.9,11.7-8.9,13.9s-23.4,5.5-36,4.2s-14.5-9.3-14.9-9.9C264.4,1022.2,266.6,1028.1,268.4,1029.1z"/>
		<path class="st5" d="M271.8,999c1.8-1.1,3.6-2.1,5.5-2.9c1.9-0.6,7.9-0.1,7.9-0.1l9.2-0.1c12.4-1.8,13.1,0.3,13.1,0.3
			c0.9,0.9,1.7,1.9,2.4,3c0.7,1.1-1.4,1.4-1.8,0.7c-0.4-0.7-10.2-0.3-11.1-0.3s-10-0.7-13-1.2s-10.2,3.1-11.1,3.5L271.8,999z"/>
		<path class="st5" d="M277.7,993.8c2.8-0.3,7.4,2.1,7.4,2.1l8.3-0.1c-1.1-0.9-2.4-1.7-3.7-2.4c-2.6-0.7-5.2-1.5-7.7-2.5
			c-2-1-8.3,0.8-8.3,0.8l0.1,2.5C273.8,994.2,274.9,994.1,277.7,993.8z"/>
		<path class="st5" d="M300.8,992.5c-3.9,0-6.4,3.4-6.4,3.4l-5.4-2.7c0.7-0.9,1.6-1.7,2.5-2.3c1.7-1.1,5.6-1.3,9.9-1.8
			c2.3-0.4,4.6,0.9,5.2,3.2C306.6,992.3,304.7,992.5,300.8,992.5z"/>
		<path class="st5" d="M282.2,987.7c1.5,0,9.5,3.1,9.5,3.1l3.1-1.5c0,0-4.7-3.9-5.9-4.6s-6.4-0.6-9.1-1s-5.6,1.4-5.6,1.4l1.1,3.4
			C277.5,988.1,279.9,987.8,282.2,987.7z"/>
		<path class="st5" d="M302.4,986.3c-0.8-1-2-1.7-3.3-1.8c-2.1-0.2-6.8,3-6.8,3l-3.5-2.8c1.4-2.2,7-3,8.5-3.2s2.7,0.9,6.4,3.8
			L302.4,986.3z"/>
		<path class="st5" d="M276.9,980.4c1.2,0,1.2,1.4,5.2,1.9c2.4,0.3,4.7,1.2,6.7,2.5l3.6-2.5c-1.3-0.5-2.6-1-4-1.3
			c-1.5-0.3-6.1-2.8-9.6-4.3s-5.5-0.6-5.5-0.6l1.4,4.9C275.4,980.7,276.1,980.5,276.9,980.4z"/>
		<path class="st5" d="M296.5,976.9c-1.2-1.7-8.1,4.1-8.1,4.1s-5.5-1.9-5-3.2s5.4-3.3,9.3-4.9s7.3,4.6,7.3,4.6
			C299.5,978.7,297.7,978.6,296.5,976.9z"/>
		<path class="st5" d="M271.3,967.5l3.1,0.6c3.2,0.6,3.2,0.4,6.8,0.2s8.1,5.5,8.1,5.5c-1.4-0.5-2.7-1.1-3.8-2
			c-1.7-1.4-5.3,1-7.8,1.4c-2,0.4-4-0.2-5.4-1.7c-1.5-1.4-0.5-4.2-0.5-4.2L271.3,967.5z"/>
		<path class="st5" d="M298.2,970.5c-0.9,0.1-1.9,0-2.8-0.1c-1.7-0.2-11.6-1.2-11.6-1.2s-4.2-0.8-4-1.8s3.6-1.4,5.8-1.3
			s3.9-0.3,7.5-1.4c3.6-1.1,4.6,1.3,4.6,1.3L298.2,970.5z"/>
		<path class="st5" d="M273.9,960.5c2.5-0.5,5-0.9,7.5-1.1c3.6-0.2,8.8,2.5,8.8,2.5s0.1,2.7-0.7,3s-14.3,0.2-14.3,0.2L273.9,960.5z"
			/>
		<path class="st5" d="M297.6,959.8c0,0-3.6,0.1-5.3,0c-1.8-0.3-3.6-0.7-5.4-1.2c-2.2,0-4.5,0.2-6.7,0.6c-3.4,0.7-1.8-1.6-1.8-1.6
			l21-3L297.6,959.8z"/>
		<path class="st5" d="M292.8,955.7l-6.9-2.1c-2-0.6-7.1-1.6-8.6-2.5c-1.6-0.8-3.3-1.3-5.1-1.7l-0.4-2.4c1.7,0.4,3.4,0.9,5.1,1.5
			c2.1,0.9,5.1,0.6,8.2-0.1s10.6,3.9,10.6,3.9L292.8,955.7z"/>
		<path class="st5" d="M295.3,945.2l-22,10.2l0.8,4.2c1.2-0.8,2.3-1.8,3.2-2.9c1-1.5,14.3-6.1,14.3-6.1s10.5-3.9,11.6-5
			s-0.5-4.7-0.5-4.7L295.3,945.2z"/>
		<path class="st5" d="M270.8,950.1c-0.5,1-4.6,9.8-4.6,9.8s-1.9,11.7-3.3,12.5s-4.4,7.1-3.5,9.3s-4.4,19.2-4.9,21.2
			s-12.5,3.5-13.3,4.6c-1.2,2.1-2.2,4.3-3.1,6.6c0,0,0.7,2.9,2.7,3.1s1.8-3.3,1.7-5.7s5.7-2.7,11.3-4.2c5.6-1.5,4.5-5.9,5.7-10.9
			s2.5-12,2.1-15.1s5.3-6.9,5.5-8.6s5.5-14.3,5.5-14.3s3.9-6.9,3.2-10.3c0,0-2.2-3.9-3.6-3.8C272.2,944.3,271.3,949.3,270.8,950.1z"
			/>
		<path class="st10" d="M250.8,1005.6c1.4-0.4,4.6-4.5,5.4-5.3c0.8-0.8,3.1-11.4,3.3-12.7s0.4-4,0.6-5.4s0.9-4.5,1.1-5.5
			s2.6-3.9,3.1-5.1s1.1-8.9,1.3-7.2s-2,6.2-2.2,7.1s-3.1,5-3.1,5s-1.9,5.2-0.9,6.8s-0.7,5.3-1.3,7s-1.7,7.1-2.2,9.2
			c-0.5,2.1-3.7,4.6-4.8,5.4s-4.3,1.2-6.7,1.6c-1.4,0.3-2.7,1.1-3.4,2.4C243.6,1006.2,249.5,1006.2,250.8,1005.6z"/>
		<path class="st3" d="M214.9,917.8l25.2-2.6c0,0-1.1,4.4-1.9,5.4s-15.9,3.1-15.9,3.1l-6.2-3.1L214.9,917.8z"/>
		<path class="st4" d="M278.5,923.4c2.3,2.1,18.7,6.6,18.7,6.6l-0.9,2.3c0,0-2.7,1.9-3.3,3.3s0.6,4.6-0.5,3.1s-8.5-2-12-2.2
			s-8.8,4.1-8.8,4.1s0.9-3.9-1.8-5c-1.8-0.8-3.3-2.1-4.6-3.6C265.3,932,276.2,921.3,278.5,923.4z"/>
		<path class="st11" d="M222.8,220.5c-138,22.7-44,103.6-41,88.9L222.8,220.5z"/>
		<path class="st11" d="M182,247.9l68.5,58.5l100.9-68.6c-13.1-0.9-77.5-15.1-77.5-15.1c-35,24.9-55.5-8.9-55.5-8.9L182,247.9z"/>
		<path class="st12" d="M326.1,391.6c113.1,46.6,222.1,318.2,222.1,318.2l-34,9.9l-13.8,4L3.1,739.3C59.2,465,220.7,407.8,212,408.2
			L326.1,391.6z"/>
		<path class="st11" d="M292.4,394.2C227.6,381.3,348.5,238,348.5,238s24.1,19.1,8.3,51.7c-15.8,32.6-36.5,93-31.8,100
			C325,389.7,339.2,403.5,292.4,394.2z"/>
		<path class="st13" d="M246.3,234.5L224.6,253c-19.3-21.6-5.6-38.1-5.6-38.1C225.1,224.8,235,231.8,246.3,234.5z"/>
		<path class="st12" d="M174.3,530.2c-64.4,74.1-72,216.4-72,216.4s-28.4,11.5,124,18.6s272.5-24.8,272.5-24.8
			c-24.4-143.6-124.6-283.6-124.6-283.6"/>
		<path class="st6" d="M439.2,767c0,0-51.2,16.9-65.2,18.9s-87.5,12.3-104.2,13.1s-78.2-0.9-129.4-11.1S45.9,750.5,43,748.6
			L439.2,767z"/>
		<path class="st12" d="M365,489.9c49.8,70,77.1,275,77.1,275c-248.3,75.8-396.3-18.4-396.3-18.4c5.7-120.5,123-269.6,123-269.6"/>
		<path class="st14" d="M242.8,232.4l-19.4,17.4c-17.4-20.4-5.1-36-5.1-36C223.7,223,232.5,229.7,242.8,232.4z"/>
		<path class="st6" d="M275.1,219.9c-11.5,47.7-20.4,33.8-20.4,33.8l-12.4-22C261.8,233.1,275.1,220,275.1,219.9z"/>
		<path class="st15" d="M208,267.9l42.5,20.6l30-18.4c0,0-9.8,7.2-26.6,8.5s-50.9-25-50.9-25L208,267.9z"/>
		<path class="st14" d="M273.9,222.7c-11.1,38.7-19.4,27.5-19.4,27.5L243,232.4C254.1,233,265.1,229.5,273.9,222.7z"/>
		<g id="right_converse">
			<path class="st15" d="M294,384c0.2-2.3,0.4-4.5,0.7-6.7L294,384z"/>
			<path class="st15" d="M306.1,326.8c6.6-12.6,15.8-28.9,23-40.2c0,0-38,22.2-32,55.9l0.8,2.8l-3.2,32c3.2-26,11.8-50.4,11.8-50.4
				L306.1,326.8z M298.1,344.7l-0.1,0.5C297.8,345,298,344.9,298.1,344.7z"/>
		</g>
		<path class="st11" d="M392.4,297.6c-5.5,23.9-30.1,38.6-54.9,32.9c-3.7-0.9-7.2-2.1-10.6-3.8l19.3-83.9c3.8,0,7.5,0.4,11.2,1.2
			C382.2,249.7,397.9,273.7,392.4,297.6z"/>
		<path class="st16" d="M294.7,386.8c-0.2,0.2-0.4,0.4-0.6,0.5C294.4,387,294.6,386.8,294.7,386.8z"/>
		<path class="st16" d="M296.2,392.8l-0.2,2.7c-10.4,8-48.5,33.2-91.3,13.1c0,0-14.1-21-19.6-45.4s-8.5-106.3-8.5-106.3
			s8.2-21,21.8-8.7s24.4,27.7,46.5,33.9s80.5-43,80.5-43s15.4-10.9,26-1.3s-40.1,68.6-47.9,87.8C297.8,339.6,292.7,385,296.2,392.8z
			"/>
		<path class="st15" d="M375.9,652.2c-95,52.4-370-3.7-373.8-2.1L375.9,652.2z"/>
		<path class="st15" d="M377.3,652.1c-25.4-65.8-67.5-177.7-67.5-177.7C317.7,537.8,377.3,652.2,377.3,652.1z"/>
		<path class="st16" d="M295.7,395c3.4,90.6,81.6,257.2,81.6,257.2c-77.2,42.8-369.8-1.8-376.6-2c9.9-95.6,202.8-241.6,202.8-241.6
			C256.8,433.6,290,396.2,295.7,395z"/>
		<path class="st17" d="M442.2,764.9l-15,4.3c10.6-11.6-0.9-111.1-1.9-103.9L442.2,764.9z"/>
		<path class="st17" d="M45.9,746.5c1.6,3.5,9.7,5.3,9.7,5.3c-4.2-26.5,10.7-93.6,9.4-90.2C53.4,692.5,44.3,743,45.9,746.5z"/>
		<path class="st17" d="M498.3,741.9c-2.4-5-9.6-48.1-9.6-48.1c9.6,48.1-22.8,52.5-22.7,54.7L498.3,741.9z"/>
		<path class="st17" d="M419.2,472c16.2,18.7,55.1,90,72.4,118.1c17.3,28.1,56.5,119.6,56.5,119.6s-20.8,3.9-22.9,5.5
			c17.9-18.2,5.5-35,5.5-35l-53-107.5C461.3,532.2,376.5,427,376.5,427S403,453.3,419.2,472z"/>
		<path class="st17" d="M433.6,558.7c0,0-0.7-14.2,32.3,68.2c33.9,84.6,22.7,105.2,22.3,101C483.7,681,433.6,558.7,433.6,558.7z"/>
		<path class="st17" d="M3,739.3c1.3-12.7,23.5-85,23.5-85l-10.7,38.2c-6.5,36,1.2,45.3,1.2,45.3L3,739.3z"/>
		<path class="st17" d="M435.6,768.1c0,0,1.3-20.3-11-104.7C412.3,579,375,507,375,507s10,16.4,37.9,133.8s-21.8,136.7-21.8,136.7
			L435.6,768.1z"/>
		<path class="st17" d="M268.6,231.6c0.3,6.5-10.5,15.4-10.5,15.4C264.6,240.6,268.5,231.7,268.6,231.6z"/>
		<line class="st18" x1="300.2" y1="394.8" x2="300.4" y2="394.7"/>
		<path class="st17" d="M384.3,313.5c-1.4,1.7-3,3.6-4.9,5.9c-7.9,9.3-13.9,8.9-23.7,11.3c-9.8,2.4-15-0.2-16.6-0.8
			s-10.5-13.2-10.5-13.2s1.9,6.6,15.1,9.8c13.2,3.2,25.6-5.1,29.9-7.5s11-10,13.9-15s4.5-25.4,4.4-26.7c0,0,3,0.8,0.8,15.6
			C391,304.1,388.7,308.2,384.3,313.5"/>
		<path class="st17" d="M326.1,328.9l-7.2,23c0,0-7.7,26.8-8,32.9c-0.3,6.1,4.8,7.1,4.8,7.1s-9.8-4.6-10.2-7.5
			c-0.4-2.9,16-58.8,16.2-60.4L326.1,328.9z"/>
		<path class="st17" d="M151.7,284.9c-20.8-29,15.1-46.6,13.8-45.5C138.2,262.1,151.1,282.1,151.7,284.9z"/>
		<path class="st2" d="M359.5,404.8c-3.1,2.1-72.1,58.9-72.1,58.9l9.5,14.4l98.7-74C395.6,404.1,362.6,402.7,359.5,404.8z"/>
		<path class="st2" d="M161,382.1l45.1,69.9l-16.5,8.3l-6.3-6.3c-6.4-6.4-22.1-26.2-35.9-43.6c-8.2-10.2-14.3-22-18-34.6L161,382.1z
			"/>
		<path class="st19" d="M389.5,402.3l-11.8,0.3c-26.1,2.1-88.4,63.6-88.4,63.6"/>
		<path class="st20" d="M359,410.9c12.5-7.6,23.2-8.2,23.2-8.2s-2-0.1-5.5-0.4s-19.9,7.3-19.9,7.3L359,410.9z"/>
		<path class="st20" d="M383.8,316.2l-1.7,1.4c4.6,23.6,11.2,61.1,12.6,69.5l2.1,12.4c0,0-0.6-35-8.1-59.1L383.8,316.2z"/>
		<path class="st2" d="M199.7,454.4l6.4-2.4c-3.4-15.3-45.1-69-45.1-69L199.7,454.4z"/>
		<path class="st20" d="M160.6,385.5c42.7,50.3,42.1,67.1,42.1,67.1l4.7,2.6c-5.4-11-18-32.5-18-32.5s-15.4-23.5-23.1-33.2
			s-14.8-12.7-16.1-12.2L160.6,385.5z"/>
		<path class="st20" d="M148,275.1l-0.7,4.6c0,0-17.5,90.5-18.3,93.9s2.1,6.2,3.7,10.7s13.1,24.9,13.1,24.9l21.4,25.8l-28-40.1
			c0,0-7.2-18.5-7.4-21.4s18.2-95.1,18.2-95.1L148,275.1z"/>
		<g id="hand_:">
			<path class="st2" d="M192.1,461.3l12.7,6.1l14.2,7.9l7.3,3.9c0,0,10.7,0.9,14.6,0.3s5.5-1.9,5.5-1.9l5.1-2c0,0-0.7-1.4-3.8-3.1
				S243,472,243,472l-10.5-0.3c0,0-6.4-3.6-8.1-4.4s-2.8-3.3-2.8-3.3l3.3-0.8l10.4,2.1l6.1-1.1l0.8-3.2l-10.9,1l-0.6-2.9l-4-1.9
				l-11.1-0.1l-8.2-6.2l-18,9L192.1,461.3z"/>
			<path class="st20" d="M215.2,472.2c10.8,7.9,17.3,7.5,19.2,7s11.8-0.4,11.8-1.5s-6.9-2.2-14-1s-14.7-6.7-17.2-7.4
				s-2.3-7.5-2.3-7.5c0.1,1.7,0.7,3.3,1.6,4.7c1.6,2.5,10.6,7.1,13.5,8s11.1,1.3,13.7,1s6.4,1.5,6.6,3.3s-13.8,0.9-18.7,1.5
				c-2.9,0.3-4.8-1.1-6.8-2.7c-1.3-1.2-2.7-2.2-4.2-3c-4.1-2-29.9-14.8-28.4-14.4C192.6,461,214.5,472.4,215.2,472.2z"/>
			<path class="st20" d="M251.4,475.8c0.7-0.7-1.4-1.8-3.8-3.1s-3.3-1.1-8.3,0.1s-10.4-1-13.2-2.5c-2.2-1.4-4.3-2.9-6.3-4.7
				c0.8,0.6,6.3,4.7,9,5.6s12.8,0.7,15.3,0.1s7.2,2.1,8.6,4.1s-6,1.1-6,1.1S250.7,476.5,251.4,475.8z"/>
			<path class="st20" d="M221.1,465.6c-2.8-2.6,3.8-2.2,6.1-2.8s8.7,2.5,11,1.9s3.6-2.2,2.3-2.7s-6.9,0.8-9.2,0s-0.4-2.8,1.3-0.8
				s5.5-0.3,8.1-0.9s4.3,1.1,0.8,3.8s-9.9,1-13.2-0.1s-6.1-0.6-5.3,1.3s10.1,6.4,10.1,6.4S224.1,468,221.1,465.6z"/>
			<path class="st20" d="M207.2,460.9c2.7,0,5.5,0.1,8.2,0.5C211.4,461.3,207.2,460.9,207.2,460.9z"/>
			<path class="st20" d="M186.8,451.6c0,0,1.1-0.5,2.7-1.1C188.6,450.9,187.7,451.3,186.8,451.6z"/>
			<path class="st20" d="M226.4,461.2c-3,2.1-7.1,1.2-10.6,0.4c-0.2,0-0.4-0.1-0.6-0.1c2.5,0.2,4.9,0.1,7.4-0.2c2.8-0.7,6-2.3,4.6-3
				s-4.7-1-8.1-0.2s-5.4-1.1-8.3-3.1c-2-1.3-4.1-2.4-6.3-3.4l-0.7-2.3c2.8,0.8,3.4,2.1,5.5,3.4c2.6,1.5,8.3,5.3,10.8,4.4
				s6.1-0.7,10.1,0.8C234.2,459.4,229.7,459.1,226.4,461.2z"/>
		</g>
		<g id="hand_:-2">
			<path class="st2" d="M298.4,477.1l-14.8,4.1l-17.2,4l-8.8,2c0,0-11.1-2.3-14.9-4.1s-4.9-3.7-4.9-3.7l-4.5-3.7c0,0,1.2-1.2,5-2.1
				s4.9,0.9,4.9,0.9l10.7,2.8c0,0,7.7-1.9,9.7-2.2s4-2.7,4-2.7l-3.1-1.9l-11.2-1l-5.8-3.1l0.3-3.6l10.7,4.4l1.6-2.9l4.7-0.8
				l11.2,3.2l10.5-4.1l14.6,12.5L298.4,477.1z"/>
			<path class="st20" d="M270.8,482.8c-13.7,5.1-20.1,2.6-21.9,1.5s-11.8-4.1-11.4-5.2s7.7-0.1,14.5,3.3c6.8,3.4,17.1-2.7,20-2.6
				s5-7.2,5-7.2c-0.7,1.7-1.9,3.3-3.3,4.5c-2.5,2.2-13.2,4.3-16.5,4.4c-3.3,0.1-11.7-2-14.2-3.1s-7-0.4-7.8,1.5s13.7,5.1,18.4,7.3
				c2.9,1.3,5.3,0.4,7.9-0.7c1.7-0.8,3.5-1.5,5.4-1.9c6.6-1.1,40.1-9.7,33.3-8.7C297.4,476.3,271.7,483.4,270.8,482.8z"/>
			<path class="st20" d="M233.3,475.5c-0.4-0.9,2.1-1.5,5-2.1s3.7-0.1,8.4,2.7s10.9,2.1,14.2,1.4c2.8-0.7,5.4-1.7,8-3
				c-1,0.4-8,2.9-11.1,3.2c-3.1,0.3-13.2-3.1-15.5-4.5s-7.9,0.1-10.1,1.8s5.6,3,5.6,3S233.7,476.4,233.3,475.5z"/>
			<path class="st20" d="M267.4,473.8c3.7-1.8-3.1-3.5-5.2-4.8s-9.8-0.1-11.8-1.3s-2.8-3.4-1.3-3.5s6.7,3.1,9.3,2.9
				c2.6-0.2,1.5-2.9-1-1.3c-2.5,1.6-5.6-2-7.9-3.4s-4.6,0-2.1,3.9s9.6,4,13.3,3.9s6.4,1.1,4.9,3s-12.5,3.8-12.5,3.8
				S263.6,475.8,267.4,473.8z"/>
			<path class="st20" d="M283.1,473.5c-2.8-0.9-5.6-1.6-8.5-2C278.8,472.6,283.1,473.5,283.1,473.5z"/>
			<path class="st20" d="M307.1,469.8c0,0-1-0.9-2.4-2C305.4,468.5,306.2,469.2,307.1,469.8z"/>
			<path class="st20" d="M263.4,467.6c2.3,3.1,6.8,3.5,10.6,3.7c0.2,0.1,0.4,0.1,0.6,0.1c-3.2-0.8-6.3-1.7-7.4-2.4
				c-2.6-1.5-5.3-4.2-3.6-4.5s5.2,0.5,8.3,2.3s5.8,0.4,9.5-0.8c2.5-0.7,5-1.3,7.6-1.7l1.5-2.3c-3.1,0.1-4.2,1.3-6.8,2
				c-3.1,0.9-10.2,3-12.4,1.4s-6-2.5-10.5-2.2C256.4,463.5,261,464.7,263.4,467.6z"/>
		</g>
		<path class="st21" d="M168.1,67.2l47.3,139.7l-7,15.5l-32.3,3.1c-1.5-4.8-2.8-9.6-3.8-14.5c-1.9-8.9-14.8-24.8-18.3-41.2
			s7.5-37.3,7.1-47.3s-7.8-18.4-12.5-35.7s8.4-20.6,8.4-20.6C157.1,65.5,168.1,67.2,168.1,67.2z"/>
		<path class="st22" d="M170.2,136.5c-0.7,13.2,6.7,34.1,11,36.8s17.4,16.5,18.7,21.4s9.5,12.1,15.4,12.3s19.4-5.7,19.4-5.7l33-20.9
			l13.4-31.8c0,0,4.4-33.1,0.4-51s-19.9-30.8-34.7-38.4c-14.8-7.6-56.2-1.8-70.9,3.9s-11.7,47.3-11.7,47.3S170.9,123.3,170.2,136.5z
			"/>
		<path class="st23" d="M227.1,108.7l16.7,2.2l20.7,4.5l-3.7-4.4l-28.4-4.9l-6,0.5C225.1,107.6,227.2,108.9,227.1,108.7z"/>
		<path class="st24" d="M259.4,137.1c-0.7,4.4-8.3,6.9-17,5.6s-15.3-6-14.6-10.4c0.3-1.6,1.3-2.9,2.7-3.7l26.9,3.6
			C258.8,133.4,259.5,135.2,259.4,137.1z"/>
		<path class="st24" d="M198.9,132.4c-0.7,4.4-7.2,7.2-14.7,6s-13-5.7-12.3-10.1c0.3-1.6,1.2-2.9,2.5-3.8l23.4,3.8
			C198.7,129.5,199.1,130.9,198.9,132.4z"/>
		<path class="st17" d="M192.5,127.6c2.7,2-0.2,10.2-0.2,10.2s-2.2,1-8,0.6s-4.7-1.7-5.9-4.3c-1.5-3.3,2.4-8.3,2.4-8.3
			S189.8,125.6,192.5,127.6z"/>
		<path class="st17" d="M252.9,131.3c5.6,6.8-1,11.1-1,11.1l-8.1,0.8c0,0-5.2-0.8-7.7-3.8s3.4-9.4,3.4-9.4L252.9,131.3z"/>
		<path class="st23" d="M168.2,109.7c1.9-1.7,8.2-3.4,14.2-3.8c3.8-0.2,7.6,0.7,10.9,2.6l4.2-3.4l-4.4-1.7c0,0-2.5-1.3-10.9-2.6
			s-14.9,6.7-14.9,6.7S166.3,111.4,168.2,109.7z"/>
		<path class="st20" d="M204.1,157.7c0,0-5.3,0.2-6.1-3.2s5.8-7.4,5.8-7.4C192.8,156.4,204.1,157.7,204.1,157.7z"/>
		<path class="st20" d="M216.6,159.7l-1.2-1.2c-1.2-1.2-5.8,0.4-5-0.1C218,153.9,216.6,159.7,216.6,159.7z"/>
		<path class="st25" d="M206.9,175.2c0.5-1.6,5.3-0.2,8.9,2.3s8.8,1.3,8.8,1.3s1-4.5-0.3-4.7s-7.4-3.5-9.7-3.8s-9.6-2.4-12.8-0.9
			s0.3,6.7,0.3,6.7C204.8,177.5,206.4,176.8,206.9,175.2z"/>
		<path class="st25" d="M205.9,177.4c6,8.2,9.9,0.2,9.9,0.2l8.8,1.3c0,0-0.6,4.2-2.6,6.2s-3.2,3.8-11.4,2.9s-6.8-10-6.8-10
			L205.9,177.4z"/>
		<path class="st21" d="M274,72.8l70.3,77c0,0,27.5,27.1,44.5,33.4s61.3-8.6,69.7-19.9s-0.2-28.9-0.2-28.9l-6.1,10.9
			c0,0-13.4,9.1-46.9,2.6s-97-93.1-97-93.1L274,72.8z"/>
		<path class="st18" d="M308,115.2c-0.4-2,34.5,17.1,41.6,27.5s21.7,45.1,40.6,56.5c18.9,11.4,33.8,22.3,41.8,30.8
			s-3.3,48.6-3.3,48.6s0.5-3.2-1.8-18.8s-30.7-20.5-40.2-23.9s-27-14.6-28.7-25.5c-1.7-10.9-11-10.9-25.2-17.7
			c-14.2-6.8-36.2-28.7-38-29.6C294.8,163.1,308.4,117.4,308,115.2z"/>
		<path class="st21" d="M317,42l1.1-11.4c0,0-7.6-11.5-9.6-11.2S268.8,1.2,268.8,1.2s-23.9-4.8-77.9,10.9S152,69.8,152,69.8L317,42z
			"/>
		<path class="st21" d="M308.3,91.5l89.6,101c0,0,14.4,14,23.2,17.4s13.9,18,14.9,28.8s-11.7,42.7-11.7,42.7s0-0.1,1.5-14.4
			s-9.8-27.3-9.8-27.3s-13.1,3.4-29.3-3.7c-16.2-7.1-19-10.7-28.7-25.5c-9.7-14.8-22.8-11.5-42-16.3c-19.2-4.8-24.8-24.9-24.2-28.8
			L308.3,91.5z"/>
		<path class="st21" d="M301.9,141.7c0.3-2,56.6,64.8,56.6,64.8s5.5,16.7,3.8,32.4c-1.7,15.7-23,69.5-23,69.5s2.3-15.5,4.3-28.5
			s-0.9-28.8-13.2-48.5c-12.3-19.7-30.3-1.2-47-18.3s-8.8-29.8-8.8-29.8S301.8,143.6,301.9,141.7z"/>
		<path class="st21" d="M157.4,63.4c-0.9-5.6,7.3-18.5,7.3-18.5c16.6-29.7,77-3.2,83.3-5.1s40.4-0.5,61.2,1.7
			c20.8,2.2,42.6,33.7,42.6,33.7s28.5,37.1,30.8,49.1c2.3,12,60.8,49.5,60.8,49.5s-5.3-1.9-21.8-9.9S388,141,377.9,131.2
			c-10.1-9.8-22.7-30.9-35.2-40S313.3,79.4,299,80.8s-19.3,6.9-33.1,9.7c-13.8,2.8-24.7-0.5-38.1-3s-21.9-19.4-32.7-26
			s-16.2,9.7-18.4,9.8C166.4,71.6,158.3,69,157.4,63.4z"/>
		<path class="st21" d="M273.1,113.5l35.7,5.4c0,0-2.8,18.8-9.3,31.1s-14,17.8-23.2,31s0.7,48.5,0.7,48.5l-4.4-10.6
			c-4.4-10.6-6.4-19.5-5.7-32.7s4.9-23.9,6.2-36.9s-0.8-25.3,0.2-27.8L273.1,113.5z"/>
		<path class="st0" d="M271.8,74.1c5.2,4.7,37.7,14.2,47.8,17.1s34.7,25.1,42,33.5s4.4,54.4,4.4,54.4s-10.5-26.8-16.4-36.3
			c-5.9-9.5-27.3-16.7-36.8-20.1s-36.9-1.6-46.1-2.3s-33.1-9.6-43.8-21.8s-5.1-23.3-5.1-23.3S266.5,69.4,271.8,74.1z"/>
		<path class="st6" d="M248,138.1c0.5-1.9-0.6-3.8-2.4-4.4c-1.9-0.7-4.1,0.1-4.9,2c0,0,0,0.1,0,0.1c-0.5,1.9,0.6,3.8,2.4,4.4
			c1.9,0.7,4.1-0.1,4.9-2C248,138.2,248,138.2,248,138.1z"/>
		<circle class="st6" cx="185.2" cy="132.6" r="3.6"/>
		<circle class="st5" cx="188" cy="131" r="1.5"/>
		<path class="st5" d="M248.4,135.9c0.3-1-0.3-2-1.2-2.2c-1-0.4-2,0.1-2.5,1c0,0,0,0.1,0,0.1c-0.3,0.9,0.3,1.9,1.2,2.2
			C246.8,137.4,247.9,136.9,248.4,135.9C248.4,136,248.4,136,248.4,135.9z"/>
		<path class="st26" d="M273.2,138c0.6,2.4-4.3,34.7-6.4,48.2s10.1,43.3,10.1,43.3s-10.6-27.9-11.8-33.1s2.8-25.5,3.2-27.8
			s2.1-11.5,2.5-16.5s2.5-30.6,2.5-30.6S272.6,135.6,273.2,138z"/>
		<path class="st26" d="M157,66.2c-0.7-2.2-1-4.6-1-6.9c0.2-3,5.9-12,7.8-15.7s8.3-8.2,12.4-10.6s21.8-3.1,25.4-2.9
			s38.5,8.2,39.5,8.3s29.7-0.3,29.7-0.3s38.8-0.3,55,8.6c16.2,8.9,42.8,49.6,42.8,49.6s-2.2-0.7-6.9-7.8
			c-4.7-7.1-42.9-35.4-49.5-36.4c-6.6-1-37.7-2.3-45.7-3.2s-33.7-6.8-38.1-9.1s-34.2-1-42.4-0.6s-27.6,26.5-27.6,26.5L157,66.2z"/>
		<path class="st26" d="M196.8,62.8l-14.4,1.5C189.3,54.8,196.8,62.7,196.8,62.8z"/>
		<path class="st26" d="M333.9,97.9c0,0,24.2,20.8,30,29.4c5.8,8.6,2.6,49.9,2.6,49.9s-3.9-39.6-6.3-48.1
			c-2.4-8.5-18-12.2-22.3-19.9c-4.3-7.7-48.1-25.6-47.1-25.6C308,84.1,333.9,97.9,333.9,97.9z"/>
		<path class="st26" d="M299.5,150l8.1,12.7c0,0,22.6,15.9,41.9,37.3c19.3,21.4,6.6,50.2,6.6,50.2s-21.3,69.6-17.3,61.4
			s21.9-64.8,24.9-73.5s-1.8-23.6-2.9-29.8c-1.1-6.2-54.6-65.2-56.1-66.4L299.5,150z"/>
		<path class="st26" d="M308.8,121.3c0,0-1.9,8.4-2.7,13.4c-0.8,5-6.3,16.6-9.8,22.5s-12.5,14-12.5,14l-10.3,19.3l-1,17.7l-0.4-17.6
			l1-2.2l7.1-15.8c0,0,13-17.2,16.7-26.1s7.1-24.9,7.1-24.9L308.8,121.3z"/>
		<path class="st26" d="M366.8,156c0,0,17.3,19.5,19.4,23.5s18.2,15.2,24.6,22.2s12.6,8.3,15.3,10.4c2.7,2.1,7,11.6,9.1,17.9
			s0.5,16.5,0.4,19.9s-11.3,31.6-11.3,31.6s8.4-36.2,8.4-45s-7.7-18.3-11.9-21.7s-19.9-15.5-23.4-19.4s-30.3-31.9-30.3-31.9
			L366.8,156z"/>
		<path class="st26" d="M290.8,71.8c0,0,18.6,1.4,25.9,4.9c7.3,3.5,16.6,4.2,21.3,6.6c5.7,3.1,10.6,7.4,14.3,12.6
			c3.6,5.2,23.3,26.4,25.9,31.5s24.1,23.5,24.1,23.5l41,22.9l-25-10.4c0,0-22-13.1-27.9-18.4s-31.2-36.7-31.2-36.7
			s-16.6-17.3-22-21.8s-45-5.4-45-5.4L290.8,71.8z"/>
		<path class="st26" d="M160.2,59.7c0,0-1.8,5.8,0.6,9.5s15.8,2.2,15.8,2.2s3.7-4.7,5.8-7.1c2.1-2.4,16,1.4,16,1.4s17,7.9,19,21.4
			s14.1,18.3,20.5,23s18.4,7.8,24.2,9.7c3.8,1.1,7.8,1,11.5-0.3c0,0-2.9,37.4-2.7,38.4s1.6-10.9,2.3-19.9s8.1-31.5,8.1-31.5
			s-2-2.9-10.7-5.3S237.3,83,228,75.2s-21.8-15.1-26.3-20.5s-13.4-0.3-13.4-0.3s-11.2,7.4-20.2,6.7s1.3-8.6,1.3-8.6L160.2,59.7z"/>
		<path class="st26" d="M276,112.3l-4.2,41.5c0.6-2.7,1-5.4,1.2-8.2c0.7-6.6,5.7-13.3,9.6-25.5s-1.3-13.7-1.3-13.7L276,112.3z"/>
		<circle class="st27" cx="247.3" cy="163.4" r="6.7"/>
		<path class="st27" d="M176.9,153.5c3.6-0.1,6.6,2.7,6.8,6.3c0,0,0,0.1,0,0.1c0.2,3.7-2.7,6.8-6.3,6.9h-0.9l-3.5-11.9
			c1.1-0.8,2.4-1.3,3.8-1.4C176.8,153.5,176.9,153.5,176.9,153.5z"/>
		<path class="st20" d="M198,128.3c-6.6-7.1-23.3-4.7-23.3-4.7L198,128.3z"/>
		<path class="st20" d="M257.4,132.2c-9-6.1-26.9-3.6-26.9-3.6L257.4,132.2z"/>
		<path class="st0" d="M172.3,211c0,0,0.5,27.4,6.5,38.4s29,24.5,29,24.5c-4.8-10.8-8.2-22.3-10-34c-2.5-18,10.6-17.5,10.6-17.5
			L172.3,211z"/>
		<path class="st0" d="M179.4,216.3c0,0-2.6,26.7,0,35.3s37.3,33.3,37.3,33.3s-6.7-4-14.7-26.7s6.4-35.8,6.4-35.8L179.4,216.3z"/>
	</g>
</g>
</svg>
