<?xml version="1.0" encoding="utf-8"?>
<!-- Generator: Adobe Illustrator 20.1.0, SVG Export Plug-In . SVG Version: 6.00 Build 0)  -->
<svg version="1.1" id="Layer_1" xmlns="http://www.w3.org/2000/svg" xmlns:xlink="http://www.w3.org/1999/xlink" x="0px" y="0px"
	 viewBox="0 0 549.2 1042.1" style="enable-background:new 0 0 549.2 1042.1;" xml:space="preserve">
<style type="text/css">
	.st0{fill:#FBCF58;}
	.st1{fill:#DBC2AD;}
	.st2{fill:#D7B49D;}
	.st3{fill:#E0E0E0;}
	.st4{fill:#CCCCCC;}
	.st5{fill:#EEEEEE;}
	.st6{fill:#111111;}
	.st7{fill:#252222;}
	.st8{fill:#111111;stroke:#252525;stroke-miterlimit:10;}
	.st9{fill:none;stroke:#252222;stroke-miterlimit:10;}
	.st10{fill:#252525;}
	.st11{fill:#0096C1;}
	.st12{fill:#0096C1;stroke:#04B2D9;stroke-miterlimit:10;}
	.st13{fill:#111111;stroke:#0096C1;stroke-miterlimit:10;}
	.st14{fill:#0096C1;stroke:#111111;stroke-miterlimit:10;}
	.st15{fill:#111111;stroke:#111111;stroke-miterlimit:10;}
	.st16{fill:#F2F2F2;}
	.st17{fill:#04B2D9;}
	.st18{fill:none;}
	.st19{fill:#D7B49D;stroke:#E0C09C;stroke-miterlimit:10;}
	.st20{fill:#E0C09C;}
	.st21{fill:#FBCF58;stroke:#F4C756;stroke-miterlimit:10;}
	.st22{fill:#E7CFB4;}
	.st23{fill:#222222;}
	.st24{fill:#FFFFFF;}
	.st25{fill:#CA9A93;}
	.st26{fill:#F4C756;}
	.st27{opacity:0.14;fill:#CA9A93;enable-background:new    ;}
</style>
<title>Asset 1</title>
<g id="Layer_2">
	<g id="Layer_1-2">
		<polygon class="st0" points="372.8,225.5 371.4,234.3 340.5,222.4 345.3,214.1 		"/>
		<path class="st1" d="M329,201c0,0-0.9,44.1,1.6,53.5s-8.4,8.6-21.3,2S279.7,239,275.5,225s12.3-54.3,12.3-54.3
			S307.8,195.6,329,201z"/>
		<path class="st2" d="M209.6,295.3c1.5,2.8-19.3,110.6-19.3,110.6l-35.1,0.7c0,0-11.5-5.3,20-132L209.6,295.3z"/>
		<path class="st2" d="M397.3,257.7c-2.6,0.7,22.6,124.4,22.6,124.4l-30.7,6.5c-4.9,3.3-23.7-94.6-23-116.4
			C366.9,250.7,397.3,257.7,397.3,257.7z"/>
		<path class="st3" d="M390,742.1c0,2.8-0.6,81.7-16.8,117.7s-28.4,51.6-28.5,68.3s2.8,25.1,2.8,25.1l-36,1.4c0,0-8.3-102.2-1-147.6
			s13.5-67.6,13.5-67.6L390,742.1z"/>
		<path class="st3" d="M283.3,958.8c0,0,1.4-40.9,5.9-59.6s31.5-114.3,31.7-143.5c0,0-62.1-35.9-84.2-15.1s7.6,166.3,9.7,174.5
			s7.5,16.5,4.2,24.6S283.3,958.8,283.3,958.8z"/>
		<path class="st4" d="M236.3,770.3c0,5.1-0.3,41.8,4.1,51.6s5.4,13.5,2.9,20.5s-1.3,45.9-1.3,45.9s-6.7-38.1-8.2-47.9
			s-4.2-40.4-4.6-53.4s-0.3-21.4-0.3-21.4L236.3,770.3z"/>
		<path class="st4" d="M379.7,772.7c-0.5,4-2.4,42.5-2.4,42.5c-0.5-1.5-15.1-42.2-33.1-36.3c-8.2,2.5-15.7,6.9-21.7,13l-10.9-12.2
			C321.2,772.7,380.3,768.9,379.7,772.7z"/>
		<path class="st4" d="M316.3,769c0,1.4-16.5,70.3-19.6,80.5s-8.8,39.8-10.9,50s-1.2,25-1.2,25s2.7-27.8,7.3-39.8
			s16.5-64.8,16.5-64.8l9.9-50.9H316.3z"/>
		<path class="st4" d="M295.7,852.7c-1,1.4-17.3,62.4-25.3,70.7c-4.9,5-8.6,11.1-10.8,17.8L247,956.5c0,0,35.9,7.4,36,6
			s0.3-39.9,1.8-46.4S295.7,852.7,295.7,852.7z"/>
		<path class="st4" d="M387.2,784.3c0,0-10.4,61.6-15.5,69.9s-15.2,28.1-18.2,35s-6.2,22.7-6.2,22.7s17.8-38.8,21.3-45.7
			s10.2-27.7,12.8-35.6s6.3-48.2,6.3-48.2L387.2,784.3z"/>
		<path class="st4" d="M380.7,773.8c0.6,3.1-20,100-20,100c-4.7,11.7-6.1,17.9-6.1,17.9s23.7-45.5,27.9-77s3.7-47,3.7-47
			L380.7,773.8z"/>
		<g id="left_converse">
			<path class="st5" d="M304.7,957.2c-1.6-0.7-19-0.5-21,0.1s-0.9,1.3-0.9,1.3s5.8,0.1,8.5,1.1s1.8,2.1,5.5,1.4
				c2.8-0.4,5.7-0.5,8.6-0.2L304.7,957.2z"/>
			<path class="st6" d="M412.6,1007.4c0,0,4.4-0.4,3.8,0.8s-4.2,1.8-5.9,2.8s-9.6,3.7-12.8,2.4s-14.7-3.3-16.9-4.1
				s-13.2-1.3-15.1-2.5s-12.6-4.3-12.6-4.3L412.6,1007.4z"/>
			<path class="st5" d="M345.2,927.3c0,0,10.1,5,10.6,8.8s1,14.9,1,14.9l-2.5-3.4c0,0,0.3-5.8-0.3-8.5s-8.4-9.8-8.4-9.8L345.2,927.3
				z"/>
			<path class="st5" d="M401,980.1c0,0-16.9,1.4-25.9,15.4c0,0,0.7,3.3,15.9,3s17,1.5,21.1-2s5.7-4.8,0.4-9
				C408.9,984.7,405.1,982.2,401,980.1z"/>
			<path class="st7" d="M401,980.1c-0.8-0.5-22.4-9.9-25.6-12.4s-9.8-8.1-12.7-10.5s-11.8-12.4-13.7-18.4s-2.1-14.2-1.3-16.2
				c2.1-5.3-7.2-4.2-12.1-2.2c-3.1,1.2-7.8,2.2-9,2.6s16.8,41.1,23,48s25.6,24.5,25.6,24.5L401,980.1z"/>
			<path class="st6" d="M309.1,921.8c0.5,1.6,0.4,18.7-1.9,26.7s-4,8.3-1.9,11.3s33.7,22.7,37.1,25s23,9.9,31.2,10.7
				c0,0,2.9-9.3,2.2-11.9s-5.9-8.4-8.9-10.1s-17-14.4-20.9-18.1s-9.4-10.8-9.8-14.7s-0.6-5.3,0.1-8.8s2.7-4.3-1.1-5.5
				s-12.6-2.4-15.3-2.9s-7.4-2.1-8.4-3C309.6,918.4,309.1,921.8,309.1,921.8z"/>
			<path class="st8" d="M332.4,921.3c0,0-5.9-3.1-9.8-3.5s-13.5,0.1-13.6,1.4s1.5,2.2,4.8,3s13.4,2.2,13.4,2.2L332.4,921.3z"/>
			<path class="st5" d="M416.1,992.4c0,0,4.6,8.3-0.6,12.9s-11.7,7.3-27,5.3c-13.2-2.1-26.2-5-39-8.7l1.7-12.6
				c0,0,23.9,8.2,33.2,9.1s16.8,1.3,19.3,0.5S412.8,997.5,416.1,992.4z"/>
			<path class="st5" d="M305.7,959.9c0,0.9,0,6.6,2.3,10s16.1,9.8,20.5,14.6s10.7,11.7,20.9,17.4l1.7-12.6c0,0-15.5-9.5-18.5-11.6
				s-13.9-8.6-16.9-10.9C312.5,964.3,309.1,962,305.7,959.9z"/>
			
				<ellipse transform="matrix(4.850110e-02 -0.9988 0.9988 4.850110e-02 -618.2269 1216.4396)" class="st9" cx="329.4" cy="932.7" rx="2.1" ry="2.7"/>
			<g id="holes">
				
					<ellipse transform="matrix(4.850110e-02 -0.9988 0.9988 4.850110e-02 -632.4971 1298.28)" class="st9" cx="365.2" cy="981.1" rx="2.4" ry="3"/>
				
					<ellipse transform="matrix(4.850110e-02 -0.9988 0.9988 4.850110e-02 -634.1616 1247.7625)" class="st9" cx="337.8" cy="956.7" rx="2.1" ry="2.7"/>
				
					<ellipse transform="matrix(4.850110e-02 -0.9988 0.9988 4.850110e-02 -631.4295 1236.3259)" class="st9" cx="333.2" cy="949.6" rx="2.1" ry="2.7"/>
				
					<ellipse transform="matrix(4.850110e-02 -0.9988 0.9988 4.850110e-02 -636.2131 1259.8519)" class="st9" cx="343.1" cy="963.9" rx="2.1" ry="2.7"/>
				
					<ellipse transform="matrix(4.850110e-02 -0.9988 0.9988 4.850110e-02 -634.4846 1285.3486)" class="st9" cx="357.4" cy="975.7" rx="2.4" ry="3"/>
				
					<ellipse transform="matrix(4.850110e-02 -0.9988 0.9988 4.850110e-02 -636.2424 1271.819)" class="st9" cx="349.4" cy="969.9" rx="2.4" ry="3"/>
			</g>
			<path class="st5" d="M390.1,974.3c-0.8-0.3-8.5-6.9-32.2-1.5l1.9,3.1c0,0,11.4-5.1,23.7-3S390.1,974.3,390.1,974.3z"/>
			<path class="st5" d="M350.3,967.6c7.1-1.7,14.5-2.2,21.7-1.2l3.4,3c0,0-13.5-2.4-23.3,0.6L350.3,967.6z"/>
			<path class="st5" d="M365.3,962.3c-1.1-0.3-9.8-1.8-15.5,0.3s-4.8,1.5-4.8,1.5l-1.8-2.4c0,0,10.7-4.4,15.1-3.5
				c2.6,0.5,5,1.6,7,3.2L365.3,962.3z"/>
			<path class="st5" d="M340.5,956.9l-1.8-2.1c0,0,11.7-4.6,16.3-2.4l-2.6,2.3C348.3,954.9,344.3,955.7,340.5,956.9z"/>
			<path class="st5" d="M334.8,950.5l-0.6-2.8c0,0,7-2.3,13.3-0.5l-1.2,1.9c0,0-8.3,0.9-10.8,1.4S334.8,950.5,334.8,950.5z"/>
			<path class="st5" d="M351.5,945.9c0,0-15.1-6.4-19.7-3.6s1.3-3.9,1.3-3.9s16.5,1,17.2,3.2S351.5,945.9,351.5,945.9z"/>
			<path class="st5" d="M341.2,932.7l-5.2-1.8c0,0-1.7,1.7-1.8,2.3s4.1,1.3,4.1,1.3L341.2,932.7z"/>
			<path class="st10" d="M356.3,991.3c1.8-1.6-2.5,11.1-3.2,11.9S355.7,991.9,356.3,991.3z"/>
			<path class="st10" d="M418.8,999.8c0,0-10.5,12-56.6,0.5C363,1001.2,404.6,1012.9,418.8,999.8z"/>
			<path d="M415.7,990.4c0,0-2.8,6-8.6,7.2s-20.5,1.2-24.3,0.4c-2.6-0.6-5.2-1.5-7.6-2.6c0,0,4.1,5.9,27.1,4.6
				C402.2,1000.1,414.4,999.6,415.7,990.4z"/>
			<path d="M401.3,979.6l-26.1,15.2C375.2,994.8,395.2,980.2,401.3,979.6z"/>
			<path class="st6" d="M396,978.1c-0.7-0.1-12.3-3-13.7-4.1s-13.1-9.6-13.8-11s-11.4-9.1-14.3-14.2s-6-12.2-6-12.2
				s5.7,13.7,13.1,19.4s13.5,10.8,15.2,11.8"/>
			<path class="st5" d="M381.2,969c0,0-1.5-2.9-4-2.2s-5.4,3.2-7.7,5.8s-4.9,4.8-5.8,6.3s3.8,1.3,3.8,1.3s7-7.5,9-9.2
				S379.3,968.7,381.2,969z"/>
			<path class="st5" d="M373.2,963.8c0,0-2.6-3-3.7-2.6s-7.8,7.9-7.8,7.9l2.6,2.3L373.2,963.8z"/>
			<path class="st5" d="M364.9,959c0,0,0.1-3.1-2.6-2.8c0,0-3.6,5.3-7,7.5l2.6,2.3L364.9,959z"/>
			<path class="st5" d="M359.6,954c-0.8,0.4-8,6-8,6l-3.5-2.6l8.6-6.4L359.6,954z"/>
			<path class="st5" d="M352.8,944.4c0,0,2.9,2.3,1.5,3.1c-1.8,1.4-3.6,2.9-5.2,4.6l-5.6,0.8l-1.1-0.9L352.8,944.4z"/>
			<path class="st5" d="M348.5,938.7c-0.7,0.3-9.7,4-10.3,5.7s1.5,2.3,1.5,2.3s11.4-5.3,11.5-6.6S351,937.8,348.5,938.7z"/>
			<path class="st5" d="M346.8,929.2c-1.4,0.8-10.7,6.9-10.7,6.9l0.1,2.9l1.9,0.5l10.7-8L346.8,929.2z"/>
			<path class="st5" d="M341.2,932.7c-0.2-0.9,0.8-4.3-2-4.3s-4.4-0.2-5.9,1.5s-4.1,4.6-5.9,13.3s-2.9,25.7-3.8,27.4
				s0.3,11.4-1.5,12.9s-4.5,1.3-8.4,2.4s-4.4-0.7-8.4,2.2c-3.3,2.5-4.7,6.8-3.6,10.8c1,2.5,7,3,6.6,1s-5,0.2-4-2.4s0-5.9,5-7
				s16.4-1.8,17-4.4s1-21.2,1.7-24.2s3.8-20.8,5.3-23.4c-0.4-1.8-0.1-3.6,0.8-5.2c1.1-1.4,2.7-2.2,4.5-2.2l-0.1,1.3L341.2,932.7z"/>
			<path d="M338.8,931c0,0-4.3-0.9-5.3,4.4s-2,11.6-2.6,12.7s-2.8,15.8-3,16.8s-0.4,16.5-1.1,18.1s-0.2,3.5-0.9,3.9s-3,1.3-3,1.3
				s2.7,0.3,3.3-7.9c0,0,0.8-8.7,1.1-10.6s0.6-8.7,1.6-13.8s2.7-13.2,3.1-15.3s0.5-7.1,1.3-7.8S335.3,930,338.8,931z"/>
		</g>
		<path class="st8" d="M249.7,931.5c1.7-0.7,10.2-1.5,13.6-2.8s-0.2-0.8,3.4-1.3s15.2,5.7,15.2,5.7s-2.9,1.3-3.2,3s-1.1,5.4-1.1,5.4
			l-23.1-0.4c0,0,1.3-4.6,0.3-6.1S249.7,931.5,249.7,931.5z"/>
		<path class="st7" d="M277.7,941.4c-0.5-1-7.1-5-10.2-4.9s-10.4,0.5-12.9,4.5s-3.2,1.8-3.5,2.5s-0.6,30.5-0.6,30.5l-12.4,34.1
			c0,0,36,0.8,39.5,3.4s3.2,3.6,3.2,3.6L277.7,941.4z"/>
		<path d="M285.7,1029.5c-1.2,4.9-4.9,8.7-9.7,10.2c-8.2,2.6-18.7,2.5-22.1,2.4c-3.6-0.2-18.1-1.4-21-3.5s-6.5-4.9-6.8-7.1
			S285.7,1029.5,285.7,1029.5z"/>
		<path class="st6" d="M248.2,969.8c-1.6,1.1-3.1,2.3-4.5,3.6c-3,2.7-6.7,6.6-8.6,11c-3.5,8.2-8.5,19.3-8.6,20.8s3.7,9.8,3.7,9.8
			s9.6-7.4,13.7-9.7s5.3-4.7,6.8-6.1s5.9-28.3,6.6-32.2s0.5-10.1-1.9-12.2s-5.6-6.2-4.3-9.8s5-3.9,4.3-7.7s-1.5-4-2.8-5.1
			c-0.8-0.7-1.8-1-2.8-0.9c0,0,1.1,0.5,0.1,4.7s-3.9,10.2-2.6,13.7c0.6,1.7,1.3,3.3,2.3,4.8c0,0,1.3,8.4,0.3,11.3
			C249.4,967.2,248.8,968.5,248.2,969.8z"/>
		<path class="st6" d="M288.1,1009.9c-0.5-1.7-2.4-8-1.3-12.9s-1.5-14.9-3-18.6s-4.9-10.1-4.4-13.5s2.5-6,3.3-9.4s0.6-12.5,0.5-15.5
			s3.2-5.1,1.6-6.5c-2-1.7-1.6,0.3-3.3,1s-3.1,0.6-3.6,3.8s-1,8.1-1.1,11.3s-2.2,15.4-4,19.3s-2.3,1.1-3.4,6.7s-1,9.8-2.4,15.4
			s-0.3,12.5,3.2,15.2s10.6,7.2,10.8,9.1l0.2,2L288.1,1009.9z"/>
		
			<ellipse transform="matrix(4.850110e-02 -0.9988 0.9988 4.850110e-02 -735.6941 1229.1648)" class="st9" cx="277.3" cy="1000.7" rx="2.4" ry="2.7"/>
		
			<ellipse transform="matrix(4.850110e-02 -0.9988 0.9988 4.850110e-02 -730.3154 1220.8928)" class="st9" cx="275.7" cy="993.8" rx="2.4" ry="2.7"/>
		
			<ellipse transform="matrix(4.850110e-02 -0.9988 0.9988 4.850110e-02 -724.6484 1213.4481)" class="st9" cx="274.6" cy="987.1" rx="2.4" ry="3"/>
		
			<ellipse transform="matrix(4.850110e-02 -0.9988 0.9988 4.850110e-02 -770.6927 1191.2821)" class="st9" cx="239.9" cy="1000.2" rx="2.4" ry="3"/>
		
			<ellipse transform="matrix(4.850110e-02 -0.9988 0.9988 4.850110e-02 -760.0792 1186.8768)" class="st9" cx="242.9" cy="992.4" rx="2.4" ry="2.8"/>
		
			<ellipse transform="matrix(4.850110e-02 -0.9988 0.9988 4.850110e-02 -750.9634 1183.6937)" class="st9" cx="245.8" cy="986" rx="2.1" ry="2.6"/>
		
			<ellipse transform="matrix(4.850110e-02 -0.9988 0.9988 4.850110e-02 -740.0562 1180.6295)" class="st9" cx="249.6" cy="978.7" rx="1.7" ry="2.4"/>
		<path class="st5" d="M288.1,1009.9c0-1.8-8.2,13.4-21.2,12.8s-34.9-4.9-36.8-7.7s-5.9-11.1-4.2-12.5s-3.4,1.3-3.7,11.6
			c-0.3,10.3,3.9,17.7,6.4,19.5s17,9,29.7,7.8c12.7-1.2,18.7-3,22.8-5.5S288.2,1020.5,288.1,1009.9z"/>
		<path class="st5" d="M281,1017.2c0,0-8.7,5.5-14.1,5.5s-32.4-4.8-36.8-7.7l9.6-6.9c0,0,33.7,0.4,36.2,2.5c1.7,1.5,3.3,3,4.8,4.7
			L281,1017.2z"/>
		<path d="M281,1017.2c0,0-4.7,8.1-25.8,5.4c-20.2-2.6-25-7.6-25-7.6s20.9,7.6,28.1,7.3C265.5,1022,263.8,1024,281,1017.2z"/>
		<path d="M274.1,1009.7c-1.1-0.1-34.2-1.7-34.2-1.7l1.5-0.9l32.9,1.8l0.5,1.3L274.1,1009.7z"/>
		<path d="M284.5,1022.2c-0.4,0.6-2.3,8.6-14.9,9.9s-32-2-36-4.2s-8.6-12.2-8.9-13.9s1.7,6.5,3.9,9.4s4.2,6.1,10,7.2
			s21.4,2.7,21.4,2.7s13-0.2,13.9-0.6s4.8-2.6,6.6-3.6S284.5,1022.2,284.5,1022.2z"/>
		<path class="st5" d="M275.9,1001.9c-0.9-0.4-8.1-4-11.1-3.5s-12.1,1.2-13,1.2s-10.7-0.4-11.1,0.3s-2.5,0.4-1.8-0.7
			c0.7-1.1,1.5-2.1,2.4-3c0,0,0.7-2.1,13.1-0.3l9.2,0.1c0,0,6-0.5,7.9,0.1c1.9,0.8,3.8,1.8,5.5,2.9L275.9,1001.9z"/>
		<path class="st5" d="M275,994.2l0.1-2.5c0,0-6.3-1.8-8.3-0.8c-2.5,1-5.1,1.8-7.7,2.5c-1.3,0.7-2.6,1.5-3.7,2.4l8.3,0.1
			c0,0,4.6-2.4,7.4-2.1S275,994.2,275,994.2z"/>
		<path class="st5" d="M242.3,992.3c0.6-2.3,2.9-3.6,5.2-3.2c4.3,0.5,8.2,0.7,9.9,1.8c0.9,0.6,1.8,1.4,2.5,2.3l-5.4,2.7
			c0,0-2.5-3.4-6.4-3.4S242.3,992.3,242.3,992.3z"/>
		<path class="st5" d="M273.6,988.5l1.1-3.4c0,0-2.9-1.8-5.6-1.4s-7.9,0.3-9.1,1s-5.9,4.6-5.9,4.6l3.1,1.5c0,0,8-3.1,9.5-3.1
			C269,987.8,271.3,988.1,273.6,988.5z"/>
		<path class="st5" d="M245.2,985.3c3.7-2.9,4.9-4,6.4-3.8s7.1,1,8.5,3.2l-3.5,2.8c0,0-4.7-3.2-6.8-3c-1.3,0.1-2.5,0.8-3.3,1.8
			L245.2,985.3z"/>
		<path class="st5" d="M274.2,981l1.4-4.9c0,0-2-0.9-5.5,0.6s-8.1,4-9.6,4.3c-1.4,0.3-2.7,0.8-4,1.3l3.6,2.5c2-1.3,4.3-2.2,6.7-2.5
			c4-0.5,4-1.9,5.2-1.9C272.7,980.5,273.5,980.7,274.2,981z"/>
		<path class="st5" d="M248.9,977.5c0,0,3.4-6.2,7.3-4.6s8.8,3.6,9.3,4.9s-5,3.2-5,3.2s-6.9-5.8-8.1-4.1S249.4,978.7,248.9,977.5z"
			/>
		<path class="st5" d="M277,967.3c0,0,1,2.8-0.5,4.2c-1.4,1.5-3.4,2.1-5.4,1.7c-2.5-0.4-6.1-2.8-7.8-1.4c-1.1,0.9-2.4,1.5-3.8,2
			c0,0,4.5-5.7,8.1-5.5s3.6,0.4,6.8-0.2l3.1-0.6L277,967.3z"/>
		<path class="st5" d="M251.2,966c0,0,1-2.4,4.6-1.3c3.6,1.1,5.3,1.5,7.5,1.4s5.6,0.3,5.8,1.3s-4,1.8-4,1.8s-9.9,1-11.6,1.2
			c-0.9,0.1-1.9,0.2-2.8,0.1L251.2,966z"/>
		<path class="st5" d="M273.7,965.1c0,0-13.5,0.1-14.3-0.2s-0.7-3-0.7-3s5.2-2.7,8.8-2.5c2.5,0.2,5,0.6,7.5,1.1L273.7,965.1z"/>
		<path class="st5" d="M249.5,954.6l21,3c0,0,1.6,2.3-1.8,1.6c-2.2-0.4-4.5-0.6-6.7-0.6c-1.8,0.5-3.6,0.9-5.4,1.2
			c-1.7,0.1-5.3,0-5.3,0L249.5,954.6z"/>
		<path class="st5" d="M253.2,952.3c0,0,7.5-4.6,10.6-3.9s6.1,1,8.2,0.1c1.7-0.6,3.4-1.1,5.1-1.5l-0.4,2.4c-1.8,0.4-3.5,0.9-5.1,1.7
			c-1.5,0.9-6.6,1.9-8.6,2.5l-6.9,2.1L253.2,952.3z"/>
		<path class="st5" d="M246.2,940.9c0,0-1.6,3.6-0.5,4.7s11.6,5,11.6,5s13.3,4.6,14.3,6.1c0.9,1.1,2,2.1,3.2,2.9l0.8-4.2l-22-10.2
			L246.2,940.9z"/>
		<path class="st5" d="M276.7,944.3c-1.4-0.1-3.6,3.8-3.6,3.8c-0.7,3.4,3.2,10.3,3.2,10.3s5.3,12.6,5.5,14.3s5.9,5.5,5.5,8.6
			s0.9,10.1,2.1,15.1s0.1,9.4,5.7,10.9s11.4,1.8,11.3,4.2s-0.3,5.9,1.7,5.7s2.7-3.1,2.7-3.1c-0.9-2.3-1.9-4.5-3.1-6.6
			c-0.8-1.1-12.8-2.6-13.3-4.6s-5.8-19-4.9-21.2s-2.1-8.5-3.5-9.3s-3.3-12.5-3.3-12.5s-4.1-8.8-4.6-9.8
			C277.6,949.3,276.7,944.3,276.7,944.3z"/>
		<path class="st10" d="M307.9,1008.9c-0.7-1.3-2-2.1-3.4-2.4c-2.4-0.4-5.6-0.8-6.7-1.6s-4.3-3.3-4.8-5.4s-1.6-7.5-2.2-9.2
			s-2.3-5.4-1.3-7s-0.9-6.8-0.9-6.8s-2.9-4.1-3.1-5s-2.4-5.4-2.2-7.1s0.8,6,1.3,7.2s2.9,4.1,3.1,5.1s0.9,4.1,1.1,5.5
			s0.4,4.1,0.6,5.4s2.5,11.9,3.3,12.7s4,4.9,5.4,5.3C299.4,1006.2,305.3,1006.2,307.9,1008.9z"/>
		<path class="st3" d="M332.8,920.6l-6.2,3.1c0,0-15.1-2.1-15.9-3.1s-1.9-5.4-1.9-5.4l25.2,2.6L332.8,920.6z"/>
		<path class="st4" d="M283.6,932c-1.3,1.5-2.8,2.8-4.6,3.6c-2.7,1.1-1.8,5-1.8,5s-5.3-4.3-8.8-4.1s-10.9,0.7-12,2.2
			s0.1-1.7-0.5-3.1s-3.3-3.3-3.3-3.3l-0.9-2.3c0,0,16.4-4.5,18.7-6.6S283.6,932,283.6,932z"/>
		<path class="st11" d="M367.1,309.4c3,14.7,97-66.2-41-88.9L367.1,309.4z"/>
		<path class="st11" d="M330.5,213.8c0,0-20.5,33.8-55.5,8.9c0,0-64.4,14.2-77.5,15.1l100.9,68.6l68.5-58.5L330.5,213.8z"/>
		<path class="st12" d="M336.9,408.2c-8.7-0.4,152.8,56.8,208.9,331.1L48.5,723.7l-13.8-4l-34-9.9c0,0,109-271.6,222.1-318.2
			L336.9,408.2z"/>
		<path class="st11" d="M223.9,389.7c4.7-7-16-67.4-31.8-100s8.3-51.7,8.3-51.7s120.9,143.3,56.1,156.2
			C209.7,403.5,223.9,389.7,223.9,389.7z"/>
		<path class="st13" d="M329.9,214.9c0,0,13.7,16.5-5.6,38.1l-21.7-18.5C313.9,231.8,323.7,224.8,329.9,214.9z"/>
		<path class="st12" d="M174.6,456.8c0,0-100.2,140-124.6,283.6c0,0,120.1,31.9,272.5,24.8s124-18.6,124-18.6s-7.6-142.3-72-216.4"
			/>
		<path class="st6" d="M505.9,748.6c-2.9,1.9-46.3,29.1-97.5,39.3S295.7,799.8,279,799s-90.2-11.1-104.2-13.1S109.6,767,109.6,767
			L505.9,748.6z"/>
		<path class="st12" d="M380,476.9c0,0,117.3,149.1,123,269.6c0,0-148,94.2-396.3,18.4c0,0,27.3-205,77.1-275"/>
		<path class="st14" d="M330.5,213.8c0,0,12.3,15.6-5.1,36L306,232.4C316.3,229.7,325.1,223,330.5,213.8z"/>
		<path class="st6" d="M306.6,231.7l-12.4,22c0,0-8.9,13.9-20.4-33.8C273.8,220,287,233.1,306.6,231.7z"/>
		<path class="st15" d="M345.9,253.6c0,0-34.1,26.3-50.9,25s-26.6-8.5-26.6-8.5l30,18.4l42.5-20.6L345.9,253.6z"/>
		<path class="st14" d="M305.9,232.4l-11.5,17.8c0,0-8.3,11.2-19.4-27.5C283.8,229.5,294.7,233,305.9,232.4z"/>
		<g id="right_converse">
			<path class="st15" d="M254.2,377.3c0.3,2.2,0.5,4.4,0.7,6.7L254.2,377.3z"/>
			<path class="st15" d="M242.4,326.9c0,0,8.6,24.4,11.8,50.4l-3.2-32l0.8-2.8c6-33.7-32-55.9-32-55.9c7.2,11.3,16.4,27.6,23,40.2
				L242.4,326.9z M250.9,345.2l-0.1-0.5C250.9,344.9,251,345,250.9,345.2z"/>
		</g>
		<path class="st11" d="M191.5,244c3.7-0.8,7.4-1.2,11.2-1.2l19.3,83.9c-3.4,1.7-6.9,2.9-10.6,3.8c-24.8,5.7-49.4-9-54.9-32.9
			S166.7,249.7,191.5,244z"/>
		<path class="st16" d="M254.8,387.3c-0.2-0.1-0.4-0.3-0.6-0.5C254.3,386.8,254.5,387,254.8,387.3z"/>
		<path class="st16" d="M245.4,325.6c-7.8-19.2-58.5-78.2-47.9-87.8s26,1.3,26,1.3s58.4,49.2,80.5,43s32.9-21.6,46.5-33.9
			s21.8,8.7,21.8,8.7s-3,81.9-8.5,106.3s-19.6,45.4-19.6,45.4c-42.8,20.1-80.9-5.1-91.3-13.1l-0.2-2.7
			C256.2,385,251.1,339.6,245.4,325.6z"/>
		<path class="st15" d="M546.8,650.1c-3.8-1.6-278.8,54.5-373.8,2.1L546.8,650.1z"/>
		<path class="st15" d="M239.1,474.4c0,0-42.1,111.9-67.5,177.7C171.6,652.2,231.2,537.8,239.1,474.4z"/>
		<path class="st16" d="M345.4,408.6c0,0,192.9,146,202.8,241.6c-6.8,0.2-299.4,44.8-376.6,2c0,0,78.2-166.6,81.6-257.2
			C258.9,396.2,292.1,433.6,345.4,408.6z"/>
		<path class="st17" d="M123.6,665.3c-1-7.2-12.5,92.3-1.9,103.9l-15-4.3L123.6,665.3z"/>
		<path class="st17" d="M483.9,661.6c-1.3-3.4,13.6,63.7,9.4,90.2c0,0,8.1-1.8,9.7-5.3S495.5,692.5,483.9,661.6z"/>
		<path class="st17" d="M82.9,748.5c0.1-2.2-32.3-6.6-22.7-54.7c0,0-7.2,43.1-9.6,48.1L82.9,748.5z"/>
		<path class="st17" d="M172.4,427c0,0-84.8,105.2-101.2,145.7l-53,107.5c0,0-12.4,16.8,5.5,35c-2.1-1.6-22.9-5.5-22.9-5.5
			S40,618.2,57.3,590.1s56.2-99.4,72.4-118.1S172.4,427,172.4,427z"/>
		<path class="st17" d="M60.7,727.9c-0.4,4.2-11.6-16.4,22.3-101c33-82.4,32.3-68.2,32.3-68.2S65.2,681,60.7,727.9z"/>
		<path class="st17" d="M531.9,737.8c0,0,7.7-9.3,1.2-45.3l-10.7-38.2c0,0,22.2,72.3,23.5,85L531.9,737.8z"/>
		<path class="st17" d="M157.8,777.5c0,0-49.7-19.3-21.8-136.7S173.9,507,173.9,507s-37.3,72-49.6,156.4s-11,104.7-11,104.7
			L157.8,777.5z"/>
		<path class="st17" d="M290.8,247c0,0-10.8-8.9-10.5-15.4C280.4,231.7,284.3,240.6,290.8,247z"/>
		<line class="st18" x1="248.5" y1="394.7" x2="248.7" y2="394.8"/>
		<path class="st17" d="M164.6,313.5c-4.4-5.3-6.7-9.4-8.4-20.6c-2.2-14.8,0.8-15.6,0.8-15.6c-0.1,1.3,1.5,21.7,4.4,26.7
			s9.6,12.6,13.9,15s16.7,10.7,29.9,7.5s15.1-9.8,15.1-9.8s-8.9,12.6-10.5,13.2s-6.8,3.2-16.6,0.8s-15.8-2-23.7-11.3
			C167.6,317.1,166,315.2,164.6,313.5"/>
		<path class="st17" d="M227.2,324c0.2,1.6,16.6,57.5,16.2,60.4s-10.2,7.5-10.2,7.5s5.1-1,4.8-7.1s-8-32.9-8-32.9l-7.2-23L227.2,324
			z"/>
		<path class="st17" d="M383.4,239.4c-1.3-1.1,34.6,16.5,13.8,45.5C397.8,282.1,410.7,262.1,383.4,239.4z"/>
		<path class="st2" d="M153.3,404.1l98.7,74l9.5-14.4c0,0-69-56.8-72.1-58.9S153.3,404.1,153.3,404.1z"/>
		<path class="st2" d="M419.5,375.8c-3.7,12.6-9.8,24.4-18,34.6c-13.8,17.4-29.5,37.2-35.9,43.6l-6.3,6.3l-16.5-8.3l45.1-69.9
			L419.5,375.8z"/>
		<path class="st19" d="M259.6,466.2c0,0-62.3-61.5-88.4-63.6l-11.8-0.3"/>
		<path class="st20" d="M192,409.6c0,0-16.4-7.6-19.9-7.3s-5.5,0.4-5.5,0.4s10.7,0.6,23.2,8.2L192,409.6z"/>
		<path class="st20" d="M160.2,340.4c-7.5,24.1-8.1,59.1-8.1,59.1l2.1-12.4c1.4-8.4,8-45.9,12.6-69.5l-1.7-1.4L160.2,340.4z"/>
		<path class="st2" d="M387.9,383c0,0-41.7,53.7-45.1,69l6.4,2.4L387.9,383z"/>
		<path class="st20" d="M398.7,377.3c-1.3-0.5-8.4,2.5-16.1,12.2s-23.1,33.2-23.1,33.2s-12.6,21.5-18,32.5l4.7-2.6
			c0,0-0.6-16.8,42.1-67.1L398.7,377.3z"/>
		<path class="st20" d="M398.9,278.4c0,0,18.4,92.2,18.2,95.1s-7.4,21.4-7.4,21.4l-28,40.1l21.4-25.8c0,0,11.5-20.4,13.1-24.9
			s4.5-7.3,3.7-10.7s-18.3-93.9-18.3-93.9l-0.7-4.6L398.9,278.4z"/>
		<g id="hand_:">
			<path class="st2" d="M359.5,459.9l-18-9l-8.2,6.2l-11.1,0.1l-4,1.9l-0.6,2.9l-10.9-1l0.8,3.2l6.1,1.1l10.4-2.1l3.3,0.8
				c0,0-1.1,2.5-2.8,3.3s-8.1,4.4-8.1,4.4l-10.5,0.3c0,0-1.6-1.2-4.7,0.5s-3.8,3.1-3.8,3.1l5.1,2c0,0,1.6,1.3,5.5,1.9
				s14.6-0.3,14.6-0.3l7.3-3.9l14.2-7.9l12.7-6.1L359.5,459.9z"/>
			<path class="st20" d="M358.9,460.2c1.5-0.4-24.3,12.4-28.4,14.4c-1.5,0.8-2.9,1.8-4.2,3c-2,1.6-3.9,3-6.8,2.7
				c-4.9-0.6-18.9,0.3-18.7-1.5s4-3.6,6.6-3.3s10.8-0.1,13.7-1s11.9-5.5,13.5-8c0.9-1.4,1.5-3,1.6-4.7c0,0,0.2,6.8-2.3,7.5
				s-10.1,8.6-17.2,7.4s-14-0.1-14,1s9.9,1,11.8,1.5s8.4,0.9,19.2-7C334.4,472.4,356.3,461,358.9,460.2z"/>
			<path class="st20" d="M302.2,476.5c0,0-7.4,0.9-6-1.1s6.1-4.7,8.6-4.1s12.6,0.8,15.3-0.1s8.2-5,9-5.6c-2,1.8-4.1,3.3-6.3,4.7
				c-2.8,1.5-8.2,3.7-13.2,2.5s-5.9-1.4-8.3-0.1s-4.5,2.4-3.8,3.1S302.2,476.5,302.2,476.5z"/>
			<path class="st20" d="M315.8,471.7c0,0,9.3-4.5,10.1-6.4s-2-2.4-5.3-1.3s-9.7,2.8-13.2,0.1s-1.8-4.4,0.8-3.8s6.4,2.9,8.1,0.9
				s3.6,0,1.3,0.8s-7.9-0.5-9.2,0s0,2.1,2.3,2.7s8.7-2.5,11-1.9s8.9,0.2,6.1,2.8C324.8,468,315.8,471.7,315.8,471.7z"/>
			<path class="st20" d="M333.5,461.4c2.7-0.4,5.5-0.5,8.2-0.5C341.7,460.9,337.5,461.3,333.5,461.4z"/>
			<path class="st20" d="M359.4,450.5c1.6,0.6,2.7,1.1,2.7,1.1C361.2,451.3,360.3,450.9,359.4,450.5z"/>
			<path class="st20" d="M318.6,457.9c4-1.5,7.6-1.7,10.1-0.8s8.2-2.9,10.8-4.4c2.1-1.3,2.7-2.6,5.5-3.4l-0.7,2.3
				c-2.2,1-4.2,2.2-6.3,3.4c-2.9,2-4.9,3.9-8.3,3.1s-6.7-0.5-8.1,0.2s1.8,2.3,4.6,3c2.5,0.3,4.9,0.4,7.4,0.2c-0.2,0-0.4,0.1-0.6,0.1
				c-3.5,0.8-7.6,1.7-10.6-0.4C319.2,459.1,314.7,459.4,318.6,457.9z"/>
		</g>
		<g id="hand_:-2">
			<path class="st2" d="M247.8,475.1l14.6-12.5l10.5,4.1l11.2-3.2l4.7,0.8l1.6,2.9l10.7-4.4l0.3,3.6l-5.8,3.1l-11.2,1l-3.1,1.9
				c0,0,2,2.4,4,2.7s9.7,2.2,9.7,2.2l10.7-2.8c0,0,1.1-1.8,4.9-0.9s5,2.1,5,2.1l-4.5,3.7c0,0-1.1,1.9-4.9,3.7s-14.9,4.1-14.9,4.1
				l-8.8-2l-17.2-4l-14.8-4.1L247.8,475.1z"/>
			<path class="st20" d="M248.7,475.9c-6.8-1,26.7,7.6,33.3,8.7c1.9,0.4,3.7,1.1,5.4,1.9c2.6,1.1,5,2,7.9,0.7
				c4.7-2.2,19.2-5.4,18.4-7.3s-5.3-2.6-7.8-1.5s-10.9,3.2-14.2,3.1s-14-2.2-16.5-4.4c-1.4-1.2-2.6-2.8-3.3-4.5c0,0,2.1,7.3,5,7.2
				s13.2,6,20,2.6s14.1-4.4,14.5-3.3s-9.6,4.1-11.4,5.2s-8.2,3.6-21.9-1.5C277.2,483.4,251.5,476.3,248.7,475.9z"/>
			<path class="st20" d="M311.1,478c0,0,7.8-1.3,5.6-3s-7.8-3.2-10.1-1.8s-12.4,4.8-15.5,4.5s-10.1-2.8-11.1-3.2
				c2.6,1.3,5.2,2.3,8,3c3.3,0.7,9.5,1.4,14.2-1.4s5.5-3.3,8.4-2.7s5.4,1.2,5,2.1S311.1,478,311.1,478z"/>
			<path class="st20" d="M295.8,477c0,0-11-1.9-12.5-3.8s1.2-3.1,4.9-3s10.8,0,13.3-3.9s0.2-5.3-2.1-3.9s-5.4,5-7.9,3.4
				s-3.6,1.1-1,1.3s7.8-3,9.3-2.9s0.7,2.3-1.3,3.5s-9.7,0-11.8,1.3s-8.9,3-5.2,4.8C285.3,475.8,295.8,477,295.8,477z"/>
			<path class="st20" d="M274.3,471.5c-2.9,0.4-5.7,1.1-8.5,2C265.8,473.5,270.1,472.6,274.3,471.5z"/>
			<path class="st20" d="M244.2,467.8c-1.4,1.1-2.4,2-2.4,2C242.6,469.2,243.4,468.5,244.2,467.8z"/>
			<path class="st20" d="M288,463.2c-4.5-0.3-8.3,0.6-10.5,2.2s-9.3-0.5-12.4-1.4c-2.6-0.7-3.7-1.9-6.8-2l1.5,2.3
				c2.6,0.4,5.1,1,7.6,1.7c3.7,1.2,6.4,2.6,9.5,0.8s6.6-2.6,8.3-2.3s-1,3-3.6,4.5c-1.1,0.7-4.2,1.6-7.4,2.4c0.2,0,0.4,0,0.6-0.1
				c3.8-0.2,8.3-0.6,10.6-3.7C287.9,464.7,292.5,463.5,288,463.2z"/>
		</g>
		<path class="st21" d="M391.9,66.2c0,0,13.1,3.3,8.4,20.6s-12.1,25.7-12.5,35.7s10.6,30.9,7.1,47.3s-16.4,32.3-18.3,41.2
			c-1,4.9-2.3,9.7-3.8,14.5l-32.3-3.1l-7-15.5l47.3-139.7C380.8,67.2,391.8,65.5,391.9,66.2z"/>
		<path class="st22" d="M384.7,110.4c0,0,3-41.6-11.7-47.3s-56.1-11.5-70.9-3.9s-30.7,20.5-34.7,38.4s0.4,51,0.4,51l13.4,31.8
			l33,20.9c0,0,13.5,5.9,19.4,5.7s14.1-7.4,15.4-12.3s14.4-18.7,18.7-21.4s11.7-23.6,11-36.8S384.7,110.4,384.7,110.4z"/>
		<path class="st23" d="M322.4,106.6l-6-0.5L288,111l-3.7,4.4l20.7-4.5l16.7-2.2C321.7,108.9,323.8,107.6,322.4,106.6z"/>
		<path class="st24" d="M291.5,132.2l26.9-3.6c1.4,0.8,2.4,2.1,2.7,3.7c0.7,4.4-5.9,9.1-14.6,10.4s-16.3-1.2-17-5.6
			C289.3,135.2,290.1,133.4,291.5,132.2z"/>
		<path class="st24" d="M351,128.3l23.4-3.8c1.3,0.9,2.2,2.2,2.5,3.8c0.7,4.4-4.8,8.9-12.3,10.1s-14-1.6-14.7-6
			C349.7,130.9,350.1,129.5,351,128.3z"/>
		<path class="st17" d="M368.1,125.8c0,0,3.9,5,2.4,8.3c-1.2,2.6-0.1,3.9-5.9,4.3s-8-0.6-8-0.6s-2.9-8.2-0.2-10.2
			S368.1,125.8,368.1,125.8z"/>
		<path class="st17" d="M309.4,130c0,0,5.9,6.4,3.4,9.4s-7.7,3.8-7.7,3.8l-8.1-0.8c0,0-6.6-4.3-1-11.1L309.4,130z"/>
		<path class="st23" d="M381.6,107.5c0,0-6.5-8-14.9-6.7s-10.9,2.6-10.9,2.6l-4.4,1.7l4.2,3.4c3.3-1.9,7.1-2.8,10.9-2.6
			c6,0.4,12.3,2.1,14.2,3.8S381.6,107.5,381.6,107.5z"/>
		<path class="st20" d="M345.1,147.1c0,0,6.6,4,5.8,7.4s-6.1,3.2-6.1,3.2S356.1,156.4,345.1,147.1z"/>
		<path class="st20" d="M338.5,158.4c0.8,0.5-3.8-1.1-5,0.1l-1.2,1.2C332.3,159.7,330.9,153.9,338.5,158.4z"/>
		<path class="st25" d="M346.8,176.1c0,0,3.5-5.2,0.3-6.7s-10.5,0.6-12.8,0.9s-8.4,3.6-9.7,3.8s-0.3,4.7-0.3,4.7s5.2,1.2,8.8-1.3
			s8.4-3.9,8.9-2.3S344,177.5,346.8,176.1z"/>
		<path class="st25" d="M345.1,178c0,0,1.4,9.1-6.8,10s-9.4-0.9-11.4-2.9s-2.6-6.2-2.6-6.2l8.8-1.3c0,0,3.9,8,9.9-0.2L345.1,178z"/>
		<path class="st21" d="M240.6,54.8c0,0-63.5,86.6-97,93.1s-46.9-2.6-46.9-2.6l-6.1-10.9c0,0-8.6,17.6-0.2,28.9s52.7,26.2,69.7,19.9
			s44.5-33.4,44.5-33.4l70.3-77L240.6,54.8z"/>
		<path class="st18" d="M254,163.1c-1.8,0.9-23.8,22.8-38,29.6s-23.5,6.8-25.2,17.7s-19.2,22.1-28.7,25.5s-37.9,8.3-40.2,23.9
			s-1.8,18.8-1.8,18.8s-11.3-40.1-3.3-48.6s22.9-19.4,41.8-30.8s33.5-46.1,40.6-56.5s42-29.5,41.6-27.5
			C240.5,117.4,254,163.1,254,163.1z"/>
		<path class="st21" d="M396.9,69.8c0,0,15.1-42-38.9-57.7S280.1,1.2,280.1,1.2s-37.7,18.5-39.7,18.2s-9.6,11.2-9.6,11.2l1.1,11.4
			L396.9,69.8z"/>
		<path class="st21" d="M257,165.4c0.6,3.9-5,24-24.2,28.8s-32.3,1.5-42,16.3s-12.5,18.4-28.7,25.5s-29.3,3.7-29.3,3.7
			s-11.3,13-9.8,27.3s1.5,14.4,1.5,14.4s-12.7-31.9-11.7-42.7s6.1-25.4,14.9-28.8s23.2-17.4,23.2-17.4l89.6-101L257,165.4z"/>
		<path class="st21" d="M274.3,183.3c0,0,7.9,12.7-8.8,29.8s-34.7-1.4-47,18.3s-15.2,35.5-13.2,48.5s4.3,28.5,4.3,28.5
			s-21.3-53.8-23-69.5s3.8-32.4,3.8-32.4s56.3-66.8,56.6-64.8C247.1,143.6,274.3,183.3,274.3,183.3z"/>
		<path class="st21" d="M372.2,71.3c-2.2-0.1-7.6-16.4-18.4-9.8s-19.3,23.5-32.7,26s-24.3,5.8-38.1,3s-18.8-8.3-33.1-9.7
			s-31.2,1.3-43.7,10.4s-25.1,30.2-35.2,40s-27.2,24.7-43.7,32.7s-21.8,9.9-21.8,9.9s58.5-37.5,60.8-49.5s30.8-49.1,30.8-49.1
			s21.8-31.5,42.6-33.7s54.9-3.6,61.2-1.7s66.7-24.6,83.3,5.1c0,0,8.2,12.9,7.3,18.5S382.5,71.6,372.2,71.3z"/>
		<path class="st21" d="M275.6,121.5c1,2.5-1.1,14.8,0.2,27.8s5.5,23.7,6.2,36.9s-1.3,22.1-5.7,32.7l-4.4,10.6
			c0,0,9.9-35.3,0.7-48.5s-16.7-18.7-23.2-31s-9.3-31.1-9.3-31.1l35.7-5.4L275.6,121.5z"/>
		<path class="st0" d="M331,75.3c0,0,5.6,11.1-5.1,23.3s-34.6,21.1-43.8,21.8s-36.6-1.1-46.1,2.3s-30.9,10.6-36.8,20.1
			s-16.4,36.3-16.4,36.3s-2.9-46,4.4-54.4s31.9-30.6,42-33.5s42.6-12.4,47.8-17.1C282.4,69.4,331,75.3,331,75.3z"/>
		<path class="st6" d="M300.9,138.3c0.8,1.9,3,2.7,4.9,2c1.9-0.5,3-2.5,2.4-4.4c0,0,0-0.1,0-0.1c-0.8-1.9-3-2.7-4.9-2
			c-1.9,0.5-3,2.5-2.4,4.4C300.8,138.2,300.9,138.2,300.9,138.3z"/>
		<circle class="st6" cx="363.7" cy="132.6" r="3.6"/>
		<circle class="st5" cx="360.9" cy="131" r="1.5"/>
		<path class="st5" d="M300.5,136c0.5,0.9,1.5,1.4,2.5,1c0.9-0.3,1.5-1.2,1.2-2.2c0,0,0-0.1,0-0.1c-0.5-0.9-1.5-1.4-2.5-1
			C300.7,134,300.2,135,300.5,136C300.5,136,300.5,136,300.5,136z"/>
		<path class="st26" d="M275.6,121.5c0,0,2.1,25.6,2.5,30.6s2.1,14.2,2.5,16.5s4.4,22.6,3.2,27.8S272,229.5,272,229.5
			s12.2-29.8,10.1-43.3s-7-45.8-6.4-48.2S275.6,121.5,275.6,121.5z"/>
		<path class="st26" d="M390.5,65.7c0,0-19.4-26.1-27.6-26.5s-38-1.7-42.4,0.6s-30.1,8.2-38.1,9.1s-39.1,2.2-45.7,3.2
			s-44.8,29.3-49.5,36.4s-6.9,7.8-6.9,7.8s26.6-40.7,42.8-49.6s55-8.6,55-8.6s28.7,0.4,29.7,0.3s35.9-8.1,39.5-8.3
			s21.3,0.5,25.4,2.9s10.5,6.9,12.4,10.6s7.6,12.7,7.8,15.7c0,2.3-0.3,4.7-1,6.9L390.5,65.7z"/>
		<path class="st26" d="M366.4,64.3L352,62.8C352,62.7,359.6,54.8,366.4,64.3z"/>
		<path class="st26" d="M258.1,83.6c1,0-42.8,17.9-47.1,25.6s-19.9,11.4-22.3,19.9s-6.3,48.1-6.3,48.1s-3.2-41.3,2.6-49.9
			s30-29.4,30-29.4S240.9,84.1,258.1,83.6z"/>
		<path class="st26" d="M244.2,141.9c-1.5,1.2-55,60.2-56.1,66.4s-5.9,21.1-2.9,29.8s20.9,65.3,24.9,73.5s-17.3-61.4-17.3-61.4
			s-12.7-28.8,6.6-50.2s41.9-37.3,41.9-37.3l8.1-12.7L244.2,141.9z"/>
		<path class="st26" d="M244.9,121.6c0,0,3.4,16,7.1,24.9s16.7,26.1,16.7,26.1l7.1,15.8l1,2.2l-0.4,17.6l-1-17.7l-10.3-19.3
			c0,0-9-8.1-12.5-14s-9-17.5-9.8-22.5s-2.7-13.4-2.7-13.4L244.9,121.6z"/>
		<path class="st26" d="M181.7,163.5c0,0-26.8,28-30.3,31.9s-19.2,16-23.4,19.4s-11.9,12.9-11.9,21.7s8.4,45,8.4,45
			s-11.2-28.2-11.3-31.6s-1.7-13.6,0.4-19.9s6.4-15.8,9.1-17.9s8.9-3.4,15.3-10.4s22.5-18.2,24.6-22.2S182,156,182,156L181.7,163.5z
			"/>
		<path class="st26" d="M256.7,81.1c0,0-39.6,0.9-45,5.4s-22,21.8-22,21.8s-25.3,31.4-31.2,36.7s-27.9,18.4-27.9,18.4l-25,10.4
			l41-22.9c0,0,21.5-18.4,24.1-23.5s22.3-26.3,25.9-31.5c3.7-5.2,8.6-9.5,14.3-12.6c4.7-2.4,14-3.1,21.3-6.6s25.9-4.9,25.9-4.9
			L256.7,81.1z"/>
		<path class="st26" d="M379.5,52.5c0,0,10.3,7.9,1.3,8.6s-20.2-6.7-20.2-6.7s-8.9-5.1-13.4,0.3s-17,12.7-26.3,20.5
			s-33.9,23.6-42.6,26s-10.7,5.3-10.7,5.3s7.4,22.5,8.1,31.5s2.1,20.9,2.3,19.9s-2.7-38.4-2.7-38.4c3.7,1.3,7.7,1.4,11.5,0.3
			c5.8-1.9,17.8-5,24.2-9.7s18.5-9.5,20.5-23s19-21.4,19-21.4s13.9-3.8,16-1.4c2.1,2.4,5.8,7.1,5.8,7.1s13.4,1.5,15.8-2.2
			s0.6-9.5,0.6-9.5L379.5,52.5z"/>
		<path class="st26" d="M267.6,106.4c0,0-5.2,1.5-1.3,13.7s8.9,18.9,9.6,25.5c0.2,2.8,0.6,5.5,1.2,8.2l-4.2-41.5L267.6,106.4z"/>
		<circle class="st27" cx="301.6" cy="163.4" r="6.7"/>
		<path class="st27" d="M372.1,153.5c1.4,0.1,2.7,0.6,3.8,1.4l-3.5,11.9h-0.9c-3.7-0.2-6.5-3.3-6.3-6.9c0,0,0-0.1,0-0.1
			c0.1-3.6,3.2-6.4,6.8-6.3C372,153.5,372,153.5,372.1,153.5z"/>
		<path class="st20" d="M374.2,123.6c0,0-16.7-2.4-23.3,4.7L374.2,123.6z"/>
		<path class="st20" d="M318.4,128.6c0,0-17.9-2.5-26.9,3.6L318.4,128.6z"/>
		<path class="st0" d="M340.5,222.4c0,0,13.1-0.5,10.6,17.5c-1.8,11.7-5.2,23.2-10,34c0,0,23-13.5,29-24.5s6.5-38.4,6.5-38.4
			L340.5,222.4z"/>
		<path class="st0" d="M340.5,222.4c0,0,14.4,13.1,6.4,35.8s-14.7,26.7-14.7,26.7s34.7-24.7,37.3-33.3s0-35.3,0-35.3L340.5,222.4z"
			/>
	</g>
</g>
</svg>
