<svg xmlns="http://www.w3.org/2000/svg" viewBox="0 0 113 222.24"><defs><style>.cls-1{fill:#bdc1c6;}.cls-2{fill:none;stroke:#8c8c8c;stroke-miterlimit:10;stroke-width:4px;}.cls-3{fill:#767777;}</style></defs><title>Asset 3</title><g id="Layer_2" data-name="Layer 2"><g id="Layer_1-2" data-name="Layer 1"><path class="cls-1" d="M88.59,39.17C87.47,50.44,88.63,66,96,86.24c3.84,10.53,6.55,23,8.43,36a421.91,421.91,0,0,1,3.79,46.52c.91,29.63-.72,53.46-.72,53.46H5.5S4,199.56,4.73,170.94a427.79,427.79,0,0,1,3.59-46.82C10.22,110.48,13,97.39,17,86.4c6.08-16.68,7.94-30.27,7.77-40.89C24.45,25.57,17,16.06,17,16.06l-2.5.3S0,17.82,0,10.49C0-2.51,16.5.24,16.5.24h80S113-2.35,113,10.65c0,7.33-14.5,5.4-14.5,5.4l-2.5.32S90.14,23.7,88.59,39.17Z"/><path class="cls-2" d="M38.17,78.58s5.33-20.33,0-40.33"/><path class="cls-2" d="M76.54,78.58s-5.33-20.33,0-40.33"/><path class="cls-3" d="M107.5,222.24H5.5S4,199.56,4.73,170.94c11.39,1.3,24.7,1.37,31.84-3.7,14.07-10,32.5,2.22,32.5,2.22s25.09,6.34,29.79,2.22c1.31-1.14,4.85-2.14,9.36-2.9C109.13,198.41,107.5,222.24,107.5,222.24Z"/><path class="cls-2" d="M21.5,210.91s-1.33-85.67,11-109.33"/><path class="cls-2" d="M93.46,210.91s1.33-85.67-11-109.33"/></g></g></svg>