<svg xmlns="http://www.w3.org/2000/svg" viewBox="0 0 113 222.24"><defs><style>.cls-1{fill:#bdc1c6;}.cls-2{fill:#767777;}.cls-3{fill:none;stroke:#8c8c8c;stroke-miterlimit:10;stroke-width:4px;}</style></defs><title>Asset 2</title><g id="Layer_2" data-name="Layer 2"><g id="Layer_1-2" data-name="Layer 1"><path class="cls-1" d="M88.59,39.17C87.47,50.44,88.63,66,96,86.24c17.5,48,11.5,136,11.5,136H5.5S-.5,134.4,17,86.4c6.08-16.68,7.94-30.27,7.77-40.89C24.45,25.57,17,16.06,17,16.06l-2.5.3S0,17.82,0,10.49C0-2.51,16.5.24,16.5.24h80S113-2.35,113,10.65c0,7.33-14.5,5.4-14.5,5.4l-2.5.32S90.14,23.7,88.59,39.17Z"/><path class="cls-2" d="M107.5,222.24H5.5S-.5,134.4,17,86.4c6.08-16.68,7.94-30.27,7.77-40.89,3.69-.47,6.69-1.38,7.73-3,3.5-5.5,26.75-5.25,27-1.25s16.75,7.49,21,.87c1.39-2.17,4.51-2.91,8.09-2.94C87.47,50.44,88.63,66,96,86.24,113.5,134.24,107.5,222.24,107.5,222.24Z"/><path class="cls-3" d="M21.5,210.91s-1.33-85.67,11-109.33"/><path class="cls-3" d="M93.46,210.91s1.33-85.67-11-109.33"/><path class="cls-3" d="M38.17,78.58s5.33-20.33,0-40.33"/><path class="cls-3" d="M76.54,78.58s-5.33-20.33,0-40.33"/></g></g></svg>