<?xml version="1.0" encoding="utf-8"?>
<!-- Generator: Adobe Illustrator 19.0.0, SVG Export Plug-In . SVG Version: 6.00 Build 0)  -->
<svg version="1.1" id="Layer_1" xmlns="http://www.w3.org/2000/svg" xmlns:xlink="http://www.w3.org/1999/xlink" x="0px" y="0px"
	 viewBox="0 0 100 400" style="enable-background:new 0 0 100 400;" xml:space="preserve">
<style type="text/css">
	.st0{fill:none;stroke:#000000;stroke-width:7;stroke-miterlimit:10;}
	.st1{fill:url(#XMLID_13_);}
	.st2{fill:#9E9E9E;}
	.st3{fill:#CCCCCC;}
	.st4{fill:#444444;}
</style>
<g id="XMLID_1_">
	<line id="XMLID_4_" class="st0" x1="49.5" y1="30" x2="49.5" y2="282"/>
	<g id="XMLID_3_">
		<g id="XMLID_11_">
			
				<radialGradient id="XMLID_13_" cx="49.8751" cy="337.5752" r="42.9645" fx="59.9735" fy="337.5812" gradientUnits="userSpaceOnUse">
				<stop  offset="0" style="stop-color:#B3B3B3;stop-opacity:0.8"/>
				<stop  offset="1" style="stop-color:#FFFFFF"/>
			</radialGradient>
			<path id="XMLID_20_" class="st1" d="M49.7,370.2c0,0,18.4,1,26.3-21.4c2.9-15.6-8-22.8-10.1-32.1c-2.2-9.4-1.2-9.9-2.5-12.8
				c-0.4-0.9-1.7-2.4-2.5-2.8c-2.9-1.1-10.5-0.3-10.5-0.3s-8.2-0.9-11.1,0.3c-0.9,0.3-2.1,1.9-2.5,2.8c-1.3,3-0.4,3.5-2.5,12.8
				s-13,16.5-10.1,32.1c7.9,22.4,26.3,21.4,26.3,21.4"/>
		</g>
		<path id="XMLID_6_" class="st2" d="M39.6,290.8c0,0,8.9,0.9,17.6-1.6s-6.4,3-8.8,3C46,292.3,39.6,290.8,39.6,290.8z"/>
		<path id="XMLID_9_" class="st2" d="M39.6,288.5c0,0,8.9,0.9,17.6-1.6s-6.4,3-8.8,3C46,290,39.6,288.5,39.6,288.5z"/>
		<path id="XMLID_7_" class="st2" d="M39.6,295.3c0,0,8.9,0.9,17.6-1.6c8.7-2.5-6.4,3-8.8,3C46,296.8,39.6,295.3,39.6,295.3z"/>
		<path id="XMLID_10_" class="st2" d="M39.6,297.6c0,0,8.9,0.9,17.6-1.6c8.7-2.5-6.4,3-8.8,3C46,299,39.6,297.6,39.6,297.6z"/>
		<path id="XMLID_8_" class="st2" d="M39.6,293.1c0,0,8.9,0.9,17.6-1.6s-6.4,3-8.8,3C46,294.5,39.6,293.1,39.6,293.1z"/>
		<path id="XMLID_5_" class="st3" d="M61,302.4l-0.3-16.7l-6.6-4.9l-8.6,0.1l-6.8,5.9l-0.2,15.4C38.6,302.2,61,302.7,61,302.4z"/>
		<path id="XMLID_12_" class="st4" d="M45.6,280.9l0,1.4c4.3,0.8,8.6,0.1,8.6,0.1l0-1.5L45.6,280.9z"/>
	</g>
</g>
</svg>
