<?xml version="1.0" encoding="utf-8"?>
<!-- Generator: Adobe Illustrator 19.0.0, SVG Export Plug-In . SVG Version: 6.00 Build 0)  -->
<svg version="1.1" id="Layer_1" xmlns="http://www.w3.org/2000/svg" xmlns:xlink="http://www.w3.org/1999/xlink" x="0px" y="0px"
	 viewBox="0 0 300 300" style="enable-background:new 0 0 300 300;" xml:space="preserve">
<style type="text/css">
	.st0{opacity:0.7;fill:#898989;}
	.st1{fill:#DDBA90;}
	.st2{fill:#EFD8AF;}
	.st3{fill:#C6A46D;}
	.st4{opacity:0.74;fill:#686868;}
	.st5{fill:#A6774E;}
	.st6{fill:#BFA288;}
	.st7{fill:#592C12;}
</style>
<g id="XMLID_1_">
	<g id="XMLID_63_">
		<ellipse id="XMLID_62_" class="st0" cx="145.1" cy="164.3" rx="136.9" ry="50.5"/>
		<ellipse id="XMLID_60_" class="st1" cx="150.6" cy="158" rx="136.9" ry="50.5"/>
		<ellipse id="XMLID_15_" class="st2" cx="150.6" cy="154.6" rx="136.9" ry="50.5"/>
		<ellipse id="XMLID_14_" class="st3" cx="151.6" cy="156.8" rx="102.5" ry="37.8"/>
	</g>
	<g id="XMLID_93_">
		<path id="XMLID_92_" class="st4" d="M109,140.7c-9.7,2.3-24.4,14.3-13.7,21c12.3,6.6,43,4.8,62.6-3.5
			c14.8-6.2-15.7-16.5-23.2-18.7C127.3,137.2,118.7,138.4,109,140.7z"/>
		<g id="XMLID_78_">
			<path id="XMLID_90_" class="st5" d="M109.6,139.2c-9.5,3-27.1,17.5-13.6,22.6s48.4,2.4,62.6-5.1c14.2-7.5-11.3-17.1-18.8-18.8
				C132.3,136.2,119.1,136.2,109.6,139.2z"/>
			<path id="XMLID_89_" class="st6" d="M121,139.2c-5.4,0.6-11.1,2.2-13.1,3.2c-2.1,1.1-2.8,2.4-0.7,3.6c2.2,1.2,13.2,2.4,19.7,1.4
				c6.5-1,19.5-2.6,14.6-5.1S126.4,138.6,121,139.2z"/>
			<path id="XMLID_88_" class="st7" d="M100.9,152.2c-0.2,0.7,0.2,2.4,0.2,2.4l1-1l0.5-1L100.9,152.2z"/>
			<path id="XMLID_87_" class="st7" d="M111.4,144.1c-0.4,1,0.1,3.1,0.1,3.1l1.8-1.4l0.9-1.4L111.4,144.1z"/>
			<polygon id="XMLID_86_" class="st7" points="105.4,149.7 107.4,150.9 107.2,148.7 106,147 104.9,148.1 			"/>
			<polygon id="XMLID_85_" class="st7" points="134,149.4 134.7,147.9 135.1,148.5 135.9,149.1 135.1,150.1 134,150.8 133.3,149.8 
							"/>
			<polygon id="XMLID_84_" class="st7" points="123.7,142.6 123.6,144.7 126.2,144.2 126.6,141.8 			"/>
			<polygon id="XMLID_83_" class="st7" points="138.6,140.4 138.5,143.2 141.1,142.6 141.4,139.6 			"/>
			<polygon id="XMLID_82_" class="st7" points="148.3,147.1 149.7,146 150.7,146.9 151.1,149 			"/>
			<polygon id="XMLID_81_" class="st7" points="141.2,154.8 139.4,154.7 139.3,155.7 139.7,156.6 140.9,156.3 141.4,155.7 			"/>
			<polygon id="XMLID_80_" class="st7" points="115.5,154.3 117.9,154.8 117.9,153.4 118.4,152.7 117.1,151.9 115.8,152.5 			"/>
			<polygon id="XMLID_79_" class="st7" points="128.1,152.3 130.3,153.1 130.2,151.4 130.6,150.4 129.3,149.3 128.2,150.1 			"/>
		</g>
	</g>
	<g id="XMLID_73_">
		<path id="XMLID_77_" class="st4" d="M161,132.4c-9.9,1-25.6,10.2-16.3,18.6c10.7,9.7,46.7,11.3,62.2,6.8s-11-19.6-18.1-22.8
			C181.8,131.9,170.9,131.4,161,132.4z"/>
		<path id="XMLID_91_" class="st5" d="M164.8,130.2c-9.9,1-30.1,11.7-17.9,19.4c12.2,7.7,46.9,12.2,62.4,7.7
			c15.4-4.5-7.6-19-14.6-22.2C187.6,131.9,174.7,129.2,164.8,130.2z"/>
		<path id="XMLID_66_" class="st6" d="M175.9,132.5c-5.4-0.5-11.3-0.1-13.5,0.5c-2.2,0.6-3.3,1.8-1.4,3.4c1.9,1.6,12.4,5,19,5.3
			c6.6,0.3,19.6,1.4,15.4-2C191.2,136.3,181.3,133,175.9,132.5z"/>
		<path id="XMLID_65_" class="st7" d="M153.5,141.2c-0.3,0.7-0.3,2.4-0.3,2.4l1.1-0.7l0.7-0.9L153.5,141.2z"/>
		<path id="XMLID_75_" class="st7" d="M165.5,135.3c-0.6,0.9-0.6,3.1-0.6,3.1l2.1-1l1.2-1.2L165.5,135.3z"/>
		<polygon id="XMLID_68_" class="st7" points="158.5,139.7 160.2,141.3 160.5,139.1 159.6,137.1 158.3,137.9 		"/>
		<polygon id="XMLID_69_" class="st7" points="186.6,145.1 187.6,143.8 187.8,144.5 188.5,145.3 187.5,146 186.3,146.5 185.8,145.4 
					"/>
		<polygon id="XMLID_67_" class="st7" points="177.9,136.7 177.3,139 179.9,139 180.8,136.6 		"/>
		<polygon id="XMLID_76_" class="st7" points="192.9,137.3 192.3,140 194.9,140 195.8,137.1 		"/>
		<polygon id="XMLID_70_" class="st7" points="200.8,145.8 202.4,145 203,146.1 203,148.2 		"/>
		<polygon id="XMLID_71_" class="st7" points="192.5,151.9 190.8,151.4 190.4,152.3 190.7,153 191.9,153 192.6,152.7 		"/>
		<polygon id="XMLID_72_" class="st7" points="167.5,146.2 169.7,147.2 170,145.9 170.6,145.2 169.5,144.1 168.1,144.5 		"/>
		<polygon id="XMLID_74_" class="st7" points="180.2,146.8 182.2,148 182.4,146.3 183,145.5 182,144.1 180.8,144.6 		"/>
	</g>
</g>
</svg>
