<?xml version="1.0" encoding="utf-8"?>
<!-- Generator: Adobe Illustrator 19.0.0, SVG Export Plug-In . SVG Version: 6.00 Build 0)  -->
<svg version="1.1" id="Layer_1" xmlns="http://www.w3.org/2000/svg" xmlns:xlink="http://www.w3.org/1999/xlink" x="0px" y="0px"
	 viewBox="720 65.7 2400 431.3" style="enable-background:new 720 65.7 2400 431.3;" xml:space="preserve">
<style type="text/css">
	.st0{fill:#C5DCEA;}
	.st1{fill:#0F3A21;}
	.st2{fill:#216E40;}
	.st3{fill:#154729;}
	.st4{fill:#7F2343;}
	.st5{fill:#7F4E5F;}
	.st6{fill:#FF93B8;}
	.st7{fill:#F482AE;}
	.st8{fill:#1D6138;}
	.st9{fill:#111111;}
	.st10{fill:#8E6172;}
	.st11{opacity:0.44;fill:#F9F9C0;}
	.st12{fill:#939393;}
	.st13{fill:#513708;}
	.st14{fill:none;stroke:#000000;stroke-width:3;stroke-miterlimit:10;}
	.st15{fill:none;stroke:#000000;stroke-width:1.2521;stroke-miterlimit:10;}
	.st16{fill:#B3B3B3;}
	.st17{fill:#352306;}
	.st18{fill:none;stroke:#000000;stroke-width:0.25;stroke-miterlimit:10;}
	.st19{fill:none;}
</style>
<g>
	<path id="XMLID_23_" class="st0" d="M1119.9,338.8c0-122.4-36.1-221.6-80.6-221.6c-44.4,0-80.5,99-80.6,221.1l160,159.4
		C1118.9,497.2,1119.9,339.2,1119.9,338.8z"/>
	<g>
		<g>
			<path class="st1" d="M1048.5,435.5c0.2-1.6,6.7-37-2.4-52c-9.1-15.1-5.2-6.7-5.2-6.7s14.2,39.2,4.8,55.3L1048.5,435.5z"/>
			<path class="st1" d="M1058.7,437.3c0,0,3.4-35.7,6.5-43.7c3-8,10.1-20.1,11.7-24.9c1.6-4.8,3.1-11.8,3.1-11.8s-10.2,19-12.4,25.1
				c-2.2,6.1-8.7,16.9-8.8,24.5c-0.1,7.6-4.5,30.8-4.5,30.8L1058.7,437.3z"/>
			<path class="st1" d="M1098.5,383.9c0.3-2-8.3,20.9-19.6,33.9c-11.3,13-17.3,19.1-17.3,19.1l3.6,1.6
				C1065.2,438.6,1095,412.5,1098.5,383.9z"/>
			<path class="st2" d="M1075.3,422.3c0,0-6.7-0.8-5.1,7.6c1.7,8.4,7.2,10.9,11.9,12.5s8.5,5.5,7.8-1.4
				C1089.2,434,1080.9,424.3,1075.3,422.3z"/>
			<path class="st3" d="M1087.9,408.8c0,0-2.6-3.9-13.6,1s-11.8,6.8-11.8,6.8s-1.3,0.5,5.3,2.9c6.6,2.4,6,3.8,11.2,0.7
				c5.2-3.1,10.8-9.4,10.8-9.4L1087.9,408.8z"/>
			<path class="st2" d="M1093,434.1c0,0,7.6-16.9,0.9-22.6c-6.7-5.8-11.3,7-11,11C1083.3,426.4,1093,434.1,1093,434.1z"/>
			<path class="st2" d="M1109,421.5c0,0,9.4-6.2,1.3-12.6c-8.1-6.4-12.8-12.9-12.8-12.9s-4,5.3-4,12.5s-1.3,11.5,6.1,13.2
				C1107.1,423.4,1109,421.5,1109,421.5z"/>
			<path class="st4" d="M1095.7,390.3c0,0-2.6-3.9-10.3-0.2c-7.7,3.7-8.9,6.4-8.9,6.4s-4.5,4,1.1,6c5.7,2,4.9,3.8,10.4,1.4
				c5.5-2.5,9.5-7.8,9.5-7.8L1095.7,390.3z"/>
			<path class="st3" d="M1124.7,388c0,0-3.7-12.6-15.1-6.8c-11.4,5.8-11.4,5.8-11.4,5.8l-2.2,6.1c0,0-1-1.5,7.7,1.2s8,4.1,13,1.5
				S1124.7,388,1124.7,388z"/>
			<path class="st3" d="M1110,368.2c0,0-3.6-2.2-8.6,4.4c-5,6.5-4.8,4.9-5.6,9c-0.7,4.1,3.8,5,3.8,5S1116.8,382.3,1110,368.2z"/>
			<path class="st2" d="M1074.7,382c0,0,10.8-8.3,17.7-0.3s3.3,8.6,3.3,8.6s-4.7,0.6-10.3-0.2C1079.7,389.2,1072.7,387.7,1074.7,382
				z"/>
			<path class="st2" d="M1040.9,359.7c0,0,1.9-3,2.9,5.7c1,8.7-3,14-3,14S1031.9,373.7,1040.9,359.7z"/>
			<path class="st5" d="M1021.7,387.8c0,0,0.8,0.2,2,0.5c4,0.8,12.7,2,16.5-2.6c4.9-6,0.6-6.3,0.6-6.3s-3.2-6.4-9.5-2.1
				c-6.3,4.3-8.9,10.7-8.9,10.7L1021.7,387.8z"/>
			<path class="st2" d="M1058.5,379.1c0,0-0.1-3.4-8.6-1.7s-8.4,1.7-8.4,1.7S1045.6,387,1058.5,379.1z"/>
			<path class="st3" d="M1032.7,415.7c0,0,9.6-0.6,16.4-14.6C1049.1,401.2,1034.6,395.7,1032.7,415.7z"/>
			<path class="st2" d="M1033.6,430.9c0,0,9.6-1.7,14.9-13.6C1048.4,417.3,1037.5,407.5,1033.6,430.9z"/>
			<path class="st3" d="M1062,425c0,0-7.6-11.1-11.2-10.5c-3.6,0.6,0.2,9.4,0.2,9.4S1053.4,428.3,1062,425z"/>
			<path class="st6" d="M1049.1,401.2c0,0-5-12.1,14.4-13.8c0,0,5.2,0.7,1.6,6.2S1054.3,401.9,1049.1,401.2z"/>
			<path class="st3" d="M1075.4,404.8c0,0-0.1-14.3-6.3-16.5C1063,386.1,1057.4,407.1,1075.4,404.8z"/>
			<path class="st3" d="M1076.7,365.4c0,0-13.8,2.6-16,8.7c-2.2,6.1,6.1,7.1,10.6,2C1075.8,371,1076.7,365.4,1076.7,365.4z"/>
			<path class="st3" d="M1086.6,376.4c0,0,3-8-3.8-9.9s-5.6-4.7-6.8-2C1074.8,367.2,1075,377.7,1086.6,376.4z"/>
			<path class="st3" d="M1053.2,360.3c0,0,11.3-3.2,22.8,4.2C1076,364.5,1067.5,376,1053.2,360.3z"/>
			<path class="st2" d="M1080.6,345.7c-0.4-1.7-4.8,2.2-9.7,8.2c-4.9,6-4.9,11.3-4.9,11.3S1085.2,363.7,1080.6,345.7z"/>
			<path class="st3" d="M1060.4,343.2c0,0,15-5.3,18.3-1.7s0,6,0,6S1069.1,355.4,1060.4,343.2z"/>
			<path class="st7" d="M1088,357.3c0,0,1.7-13.5-6.2-14.3C1081.8,343,1073.5,359,1088,357.3z"/>
			<path class="st3" d="M1078.8,323c0.6-1,2.8,3.5,2.9,10.6s0.2,9.4,0.2,9.4S1071.3,336,1078.8,323z"/>
			<path class="st8" d="M1098.8,330.9c0,0-8.9,1.5-13.1,7.3c-4.2,5.8-2.7,5.9-0.8,6.7S1095.9,342.2,1098.8,330.9z"/>
			<path class="st3" d="M1098.6,347.2c0,0-3.1-4.1-9.1-4.1c-6,0-3.2,4.6-3.2,4.6S1090.7,351.3,1098.6,347.2z"/>
		</g>
		<g id="XMLID_255_">
			<path id="XMLID_283_" class="st9" d="M1078,312.3c0,0-3.6-9.5-0.3-18.2c3.3-8.7,10.1-12.5,7.4-20.8c-2.7-8.3,3.6-39.8,0.7-48.8
				c-2.8-9-12.8-24.2-12.8-24.2s-2.2-17.2-7.5-25.1s-34.6-25.4-34.6-25.4l-2.7,3.8l35.1,24.6l6.5,23.2l12.6,22.9l-1,34.6l0.9,22.1
				C1082.3,281.1,1071.2,287.7,1078,312.3z"/>
			<path id="XMLID_282_" class="st3" d="M1081.4,259c1.5-1.5,11.4,7.6-3.7,35.1C1077.7,294.1,1062.4,279,1081.4,259z"/>
			<path id="XMLID_281_" class="st3" d="M1071.6,191.7c0,0-15.8,2.6-18.8,21.3C1052.8,213,1076.3,207.8,1071.6,191.7z"/>
			<path id="XMLID_280_" class="st3" d="M1106.3,275.2c0,0-24.1-14.9-23.6-24.5c0.5-9.5,4-8.8,4-8.8S1094.2,238.6,1106.3,275.2z"/>
			<path id="XMLID_279_" class="st3" d="M1120.4,299.2c0,0-13.9,1.6-20-10.9c-6.1-12.5-1-5.9-1-5.9S1109.6,270.6,1120.4,299.2z"/>
			<path id="XMLID_278_" class="st3" d="M1093.8,313.7c0,0-11.3-11-6.3-34.1C1087.5,279.6,1099.6,279.6,1093.8,313.7z"/>
			<path id="XMLID_277_" class="st3" d="M1083.2,167.5c0,0-9.8,6.3-20.1,1.3c-10.3-5.1-8.2-8.8-8.2-8.8l6.9-7.2
				C1061.8,152.8,1071.6,154.5,1083.2,167.5z"/>
			<path id="XMLID_276_" class="st3" d="M1095.9,191.7c0,0-13.7,2.9-20.8-3.3c-7.1-6.3-9.6-13.3-9.6-13.3S1084.7,172.6,1095.9,191.7
				z"/>
			<path id="XMLID_275_" class="st3" d="M1085.7,236c0,0-16.1-7.5-32.2,13.4C1053.4,249.4,1075.7,257.2,1085.7,236z"/>
			<path id="XMLID_274_" class="st3" d="M1109.3,244.3c0,0-13.8-1.8-20.4-12.9c-6.6-11.1-0.2-9.4-0.2-9.4S1103.1,218.9,1109.3,244.3
				z"/>
			<path id="XMLID_273_" class="st3" d="M1095.4,216.8c0,0,0,8.1-12.3-4.7c-12.3-12.8-11.5-20.4-11.5-20.4l11.2,2.2
				C1082.8,193.9,1095.1,198.6,1095.4,216.8z"/>
			<path id="XMLID_272_" class="st3" d="M1056,232.1c0,0,4.5,6.7,10.4-2.4c5.9-9.1,9.1-18.4,9.1-18.4l-2.7-4.3c0,0,3-2.5-5.6,2.9
				C1058.6,215.5,1055.2,219.4,1056,232.1z"/>
			<path id="XMLID_271_" class="st3" d="M1050.5,281c0,0,17.5-0.2,21.3-10.3c3.7-10.1-17.2,2.2-17.2,2.2L1050.5,281z"/>
			<path id="XMLID_270_" class="st3" d="M1088.7,336.2c0,0-9.1-1.9-10.9-13.1c-1.8-11.2-1.1-14.7-1.1-14.7l5.7,5.8
				c0,0,4.1,0,5.5,8.6C1089.2,331.4,1088.7,336.2,1088.7,336.2z"/>
			<path id="XMLID_269_" class="st3" d="M1060.2,320.9c0,0,5.6,5.2,10.4-6.4c4.8-11.6,5.9-17.2,5.9-17.2s-1.3,0.2-7.1,5.9
				c-5.8,5.7-8.5,10.2-8.5,10.2L1060.2,320.9z"/>
			<path id="XMLID_268_" class="st3" d="M1031.2,237.5c0,0,12.4,1.3,19.2-6.5s3.9-13.5,3.9-13.5s-4.4-6-11.7,2.6
				C1035.2,228.8,1031.2,237.5,1031.2,237.5z"/>
			<path id="XMLID_267_" class="st9" d="M1099.4,282.4c0,0-12-15.6-14.2-20.6c0,0,2.5,3,13.3,23.5L1099.4,282.4z"/>
			<path id="XMLID_266_" class="st6" d="M1039.1,158.5c0,0,15.3,6.9,12.6,14.8s-2.2,11.2-11.2,10c-9-1.2-14.8-3.6-14.2-8.5
				s1.9-13.1,6.3-15.2C1036.9,157.5,1039.1,158.5,1039.1,158.5z"/>
			<path id="XMLID_265_" class="st6" d="M1041.4,152.1c0,0,4.5,2.6,8.7-4.8c4.2-7.4,8.7-8.9,1.4-11.7s-10.5-6.4-15.4-3.5
				c-4.9,2.8-6.4-1.7-10.8-0.2s-3.9,0.7-2.2,7.1c1.7,6.5,3.9,7.5,7.9,10.9C1034.9,153.2,1041.4,152.1,1041.4,152.1z"/>
			<path id="XMLID_264_" class="st6" d="M1013.2,169.6c0,0-7.6-0.8-4.7-8s8.8-12.3,13.3-9.6s9.5,4.5,9.5,4.5l1.2,3.2
				C1032.5,159.6,1026.6,180.9,1013.2,169.6z"/>
			<path id="XMLID_263_" class="st6" d="M1051.8,165.9c0,0,6.2,1,10.4-6.4s7.4-8.6-0.5-11.4c-7.9-2.8-3.3-3.5-11.6-0.8
				c-8.3,2.7-15.2,5.9-15.2,5.9l1.7,6.5L1051.8,165.9z"/>
			<path id="XMLID_262_" class="st6" d="M1023,138.9c0,0-2.6-3.6-8.9-0.6c-6.3,3.1-7.2,5.2-7.1,10c0.1,4.7,0,8.1,6.1,8.5
				c6.1,0.3,18.2-0.3,18.2-0.3l4.4-6.1L1023,138.9z"/>
			<circle id="XMLID_261_" class="st4" cx="1033.8" cy="155" r="3"/>
			<path id="XMLID_260_" class="st4" d="M1034.3,158c0,0-0.3,2.1,2.4,10.4c2.7,8.3-3.5-4.8-4.1-8.8
				C1031.9,155.7,1034.3,158,1034.3,158z"/>
			<path id="XMLID_259_" class="st4" d="M1044.2,164.5c0,0-8.8-4-9.9-6.5c-1.1-2.5-1-5.9-1-5.9S1036.6,155.6,1044.2,164.5z"/>
			<path id="XMLID_258_" class="st4" d="M1021.2,168.9"/>
			<path id="XMLID_257_" class="st4" d="M1033.3,152.1c0,0-6.3,4.8-7.3,11c-1,6.2-1,6.2-1,6.2L1033.3,152.1z"/>
			<path id="XMLID_256_" class="st4" d="M1028.2,153.6l2.7,1.9L1028.2,153.6z"/>
		</g>
		<g id="XMLID_229_">
			<path id="XMLID_254_" class="st3" d="M972.6,315.3c0,0-1,2.1,4.7,0c5.8-2.1,1-5.2,10-6.8c8.9-1.6,17.8-0.5,17.8-0.5
				s10.5,3.1,12.6,5.8s6.3,9.4,6.3,9.4l-11,30.4c0,0-13.6,4.2-19.4-4.2c-5.8-8.4-7.9-1-12.1-14.7c-4.2-13.6-5.2-13.1-7.3-15.7
				S972.6,315.3,972.6,315.3z"/>
			<path id="XMLID_253_" class="st2" d="M972.9,317.2c0.8,0,5.2,3.4,12.1,4.5c6.8,1,10.5,0.5,13.4,3.4c2.9,2.9,7.3,7.1,11.8,8.4
				c4.5,1.3,11.3,7.3,11.3,7.3l-3.9,10.8c0,0-8.4,5-14.2,3.4c-5.8-1.6-6.3-3.9-10-6.6c-3.7-2.6-5.2-2.6-7.9-5.5
				c-2.6-2.9-3.9-14.2-6.6-17.6C976.3,321.9,972.9,317.2,972.9,317.2z"/>
			<path id="XMLID_252_" class="st8" d="M1075.7,302.5c0,0-8.4,19.9-17.3,26.2c-8.9,6.3-17.3,7.9-17.3,7.9l-4.7-4.2l6.8-7.3
				c0,0,6.3-1.6,12.6-5.2C1062.1,316.1,1075.7,302.5,1075.7,302.5z"/>
			<path id="XMLID_251_" class="st2" d="M1040.1,335c1.6-0.3,16-5.8,18.6-7.6s13.9-17.3,13.9-17.3l-10.8,16.5c0,0-13.4,8.4-15.7,8.9
				c-2.4,0.5-7.9,0.8-7.9,0.8L1040.1,335z"/>
			<path id="XMLID_250_" class="st8" d="M1029.6,273.6c-1-1.6,7.9,4.2,8.4,13.1c0.5,8.9,2.6,19.4,1.6,24.1
				c-1,4.7-15.7,16.3-15.7,16.3s2.6-13.6,5.2-19.4C1031.7,302,1035.9,284.1,1029.6,273.6z"/>
			<path id="XMLID_249_" class="st2" d="M1029.6,273.6c0,0,6,6,6,10.5c0,4.5,0.8,13.4-0.8,18.1c-1.6,4.7-3.1,13.9-3.1,13.9
				l-3.7,12.1l-4.2-1c0,0,3.9-17.1,5.2-19.4c1.3-2.4,3.1-7.9,3.1-11.5c0-3.7,2.1-11,0.5-14.2
				C1031.1,278.9,1029.6,273.6,1029.6,273.6z"/>
			<path id="XMLID_248_" class="st8" d="M1023.3,395.9c0,0,1.6-0.5,4.7-8.9s3.7-10,4.2-19.4s-0.2-23.2-1.7-25.8s-18.2-0.5-18.2-0.5
				l0.5,16.3l6.3,20.5L1023.3,395.9z"/>
			<path id="XMLID_247_" class="st8" d="M970.3,341.3c1.6,0.5,10,7.9,15.2,6.8c5.2-1,13.6-0.5,13.6-0.5l15.1,3.1l0.1-22
				c0,0-13.1,2.1-17.8,3.7c-4.7,1.6-8.9,4.7-15.2,5.8C975,339.2,970.3,341.3,970.3,341.3z"/>
			<path id="XMLID_246_" class="st6" d="M1019.1,336.6c0,0-11-2.6-15.7-15.2c-4.7-12.6-2.1-16.8-2.1-16.8s16.3,2.6,18.9,10.5
				c2.6,7.9,4.2,15.7,4.2,15.7L1019.1,336.6z"/>
			<path id="XMLID_245_" class="st6" d="M1052.6,309.8c0,0-6.3,17.3-12.6,21.5s-12.6,5.2-12.6,5.2l-3.1-5.8c0,0,1-11,7.3-14.7
				C1038,312.4,1047.9,308.3,1052.6,309.8z"/>
			<path id="XMLID_244_" class="st6" d="M990.2,354.4c0,0,11.5-18.4,23.1-19.9s8.4,4.2,8.4,4.2s-17.3,10.5-21,12.1
				S993.4,357,990.2,354.4z"/>
			<path id="XMLID_243_" class="st6" d="M1019,368.6c0,0,9.2-2.1,10.8-7.9c1.6-5.8,2.8-8.4,1.7-13.6c-0.5-2.6-0.7-4.2-1.1-5.3
				s-0.7-1.8-1.5-2.6c-1.6-1.6-9.9-2.6-9.9-2.6s-7.1,8.9-5,14.2c2.1,5.2,5,7.3,5,11.5S1019,368.6,1019,368.6z"/>
			<path id="XMLID_242_" class="st6" d="M1054.3,350.9c0,0,5.2-2.7-1.1-7.9c-6.3-5.2-14.8-7.9-14.8-7.9h-11.3l0.3,2l1.5,2.4
				c0,0,4.8,2.5,7.9,5.1c3.1,2.6,8.9,2,11,4.1C1050,350.8,1054.3,350.9,1054.3,350.9z"/>
			<path id="XMLID_241_" class="st7" d="M1026.4,328.7c0.5-1,1.6-8.1,6.8-10.5c5.2-2.4,7.9-5.5,11.5-5.8s7.9-2.6,7.9-2.6
				s-9.7-0.8-16,2.9c-6.3,3.7-8.7,6-8.7,6s-4.7,6.6-4.2,8.4C1024.3,329,1026.4,328.7,1026.4,328.7z"/>
			<path id="XMLID_240_" class="st7" d="M1029.6,333.7c0.8-0.3,8.7-2.6,10.8-4.7c2.1-2.1,6.6-9.4,6.6-9.4l5.8-9.7l-5,12.3
				c0,0-5.5,9.7-7.3,11c-1.8,1.3-11.3,2.1-11.3,2.1L1029.6,333.7z"/>
			<path id="XMLID_239_" class="st7" d="M1022.7,329.8c0,0-15.2-17.3-18.6-18.4s-3.1-1-3.1-1l0.3-5.8c0,0,6-0.3,10.5,2.4
				c4.5,2.6,8.7,6.8,8.7,6.8c0.5,3.1,4.5,13.6,4.2,15.5S1022.7,329.8,1022.7,329.8z"/>
			<path id="XMLID_238_" class="st7" d="M1001,310.4c0,0,1.3,7.1,2.9,9.7s5.8,8.7,8.1,10.5c2.4,1.8,7.1,3.1,7.1,3.1l-5.8,0.8
				C1015.7,334.7,1003.1,323.7,1001,310.4z"/>
			<path id="XMLID_237_" class="st7" d="M1019.1,334.7c0,0-11.5,1.3-15,5c-3.4,3.7-6.8,5-9.2,8.9c-2.4,3.9-4.5,6-4.7,5.8
				c-0.3-0.3,5.8-10.5,9.7-13.6c3.9-3.1,8.1-5.2,11.5-6s9.2-1.8,9.2-1.8L1019.1,334.7z"/>
			<path id="XMLID_236_" class="st7" d="M990.2,354.4c0,0,2.9,0.3,7.9-2.6s11.5-7.6,11.5-7.6l10-6l-4.7,5.5l-13.4,8.1
				C1001.5,351.8,994.1,356.5,990.2,354.4z"/>
			<path id="XMLID_235_" class="st7" d="M1019.6,338.2c1.3-1-5.5,7.1-4.7,10c0.8,2.9,2.6,2.9,3.7,6c1,3.1-0.3,13.9,0,14.4
				c0.3,0.5-1.3-11-1.3-11s-2.7-2.4-3.4-6.8C1013,346.3,1014.3,342.1,1019.6,338.2z"/>
			<path id="XMLID_234_" class="st7" d="M1027.7,340.3c0,0,0.8,0.3,1,6c0.3,5.8,2.1,6.6,0.3,11c-1.8,4.5-6,8.4-6,8.4l-4.5,2.9
				c0,0,6.3-0.8,8.7-2.9c2.4-2.1,3.9-4.7,4.7-8.7c0.8-3.9-0.7-11.4-1.5-15.3c-0.8-3.9-2.1-3.9-2.1-3.9L1027.7,340.3z"/>
			<path id="XMLID_233_" class="st7" d="M1029.8,337.6c0,0,3.1,3.4,7.9,5.2c4.7,1.8,7.3,3.4,9.7,4.2s4.7,3.7,6,1.6
				c1.3-2.1,1.6-2.6-1.8-5c-3.4-2.4-6.3-4.2-10.5-5.8c-4.2-1.6-11-3.1-11-3.1s4.5-0.5,8.4,0.3s8.7,3.7,8.7,3.7s4.6,3.3,6.1,4.3
				c1.5,1,3.9,1.5,3.3,3.6c-0.5,2.1,1,4.2-2.2,4.3c-3.3,0.1-10.1-3-12.7-4.1s-3.4,1-5.8-2.1c-2.4-3.1-5.8-1.6-6.3-3.9
				C1029,338.4,1029.8,337.6,1029.8,337.6z"/>
			<circle id="XMLID_232_" class="st5" cx="1024.6" cy="334.7" r="5.5"/>
			<path id="XMLID_231_" class="st1" d="M972.8,317.2c2.1-0.8,5.3,1.3,9.2,1.8c3.9,0.5,4.8,2.6,8.7,2.3c3.9-0.3,8.4,1.3,10.2,3.1
				s0.8,4.2,3.2,4.4c2.4,0.3,3.4,2.1,3.4,2.1h-3.9c0,0-2.6-3.7-5.2-5.8c-2.6-2.1-3.7-2.2-6.6-2.4c-2.9-0.3-4.2,1-7.1,0
				c-2.9-1-1,0.5-6.3-2.4C973.2,317.5,972.8,317.2,972.8,317.2z"/>
			<circle id="XMLID_230_" class="st10" cx="1022.7" cy="332.6" r="1.8"/>
		</g>
		<g id="XMLID_216_">
			<polygon id="XMLID_228_" class="st1" points="1047,188.4 1045,207.4 1045.3,229.7 1047.1,255.1 1048,269 1052.7,311 
				1053.3,322.4 1057.3,321.7 1055.3,299.7 1048,241 1046.7,216.4 			"/>
			<circle id="XMLID_227_" class="st5" cx="1042.7" cy="261" r="5.3"/>
			<circle id="XMLID_226_" class="st6" cx="1054.1" cy="249.9" r="5.7"/>
			<circle id="XMLID_225_" class="st5" cx="1043" cy="234.2" r="5"/>
			<circle id="XMLID_224_" class="st4" cx="1055.7" cy="230.7" r="5"/>
			<circle id="XMLID_223_" class="st6" cx="1043.9" cy="217.5" r="6.3"/>
			<circle id="XMLID_222_" class="st5" cx="1045" cy="207.4" r="3.7"/>
			<circle id="XMLID_221_" class="st4" cx="1047" cy="197.4" r="3"/>
			<circle id="XMLID_220_" class="st4" cx="1047" cy="186" r="2.3"/>
			<path id="XMLID_219_" class="st3" d="M1050.5,302.5c0,0-10.5,0.5-10.5,9.2s0,9,0,9s4.2-1.7,9.5-6.3c5.3-4.7,9.3-5.3,6.7-8.7
				C1053.5,302.4,1050.5,302.5,1050.5,302.5z"/>
			<path id="XMLID_218_" class="st3" d="M1046,283c0,0-7.3-4.7-5.3,4c2,8.7,0.7,12,0.7,12s4.7-3.3,8-8c3.3-4.7,6-6.7,3.3-7.3
				C1050,283,1046,283,1046,283z"/>
			<path id="XMLID_217_" class="st3" d="M1050,273c0,0-4,4,0.7,5.3c4.7,1.3,6.7,0.7,8.7,4.7s0.7-7.3,0.7-7.3s6.7-0.7,1.3-6
				C1056,264.4,1050,273,1050,273z"/>
		</g>
		<g id="XMLID_203_">
			<polygon id="XMLID_215_" class="st1" points="1018,174.4 1016,193.4 1016.3,215.7 1018.1,241.1 1019,255 1023.7,297 
				1024.3,308.4 1028.3,307.7 1026.3,285.7 1019,227 1017.7,202.4 			"/>
			<circle id="XMLID_214_" class="st4" cx="1013.7" cy="247" r="5.3"/>
			<circle id="XMLID_213_" class="st5" cx="1025.1" cy="235.9" r="5.7"/>
			<circle id="XMLID_212_" class="st5" cx="1014" cy="220.2" r="5"/>
			<circle id="XMLID_211_" class="st4" cx="1026.7" cy="216.7" r="5"/>
			<circle id="XMLID_210_" class="st5" cx="1014.9" cy="203.5" r="6.3"/>
			<circle id="XMLID_209_" class="st5" cx="1016" cy="193.4" r="3.7"/>
			<circle id="XMLID_208_" class="st4" cx="1018" cy="183.4" r="3"/>
			<circle id="XMLID_207_" class="st4" cx="1018" cy="172" r="2.3"/>
			<path id="XMLID_206_" class="st3" d="M1021.5,288.5c0,0-10.5,0.5-10.5,9.2s0,9,0,9s4.2-1.7,9.5-6.3c5.3-4.7,9.3-5.3,6.7-8.7
				C1024.5,288.4,1021.5,288.5,1021.5,288.5z"/>
			<path id="XMLID_205_" class="st3" d="M1017,269c0,0-7.3-4.7-5.3,4c2,8.7,0.7,12,0.7,12s4.7-3.3,8-8c3.3-4.7,6-6.7,3.3-7.3
				S1017,269,1017,269z"/>
			<path id="XMLID_204_" class="st3" d="M1021,259c0,0-4,4,0.7,5.3c4.7,1.3,6.7,0.7,8.7,4.7s0.7-7.3,0.7-7.3s6.7-0.7,1.3-6
				C1027,250.4,1021,259,1021,259z"/>
		</g>
		<path class="st11" d="M1073.1,145.3l-94.5,231l142.2,124.8C1120.8,501.1,1137.6,203.8,1073.1,145.3z"/>
	</g>
	<path id="XMLID_22_" class="st12" d="M983.5,363.6c0,0-15.8-224.7,64.5-244.9c0,0-48.1-22.3-78.9,107l-10.4,115.7L983.5,363.6z"/>
	<path id="XMLID_18_" class="st13" d="M968.9,208.8C965.1,134.1,925.2,74.8,864,71c-50.7-3.1-120.1,90.5-120.2,224.4L965,343.2
		C965,342.7,968.9,209.3,968.9,208.8z"/>
	<line id="XMLID_17_" class="st14" x1="795.2" y1="120" x2="795.2" y2="302"/>
	<line id="XMLID_19_" class="st15" x1="835.5" y1="80.2" x2="836.3" y2="313.4"/>
	<line id="XMLID_20_" class="st15" x1="875.4" y1="74" x2="877.9" y2="323.4"/>
	<line id="XMLID_21_" class="st15" x1="925.4" y1="100.9" x2="923.5" y2="332.2"/>
</g>
<g>
	<path id="XMLID_131_" class="st0" d="M1520,327.2c0-122.4-36.1-221.6-80.6-221.6c-44.4,0-80.5,99-80.6,221.1l160,159.4
		C1518.9,485.6,1520,327.6,1520,327.2z"/>
	<g>
		<g>
			<path class="st1" d="M1452.5,424.5c0.2-1.6,6.7-37-2.4-52c-9.1-15.1-5.2-6.7-5.2-6.7s14.2,39.2,4.8,55.3L1452.5,424.5z"/>
			<path class="st1" d="M1462.7,426.3c0,0,3.4-35.7,6.5-43.7c3-8,10.1-20.1,11.7-24.9c1.6-4.8,3.1-11.8,3.1-11.8s-10.2,19-12.4,25.1
				c-2.2,6.1-8.7,16.9-8.8,24.5c-0.1,7.6-4.5,30.8-4.5,30.8L1462.7,426.3z"/>
			<path class="st1" d="M1502.5,372.9c0.3-2-8.3,20.9-19.6,33.9c-11.3,13-17.3,19.1-17.3,19.1l3.6,1.6
				C1469.2,427.6,1499,401.5,1502.5,372.9z"/>
			<path class="st2" d="M1479.3,411.3c0,0-6.7-0.8-5.1,7.6c1.7,8.4,7.2,10.9,11.9,12.5s8.5,5.5,7.8-1.4
				C1493.2,423,1484.9,413.3,1479.3,411.3z"/>
			<path class="st3" d="M1491.9,397.8c0,0-2.6-3.9-13.6,1s-11.8,6.8-11.8,6.8s-1.3,0.5,5.3,2.9c6.6,2.4,6,3.8,11.2,0.7
				c5.2-3.1,10.8-9.4,10.8-9.4L1491.9,397.8z"/>
			<path class="st2" d="M1497,423.1c0,0,7.6-16.9,0.9-22.6c-6.7-5.8-11.3,7-11,11C1487.3,415.4,1497,423.1,1497,423.1z"/>
			<path class="st2" d="M1513,410.5c0,0,9.4-6.2,1.3-12.6c-8.1-6.4-12.8-12.9-12.8-12.9s-4,5.3-4,12.5s-1.3,11.5,6.1,13.2
				C1511.1,412.4,1513,410.5,1513,410.5z"/>
			<path class="st4" d="M1499.7,379.3c0,0-2.6-3.9-10.3-0.2c-7.7,3.7-8.9,6.4-8.9,6.4s-4.5,4,1.1,6c5.7,2,4.9,3.8,10.4,1.4
				c5.5-2.5,9.5-7.8,9.5-7.8L1499.7,379.3z"/>
			<path class="st3" d="M1528.7,377c0,0-3.7-12.6-15.1-6.8c-11.4,5.8-11.4,5.8-11.4,5.8l-2.2,6.1c0,0-1-1.5,7.7,1.2s8,4.1,13,1.5
				S1528.7,377,1528.7,377z"/>
			<path class="st3" d="M1514,357.2c0,0-3.6-2.2-8.6,4.4c-5,6.5-4.8,4.9-5.6,9c-0.7,4.1,3.8,5,3.8,5S1520.8,371.3,1514,357.2z"/>
			<path class="st2" d="M1478.7,371c0,0,10.8-8.3,17.7-0.3s3.3,8.6,3.3,8.6s-4.7,0.6-10.3-0.2C1483.7,378.2,1476.7,376.7,1478.7,371
				z"/>
			<path class="st2" d="M1444.9,348.7c0,0,1.9-3,2.9,5.7c1,8.7-3,14-3,14S1435.9,362.7,1444.9,348.7z"/>
			<path class="st5" d="M1425.7,376.8c0,0,0.8,0.2,2,0.5c4,0.8,12.7,2,16.5-2.6c4.9-6,0.6-6.3,0.6-6.3s-3.2-6.4-9.5-2.1
				c-6.3,4.3-8.9,10.7-8.9,10.7L1425.7,376.8z"/>
			<path class="st2" d="M1462.5,368.1c0,0-0.1-3.4-8.6-1.7s-8.4,1.7-8.4,1.7S1449.6,376,1462.5,368.1z"/>
			<path class="st3" d="M1436.7,404.7c0,0,9.6-0.6,16.4-14.6C1453.1,390.2,1438.6,384.7,1436.7,404.7z"/>
			<path class="st2" d="M1437.6,419.9c0,0,9.6-1.7,14.9-13.6C1452.4,406.3,1441.5,396.5,1437.6,419.9z"/>
			<path class="st3" d="M1466,414c0,0-7.6-11.1-11.2-10.5c-3.6,0.6,0.2,9.4,0.2,9.4S1457.4,417.3,1466,414z"/>
			<path class="st6" d="M1453.1,390.2c0,0-5-12.1,14.4-13.8c0,0,5.2,0.7,1.6,6.2S1458.3,390.9,1453.1,390.2z"/>
			<path class="st3" d="M1479.4,393.8c0,0-0.1-14.3-6.3-16.5C1467,375.1,1461.4,396.1,1479.4,393.8z"/>
			<path class="st3" d="M1480.7,354.4c0,0-13.8,2.6-16,8.7c-2.2,6.1,6.1,7.1,10.6,2C1479.8,360,1480.7,354.4,1480.7,354.4z"/>
			<path class="st3" d="M1490.6,365.4c0,0,3-8-3.8-9.9s-5.6-4.7-6.8-2C1478.8,356.2,1479,366.7,1490.6,365.4z"/>
			<path class="st3" d="M1457.2,349.3c0,0,11.3-3.2,22.8,4.2C1480,353.5,1471.5,365,1457.2,349.3z"/>
			<path class="st2" d="M1484.6,334.7c-0.4-1.7-4.8,2.2-9.7,8.2c-4.9,6-4.9,11.3-4.9,11.3S1489.2,352.7,1484.6,334.7z"/>
			<path class="st3" d="M1464.4,332.2c0,0,15-5.3,18.3-1.7s0,6,0,6S1473.1,344.4,1464.4,332.2z"/>
			<path class="st7" d="M1492,346.3c0,0,1.7-13.5-6.2-14.3C1485.8,332,1477.5,348,1492,346.3z"/>
			<path class="st3" d="M1482.8,312c0.6-1,2.8,3.5,2.9,10.6s0.2,9.4,0.2,9.4S1475.3,325,1482.8,312z"/>
			<path class="st8" d="M1502.8,319.9c0,0-8.9,1.5-13.1,7.3c-4.2,5.8-2.7,5.9-0.8,6.7S1499.9,331.2,1502.8,319.9z"/>
			<path class="st3" d="M1502.6,336.2c0,0-3.1-4.1-9.1-4.1c-6,0-3.2,4.6-3.2,4.6S1494.7,340.3,1502.6,336.2z"/>
		</g>
		<g id="XMLID_167_">
			<path id="XMLID_202_" class="st9" d="M1477,301.3c0,0-3.6-9.5-0.3-18.2c3.3-8.7,10.1-12.5,7.4-20.8c-2.7-8.3,3.6-39.8,0.7-48.8
				c-2.8-9-12.8-24.2-12.8-24.2s-2.2-17.2-7.5-25.1s-34.6-25.4-34.6-25.4l-2.7,3.8l35.1,24.6l6.5,23.2l12.6,22.9l-1,34.6l0.9,22.1
				C1481.3,270.1,1470.2,276.7,1477,301.3z"/>
			<path id="XMLID_201_" class="st3" d="M1480.4,248c1.5-1.5,11.4,7.6-3.7,35.1C1476.7,283.1,1461.4,268,1480.4,248z"/>
			<path id="XMLID_200_" class="st3" d="M1470.6,180.7c0,0-15.8,2.6-18.8,21.3C1451.8,202,1475.3,196.8,1470.6,180.7z"/>
			<path id="XMLID_199_" class="st3" d="M1505.3,264.2c0,0-24.1-14.9-23.6-24.5c0.5-9.5,4-8.8,4-8.8S1493.2,227.6,1505.3,264.2z"/>
			<path id="XMLID_198_" class="st3" d="M1519.4,288.2c0,0-13.9,1.6-20-10.9c-6.1-12.5-1-5.9-1-5.9S1508.6,259.6,1519.4,288.2z"/>
			<path id="XMLID_197_" class="st3" d="M1492.8,302.7c0,0-11.3-11-6.3-34.1C1486.5,268.6,1498.6,268.6,1492.8,302.7z"/>
			<path id="XMLID_196_" class="st3" d="M1482.2,156.5c0,0-9.8,6.3-20.1,1.3c-10.3-5.1-8.2-8.8-8.2-8.8l6.9-7.2
				C1460.8,141.8,1470.6,143.5,1482.2,156.5z"/>
			<path id="XMLID_195_" class="st3" d="M1494.9,180.7c0,0-13.7,2.9-20.8-3.3c-7.1-6.3-9.6-13.3-9.6-13.3S1483.7,161.6,1494.9,180.7
				z"/>
			<path id="XMLID_194_" class="st3" d="M1484.7,225c0,0-16.1-7.5-32.2,13.4C1452.4,238.4,1474.7,246.2,1484.7,225z"/>
			<path id="XMLID_193_" class="st3" d="M1508.3,233.3c0,0-13.8-1.8-20.4-12.9c-6.6-11.1-0.2-9.4-0.2-9.4S1502.1,207.9,1508.3,233.3
				z"/>
			<path id="XMLID_192_" class="st3" d="M1494.4,205.8c0,0,0,8.1-12.3-4.7c-12.3-12.8-11.5-20.4-11.5-20.4l11.2,2.2
				C1481.8,182.9,1494.1,187.6,1494.4,205.8z"/>
			<path id="XMLID_191_" class="st3" d="M1455,221.1c0,0,4.5,6.7,10.4-2.4c5.9-9.1,9.1-18.4,9.1-18.4l-2.7-4.3c0,0,3-2.5-5.6,2.9
				C1457.6,204.5,1454.2,208.4,1455,221.1z"/>
			<path id="XMLID_190_" class="st3" d="M1449.5,270c0,0,17.5-0.2,21.3-10.3c3.7-10.1-17.2,2.2-17.2,2.2L1449.5,270z"/>
			<path id="XMLID_189_" class="st3" d="M1487.7,325.2c0,0-9.1-1.9-10.9-13.1c-1.8-11.2-1.1-14.7-1.1-14.7l5.7,5.8
				c0,0,4.1,0,5.5,8.6C1488.2,320.4,1487.7,325.2,1487.7,325.2z"/>
			<path id="XMLID_188_" class="st3" d="M1459.2,309.9c0,0,5.6,5.2,10.4-6.4c4.8-11.6,5.9-17.2,5.9-17.2s-1.3,0.2-7.1,5.9
				c-5.8,5.7-8.5,10.2-8.5,10.2L1459.2,309.9z"/>
			<path id="XMLID_187_" class="st3" d="M1430.2,226.5c0,0,12.4,1.3,19.2-6.5s3.9-13.5,3.9-13.5s-4.4-6-11.7,2.6
				C1434.2,217.8,1430.2,226.5,1430.2,226.5z"/>
			<path id="XMLID_186_" class="st9" d="M1498.4,271.4c0,0-12-15.6-14.2-20.6c0,0,2.5,3,13.3,23.5L1498.4,271.4z"/>
			<path id="XMLID_185_" class="st6" d="M1438.1,147.5c0,0,15.3,6.9,12.6,14.8s-2.2,11.2-11.2,10c-9-1.2-14.8-3.6-14.2-8.5
				s1.9-13.1,6.3-15.2C1435.9,146.5,1438.1,147.5,1438.1,147.5z"/>
			<path id="XMLID_184_" class="st6" d="M1440.4,141.1c0,0,4.5,2.6,8.7-4.8c4.2-7.4,8.7-8.9,1.4-11.7c-7.2-2.9-10.5-6.4-15.4-3.5
				c-4.9,2.8-6.4-1.7-10.8-0.2c-4.5,1.4-3.9,0.7-2.2,7.1c1.7,6.5,3.9,7.5,7.9,10.9C1433.9,142.2,1440.4,141.1,1440.4,141.1z"/>
			<path id="XMLID_183_" class="st6" d="M1412.2,158.6c0,0-7.6-0.8-4.7-8s8.8-12.3,13.3-9.6s9.5,4.5,9.5,4.5l1.2,3.2
				C1431.5,148.6,1425.6,169.9,1412.2,158.6z"/>
			<path id="XMLID_182_" class="st6" d="M1450.8,154.9c0,0,6.2,1,10.4-6.4s7.4-8.6-0.5-11.4c-7.9-2.8-3.3-3.5-11.6-0.8
				c-8.3,2.7-15.2,5.9-15.2,5.9l1.7,6.5L1450.8,154.9z"/>
			<path id="XMLID_181_" class="st6" d="M1422,127.9c0,0-2.6-3.6-8.9-0.6c-6.3,3.1-7.2,5.2-7.1,10c0.1,4.7,0,8.1,6.1,8.5
				c6.1,0.3,18.2-0.3,18.2-0.3l4.4-6.1L1422,127.9z"/>
			<circle id="XMLID_180_" class="st4" cx="1432.8" cy="144" r="3"/>
			<path id="XMLID_179_" class="st4" d="M1433.3,147c0,0-0.3,2.1,2.4,10.4c2.7,8.3-3.5-4.8-4.1-8.8
				C1430.9,144.7,1433.3,147,1433.3,147z"/>
			<path id="XMLID_178_" class="st4" d="M1443.2,153.5c0,0-8.8-4-9.9-6.5c-1.1-2.5-1-5.9-1-5.9S1435.6,144.6,1443.2,153.5z"/>
			<path id="XMLID_177_" class="st4" d="M1420.2,157.9"/>
			<path id="XMLID_176_" class="st4" d="M1432.3,141.1c0,0-6.3,4.8-7.3,11c-1,6.2-1,6.2-1,6.2L1432.3,141.1z"/>
			<path id="XMLID_173_" class="st4" d="M1427.2,142.6l2.7,1.9L1427.2,142.6z"/>
		</g>
		<g id="XMLID_134_">
			<path id="XMLID_166_" class="st3" d="M1371.6,304.3c0,0-1,2.1,4.7,0c5.8-2.1,1-5.2,10-6.8c8.9-1.6,17.8-0.5,17.8-0.5
				s10.5,3.1,12.6,5.8s6.3,9.4,6.3,9.4l-11,30.4c0,0-13.6,4.2-19.4-4.2s-7.9-1-12.1-14.7c-4.2-13.6-5.2-13.1-7.3-15.7
				S1371.6,304.3,1371.6,304.3z"/>
			<path id="XMLID_165_" class="st2" d="M1371.9,306.2c0.8,0,5.2,3.4,12.1,4.5s10.5,0.5,13.4,3.4c2.9,2.9,7.3,7.1,11.8,8.4
				c4.5,1.3,11.3,7.3,11.3,7.3l-3.9,10.8c0,0-8.4,5-14.2,3.4c-5.8-1.6-6.3-3.9-10-6.6s-5.2-2.6-7.9-5.5c-2.6-2.9-3.9-14.2-6.6-17.6
				C1375.3,310.9,1371.9,306.2,1371.9,306.2z"/>
			<path id="XMLID_164_" class="st8" d="M1474.7,291.5c0,0-8.4,19.9-17.3,26.2c-8.9,6.3-17.3,7.9-17.3,7.9l-4.7-4.2l6.8-7.3
				c0,0,6.3-1.6,12.6-5.2C1461.1,305.1,1474.7,291.5,1474.7,291.5z"/>
			<path id="XMLID_163_" class="st2" d="M1439.1,324c1.6-0.3,16-5.8,18.6-7.6s13.9-17.3,13.9-17.3l-10.8,16.5c0,0-13.4,8.4-15.7,8.9
				c-2.4,0.5-7.9,0.8-7.9,0.8L1439.1,324z"/>
			<path id="XMLID_162_" class="st8" d="M1428.6,262.6c-1-1.6,7.9,4.2,8.4,13.1c0.5,8.9,2.6,19.4,1.6,24.1
				c-1,4.7-15.7,16.3-15.7,16.3s2.6-13.6,5.2-19.4C1430.7,291,1434.9,273.1,1428.6,262.6z"/>
			<path id="XMLID_161_" class="st2" d="M1428.6,262.6c0,0,6,6,6,10.5c0,4.5,0.8,13.4-0.8,18.1c-1.6,4.7-3.1,13.9-3.1,13.9
				l-3.7,12.1l-4.2-1c0,0,3.9-17.1,5.2-19.4c1.3-2.4,3.1-7.9,3.1-11.5c0-3.7,2.1-11,0.5-14.2
				C1430.1,267.9,1428.6,262.6,1428.6,262.6z"/>
			<path id="XMLID_160_" class="st8" d="M1422.3,384.9c0,0,1.6-0.5,4.7-8.9s3.7-10,4.2-19.4s-0.2-23.2-1.7-25.8s-18.2-0.5-18.2-0.5
				l0.5,16.3l6.3,20.5L1422.3,384.9z"/>
			<path id="XMLID_159_" class="st8" d="M1369.3,330.3c1.6,0.5,10,7.9,15.2,6.8c5.2-1,13.6-0.5,13.6-0.5l15.1,3.1l0.1-22
				c0,0-13.1,2.1-17.8,3.7c-4.7,1.6-8.9,4.7-15.2,5.8C1374,328.2,1369.3,330.3,1369.3,330.3z"/>
			<path id="XMLID_158_" class="st6" d="M1418.1,325.6c0,0-11-2.6-15.7-15.2c-4.7-12.6-2.1-16.8-2.1-16.8s16.3,2.6,18.9,10.5
				c2.6,7.9,4.2,15.7,4.2,15.7L1418.1,325.6z"/>
			<path id="XMLID_157_" class="st6" d="M1451.6,298.8c0,0-6.3,17.3-12.6,21.5s-12.6,5.2-12.6,5.2l-3.1-5.8c0,0,1-11,7.3-14.7
				C1437,301.4,1446.9,297.3,1451.6,298.8z"/>
			<path id="XMLID_156_" class="st6" d="M1389.2,343.4c0,0,11.5-18.4,23.1-19.9c11.5-1.6,8.4,4.2,8.4,4.2s-17.3,10.5-21,12.1
				S1392.4,346,1389.2,343.4z"/>
			<path id="XMLID_155_" class="st6" d="M1418,357.6c0,0,9.2-2.1,10.8-7.9c1.6-5.8,2.8-8.4,1.7-13.6c-0.5-2.6-0.7-4.2-1.1-5.3
				s-0.7-1.8-1.5-2.6c-1.6-1.6-9.9-2.6-9.9-2.6s-7.1,8.9-5,14.2c2.1,5.2,5,7.3,5,11.5S1418,357.6,1418,357.6z"/>
			<path id="XMLID_154_" class="st6" d="M1453.3,339.9c0,0,5.2-2.7-1.1-7.9c-6.3-5.2-14.8-7.9-14.8-7.9h-11.3l0.3,2l1.5,2.4
				c0,0,4.8,2.5,7.9,5.1c3.1,2.6,8.9,2,11,4.1C1449,339.8,1453.3,339.9,1453.3,339.9z"/>
			<path id="XMLID_151_" class="st7" d="M1425.4,317.7c0.5-1,1.6-8.1,6.8-10.5c5.2-2.4,7.9-5.5,11.5-5.8s7.9-2.6,7.9-2.6
				s-9.7-0.8-16,2.9c-6.3,3.7-8.7,6-8.7,6s-4.7,6.6-4.2,8.4C1423.3,318,1425.4,317.7,1425.4,317.7z"/>
			<path id="XMLID_145_" class="st7" d="M1428.6,322.7c0.8-0.3,8.7-2.6,10.8-4.7c2.1-2.1,6.6-9.4,6.6-9.4l5.8-9.7l-5,12.3
				c0,0-5.5,9.7-7.3,11c-1.8,1.3-11.3,2.1-11.3,2.1L1428.6,322.7z"/>
			<path id="XMLID_144_" class="st7" d="M1421.7,318.8c0,0-15.2-17.3-18.6-18.4s-3.1-1-3.1-1l0.3-5.8c0,0,6-0.3,10.5,2.4
				c4.5,2.6,8.7,6.8,8.7,6.8c0.5,3.1,4.5,13.6,4.2,15.5S1421.7,318.8,1421.7,318.8z"/>
			<path id="XMLID_143_" class="st7" d="M1400,299.4c0,0,1.3,7.1,2.9,9.7c1.6,2.6,5.8,8.7,8.1,10.5c2.4,1.8,7.1,3.1,7.1,3.1
				l-5.8,0.8C1414.7,323.7,1402.1,312.7,1400,299.4z"/>
			<path id="XMLID_142_" class="st7" d="M1418.1,323.7c0,0-11.5,1.3-15,5c-3.4,3.7-6.8,5-9.2,8.9c-2.4,3.9-4.5,6-4.7,5.8
				s5.8-10.5,9.7-13.6s8.1-5.2,11.5-6s9.2-1.8,9.2-1.8L1418.1,323.7z"/>
			<path id="XMLID_141_" class="st7" d="M1389.2,343.4c0,0,2.9,0.3,7.9-2.6c5-2.9,11.5-7.6,11.5-7.6l10-6l-4.7,5.5l-13.4,8.1
				C1400.5,340.8,1393.1,345.5,1389.2,343.4z"/>
			<path id="XMLID_140_" class="st7" d="M1418.6,327.2c1.3-1-5.5,7.1-4.7,10c0.8,2.9,2.6,2.9,3.7,6c1,3.1-0.3,13.9,0,14.4
				s-1.3-11-1.3-11s-2.7-2.4-3.4-6.8C1412,335.3,1413.3,331.1,1418.6,327.2z"/>
			<path id="XMLID_139_" class="st7" d="M1426.7,329.3c0,0,0.8,0.3,1,6c0.3,5.8,2.1,6.6,0.3,11c-1.8,4.5-6,8.4-6,8.4l-4.5,2.9
				c0,0,6.3-0.8,8.7-2.9c2.4-2.1,3.9-4.7,4.7-8.7c0.8-3.9-0.7-11.4-1.5-15.3c-0.8-3.9-2.1-3.9-2.1-3.9L1426.7,329.3z"/>
			<path id="XMLID_138_" class="st7" d="M1428.8,326.6c0,0,3.1,3.4,7.9,5.2c4.7,1.8,7.3,3.4,9.7,4.2s4.7,3.7,6,1.6
				c1.3-2.1,1.6-2.6-1.8-5c-3.4-2.4-6.3-4.2-10.5-5.8c-4.2-1.6-11-3.1-11-3.1s4.5-0.5,8.4,0.3s8.7,3.7,8.7,3.7s4.6,3.3,6.1,4.3
				c1.5,1,3.9,1.5,3.3,3.6c-0.5,2.1,1,4.2-2.2,4.3c-3.3,0.1-10.1-3-12.7-4.1s-3.4,1-5.8-2.1c-2.4-3.1-5.8-1.6-6.3-3.9
				C1428,327.4,1428.8,326.6,1428.8,326.6z"/>
			<circle id="XMLID_137_" class="st5" cx="1423.6" cy="323.7" r="5.5"/>
			<path id="XMLID_136_" class="st1" d="M1371.8,306.2c2.1-0.8,5.3,1.3,9.2,1.8c3.9,0.5,4.8,2.6,8.7,2.3c3.9-0.3,8.4,1.3,10.2,3.1
				c1.8,1.8,0.8,4.2,3.2,4.4s3.4,2.1,3.4,2.1h-3.9c0,0-2.6-3.7-5.2-5.8c-2.6-2.1-3.7-2.2-6.6-2.4s-4.2,1-7.1,0s-1,0.5-6.3-2.4
				C1372.2,306.5,1371.8,306.2,1371.8,306.2z"/>
			<circle id="XMLID_135_" class="st10" cx="1421.7" cy="321.6" r="1.8"/>
		</g>
		<g id="XMLID_114_">
			<polygon id="XMLID_133_" class="st1" points="1446,177.4 1444,196.4 1444.3,218.7 1446.1,244.1 1447,258 1451.7,300 
				1452.3,311.4 1456.3,310.7 1454.3,288.7 1447,230 1445.7,205.4 			"/>
			<circle id="XMLID_132_" class="st5" cx="1441.7" cy="250" r="5.3"/>
			<circle id="XMLID_129_" class="st6" cx="1453.1" cy="238.9" r="5.7"/>
			<circle id="XMLID_123_" class="st5" cx="1442" cy="223.2" r="5"/>
			<circle id="XMLID_122_" class="st4" cx="1454.7" cy="219.7" r="5"/>
			<circle id="XMLID_121_" class="st6" cx="1442.9" cy="206.5" r="6.3"/>
			<circle id="XMLID_120_" class="st5" cx="1444" cy="196.4" r="3.7"/>
			<circle id="XMLID_119_" class="st4" cx="1446" cy="186.4" r="3"/>
			<circle id="XMLID_118_" class="st4" cx="1446" cy="175" r="2.3"/>
			<path id="XMLID_117_" class="st3" d="M1449.5,291.5c0,0-10.5,0.5-10.5,9.2s0,9,0,9s4.2-1.7,9.5-6.3c5.3-4.7,9.3-5.3,6.7-8.7
				C1452.5,291.4,1449.5,291.5,1449.5,291.5z"/>
			<path id="XMLID_116_" class="st3" d="M1445,272c0,0-7.3-4.7-5.3,4c2,8.7,0.7,12,0.7,12s4.7-3.3,8-8c3.3-4.7,6-6.7,3.3-7.3
				C1449,272,1445,272,1445,272z"/>
			<path id="XMLID_115_" class="st3" d="M1449,262c0,0-4,4,0.7,5.3c4.7,1.3,6.7,0.7,8.7,4.7s0.7-7.3,0.7-7.3s6.7-0.7,1.3-6
				C1455,253.4,1449,262,1449,262z"/>
		</g>
		<g id="XMLID_101_">
			<polygon id="XMLID_113_" class="st1" points="1417,163.4 1415,182.4 1415.3,204.7 1417.1,230.1 1418,244 1422.7,286 
				1423.3,297.4 1427.3,296.7 1425.3,274.7 1418,216 1416.7,191.4 			"/>
			<circle id="XMLID_112_" class="st4" cx="1412.7" cy="236" r="5.3"/>
			<circle id="XMLID_111_" class="st5" cx="1424.1" cy="224.9" r="5.7"/>
			<circle id="XMLID_110_" class="st5" cx="1413" cy="209.2" r="5"/>
			<circle id="XMLID_109_" class="st4" cx="1425.7" cy="205.7" r="5"/>
			<circle id="XMLID_108_" class="st5" cx="1413.9" cy="192.5" r="6.3"/>
			<circle id="XMLID_107_" class="st5" cx="1415" cy="182.4" r="3.7"/>
			<circle id="XMLID_106_" class="st4" cx="1417" cy="172.4" r="3"/>
			<circle id="XMLID_105_" class="st4" cx="1417" cy="161" r="2.3"/>
			<path id="XMLID_104_" class="st3" d="M1420.5,277.5c0,0-10.5,0.5-10.5,9.2s0,9,0,9s4.2-1.7,9.5-6.3c5.3-4.7,9.3-5.3,6.7-8.7
				C1423.5,277.4,1420.5,277.5,1420.5,277.5z"/>
			<path id="XMLID_103_" class="st3" d="M1416,258c0,0-7.3-4.7-5.3,4c2,8.7,0.7,12,0.7,12s4.7-3.3,8-8c3.3-4.7,6-6.7,3.3-7.3
				C1420,258,1416,258,1416,258z"/>
			<path id="XMLID_102_" class="st3" d="M1420,248c0,0-4,4,0.7,5.3c4.7,1.3,6.7,0.7,8.7,4.7c2,4,0.7-7.3,0.7-7.3s6.7-0.7,1.3-6
				C1426,239.4,1420,248,1420,248z"/>
		</g>
		<path class="st11" d="M1472.1,134.3l-94.5,231l142.2,124.8C1519.8,490.1,1536.6,192.8,1472.1,134.3z"/>
	</g>
	<path id="XMLID_130_" class="st12" d="M1383.6,352c0,0-15.8-224.7,64.5-244.9c0,0-48.1-22.3-78.9,107l-10.4,115.7L1383.6,352z"/>
	<path id="XMLID_128_" class="st13" d="M1369,197.2c-3.8-74.7-62.1-122.5-123.2-116.7c-71.8,6.8-107.2,123.8-107.3,257.7l226.6-6.5
		C1365.1,331.1,1369,197.7,1369,197.2z"/>
	<line id="XMLID_127_" class="st14" x1="1195.2" y1="119.4" x2="1195.9" y2="332.9"/>
	<line id="XMLID_126_" class="st15" x1="1234.8" y1="86.5" x2="1235.3" y2="332.1"/>
	<line id="XMLID_125_" class="st15" x1="1275.1" y1="83.5" x2="1277.8" y2="329.3"/>
	<line id="XMLID_124_" class="st15" x1="1325.6" y1="108.7" x2="1323.6" y2="326.6"/>
</g>
<g>
	<path id="XMLID_153_" class="st0" d="M1920,327.2c0-122.4-36.1-221.6-80.6-221.6c-44.4,0-80.5,99-80.6,221.1l160,159.4
		C1918.9,485.6,1920,327.6,1920,327.2z"/>
	<g>
		<path class="st1" d="M1851.5,420.5c0.2-1.6,6.7-37-2.4-52c-9.1-15.1-5.2-6.7-5.2-6.7s14.2,39.2,4.8,55.3L1851.5,420.5z"/>
		<path class="st1" d="M1861.7,422.3c0,0,3.4-35.7,6.5-43.7c3-8,10.1-20.1,11.7-24.9c1.6-4.8,3.1-11.8,3.1-11.8s-10.2,19-12.4,25.1
			c-2.2,6.1-8.7,16.9-8.8,24.5c-0.1,7.6-4.5,30.8-4.5,30.8L1861.7,422.3z"/>
		<path class="st1" d="M1901.5,368.9c0.3-2-8.3,20.9-19.6,33.9c-11.3,13-17.3,19.1-17.3,19.1l3.6,1.6
			C1868.2,423.6,1898,397.5,1901.5,368.9z"/>
		<path class="st2" d="M1878.3,407.3c0,0-6.7-0.8-5.1,7.6c1.7,8.4,7.2,10.9,11.9,12.5s8.5,5.5,7.8-1.4
			C1892.2,419,1883.9,409.3,1878.3,407.3z"/>
		<path class="st3" d="M1890.9,393.8c0,0-2.6-3.9-13.6,1s-11.8,6.8-11.8,6.8s-1.3,0.5,5.3,2.9c6.6,2.4,6,3.8,11.2,0.7
			c5.2-3.1,10.8-9.4,10.8-9.4L1890.9,393.8z"/>
		<path class="st2" d="M1896,419.1c0,0,7.6-16.9,0.9-22.6c-6.7-5.8-11.3,7-11,11C1886.3,411.4,1896,419.1,1896,419.1z"/>
		<path class="st2" d="M1912,406.5c0,0,9.4-6.2,1.3-12.6c-8.1-6.4-12.8-12.9-12.8-12.9s-4,5.3-4,12.5s-1.3,11.5,6.1,13.2
			C1910.1,408.4,1912,406.5,1912,406.5z"/>
		<path class="st4" d="M1898.7,375.3c0,0-2.6-3.9-10.3-0.2c-7.7,3.7-8.9,6.4-8.9,6.4s-4.5,4,1.1,6c5.7,2,4.9,3.8,10.4,1.4
			c5.5-2.5,9.5-7.8,9.5-7.8L1898.7,375.3z"/>
		<path class="st3" d="M1927.7,373c0,0-3.7-12.6-15.1-6.8c-11.4,5.8-11.4,5.8-11.4,5.8l-2.2,6.1c0,0-1-1.5,7.7,1.2s8,4.1,13,1.5
			S1927.7,373,1927.7,373z"/>
		<path class="st3" d="M1913,353.2c0,0-3.6-2.2-8.6,4.4c-5,6.5-4.8,4.9-5.6,9c-0.7,4.1,3.8,5,3.8,5S1919.8,367.3,1913,353.2z"/>
		<path class="st2" d="M1877.7,367c0,0,10.8-8.3,17.7-0.3s3.3,8.6,3.3,8.6s-4.7,0.6-10.3-0.2C1882.7,374.2,1875.7,372.7,1877.7,367z
			"/>
		<path class="st2" d="M1843.9,344.7c0,0,1.9-3,2.9,5.7c1,8.7-3,14-3,14S1834.9,358.7,1843.9,344.7z"/>
		<path class="st5" d="M1824.7,372.8c0,0,0.8,0.2,2,0.5c4,0.8,12.7,2,16.5-2.6c4.9-6,0.6-6.3,0.6-6.3s-3.2-6.4-9.5-2.1
			c-6.3,4.3-8.9,10.7-8.9,10.7L1824.7,372.8z"/>
		<path class="st2" d="M1861.5,364.1c0,0-0.1-3.4-8.6-1.7s-8.4,1.7-8.4,1.7S1848.6,372,1861.5,364.1z"/>
		<path class="st3" d="M1835.7,400.7c0,0,9.6-0.6,16.4-14.6C1852.1,386.2,1837.6,380.7,1835.7,400.7z"/>
		<path class="st2" d="M1836.6,415.9c0,0,9.6-1.7,14.9-13.6C1851.4,402.3,1840.5,392.5,1836.6,415.9z"/>
		<path class="st3" d="M1865,410c0,0-7.6-11.1-11.2-10.5c-3.6,0.6,0.2,9.4,0.2,9.4S1856.4,413.3,1865,410z"/>
		<path class="st6" d="M1852.1,386.2c0,0-5-12.1,14.4-13.8c0,0,5.2,0.7,1.6,6.2S1857.3,386.9,1852.1,386.2z"/>
		<path class="st3" d="M1878.4,389.8c0,0-0.1-14.3-6.3-16.5C1866,371.1,1860.4,392.1,1878.4,389.8z"/>
		<path class="st3" d="M1879.7,350.4c0,0-13.8,2.6-16,8.7c-2.2,6.1,6.1,7.1,10.6,2C1878.8,356,1879.7,350.4,1879.7,350.4z"/>
		<path class="st3" d="M1889.6,361.4c0,0,3-8-3.8-9.9s-5.6-4.7-6.8-2C1877.8,352.2,1878,362.7,1889.6,361.4z"/>
		<path class="st3" d="M1856.2,345.3c0,0,11.3-3.2,22.8,4.2C1879,349.5,1870.5,361,1856.2,345.3z"/>
		<path class="st2" d="M1883.6,330.7c-0.4-1.7-4.8,2.2-9.7,8.2c-4.9,6-4.9,11.3-4.9,11.3S1888.2,348.7,1883.6,330.7z"/>
		<path class="st3" d="M1863.4,328.2c0,0,15-5.3,18.3-1.7s0,6,0,6S1872.1,340.4,1863.4,328.2z"/>
		<path class="st7" d="M1891,342.3c0,0,1.7-13.5-6.2-14.3C1884.8,328,1876.5,344,1891,342.3z"/>
		<path class="st3" d="M1881.8,308c0.6-1,2.8,3.5,2.9,10.6s0.2,9.4,0.2,9.4S1874.3,321,1881.8,308z"/>
		<path class="st8" d="M1901.8,315.9c0,0-8.9,1.5-13.1,7.3c-4.2,5.8-2.7,5.9-0.8,6.7S1898.9,327.2,1901.8,315.9z"/>
		<path class="st3" d="M1901.6,332.2c0,0-3.1-4.1-9.1-4.1c-6,0-3.2,4.6-3.2,4.6S1893.7,336.3,1901.6,332.2z"/>
	</g>
	<g id="XMLID_51_">
		<path id="XMLID_87_" class="st9" d="M1881,297.3c0,0-3.6-9.5-0.3-18.2c3.3-8.7,10.1-12.5,7.4-20.8c-2.7-8.3,3.6-39.8,0.7-48.8
			c-2.8-9-12.8-24.2-12.8-24.2s-2.2-17.2-7.5-25.1s-34.6-25.4-34.6-25.4l-2.7,3.8l35.1,24.6l6.5,23.2l12.6,22.9l-1,34.6l0.9,22.1
			C1885.3,266.1,1874.2,272.7,1881,297.3z"/>
		<path id="XMLID_86_" class="st3" d="M1884.4,244c1.5-1.5,11.4,7.6-3.7,35.1C1880.7,279.1,1865.4,264,1884.4,244z"/>
		<path id="XMLID_85_" class="st3" d="M1874.6,176.7c0,0-15.8,2.6-18.8,21.3C1855.8,198,1879.3,192.8,1874.6,176.7z"/>
		<path id="XMLID_84_" class="st3" d="M1909.3,260.2c0,0-24.1-14.9-23.6-24.5c0.5-9.5,4-8.8,4-8.8S1897.2,223.6,1909.3,260.2z"/>
		<path id="XMLID_83_" class="st3" d="M1923.4,284.2c0,0-13.9,1.6-20-10.9c-6.1-12.5-1-5.9-1-5.9S1912.6,255.6,1923.4,284.2z"/>
		<path id="XMLID_82_" class="st3" d="M1896.8,298.7c0,0-11.3-11-6.3-34.1C1890.5,264.6,1902.6,264.6,1896.8,298.7z"/>
		<path id="XMLID_81_" class="st3" d="M1886.2,152.5c0,0-9.8,6.3-20.1,1.3c-10.3-5.1-8.2-8.8-8.2-8.8l6.9-7.2
			C1864.8,137.8,1874.6,139.5,1886.2,152.5z"/>
		<path id="XMLID_80_" class="st3" d="M1898.9,176.7c0,0-13.7,2.9-20.8-3.3c-7.1-6.3-9.6-13.3-9.6-13.3S1887.7,157.6,1898.9,176.7z"
			/>
		<path id="XMLID_79_" class="st3" d="M1888.7,221c0,0-16.1-7.5-32.2,13.4C1856.4,234.4,1878.7,242.2,1888.7,221z"/>
		<path id="XMLID_78_" class="st3" d="M1912.3,229.3c0,0-13.8-1.8-20.4-12.9c-6.6-11.1-0.2-9.4-0.2-9.4S1906.1,203.9,1912.3,229.3z"
			/>
		<path id="XMLID_77_" class="st3" d="M1898.4,201.8c0,0,0,8.1-12.3-4.7c-12.3-12.8-11.5-20.4-11.5-20.4l11.2,2.2
			C1885.8,178.9,1898.1,183.6,1898.4,201.8z"/>
		<path id="XMLID_76_" class="st3" d="M1859,217.1c0,0,4.5,6.7,10.4-2.4c5.9-9.1,9.1-18.4,9.1-18.4l-2.7-4.3c0,0,3-2.5-5.6,2.9
			C1861.6,200.5,1858.2,204.4,1859,217.1z"/>
		<path id="XMLID_59_" class="st3" d="M1853.5,266c0,0,17.5-0.2,21.3-10.3c3.7-10.1-17.2,2.2-17.2,2.2L1853.5,266z"/>
		<path id="XMLID_57_" class="st3" d="M1891.7,321.2c0,0-9.1-1.9-10.9-13.1c-1.8-11.2-1.1-14.7-1.1-14.7l5.7,5.8c0,0,4.1,0,5.5,8.6
			C1892.2,316.4,1891.7,321.2,1891.7,321.2z"/>
		<path id="XMLID_58_" class="st3" d="M1863.2,305.9c0,0,5.6,5.2,10.4-6.4c4.8-11.6,5.9-17.2,5.9-17.2s-1.3,0.2-7.1,5.9
			c-5.8,5.7-8.5,10.2-8.5,10.2L1863.2,305.9z"/>
		<path id="XMLID_56_" class="st3" d="M1834.2,222.5c0,0,12.4,1.3,19.2-6.5s3.9-13.5,3.9-13.5s-4.4-6-11.7,2.6
			C1838.2,213.8,1834.2,222.5,1834.2,222.5z"/>
		<path id="XMLID_61_" class="st9" d="M1902.4,267.4c0,0-12-15.6-14.2-20.6c0,0,2.5,3,13.3,23.5L1902.4,267.4z"/>
		<path id="XMLID_62_" class="st6" d="M1842.1,143.5c0,0,15.3,6.9,12.6,14.8s-2.2,11.2-11.2,10c-9-1.2-14.8-3.6-14.2-8.5
			s1.9-13.1,6.3-15.2C1839.9,142.5,1842.1,143.5,1842.1,143.5z"/>
		<path id="XMLID_63_" class="st6" d="M1844.4,137.1c0,0,4.5,2.6,8.7-4.8c4.2-7.4,8.7-8.9,1.4-11.7c-7.2-2.9-10.5-6.4-15.4-3.5
			c-4.9,2.8-6.4-1.7-10.8-0.2c-4.5,1.4-3.9,0.7-2.2,7.1c1.7,6.5,3.9,7.5,7.9,10.9C1837.9,138.2,1844.4,137.1,1844.4,137.1z"/>
		<path id="XMLID_64_" class="st6" d="M1816.2,154.6c0,0-7.6-0.8-4.7-8s8.8-12.3,13.3-9.6s9.5,4.5,9.5,4.5l1.2,3.2
			C1835.5,144.6,1829.6,165.9,1816.2,154.6z"/>
		<path id="XMLID_60_" class="st6" d="M1854.8,150.9c0,0,6.2,1,10.4-6.4s7.4-8.6-0.5-11.4c-7.9-2.8-3.3-3.5-11.6-0.8
			c-8.3,2.7-15.2,5.9-15.2,5.9l1.7,6.5L1854.8,150.9z"/>
		<path id="XMLID_65_" class="st6" d="M1826,123.9c0,0-2.6-3.6-8.9-0.6c-6.3,3.1-7.2,5.2-7.1,10c0.1,4.7,0,8.1,6.1,8.5
			c6.1,0.3,18.2-0.3,18.2-0.3l4.4-6.1L1826,123.9z"/>
		<circle id="XMLID_66_" class="st4" cx="1836.8" cy="140" r="3"/>
		<path id="XMLID_55_" class="st4" d="M1837.3,143c0,0-0.3,2.1,2.4,10.4c2.7,8.3-3.5-4.8-4.1-8.8
			C1834.9,140.7,1837.3,143,1837.3,143z"/>
		<path id="XMLID_54_" class="st4" d="M1847.2,149.5c0,0-8.8-4-9.9-6.5c-1.1-2.5-1-5.9-1-5.9S1839.6,140.6,1847.2,149.5z"/>
		<path id="XMLID_67_" class="st4" d="M1824.2,153.9"/>
		<path id="XMLID_53_" class="st4" d="M1836.3,137.1c0,0-6.3,4.8-7.3,11c-1,6.2-1,6.2-1,6.2L1836.3,137.1z"/>
		<path id="XMLID_52_" class="st4" d="M1831.2,138.6l2.7,1.9L1831.2,138.6z"/>
	</g>
	<g id="XMLID_43_">
		<path id="XMLID_50_" class="st3" d="M1770.6,300.3c0,0-1,2.1,4.7,0c5.8-2.1,1-5.2,10-6.8c8.9-1.6,17.8-0.5,17.8-0.5
			s10.5,3.1,12.6,5.8s6.3,9.4,6.3,9.4l-11,30.4c0,0-13.6,4.2-19.4-4.2s-7.9-1-12.1-14.7c-4.2-13.6-5.2-13.1-7.3-15.7
			S1770.6,300.3,1770.6,300.3z"/>
		<path id="XMLID_49_" class="st2" d="M1770.9,302.2c0.8,0,5.2,3.4,12.1,4.5s10.5,0.5,13.4,3.4c2.9,2.9,7.3,7.1,11.8,8.4
			c4.5,1.3,11.3,7.3,11.3,7.3l-3.9,10.8c0,0-8.4,5-14.2,3.4c-5.8-1.6-6.3-3.9-10-6.6s-5.2-2.6-7.9-5.5c-2.6-2.9-3.9-14.2-6.6-17.6
			C1774.3,306.9,1770.9,302.2,1770.9,302.2z"/>
		<path id="XMLID_48_" class="st8" d="M1873.7,287.5c0,0-8.4,19.9-17.3,26.2c-8.9,6.3-17.3,7.9-17.3,7.9l-4.7-4.2l6.8-7.3
			c0,0,6.3-1.6,12.6-5.2C1860.1,301.1,1873.7,287.5,1873.7,287.5z"/>
		<path id="XMLID_47_" class="st2" d="M1838.1,320c1.6-0.3,16-5.8,18.6-7.6s13.9-17.3,13.9-17.3l-10.8,16.5c0,0-13.4,8.4-15.7,8.9
			c-2.4,0.5-7.9,0.8-7.9,0.8L1838.1,320z"/>
		<path id="XMLID_46_" class="st8" d="M1827.6,258.6c-1-1.6,7.9,4.2,8.4,13.1c0.5,8.9,2.6,19.4,1.6,24.1c-1,4.7-15.7,16.3-15.7,16.3
			s2.6-13.6,5.2-19.4C1829.7,287,1833.9,269.1,1827.6,258.6z"/>
		<path id="XMLID_45_" class="st2" d="M1827.6,258.6c0,0,6,6,6,10.5c0,4.5,0.8,13.4-0.8,18.1c-1.6,4.7-3.1,13.9-3.1,13.9l-3.7,12.1
			l-4.2-1c0,0,3.9-17.1,5.2-19.4c1.3-2.4,3.1-7.9,3.1-11.5c0-3.7,2.1-11,0.5-14.2C1829.1,263.9,1827.6,258.6,1827.6,258.6z"/>
		<path id="XMLID_44_" class="st8" d="M1821.3,380.9c0,0,1.6-0.5,4.7-8.9s3.7-10,4.2-19.4s-0.2-23.2-1.7-25.8s-18.2-0.5-18.2-0.5
			l0.5,16.3l6.3,20.5L1821.3,380.9z"/>
		<path id="XMLID_29_" class="st8" d="M1768.3,326.3c1.6,0.5,10,7.9,15.2,6.8c5.2-1,13.6-0.5,13.6-0.5l15.1,3.1l0.1-22
			c0,0-13.1,2.1-17.8,3.7c-4.7,1.6-8.9,4.7-15.2,5.8C1773,324.2,1768.3,326.3,1768.3,326.3z"/>
		<path id="XMLID_26_" class="st6" d="M1817.1,321.6c0,0-11-2.6-15.7-15.2c-4.7-12.6-2.1-16.8-2.1-16.8s16.3,2.6,18.9,10.5
			c2.6,7.9,4.2,15.7,4.2,15.7L1817.1,321.6z"/>
		<path id="XMLID_25_" class="st6" d="M1850.6,294.8c0,0-6.3,17.3-12.6,21.5s-12.6,5.2-12.6,5.2l-3.1-5.8c0,0,1-11,7.3-14.7
			C1836,297.4,1845.9,293.3,1850.6,294.8z"/>
		<path id="XMLID_24_" class="st6" d="M1788.2,339.4c0,0,11.5-18.4,23.1-19.9c11.5-1.6,8.4,4.2,8.4,4.2s-17.3,10.5-21,12.1
			S1791.4,342,1788.2,339.4z"/>
		<path id="XMLID_16_" class="st6" d="M1817,353.6c0,0,9.2-2.1,10.8-7.9c1.6-5.8,2.8-8.4,1.7-13.6c-0.5-2.6-0.7-4.2-1.1-5.3
			s-0.7-1.8-1.5-2.6c-1.6-1.6-9.9-2.6-9.9-2.6s-7.1,8.9-5,14.2c2.1,5.2,5,7.3,5,11.5S1817,353.6,1817,353.6z"/>
		<path id="XMLID_15_" class="st6" d="M1852.3,335.9c0,0,5.2-2.7-1.1-7.9c-6.3-5.2-14.8-7.9-14.8-7.9h-11.3l0.3,2l1.5,2.4
			c0,0,4.8,2.5,7.9,5.1c3.1,2.6,8.9,2,11,4.1C1848,335.8,1852.3,335.9,1852.3,335.9z"/>
		<path id="XMLID_32_" class="st7" d="M1824.4,313.7c0.5-1,1.6-8.1,6.8-10.5c5.2-2.4,7.9-5.5,11.5-5.8s7.9-2.6,7.9-2.6
			s-9.7-0.8-16,2.9c-6.3,3.7-8.7,6-8.7,6s-4.7,6.6-4.2,8.4C1822.3,314,1824.4,313.7,1824.4,313.7z"/>
		<path id="XMLID_33_" class="st7" d="M1827.6,318.7c0.8-0.3,8.7-2.6,10.8-4.7c2.1-2.1,6.6-9.4,6.6-9.4l5.8-9.7l-5,12.3
			c0,0-5.5,9.7-7.3,11c-1.8,1.3-11.3,2.1-11.3,2.1L1827.6,318.7z"/>
		<path id="XMLID_13_" class="st7" d="M1820.7,314.8c0,0-15.2-17.3-18.6-18.4s-3.1-1-3.1-1l0.3-5.8c0,0,6-0.3,10.5,2.4
			c4.5,2.6,8.7,6.8,8.7,6.8c0.5,3.1,4.5,13.6,4.2,15.5S1820.7,314.8,1820.7,314.8z"/>
		<path id="XMLID_35_" class="st7" d="M1799,295.4c0,0,1.3,7.1,2.9,9.7c1.6,2.6,5.8,8.7,8.1,10.5c2.4,1.8,7.1,3.1,7.1,3.1l-5.8,0.8
			C1813.7,319.7,1801.1,308.7,1799,295.4z"/>
		<path id="XMLID_36_" class="st7" d="M1817.1,319.7c0,0-11.5,1.3-15,5c-3.4,3.7-6.8,5-9.2,8.9c-2.4,3.9-4.5,6-4.7,5.8
			s5.8-10.5,9.7-13.6s8.1-5.2,11.5-6s9.2-1.8,9.2-1.8L1817.1,319.7z"/>
		<path id="XMLID_34_" class="st7" d="M1788.2,339.4c0,0,2.9,0.3,7.9-2.6c5-2.9,11.5-7.6,11.5-7.6l10-6l-4.7,5.5l-13.4,8.1
			C1799.5,336.8,1792.1,341.5,1788.2,339.4z"/>
		<path id="XMLID_37_" class="st7" d="M1817.6,323.2c1.3-1-5.5,7.1-4.7,10c0.8,2.9,2.6,2.9,3.7,6c1,3.1-0.3,13.9,0,14.4
			s-1.3-11-1.3-11s-2.7-2.4-3.4-6.8C1811,331.3,1812.3,327.1,1817.6,323.2z"/>
		<path id="XMLID_39_" class="st7" d="M1825.7,325.3c0,0,0.8,0.3,1,6c0.3,5.8,2.1,6.6,0.3,11c-1.8,4.5-6,8.4-6,8.4l-4.5,2.9
			c0,0,6.3-0.8,8.7-2.9c2.4-2.1,3.9-4.7,4.7-8.7c0.8-3.9-0.7-11.4-1.5-15.3c-0.8-3.9-2.1-3.9-2.1-3.9L1825.7,325.3z"/>
		<path id="XMLID_40_" class="st7" d="M1827.8,322.6c0,0,3.1,3.4,7.9,5.2c4.7,1.8,7.3,3.4,9.7,4.2s4.7,3.7,6,1.6
			c1.3-2.1,1.6-2.6-1.8-5c-3.4-2.4-6.3-4.2-10.5-5.8c-4.2-1.6-11-3.1-11-3.1s4.5-0.5,8.4,0.3s8.7,3.7,8.7,3.7s4.6,3.3,6.1,4.3
			c1.5,1,3.9,1.5,3.3,3.6c-0.5,2.1,1,4.2-2.2,4.3c-3.3,0.1-10.1-3-12.7-4.1s-3.4,1-5.8-2.1c-2.4-3.1-5.8-1.6-6.3-3.9
			C1827,323.4,1827.8,322.6,1827.8,322.6z"/>
		<circle id="XMLID_27_" class="st5" cx="1822.6" cy="319.7" r="5.5"/>
		<path id="XMLID_41_" class="st1" d="M1770.8,302.2c2.1-0.8,5.3,1.3,9.2,1.8c3.9,0.5,4.8,2.6,8.7,2.3c3.9-0.3,8.4,1.3,10.2,3.1
			c1.8,1.8,0.8,4.2,3.2,4.4s3.4,2.1,3.4,2.1h-3.9c0,0-2.6-3.7-5.2-5.8c-2.6-2.1-3.7-2.2-6.6-2.4s-4.2,1-7.1,0s-1,0.5-6.3-2.4
			C1771.2,302.5,1770.8,302.2,1770.8,302.2z"/>
		<circle id="XMLID_38_" class="st10" cx="1820.7" cy="317.6" r="1.8"/>
	</g>
	<path id="XMLID_152_" class="st12" d="M1783.6,352c0,0-15.8-224.7,64.5-244.9c0,0-48.1-22.3-78.9,107l-10.4,115.7L1783.6,352z"/>
	<path id="XMLID_150_" class="st13" d="M1769,197.2c-3.8-74.7-57.5-110.9-118.6-104.9c-87.6,24.2-104.6,190.9-104.7,324.8
		l219.4-85.4C1765.1,331.1,1769,197.7,1769,197.2z"/>
	<line id="XMLID_149_" class="st14" x1="1595.9" y1="141.5" x2="1596.6" y2="391"/>
	<line id="XMLID_148_" class="st15" x1="1634.8" y1="101.5" x2="1635.3" y2="377"/>
	<line id="XMLID_147_" class="st15" x1="1675.8" y1="96.3" x2="1678.5" y2="360.1"/>
	<line id="XMLID_146_" class="st15" x1="1725.6" y1="111.7" x2="1723.6" y2="343.6"/>
	<g id="XMLID_88_">
		<polygon id="XMLID_100_" class="st1" points="1845,173.4 1843,192.4 1843.3,214.7 1845.1,240.1 1846,254 1850.7,296 1851.3,307.4 
			1855.3,306.7 1853.3,284.7 1846,226 1844.7,201.4 		"/>
		<circle id="XMLID_99_" class="st5" cx="1840.7" cy="246" r="5.3"/>
		<circle id="XMLID_98_" class="st6" cx="1852.1" cy="234.9" r="5.7"/>
		<circle id="XMLID_97_" class="st5" cx="1841" cy="219.2" r="5"/>
		<circle id="XMLID_96_" class="st4" cx="1853.7" cy="215.7" r="5"/>
		<circle id="XMLID_95_" class="st6" cx="1841.9" cy="202.5" r="6.3"/>
		<circle id="XMLID_94_" class="st5" cx="1843" cy="192.4" r="3.7"/>
		<circle id="XMLID_93_" class="st4" cx="1845" cy="182.4" r="3"/>
		<circle id="XMLID_92_" class="st4" cx="1845" cy="171" r="2.3"/>
		<path id="XMLID_91_" class="st3" d="M1848.5,287.5c0,0-10.5,0.5-10.5,9.2s0,9,0,9s4.2-1.7,9.5-6.3c5.3-4.7,9.3-5.3,6.7-8.7
			C1851.5,287.4,1848.5,287.5,1848.5,287.5z"/>
		<path id="XMLID_90_" class="st3" d="M1844,268c0,0-7.3-4.7-5.3,4c2,8.7,0.7,12,0.7,12s4.7-3.3,8-8c3.3-4.7,6-6.7,3.3-7.3
			C1848,268,1844,268,1844,268z"/>
		<path id="XMLID_89_" class="st3" d="M1848,258c0,0-4,4,0.7,5.3c4.7,1.3,6.7,0.7,8.7,4.7s0.7-7.3,0.7-7.3s6.7-0.7,1.3-6
			C1854,249.4,1848,258,1848,258z"/>
	</g>
	<g id="XMLID_42_">
		<polygon id="XMLID_14_" class="st1" points="1816,159.4 1814,178.4 1814.3,200.7 1816.1,226.1 1817,240 1821.7,282 1822.3,293.4 
			1826.3,292.7 1824.3,270.7 1817,212 1815.7,187.4 		"/>
		<circle id="XMLID_2_" class="st4" cx="1811.7" cy="232" r="5.3"/>
		<circle id="XMLID_6_" class="st5" cx="1823.1" cy="220.9" r="5.7"/>
		<circle id="XMLID_7_" class="st5" cx="1812" cy="205.2" r="5"/>
		<circle id="XMLID_8_" class="st4" cx="1824.7" cy="201.7" r="5"/>
		<circle id="XMLID_9_" class="st5" cx="1812.9" cy="188.5" r="6.3"/>
		<circle id="XMLID_1_" class="st5" cx="1814" cy="178.4" r="3.7"/>
		<circle id="XMLID_11_" class="st4" cx="1816" cy="168.4" r="3"/>
		<circle id="XMLID_12_" class="st4" cx="1816" cy="157" r="2.3"/>
		<path id="XMLID_3_" class="st3" d="M1819.5,273.5c0,0-10.5,0.5-10.5,9.2s0,9,0,9s4.2-1.7,9.5-6.3c5.3-4.7,9.3-5.3,6.7-8.7
			C1822.5,273.4,1819.5,273.5,1819.5,273.5z"/>
		<path id="XMLID_4_" class="st3" d="M1815,254c0,0-7.3-4.7-5.3,4c2,8.7,0.7,12,0.7,12s4.7-3.3,8-8c3.3-4.7,6-6.7,3.3-7.3
			C1819,254,1815,254,1815,254z"/>
		<path id="XMLID_5_" class="st3" d="M1819,244c0,0-4,4,0.7,5.3c4.7,1.3,6.7,0.7,8.7,4.7c2,4,0.7-7.3,0.7-7.3s6.7-0.7,1.3-6
			C1825,235.4,1819,244,1819,244z"/>
	</g>
	<path class="st11" d="M1871.1,130.3l-94.5,231l142.2,124.8C1918.8,486.1,1935.6,188.8,1871.1,130.3z"/>
</g>
<g>
	<path id="XMLID_175_" class="st0" d="M2320,326.4c0-122.4-36.1-221.6-80.6-221.6c-44.4,0-80.5,99-80.6,221.1l160,159.4
		C2318.9,484.8,2320,326.8,2320,326.4z"/>
	<g>
		<g>
			<path class="st1" d="M2250.5,420.5c0.2-1.6,6.7-37-2.4-52c-9.1-15.1-5.2-6.7-5.2-6.7s14.2,39.2,4.8,55.3L2250.5,420.5z"/>
			<path class="st1" d="M2260.7,422.3c0,0,3.4-35.7,6.5-43.7c3-8,10.1-20.1,11.7-24.9c1.6-4.8,3.1-11.8,3.1-11.8s-10.2,19-12.4,25.1
				c-2.2,6.1-8.7,16.9-8.8,24.5c-0.1,7.6-4.5,30.8-4.5,30.8L2260.7,422.3z"/>
			<path class="st1" d="M2300.5,368.9c0.3-2-8.3,20.9-19.6,33.9c-11.3,13-17.3,19.1-17.3,19.1l3.6,1.6
				C2267.2,423.6,2297,397.5,2300.5,368.9z"/>
			<path class="st2" d="M2277.3,407.3c0,0-6.7-0.8-5.1,7.6c1.7,8.4,7.2,10.9,11.9,12.5c4.8,1.6,8.5,5.5,7.8-1.4
				C2291.2,419,2282.9,409.3,2277.3,407.3z"/>
			<path class="st3" d="M2289.9,393.8c0,0-2.6-3.9-13.6,1s-11.8,6.8-11.8,6.8s-1.3,0.5,5.3,2.9c6.6,2.4,6,3.8,11.2,0.7
				c5.2-3.1,10.8-9.4,10.8-9.4L2289.9,393.8z"/>
			<path class="st2" d="M2295,419.1c0,0,7.6-16.9,0.9-22.6c-6.7-5.8-11.3,7-11,11C2285.3,411.4,2295,419.1,2295,419.1z"/>
			<path class="st2" d="M2311,406.5c0,0,9.4-6.2,1.3-12.6c-8.1-6.4-12.8-12.9-12.8-12.9s-4,5.3-4,12.5c0.1,7.2-1.3,11.5,6.1,13.2
				S2311,406.5,2311,406.5z"/>
			<path class="st4" d="M2297.7,375.3c0,0-2.6-3.9-10.3-0.2s-8.9,6.4-8.9,6.4s-4.5,4,1.1,6c5.7,2,4.9,3.8,10.4,1.4
				c5.5-2.5,9.5-7.8,9.5-7.8L2297.7,375.3z"/>
			<path class="st3" d="M2326.7,373c0,0-3.7-12.6-15.1-6.8c-11.4,5.8-11.4,5.8-11.4,5.8l-2.2,6.1c0,0-1-1.5,7.7,1.2s8,4.1,13,1.5
				C2323.7,378.3,2326.7,373,2326.7,373z"/>
			<path class="st3" d="M2312,353.2c0,0-3.6-2.2-8.6,4.4c-5,6.5-4.8,4.9-5.6,9c-0.7,4.1,3.8,5,3.8,5S2318.8,367.3,2312,353.2z"/>
			<path class="st2" d="M2276.7,367c0,0,10.8-8.3,17.7-0.3s3.3,8.6,3.3,8.6s-4.7,0.6-10.3-0.2C2281.7,374.2,2274.7,372.7,2276.7,367
				z"/>
			<path class="st2" d="M2242.9,344.7c0,0,1.9-3,2.9,5.7c1,8.7-3,14-3,14S2233.9,358.7,2242.9,344.7z"/>
			<path class="st5" d="M2223.7,372.8c0,0,0.8,0.2,2,0.5c4,0.8,12.7,2,16.5-2.6c4.9-6,0.6-6.3,0.6-6.3s-3.2-6.4-9.5-2.1
				c-6.3,4.3-8.9,10.7-8.9,10.7L2223.7,372.8z"/>
			<path class="st2" d="M2260.5,364.1c0,0-0.1-3.4-8.6-1.7s-8.4,1.7-8.4,1.7S2247.6,372,2260.5,364.1z"/>
			<path class="st3" d="M2234.7,400.7c0,0,9.6-0.6,16.4-14.6C2251.1,386.2,2236.6,380.7,2234.7,400.7z"/>
			<path class="st2" d="M2235.6,415.9c0,0,9.6-1.7,14.9-13.6C2250.4,402.3,2239.5,392.5,2235.6,415.9z"/>
			<path class="st3" d="M2264,410c0,0-7.6-11.1-11.2-10.5c-3.6,0.6,0.2,9.4,0.2,9.4S2255.4,413.3,2264,410z"/>
			<path class="st6" d="M2251.1,386.2c0,0-5-12.1,14.4-13.8c0,0,5.2,0.7,1.6,6.2S2256.3,386.9,2251.1,386.2z"/>
			<path class="st3" d="M2277.4,389.8c0,0-0.1-14.3-6.3-16.5C2265,371.1,2259.4,392.1,2277.4,389.8z"/>
			<path class="st3" d="M2278.7,350.4c0,0-13.8,2.6-16,8.7c-2.2,6.1,6.1,7.1,10.6,2C2277.8,356,2278.7,350.4,2278.7,350.4z"/>
			<path class="st3" d="M2288.6,361.4c0,0,3-8-3.8-9.9s-5.6-4.7-6.8-2C2276.8,352.2,2277,362.7,2288.6,361.4z"/>
			<path class="st3" d="M2255.2,345.3c0,0,11.3-3.2,22.8,4.2C2278,349.5,2269.5,361,2255.2,345.3z"/>
			<path class="st2" d="M2282.6,330.7c-0.4-1.7-4.8,2.2-9.7,8.2c-4.9,6-4.9,11.3-4.9,11.3S2287.2,348.7,2282.6,330.7z"/>
			<path class="st3" d="M2262.4,328.2c0,0,15-5.3,18.3-1.7s0,6,0,6S2271.1,340.4,2262.4,328.2z"/>
			<path class="st7" d="M2290,342.3c0,0,1.7-13.5-6.2-14.3C2283.8,328,2275.5,344,2290,342.3z"/>
			<path class="st3" d="M2280.8,308c0.6-1,2.8,3.5,2.9,10.6s0.2,9.4,0.2,9.4S2273.3,321,2280.8,308z"/>
			<path class="st8" d="M2300.8,315.9c0,0-8.9,1.5-13.1,7.3c-4.2,5.8-2.7,5.9-0.8,6.7C2288.6,330.7,2297.9,327.2,2300.8,315.9z"/>
			<path class="st3" d="M2300.6,332.2c0,0-3.1-4.1-9.1-4.1s-3.2,4.6-3.2,4.6S2292.7,336.3,2300.6,332.2z"/>
		</g>
		<g id="XMLID_336_">
			<path id="XMLID_364_" class="st9" d="M2280,297.3c0,0-3.6-9.5-0.3-18.2c3.3-8.7,10.1-12.5,7.4-20.8c-2.7-8.3,3.6-39.8,0.7-48.8
				c-2.8-9-12.8-24.2-12.8-24.2s-2.2-17.2-7.5-25.1s-34.6-25.4-34.6-25.4l-2.7,3.8l35.1,24.6l6.5,23.2l12.6,22.9l-1,34.6l0.9,22.1
				C2284.3,266.1,2273.2,272.7,2280,297.3z"/>
			<path id="XMLID_363_" class="st3" d="M2283.4,244c1.5-1.5,11.4,7.6-3.7,35.1C2279.7,279.1,2264.4,264,2283.4,244z"/>
			<path id="XMLID_362_" class="st3" d="M2273.6,176.7c0,0-15.8,2.6-18.8,21.3C2254.8,198,2278.3,192.8,2273.6,176.7z"/>
			<path id="XMLID_361_" class="st3" d="M2308.3,260.2c0,0-24.1-14.9-23.6-24.5c0.5-9.5,4-8.8,4-8.8S2296.2,223.6,2308.3,260.2z"/>
			<path id="XMLID_360_" class="st3" d="M2322.4,284.2c0,0-13.9,1.6-20-10.9c-6.1-12.5-1-5.9-1-5.9S2311.6,255.6,2322.4,284.2z"/>
			<path id="XMLID_359_" class="st3" d="M2295.8,298.7c0,0-11.3-11-6.3-34.1C2289.5,264.6,2301.6,264.6,2295.8,298.7z"/>
			<path id="XMLID_358_" class="st3" d="M2285.2,152.5c0,0-9.8,6.3-20.1,1.3c-10.3-5.1-8.2-8.8-8.2-8.8l6.9-7.2
				C2263.8,137.8,2273.6,139.5,2285.2,152.5z"/>
			<path id="XMLID_357_" class="st3" d="M2297.9,176.7c0,0-13.7,2.9-20.8-3.3s-9.6-13.3-9.6-13.3S2286.7,157.6,2297.9,176.7z"/>
			<path id="XMLID_356_" class="st3" d="M2287.7,221c0,0-16.1-7.5-32.2,13.4C2255.4,234.4,2277.7,242.2,2287.7,221z"/>
			<path id="XMLID_355_" class="st3" d="M2311.3,229.3c0,0-13.8-1.8-20.4-12.9c-6.6-11.1-0.2-9.4-0.2-9.4S2305.1,203.9,2311.3,229.3
				z"/>
			<path id="XMLID_354_" class="st3" d="M2297.4,201.8c0,0,0,8.1-12.3-4.7c-12.3-12.8-11.5-20.4-11.5-20.4l11.2,2.2
				C2284.8,178.9,2297.1,183.6,2297.4,201.8z"/>
			<path id="XMLID_353_" class="st3" d="M2258,217.1c0,0,4.5,6.7,10.4-2.4c5.9-9.1,9.1-18.4,9.1-18.4l-2.7-4.3c0,0,3-2.5-5.6,2.9
				C2260.6,200.5,2257.2,204.4,2258,217.1z"/>
			<path id="XMLID_352_" class="st3" d="M2252.5,266c0,0,17.5-0.2,21.3-10.3c3.7-10.1-17.2,2.2-17.2,2.2L2252.5,266z"/>
			<path id="XMLID_351_" class="st3" d="M2290.7,321.2c0,0-9.1-1.9-10.9-13.1c-1.8-11.2-1.1-14.7-1.1-14.7l5.7,5.8
				c0,0,4.1,0,5.5,8.6C2291.2,316.4,2290.7,321.2,2290.7,321.2z"/>
			<path id="XMLID_350_" class="st3" d="M2262.2,305.9c0,0,5.6,5.2,10.4-6.4c4.8-11.6,5.9-17.2,5.9-17.2s-1.3,0.2-7.1,5.9
				c-5.8,5.7-8.5,10.2-8.5,10.2L2262.2,305.9z"/>
			<path id="XMLID_349_" class="st3" d="M2233.2,222.5c0,0,12.4,1.3,19.2-6.5s3.9-13.5,3.9-13.5s-4.4-6-11.7,2.6
				C2237.2,213.8,2233.2,222.5,2233.2,222.5z"/>
			<path id="XMLID_348_" class="st9" d="M2301.4,267.4c0,0-12-15.6-14.2-20.6c0,0,2.5,3,13.3,23.5L2301.4,267.4z"/>
			<path id="XMLID_347_" class="st6" d="M2241.1,143.5c0,0,15.3,6.9,12.6,14.8s-2.2,11.2-11.2,10c-9-1.2-14.8-3.6-14.2-8.5
				s1.9-13.1,6.3-15.2C2238.9,142.5,2241.1,143.5,2241.1,143.5z"/>
			<path id="XMLID_346_" class="st6" d="M2243.4,137.1c0,0,4.5,2.6,8.7-4.8c4.2-7.4,8.7-8.9,1.4-11.7c-7.2-2.9-10.5-6.4-15.4-3.5
				c-4.9,2.8-6.4-1.7-10.8-0.2c-4.5,1.4-3.9,0.7-2.2,7.1s3.9,7.5,7.9,10.9S2243.4,137.1,2243.4,137.1z"/>
			<path id="XMLID_345_" class="st6" d="M2215.2,154.6c0,0-7.6-0.8-4.7-8s8.8-12.3,13.3-9.6s9.5,4.5,9.5,4.5l1.2,3.2
				C2234.5,144.6,2228.6,165.9,2215.2,154.6z"/>
			<path id="XMLID_344_" class="st6" d="M2253.8,150.9c0,0,6.2,1,10.4-6.4s7.4-8.6-0.5-11.4c-7.9-2.8-3.3-3.5-11.6-0.8
				c-8.3,2.7-15.2,5.9-15.2,5.9l1.7,6.5L2253.8,150.9z"/>
			<path id="XMLID_343_" class="st6" d="M2225,123.9c0,0-2.6-3.6-8.9-0.6c-6.3,3.1-7.2,5.2-7.1,10c0.1,4.7,0,8.1,6.1,8.5
				c6.1,0.3,18.2-0.3,18.2-0.3l4.4-6.1L2225,123.9z"/>
			<circle id="XMLID_342_" class="st4" cx="2235.8" cy="140" r="3"/>
			<path id="XMLID_341_" class="st4" d="M2236.3,143c0,0-0.3,2.1,2.4,10.4c2.7,8.3-3.5-4.8-4.1-8.8
				C2233.9,140.7,2236.3,143,2236.3,143z"/>
			<path id="XMLID_340_" class="st4" d="M2246.2,149.5c0,0-8.8-4-9.9-6.5c-1.1-2.5-1-5.9-1-5.9S2238.6,140.6,2246.2,149.5z"/>
			<path id="XMLID_339_" class="st4" d="M2223.2,153.9"/>
			<path id="XMLID_338_" class="st4" d="M2235.3,137.1c0,0-6.3,4.8-7.3,11c-1,6.2-1,6.2-1,6.2L2235.3,137.1z"/>
			<path id="XMLID_337_" class="st4" d="M2230.2,138.6l2.7,1.9L2230.2,138.6z"/>
		</g>
		<g id="XMLID_310_">
			<path id="XMLID_335_" class="st3" d="M2174.6,300.3c0,0-1,2.1,4.7,0c5.8-2.1,1-5.2,10-6.8c8.9-1.6,17.8-0.5,17.8-0.5
				s10.5,3.1,12.6,5.8c2.1,2.6,6.3,9.4,6.3,9.4l-11,30.4c0,0-13.6,4.2-19.4-4.2s-7.9-1-12.1-14.7c-4.2-13.6-5.2-13.1-7.3-15.7
				S2174.6,300.3,2174.6,300.3z"/>
			<path id="XMLID_334_" class="st2" d="M2174.9,302.2c0.8,0,5.2,3.4,12.1,4.5s10.5,0.5,13.4,3.4c2.9,2.9,7.3,7.1,11.8,8.4
				c4.5,1.3,11.3,7.3,11.3,7.3l-3.9,10.8c0,0-8.4,5-14.2,3.4s-6.3-3.9-10-6.6c-3.7-2.6-5.2-2.6-7.9-5.5c-2.6-2.9-3.9-14.2-6.6-17.6
				C2178.3,306.9,2174.9,302.2,2174.9,302.2z"/>
			<path id="XMLID_333_" class="st8" d="M2277.7,287.5c0,0-8.4,19.9-17.3,26.2c-8.9,6.3-17.3,7.9-17.3,7.9l-4.7-4.2l6.8-7.3
				c0,0,6.3-1.6,12.6-5.2C2264.1,301.1,2277.7,287.5,2277.7,287.5z"/>
			<path id="XMLID_332_" class="st2" d="M2242.1,320c1.6-0.3,16-5.8,18.6-7.6c2.6-1.8,13.9-17.3,13.9-17.3l-10.8,16.5
				c0,0-13.4,8.4-15.7,8.9c-2.4,0.5-7.9,0.8-7.9,0.8L2242.1,320z"/>
			<path id="XMLID_331_" class="st8" d="M2231.6,258.6c-1-1.6,7.9,4.2,8.4,13.1c0.5,8.9,2.6,19.4,1.6,24.1
				c-1,4.7-15.7,16.3-15.7,16.3s2.6-13.6,5.2-19.4C2233.7,287,2237.9,269.1,2231.6,258.6z"/>
			<path id="XMLID_330_" class="st2" d="M2231.6,258.6c0,0,6,6,6,10.5c0,4.5,0.8,13.4-0.8,18.1c-1.6,4.7-3.1,13.9-3.1,13.9
				l-3.7,12.1l-4.2-1c0,0,3.9-17.1,5.2-19.4c1.3-2.4,3.1-7.9,3.1-11.5c0-3.7,2.1-11,0.5-14.2S2231.6,258.6,2231.6,258.6z"/>
			<path id="XMLID_329_" class="st8" d="M2225.3,380.9c0,0,1.6-0.5,4.7-8.9c3.1-8.4,3.7-10,4.2-19.4s-0.2-23.2-1.7-25.8
				s-18.2-0.5-18.2-0.5l0.5,16.3l6.3,20.5L2225.3,380.9z"/>
			<path id="XMLID_328_" class="st8" d="M2172.3,326.3c1.6,0.5,10,7.9,15.2,6.8c5.2-1,13.6-0.5,13.6-0.5l15.1,3.1l0.1-22
				c0,0-13.1,2.1-17.8,3.7s-8.9,4.7-15.2,5.8C2177,324.2,2172.3,326.3,2172.3,326.3z"/>
			<path id="XMLID_327_" class="st6" d="M2221.1,321.6c0,0-11-2.6-15.7-15.2s-2.1-16.8-2.1-16.8s16.3,2.6,18.9,10.5
				c2.6,7.9,4.2,15.7,4.2,15.7L2221.1,321.6z"/>
			<path id="XMLID_326_" class="st6" d="M2254.6,294.8c0,0-6.3,17.3-12.6,21.5s-12.6,5.2-12.6,5.2l-3.1-5.8c0,0,1-11,7.3-14.7
				C2240,297.4,2249.9,293.3,2254.6,294.8z"/>
			<path id="XMLID_325_" class="st6" d="M2192.2,339.4c0,0,11.5-18.4,23.1-19.9c11.5-1.6,8.4,4.2,8.4,4.2s-17.3,10.5-21,12.1
				C2199,337.3,2195.4,342,2192.2,339.4z"/>
			<path id="XMLID_324_" class="st6" d="M2221,353.6c0,0,9.2-2.1,10.8-7.9c1.6-5.8,2.8-8.4,1.7-13.6c-0.5-2.6-0.7-4.2-1.1-5.3
				c-0.3-1.1-0.7-1.8-1.5-2.6c-1.6-1.6-9.9-2.6-9.9-2.6s-7.1,8.9-5,14.2s5,7.3,5,11.5S2221,353.6,2221,353.6z"/>
			<path id="XMLID_323_" class="st6" d="M2256.3,335.9c0,0,5.2-2.7-1.1-7.9c-6.3-5.2-14.8-7.9-14.8-7.9h-11.3l0.3,2l1.5,2.4
				c0,0,4.8,2.5,7.9,5.1c3.1,2.6,8.9,2,11,4.1C2252,335.8,2256.3,335.9,2256.3,335.9z"/>
			<path id="XMLID_322_" class="st7" d="M2228.4,313.7c0.5-1,1.6-8.1,6.8-10.5c5.2-2.4,7.9-5.5,11.5-5.8s7.9-2.6,7.9-2.6
				s-9.7-0.8-16,2.9c-6.3,3.7-8.7,6-8.7,6s-4.7,6.6-4.2,8.4C2226.3,314,2228.4,313.7,2228.4,313.7z"/>
			<path id="XMLID_321_" class="st7" d="M2231.6,318.7c0.8-0.3,8.7-2.6,10.8-4.7c2.1-2.1,6.6-9.4,6.6-9.4l5.8-9.7l-5,12.3
				c0,0-5.5,9.7-7.3,11c-1.8,1.3-11.3,2.1-11.3,2.1L2231.6,318.7z"/>
			<path id="XMLID_320_" class="st7" d="M2224.7,314.8c0,0-15.2-17.3-18.6-18.4s-3.1-1-3.1-1l0.3-5.8c0,0,6-0.3,10.5,2.4
				c4.5,2.6,8.7,6.8,8.7,6.8c0.5,3.1,4.5,13.6,4.2,15.5C2226.3,316.1,2224.7,314.8,2224.7,314.8z"/>
			<path id="XMLID_319_" class="st7" d="M2203,295.4c0,0,1.3,7.1,2.9,9.7s5.8,8.7,8.1,10.5c2.4,1.8,7.1,3.1,7.1,3.1l-5.8,0.8
				C2217.7,319.7,2205.1,308.7,2203,295.4z"/>
			<path id="XMLID_318_" class="st7" d="M2221.1,319.7c0,0-11.5,1.3-15,5c-3.4,3.7-6.8,5-9.2,8.9c-2.4,3.9-4.5,6-4.7,5.8
				c-0.3-0.3,5.8-10.5,9.7-13.6s8.1-5.2,11.5-6s9.2-1.8,9.2-1.8L2221.1,319.7z"/>
			<path id="XMLID_317_" class="st7" d="M2192.2,339.4c0,0,2.9,0.3,7.9-2.6s11.5-7.6,11.5-7.6l10-6l-4.7,5.5l-13.4,8.1
				C2203.5,336.8,2196.1,341.5,2192.2,339.4z"/>
			<path id="XMLID_316_" class="st7" d="M2221.6,323.2c1.3-1-5.5,7.1-4.7,10c0.8,2.9,2.6,2.9,3.7,6s-0.3,13.9,0,14.4
				c0.3,0.5-1.3-11-1.3-11s-2.7-2.4-3.4-6.8C2215,331.3,2216.3,327.1,2221.6,323.2z"/>
			<path id="XMLID_315_" class="st7" d="M2229.7,325.3c0,0,0.8,0.3,1,6c0.3,5.8,2.1,6.6,0.3,11c-1.8,4.5-6,8.4-6,8.4l-4.5,2.9
				c0,0,6.3-0.8,8.7-2.9c2.4-2.1,3.9-4.7,4.7-8.7c0.8-3.9-0.7-11.4-1.5-15.3c-0.8-3.9-2.1-3.9-2.1-3.9L2229.7,325.3z"/>
			<path id="XMLID_314_" class="st7" d="M2231.8,322.6c0,0,3.1,3.4,7.9,5.2c4.7,1.8,7.3,3.4,9.7,4.2c2.4,0.8,4.7,3.7,6,1.6
				c1.3-2.1,1.6-2.6-1.8-5c-3.4-2.4-6.3-4.2-10.5-5.8c-4.2-1.6-11-3.1-11-3.1s4.5-0.5,8.4,0.3s8.7,3.7,8.7,3.7s4.6,3.3,6.1,4.3
				c1.5,1,3.9,1.5,3.3,3.6c-0.5,2.1,1,4.2-2.2,4.3s-10.1-3-12.7-4.1c-2.6-1-3.4,1-5.8-2.1c-2.4-3.1-5.8-1.6-6.3-3.9
				S2231.8,322.6,2231.8,322.6z"/>
			<circle id="XMLID_313_" class="st5" cx="2226.6" cy="319.7" r="5.5"/>
			<path id="XMLID_312_" class="st1" d="M2174.8,302.2c2.1-0.8,5.3,1.3,9.2,1.8c3.9,0.5,4.8,2.6,8.7,2.3c3.9-0.3,8.4,1.3,10.2,3.1
				s0.8,4.2,3.2,4.4s3.4,2.1,3.4,2.1h-3.9c0,0-2.6-3.7-5.2-5.8c-2.6-2.1-3.7-2.2-6.6-2.4s-4.2,1-7.1,0s-1,0.5-6.3-2.4
				C2175.2,302.5,2174.8,302.2,2174.8,302.2z"/>
			<circle id="XMLID_311_" class="st10" cx="2224.7" cy="317.6" r="1.8"/>
		</g>
		<g id="XMLID_297_">
			<polygon id="XMLID_309_" class="st1" points="2249,173.4 2247,192.4 2247.3,214.7 2249.1,240.1 2250,254 2254.7,296 
				2255.3,307.4 2259.3,306.7 2257.3,284.7 2250,226 2248.7,201.4 			"/>
			<circle id="XMLID_308_" class="st5" cx="2244.7" cy="246" r="5.3"/>
			<circle id="XMLID_307_" class="st6" cx="2256.1" cy="234.9" r="5.7"/>
			<circle id="XMLID_306_" class="st5" cx="2245" cy="219.2" r="5"/>
			<circle id="XMLID_305_" class="st4" cx="2257.7" cy="215.7" r="5"/>
			<circle id="XMLID_304_" class="st6" cx="2245.9" cy="202.5" r="6.3"/>
			<circle id="XMLID_303_" class="st5" cx="2247" cy="192.4" r="3.7"/>
			<circle id="XMLID_302_" class="st4" cx="2249" cy="182.4" r="3"/>
			<circle id="XMLID_301_" class="st4" cx="2249" cy="171" r="2.3"/>
			<path id="XMLID_300_" class="st3" d="M2252.5,287.5c0,0-10.5,0.5-10.5,9.2s0,9,0,9s4.2-1.7,9.5-6.3c5.3-4.7,9.3-5.3,6.7-8.7
				C2255.5,287.4,2252.5,287.5,2252.5,287.5z"/>
			<path id="XMLID_299_" class="st3" d="M2248,268c0,0-7.3-4.7-5.3,4c2,8.7,0.7,12,0.7,12s4.7-3.3,8-8c3.3-4.7,6-6.7,3.3-7.3
				C2252,268,2248,268,2248,268z"/>
			<path id="XMLID_298_" class="st3" d="M2252,258c0,0-4,4,0.7,5.3c4.7,1.3,6.7,0.7,8.7,4.7s0.7-7.3,0.7-7.3s6.7-0.7,1.3-6
				C2258,249.4,2252,258,2252,258z"/>
		</g>
		<g id="XMLID_284_">
			<polygon id="XMLID_296_" class="st1" points="2220,159.4 2218,178.4 2218.3,200.7 2220.1,226.1 2221,240 2225.7,282 
				2226.3,293.4 2230.3,292.7 2228.3,270.7 2221,212 2219.7,187.4 			"/>
			<circle id="XMLID_295_" class="st4" cx="2215.7" cy="232" r="5.3"/>
			<circle id="XMLID_294_" class="st5" cx="2227.1" cy="220.9" r="5.7"/>
			<circle id="XMLID_293_" class="st5" cx="2216" cy="205.2" r="5"/>
			<circle id="XMLID_292_" class="st4" cx="2228.7" cy="201.7" r="5"/>
			<circle id="XMLID_291_" class="st5" cx="2216.9" cy="188.5" r="6.3"/>
			<circle id="XMLID_290_" class="st5" cx="2218" cy="178.4" r="3.7"/>
			<circle id="XMLID_289_" class="st4" cx="2220" cy="168.4" r="3"/>
			<circle id="XMLID_288_" class="st4" cx="2220" cy="157" r="2.3"/>
			<path id="XMLID_287_" class="st3" d="M2223.5,273.5c0,0-10.5,0.5-10.5,9.2s0,9,0,9s4.2-1.7,9.5-6.3c5.3-4.7,9.3-5.3,6.7-8.7
				C2226.5,273.4,2223.5,273.5,2223.5,273.5z"/>
			<path id="XMLID_286_" class="st3" d="M2219,254c0,0-7.3-4.7-5.3,4c2,8.7,0.7,12,0.7,12s4.7-3.3,8-8c3.3-4.7,6-6.7,3.3-7.3
				C2223,254,2219,254,2219,254z"/>
			<path id="XMLID_285_" class="st3" d="M2223,244c0,0-4,4,0.7,5.3c4.7,1.3,6.7,0.7,8.7,4.7c2,4,0.7-7.3,0.7-7.3s6.7-0.7,1.3-6
				C2229,235.4,2223,244,2223,244z"/>
		</g>
		<path class="st11" d="M2275.1,130.3l-94.5,231l142.2,124.8C2322.8,486.1,2339.6,188.8,2275.1,130.3z"/>
	</g>
	<path id="XMLID_174_" class="st12" d="M2183.6,351.2c0,0-15.8-224.7,64.5-244.9c0,0-48.1-22.3-78.9,107L2158.8,329L2183.6,351.2z"
		/>
	<path id="XMLID_172_" class="st13" d="M2169,196.4c-3.8-74.7-39.5-89.9-63-86.2c-80.9,14.7-45.5,252.9-45.6,386.8l104.7-166.2
		C2165.1,330.3,2169,196.9,2169,196.4z"/>
	<line id="XMLID_171_" class="st14" x1="2081.2" y1="133.3" x2="2092" y2="427.1"/>
	<line id="XMLID_170_" class="st15" x1="2106.8" y1="113.9" x2="2114.8" y2="402.9"/>
	<line id="XMLID_169_" class="st15" x1="2128.7" y1="116.8" x2="2131.5" y2="380.6"/>
	<line id="XMLID_168_" class="st15" x1="2154.3" y1="140.8" x2="2152.3" y2="348.6"/>
</g>
<g>
	<path id="XMLID_31_" class="st0" d="M2720,327.2c0-122.4-36.1-221.6-80.6-221.6c-44.4,0-80.5,99-80.6,221.1l160,159.4
		C2718.9,485.6,2720,327.6,2720,327.2z"/>
	<g>
		<g>
			<path class="st1" d="M2649.5,419.5c0.2-1.6,6.7-37-2.4-52c-9.1-15.1-5.2-6.7-5.2-6.7s14.2,39.2,4.8,55.3L2649.5,419.5z"/>
			<path class="st1" d="M2659.7,421.3c0,0,3.4-35.7,6.5-43.7c3-8,10.1-20.1,11.7-24.9c1.6-4.8,3.1-11.8,3.1-11.8s-10.2,19-12.4,25.1
				c-2.2,6.1-8.7,16.9-8.8,24.5c-0.1,7.6-4.5,30.8-4.5,30.8L2659.7,421.3z"/>
			<path class="st1" d="M2699.5,367.9c0.3-2-8.3,20.9-19.6,33.9c-11.3,13-17.3,19.1-17.3,19.1l3.6,1.6
				C2666.2,422.6,2696,396.5,2699.5,367.9z"/>
			<path class="st2" d="M2676.3,406.3c0,0-6.7-0.8-5.1,7.6c1.7,8.4,7.2,10.9,11.9,12.5c4.8,1.6,8.5,5.5,7.8-1.4
				C2690.2,418,2681.9,408.3,2676.3,406.3z"/>
			<path class="st3" d="M2688.9,392.8c0,0-2.6-3.9-13.6,1s-11.8,6.8-11.8,6.8s-1.3,0.5,5.3,2.9c6.6,2.4,6,3.8,11.2,0.7
				c5.2-3.1,10.8-9.4,10.8-9.4L2688.9,392.8z"/>
			<path class="st2" d="M2694,418.1c0,0,7.6-16.9,0.9-22.6c-6.7-5.8-11.3,7-11,11C2684.3,410.4,2694,418.1,2694,418.1z"/>
			<path class="st2" d="M2710,405.5c0,0,9.4-6.2,1.3-12.6c-8.1-6.4-12.8-12.9-12.8-12.9s-4,5.3-4,12.5c0.1,7.2-1.3,11.5,6.1,13.2
				S2710,405.5,2710,405.5z"/>
			<path class="st4" d="M2696.7,374.3c0,0-2.6-3.9-10.3-0.2s-8.9,6.4-8.9,6.4s-4.5,4,1.1,6c5.7,2,4.9,3.8,10.4,1.4
				c5.5-2.5,9.5-7.8,9.5-7.8L2696.7,374.3z"/>
			<path class="st3" d="M2725.7,372c0,0-3.7-12.6-15.1-6.8c-11.4,5.8-11.4,5.8-11.4,5.8l-2.2,6.1c0,0-1-1.5,7.7,1.2s8,4.1,13,1.5
				C2722.7,377.3,2725.7,372,2725.7,372z"/>
			<path class="st3" d="M2711,352.2c0,0-3.6-2.2-8.6,4.4c-5,6.5-4.8,4.9-5.6,9c-0.7,4.1,3.8,5,3.8,5S2717.8,366.3,2711,352.2z"/>
			<path class="st2" d="M2675.7,366c0,0,10.8-8.3,17.7-0.3s3.3,8.6,3.3,8.6s-4.7,0.6-10.3-0.2C2680.7,373.2,2673.7,371.7,2675.7,366
				z"/>
			<path class="st2" d="M2641.9,343.7c0,0,1.9-3,2.9,5.7c1,8.7-3,14-3,14S2632.9,357.7,2641.9,343.7z"/>
			<path class="st5" d="M2622.7,371.8c0,0,0.8,0.2,2,0.5c4,0.8,12.7,2,16.5-2.6c4.9-6,0.6-6.3,0.6-6.3s-3.2-6.4-9.5-2.1
				c-6.3,4.3-8.9,10.7-8.9,10.7L2622.7,371.8z"/>
			<path class="st2" d="M2659.5,363.1c0,0-0.1-3.4-8.6-1.7s-8.4,1.7-8.4,1.7S2646.6,371,2659.5,363.1z"/>
			<path class="st3" d="M2633.7,399.7c0,0,9.6-0.6,16.4-14.6C2650.1,385.2,2635.6,379.7,2633.7,399.7z"/>
			<path class="st2" d="M2634.6,414.9c0,0,9.6-1.7,14.9-13.6C2649.4,401.3,2638.5,391.5,2634.6,414.9z"/>
			<path class="st3" d="M2663,409c0,0-7.6-11.1-11.2-10.5c-3.6,0.6,0.2,9.4,0.2,9.4S2654.4,412.3,2663,409z"/>
			<path class="st6" d="M2650.1,385.2c0,0-5-12.1,14.4-13.8c0,0,5.2,0.7,1.6,6.2S2655.3,385.9,2650.1,385.2z"/>
			<path class="st3" d="M2676.4,388.8c0,0-0.1-14.3-6.3-16.5C2664,370.1,2658.4,391.1,2676.4,388.8z"/>
			<path class="st3" d="M2677.7,349.4c0,0-13.8,2.6-16,8.7c-2.2,6.1,6.1,7.1,10.6,2C2676.8,355,2677.7,349.4,2677.7,349.4z"/>
			<path class="st3" d="M2687.6,360.4c0,0,3-8-3.8-9.9s-5.6-4.7-6.8-2C2675.8,351.2,2676,361.7,2687.6,360.4z"/>
			<path class="st3" d="M2654.2,344.3c0,0,11.3-3.2,22.8,4.2C2677,348.5,2668.5,360,2654.2,344.3z"/>
			<path class="st2" d="M2681.6,329.7c-0.4-1.7-4.8,2.2-9.7,8.2c-4.9,6-4.9,11.3-4.9,11.3S2686.2,347.7,2681.6,329.7z"/>
			<path class="st3" d="M2661.4,327.2c0,0,15-5.3,18.3-1.7s0,6,0,6S2670.1,339.4,2661.4,327.2z"/>
			<path class="st7" d="M2689,341.3c0,0,1.7-13.5-6.2-14.3C2682.8,327,2674.5,343,2689,341.3z"/>
			<path class="st3" d="M2679.8,307c0.6-1,2.8,3.5,2.9,10.6s0.2,9.4,0.2,9.4S2672.3,320,2679.8,307z"/>
			<path class="st8" d="M2699.8,314.9c0,0-8.9,1.5-13.1,7.3c-4.2,5.8-2.7,5.9-0.8,6.7C2687.6,329.7,2696.9,326.2,2699.8,314.9z"/>
			<path class="st3" d="M2699.6,331.2c0,0-3.1-4.1-9.1-4.1s-3.2,4.6-3.2,4.6S2691.7,335.3,2699.6,331.2z"/>
		</g>
		<g id="XMLID_417_">
			<path id="XMLID_445_" class="st9" d="M2679,296.3c0,0-3.6-9.5-0.3-18.2c3.3-8.7,10.1-12.5,7.4-20.8c-2.7-8.3,3.6-39.8,0.7-48.8
				c-2.8-9-12.8-24.2-12.8-24.2s-2.2-17.2-7.5-25.1s-34.6-25.4-34.6-25.4l-2.7,3.8l35.1,24.6l6.5,23.2l12.6,22.9l-1,34.6l0.9,22.1
				C2683.3,265.1,2672.2,271.7,2679,296.3z"/>
			<path id="XMLID_444_" class="st3" d="M2682.4,243c1.5-1.5,11.4,7.6-3.7,35.1C2678.7,278.1,2663.4,263,2682.4,243z"/>
			<path id="XMLID_443_" class="st3" d="M2672.6,175.7c0,0-15.8,2.6-18.8,21.3C2653.8,197,2677.3,191.8,2672.6,175.7z"/>
			<path id="XMLID_442_" class="st3" d="M2707.3,259.2c0,0-24.1-14.9-23.6-24.5c0.5-9.5,4-8.8,4-8.8S2695.2,222.6,2707.3,259.2z"/>
			<path id="XMLID_441_" class="st3" d="M2721.4,283.2c0,0-13.9,1.6-20-10.9c-6.1-12.5-1-5.9-1-5.9S2710.6,254.6,2721.4,283.2z"/>
			<path id="XMLID_440_" class="st3" d="M2694.8,297.7c0,0-11.3-11-6.3-34.1C2688.5,263.6,2700.6,263.6,2694.8,297.7z"/>
			<path id="XMLID_439_" class="st3" d="M2684.2,151.5c0,0-9.8,6.3-20.1,1.3c-10.3-5.1-8.2-8.8-8.2-8.8l6.9-7.2
				C2662.8,136.8,2672.6,138.5,2684.2,151.5z"/>
			<path id="XMLID_438_" class="st3" d="M2696.9,175.7c0,0-13.7,2.9-20.8-3.3s-9.6-13.3-9.6-13.3S2685.7,156.6,2696.9,175.7z"/>
			<path id="XMLID_437_" class="st3" d="M2686.7,220c0,0-16.1-7.5-32.2,13.4C2654.4,233.4,2676.7,241.2,2686.7,220z"/>
			<path id="XMLID_436_" class="st3" d="M2710.3,228.3c0,0-13.8-1.8-20.4-12.9c-6.6-11.1-0.2-9.4-0.2-9.4S2704.1,202.9,2710.3,228.3
				z"/>
			<path id="XMLID_435_" class="st3" d="M2696.4,200.8c0,0,0,8.1-12.3-4.7c-12.3-12.8-11.5-20.4-11.5-20.4l11.2,2.2
				C2683.8,177.9,2696.1,182.6,2696.4,200.8z"/>
			<path id="XMLID_434_" class="st3" d="M2657,216.1c0,0,4.5,6.7,10.4-2.4c5.9-9.1,9.1-18.4,9.1-18.4l-2.7-4.3c0,0,3-2.5-5.6,2.9
				C2659.6,199.5,2656.2,203.4,2657,216.1z"/>
			<path id="XMLID_433_" class="st3" d="M2651.5,265c0,0,17.5-0.2,21.3-10.3c3.7-10.1-17.2,2.2-17.2,2.2L2651.5,265z"/>
			<path id="XMLID_432_" class="st3" d="M2689.7,320.2c0,0-9.1-1.9-10.9-13.1c-1.8-11.2-1.1-14.7-1.1-14.7l5.7,5.8
				c0,0,4.1,0,5.5,8.6C2690.2,315.4,2689.7,320.2,2689.7,320.2z"/>
			<path id="XMLID_431_" class="st3" d="M2661.2,304.9c0,0,5.6,5.2,10.4-6.4c4.8-11.6,5.9-17.2,5.9-17.2s-1.3,0.2-7.1,5.9
				c-5.8,5.7-8.5,10.2-8.5,10.2L2661.2,304.9z"/>
			<path id="XMLID_430_" class="st3" d="M2632.2,221.5c0,0,12.4,1.3,19.2-6.5s3.9-13.5,3.9-13.5s-4.4-6-11.7,2.6
				C2636.2,212.8,2632.2,221.5,2632.2,221.5z"/>
			<path id="XMLID_429_" class="st9" d="M2700.4,266.4c0,0-12-15.6-14.2-20.6c0,0,2.5,3,13.3,23.5L2700.4,266.4z"/>
			<path id="XMLID_428_" class="st6" d="M2640.1,142.5c0,0,15.3,6.9,12.6,14.8s-2.2,11.2-11.2,10c-9-1.2-14.8-3.6-14.2-8.5
				s1.9-13.1,6.3-15.2C2637.9,141.5,2640.1,142.5,2640.1,142.5z"/>
			<path id="XMLID_427_" class="st6" d="M2642.4,136.1c0,0,4.5,2.6,8.7-4.8c4.2-7.4,8.7-8.9,1.4-11.7c-7.2-2.9-10.5-6.4-15.4-3.5
				c-4.9,2.8-6.4-1.7-10.8-0.2c-4.5,1.4-3.9,0.7-2.2,7.1s3.9,7.5,7.9,10.9S2642.4,136.1,2642.4,136.1z"/>
			<path id="XMLID_426_" class="st6" d="M2614.2,153.6c0,0-7.6-0.8-4.7-8s8.8-12.3,13.3-9.6s9.5,4.5,9.5,4.5l1.2,3.2
				C2633.5,143.6,2627.6,164.9,2614.2,153.6z"/>
			<path id="XMLID_425_" class="st6" d="M2652.8,149.9c0,0,6.2,1,10.4-6.4s7.4-8.6-0.5-11.4c-7.9-2.8-3.3-3.5-11.6-0.8
				c-8.3,2.7-15.2,5.9-15.2,5.9l1.7,6.5L2652.8,149.9z"/>
			<path id="XMLID_424_" class="st6" d="M2624,122.9c0,0-2.6-3.6-8.9-0.6c-6.3,3.1-7.2,5.2-7.1,10c0.1,4.7,0,8.1,6.1,8.5
				c6.1,0.3,18.2-0.3,18.2-0.3l4.4-6.1L2624,122.9z"/>
			<circle id="XMLID_423_" class="st4" cx="2634.8" cy="139" r="3"/>
			<path id="XMLID_422_" class="st4" d="M2635.3,142c0,0-0.3,2.1,2.4,10.4c2.7,8.3-3.5-4.8-4.1-8.8
				C2632.9,139.7,2635.3,142,2635.3,142z"/>
			<path id="XMLID_421_" class="st4" d="M2645.2,148.5c0,0-8.8-4-9.9-6.5c-1.1-2.5-1-5.9-1-5.9S2637.6,139.6,2645.2,148.5z"/>
			<path id="XMLID_420_" class="st4" d="M2622.2,152.9"/>
			<path id="XMLID_419_" class="st4" d="M2634.3,136.1c0,0-6.3,4.8-7.3,11c-1,6.2-1,6.2-1,6.2L2634.3,136.1z"/>
			<path id="XMLID_418_" class="st4" d="M2629.2,137.6l2.7,1.9L2629.2,137.6z"/>
		</g>
		<g id="XMLID_391_">
			<path id="XMLID_416_" class="st3" d="M2573.6,299.3c0,0-1,2.1,4.7,0c5.8-2.1,1-5.2,10-6.8c8.9-1.6,17.8-0.5,17.8-0.5
				s10.5,3.1,12.6,5.8c2.1,2.6,6.3,9.4,6.3,9.4l-11,30.4c0,0-13.6,4.2-19.4-4.2s-7.9-1-12.1-14.7c-4.2-13.6-5.2-13.1-7.3-15.7
				S2573.6,299.3,2573.6,299.3z"/>
			<path id="XMLID_415_" class="st2" d="M2573.9,301.2c0.8,0,5.2,3.4,12.1,4.5s10.5,0.5,13.4,3.4c2.9,2.9,7.3,7.1,11.8,8.4
				c4.5,1.3,11.3,7.3,11.3,7.3l-3.9,10.8c0,0-8.4,5-14.2,3.4s-6.3-3.9-10-6.6c-3.7-2.6-5.2-2.6-7.9-5.5c-2.6-2.9-3.9-14.2-6.6-17.6
				C2577.3,305.9,2573.9,301.2,2573.9,301.2z"/>
			<path id="XMLID_414_" class="st8" d="M2676.7,286.5c0,0-8.4,19.9-17.3,26.2c-8.9,6.3-17.3,7.9-17.3,7.9l-4.7-4.2l6.8-7.3
				c0,0,6.3-1.6,12.6-5.2C2663.1,300.1,2676.7,286.5,2676.7,286.5z"/>
			<path id="XMLID_413_" class="st2" d="M2641.1,319c1.6-0.3,16-5.8,18.6-7.6c2.6-1.8,13.9-17.3,13.9-17.3l-10.8,16.5
				c0,0-13.4,8.4-15.7,8.9c-2.4,0.5-7.9,0.8-7.9,0.8L2641.1,319z"/>
			<path id="XMLID_412_" class="st8" d="M2630.6,257.6c-1-1.6,7.9,4.2,8.4,13.1c0.5,8.9,2.6,19.4,1.6,24.1
				c-1,4.7-15.7,16.3-15.7,16.3s2.6-13.6,5.2-19.4C2632.7,286,2636.9,268.1,2630.6,257.6z"/>
			<path id="XMLID_411_" class="st2" d="M2630.6,257.6c0,0,6,6,6,10.5c0,4.5,0.8,13.4-0.8,18.1c-1.6,4.7-3.1,13.9-3.1,13.9
				l-3.7,12.1l-4.2-1c0,0,3.9-17.1,5.2-19.4c1.3-2.4,3.1-7.9,3.1-11.5c0-3.7,2.1-11,0.5-14.2S2630.6,257.6,2630.6,257.6z"/>
			<path id="XMLID_410_" class="st8" d="M2624.3,379.9c0,0,1.6-0.5,4.7-8.9c3.1-8.4,3.7-10,4.2-19.4s-0.2-23.2-1.7-25.8
				s-18.2-0.5-18.2-0.5l0.5,16.3l6.3,20.5L2624.3,379.9z"/>
			<path id="XMLID_409_" class="st8" d="M2571.3,325.3c1.6,0.5,10,7.9,15.2,6.8c5.2-1,13.6-0.5,13.6-0.5l15.1,3.1l0.1-22
				c0,0-13.1,2.1-17.8,3.7s-8.9,4.7-15.2,5.8C2576,323.2,2571.3,325.3,2571.3,325.3z"/>
			<path id="XMLID_408_" class="st6" d="M2620.1,320.6c0,0-11-2.6-15.7-15.2s-2.1-16.8-2.1-16.8s16.3,2.6,18.9,10.5
				c2.6,7.9,4.2,15.7,4.2,15.7L2620.1,320.6z"/>
			<path id="XMLID_407_" class="st6" d="M2653.6,293.8c0,0-6.3,17.3-12.6,21.5s-12.6,5.2-12.6,5.2l-3.1-5.8c0,0,1-11,7.3-14.7
				C2639,296.4,2648.9,292.3,2653.6,293.8z"/>
			<path id="XMLID_406_" class="st6" d="M2591.2,338.4c0,0,11.5-18.4,23.1-19.9c11.5-1.6,8.4,4.2,8.4,4.2s-17.3,10.5-21,12.1
				C2598,336.3,2594.4,341,2591.2,338.4z"/>
			<path id="XMLID_405_" class="st6" d="M2620,352.6c0,0,9.2-2.1,10.8-7.9c1.6-5.8,2.8-8.4,1.7-13.6c-0.5-2.6-0.7-4.2-1.1-5.3
				c-0.3-1.1-0.7-1.8-1.5-2.6c-1.6-1.6-9.9-2.6-9.9-2.6s-7.1,8.9-5,14.2s5,7.3,5,11.5S2620,352.6,2620,352.6z"/>
			<path id="XMLID_404_" class="st6" d="M2655.3,334.9c0,0,5.2-2.7-1.1-7.9c-6.3-5.2-14.8-7.9-14.8-7.9h-11.3l0.3,2l1.5,2.4
				c0,0,4.8,2.5,7.9,5.1c3.1,2.6,8.9,2,11,4.1C2651,334.8,2655.3,334.9,2655.3,334.9z"/>
			<path id="XMLID_403_" class="st7" d="M2627.4,312.7c0.5-1,1.6-8.1,6.8-10.5c5.2-2.4,7.9-5.5,11.5-5.8s7.9-2.6,7.9-2.6
				s-9.7-0.8-16,2.9c-6.3,3.7-8.7,6-8.7,6s-4.7,6.6-4.2,8.4C2625.3,313,2627.4,312.7,2627.4,312.7z"/>
			<path id="XMLID_402_" class="st7" d="M2630.6,317.7c0.8-0.3,8.7-2.6,10.8-4.7c2.1-2.1,6.6-9.4,6.6-9.4l5.8-9.7l-5,12.3
				c0,0-5.5,9.7-7.3,11c-1.8,1.3-11.3,2.1-11.3,2.1L2630.6,317.7z"/>
			<path id="XMLID_401_" class="st7" d="M2623.7,313.8c0,0-15.2-17.3-18.6-18.4s-3.1-1-3.1-1l0.3-5.8c0,0,6-0.3,10.5,2.4
				c4.5,2.6,8.7,6.8,8.7,6.8c0.5,3.1,4.5,13.6,4.2,15.5C2625.3,315.1,2623.7,313.8,2623.7,313.8z"/>
			<path id="XMLID_400_" class="st7" d="M2602,294.4c0,0,1.3,7.1,2.9,9.7s5.8,8.7,8.1,10.5c2.4,1.8,7.1,3.1,7.1,3.1l-5.8,0.8
				C2616.7,318.7,2604.1,307.7,2602,294.4z"/>
			<path id="XMLID_399_" class="st7" d="M2620.1,318.7c0,0-11.5,1.3-15,5c-3.4,3.7-6.8,5-9.2,8.9c-2.4,3.9-4.5,6-4.7,5.8
				c-0.3-0.3,5.8-10.5,9.7-13.6s8.1-5.2,11.5-6s9.2-1.8,9.2-1.8L2620.1,318.7z"/>
			<path id="XMLID_398_" class="st7" d="M2591.2,338.4c0,0,2.9,0.3,7.9-2.6s11.5-7.6,11.5-7.6l10-6l-4.7,5.5l-13.4,8.1
				C2602.5,335.8,2595.1,340.5,2591.2,338.4z"/>
			<path id="XMLID_397_" class="st7" d="M2620.6,322.2c1.3-1-5.5,7.1-4.7,10c0.8,2.9,2.6,2.9,3.7,6s-0.3,13.9,0,14.4
				c0.3,0.5-1.3-11-1.3-11s-2.7-2.4-3.4-6.8C2614,330.3,2615.3,326.1,2620.6,322.2z"/>
			<path id="XMLID_396_" class="st7" d="M2628.7,324.3c0,0,0.8,0.3,1,6c0.3,5.8,2.1,6.6,0.3,11c-1.8,4.5-6,8.4-6,8.4l-4.5,2.9
				c0,0,6.3-0.8,8.7-2.9c2.4-2.1,3.9-4.7,4.7-8.7c0.8-3.9-0.7-11.4-1.5-15.3c-0.8-3.9-2.1-3.9-2.1-3.9L2628.7,324.3z"/>
			<path id="XMLID_395_" class="st7" d="M2630.8,321.6c0,0,3.1,3.4,7.9,5.2c4.7,1.8,7.3,3.4,9.7,4.2c2.4,0.8,4.7,3.7,6,1.6
				c1.3-2.1,1.6-2.6-1.8-5c-3.4-2.4-6.3-4.2-10.5-5.8c-4.2-1.6-11-3.1-11-3.1s4.5-0.5,8.4,0.3s8.7,3.7,8.7,3.7s4.6,3.3,6.1,4.3
				c1.5,1,3.9,1.5,3.3,3.6c-0.5,2.1,1,4.2-2.2,4.3s-10.1-3-12.7-4.1c-2.6-1-3.4,1-5.8-2.1c-2.4-3.1-5.8-1.6-6.3-3.9
				S2630.8,321.6,2630.8,321.6z"/>
			<circle id="XMLID_394_" class="st5" cx="2625.6" cy="318.7" r="5.5"/>
			<path id="XMLID_393_" class="st1" d="M2573.8,301.2c2.1-0.8,5.3,1.3,9.2,1.8c3.9,0.5,4.8,2.6,8.7,2.3c3.9-0.3,8.4,1.3,10.2,3.1
				s0.8,4.2,3.2,4.4s3.4,2.1,3.4,2.1h-3.9c0,0-2.6-3.7-5.2-5.8c-2.6-2.1-3.7-2.2-6.6-2.4s-4.2,1-7.1,0s-1,0.5-6.3-2.4
				C2574.2,301.5,2573.8,301.2,2573.8,301.2z"/>
			<circle id="XMLID_392_" class="st10" cx="2623.7" cy="316.6" r="1.8"/>
		</g>
		<g id="XMLID_378_">
			<polygon id="XMLID_390_" class="st1" points="2648,172.4 2646,191.4 2646.3,213.7 2648.1,239.1 2649,253 2653.7,295 
				2654.3,306.4 2658.3,305.7 2656.3,283.7 2649,225 2647.7,200.4 			"/>
			<circle id="XMLID_389_" class="st5" cx="2643.7" cy="245" r="5.3"/>
			<circle id="XMLID_388_" class="st6" cx="2655.1" cy="233.9" r="5.7"/>
			<circle id="XMLID_387_" class="st5" cx="2644" cy="218.2" r="5"/>
			<circle id="XMLID_386_" class="st4" cx="2656.7" cy="214.7" r="5"/>
			<circle id="XMLID_385_" class="st6" cx="2644.9" cy="201.5" r="6.3"/>
			<circle id="XMLID_384_" class="st5" cx="2646" cy="191.4" r="3.7"/>
			<circle id="XMLID_383_" class="st4" cx="2648" cy="181.4" r="3"/>
			<circle id="XMLID_382_" class="st4" cx="2648" cy="170" r="2.3"/>
			<path id="XMLID_381_" class="st3" d="M2651.5,286.5c0,0-10.5,0.5-10.5,9.2s0,9,0,9s4.2-1.7,9.5-6.3c5.3-4.7,9.3-5.3,6.7-8.7
				C2654.5,286.4,2651.5,286.5,2651.5,286.5z"/>
			<path id="XMLID_380_" class="st3" d="M2647,267c0,0-7.3-4.7-5.3,4c2,8.7,0.7,12,0.7,12s4.7-3.3,8-8c3.3-4.7,6-6.7,3.3-7.3
				C2651,267,2647,267,2647,267z"/>
			<path id="XMLID_379_" class="st3" d="M2651,257c0,0-4,4,0.7,5.3c4.7,1.3,6.7,0.7,8.7,4.7s0.7-7.3,0.7-7.3s6.7-0.7,1.3-6
				C2657,248.4,2651,257,2651,257z"/>
		</g>
		<g id="XMLID_365_">
			<polygon id="XMLID_377_" class="st1" points="2619,158.4 2617,177.4 2617.3,199.7 2619.1,225.1 2620,239 2624.7,281 
				2625.3,292.4 2629.3,291.7 2627.3,269.7 2620,211 2618.7,186.4 			"/>
			<circle id="XMLID_376_" class="st4" cx="2614.7" cy="231" r="5.3"/>
			<circle id="XMLID_375_" class="st5" cx="2626.1" cy="219.9" r="5.7"/>
			<circle id="XMLID_374_" class="st5" cx="2615" cy="204.2" r="5"/>
			<circle id="XMLID_373_" class="st4" cx="2627.7" cy="200.7" r="5"/>
			<circle id="XMLID_372_" class="st5" cx="2615.9" cy="187.5" r="6.3"/>
			<circle id="XMLID_371_" class="st5" cx="2617" cy="177.4" r="3.7"/>
			<circle id="XMLID_370_" class="st4" cx="2619" cy="167.4" r="3"/>
			<circle id="XMLID_369_" class="st4" cx="2619" cy="156" r="2.3"/>
			<path id="XMLID_368_" class="st3" d="M2622.5,272.5c0,0-10.5,0.5-10.5,9.2s0,9,0,9s4.2-1.7,9.5-6.3c5.3-4.7,9.3-5.3,6.7-8.7
				C2625.5,272.4,2622.5,272.5,2622.5,272.5z"/>
			<path id="XMLID_367_" class="st3" d="M2618,253c0,0-7.3-4.7-5.3,4c2,8.7,0.7,12,0.7,12s4.7-3.3,8-8c3.3-4.7,6-6.7,3.3-7.3
				C2622,253,2618,253,2618,253z"/>
			<path id="XMLID_366_" class="st3" d="M2622,243c0,0-4,4,0.7,5.3c4.7,1.3,6.7,0.7,8.7,4.7c2,4,0.7-7.3,0.7-7.3s6.7-0.7,1.3-6
				C2628,234.4,2622,243,2622,243z"/>
		</g>
		<path class="st11" d="M2674.1,129.3l-94.5,231l142.2,124.8C2721.8,485.1,2738.6,187.8,2674.1,129.3z"/>
	</g>
	<path id="XMLID_30_" class="st12" d="M2583.6,352c0,0-15.8-224.7,64.5-244.9c0,0-48.1-22.3-78.9,107l-10.4,115.7L2583.6,352z"/>
	<path id="XMLID_28_" class="st13" d="M2569,197.2c-3.8-74.7-5.7-81.8-5.7-81.8h-7.8c0,0,2.9,258.8,2.8,378.2l6.6-1.3l0.2-160.7
		C2565.1,331.1,2569,197.7,2569,197.2z"/>
</g>
<g>
	<path id="XMLID_69_" class="st16" d="M3119.2,328.6c0-122.4-36.1-221.6-80.6-221.6c-44.4,0-80.5,99-80.6,221.1l160,159.4
		C3118.1,487,3119.2,329,3119.2,328.6z"/>
	<path id="XMLID_68_" class="st12" d="M2982.8,353.4c0,0-15.8-224.7,64.5-244.9c0,0-48.1-22.3-78.9,107L2958,331.2L2982.8,353.4z"/>
	<path id="XMLID_70_" class="st13" d="M3107.7,488.2l-151.4-158.1c0-0.5-0.2-68.9,11.1-131.9c29.9-96.7,72.1-93.3,79.4-90.2
		s21.9,4.9,42.2,46.7c25.8,57.5,36.4,129.6,28.3,332.4"/>
	<path id="XMLID_10_" class="st17" d="M3115.5,481.4l-7.2,0.5c0,0,10.9-190.4,0.5-241.6c-0.7-14.2-7.5-48.9-7.5-48.9
		c13.6,34.3,16.7,126.7,16.7,126.7S3117.9,398.5,3115.5,481.4z"/>
	<line id="XMLID_71_" class="st18" x1="2986" y1="153" x2="2973.5" y2="344.6"/>
	<line id="XMLID_72_" class="st18" x1="3007.2" y1="124.7" x2="2991.5" y2="361.9"/>
	<line id="XMLID_73_" class="st18" x1="3044.1" y1="108.2" x2="3023.7" y2="398"/>
	<line id="XMLID_74_" class="st18" x1="3071.6" y1="127.1" x2="3048.1" y2="421.6"/>
	<line id="XMLID_75_" class="st18" x1="3098.3" y1="192.2" x2="3078.7" y2="453.8"/>
</g>
<rect x="720" y="65.7" class="st19" width="400" height="431.3"/>
<rect x="1120" y="65.7" class="st19" width="400" height="431.3"/>
<rect x="1520" y="65.7" class="st19" width="400" height="431.3"/>
<rect x="1920" y="65.7" class="st19" width="400" height="431.3"/>
<rect x="2320" y="65.7" class="st19" width="400" height="431.3"/>
<rect x="2720" y="65.7" class="st19" width="400" height="431.3"/>
</svg>
