
<svg version="1.1" id="Layer_1" xmlns="http://www.w3.org/2000/svg" xmlns:xlink="http://www.w3.org/1999/xlink" x="0px" y="0px"
	 viewBox="0 0 2400 431.3" style="enable-background:new 0 0 2400 431.3;" xml:space="preserve">
<style type="text/css">
	.st0{fill:#B3B3B3;}
	.st1{fill:#939393;}
	.st2{fill:#513708;}
	.st3{fill:none;stroke:#000000;stroke-width:3;stroke-miterlimit:10;}
	.st4{fill:none;stroke:#000000;stroke-width:1.2521;stroke-miterlimit:10;}
	.st5{fill:#352306;}
	.st6{fill:none;stroke:#000000;stroke-width:0.25;stroke-miterlimit:10;}
	.st7{fill:none;}
</style>
<g>
	<path id="XMLID_23_" class="st0" d="M399.9,273.1c0-122.4-36.1-221.6-80.6-221.6c-44.4,0-80.5,99-80.6,221.1l160,159.4
		C398.9,431.5,399.9,273.5,399.9,273.1z"/>
	<path id="XMLID_22_" class="st1" d="M263.5,297.9c0,0-15.8-224.7,64.5-244.9c0,0-48.1-22.3-78.9,107l-10.4,115.7L263.5,297.9z"/>
	<path id="XMLID_18_" class="st2" d="M248.9,143.1C245.1,68.4,205.2,9.1,144,5.3C93.3,2.2,23.9,95.8,23.8,229.7L245,277.5
		C245,277,248.9,143.6,248.9,143.1z"/>
	<line id="XMLID_17_" class="st3" x1="75.2" y1="54.3" x2="75.2" y2="236.3"/>
	<line id="XMLID_19_" class="st4" x1="115.5" y1="14.5" x2="116.3" y2="247.7"/>
	<line id="XMLID_20_" class="st4" x1="155.4" y1="8.3" x2="157.9" y2="257.7"/>
	<line id="XMLID_21_" class="st4" x1="205.4" y1="35.2" x2="203.5" y2="266.5"/>
</g>
<g>
	<path id="XMLID_131_" class="st0" d="M800,261.5c0-122.4-36.1-221.6-80.6-221.6c-44.4,0-80.5,99-80.6,221.1l160,159.4
		C798.9,419.9,800,261.9,800,261.5z"/>
	<path id="XMLID_130_" class="st1" d="M663.6,286.3c0,0-15.8-224.7,64.5-244.9c0,0-48.1-22.3-78.9,107l-10.4,115.7L663.6,286.3z"/>
	<path id="XMLID_128_" class="st2" d="M649,131.5C645.2,56.8,586.9,9,525.8,14.8C454,21.6,418.6,138.6,418.5,272.5l226.6-6.5
		C645.1,265.4,649,132,649,131.5z"/>
	<line id="XMLID_127_" class="st3" x1="475.2" y1="53.7" x2="475.9" y2="267.2"/>
	<line id="XMLID_126_" class="st4" x1="514.8" y1="20.8" x2="515.3" y2="266.4"/>
	<line id="XMLID_125_" class="st4" x1="555.1" y1="17.8" x2="557.8" y2="263.6"/>
	<line id="XMLID_124_" class="st4" x1="605.6" y1="43" x2="603.6" y2="260.9"/>
</g>
<g>
	<path id="XMLID_153_" class="st0" d="M1200,261.5c0-122.4-36.1-221.6-80.6-221.6c-44.4,0-80.5,99-80.6,221.1l160,159.4
		C1198.9,419.9,1200,261.9,1200,261.5z"/>
	<path id="XMLID_152_" class="st1" d="M1063.6,286.3c0,0-15.8-224.7,64.5-244.9c0,0-48.1-22.3-78.9,107l-10.4,115.7L1063.6,286.3z"
		/>
	<path id="XMLID_150_" class="st2" d="M1049,131.5c-3.8-74.7-57.5-110.9-118.6-104.9c-87.6,24.2-104.6,190.9-104.7,324.8l219.4-85.4
		C1045.1,265.4,1049,132,1049,131.5z"/>
	<line id="XMLID_149_" class="st3" x1="875.9" y1="75.8" x2="876.6" y2="325.3"/>
	<line id="XMLID_148_" class="st4" x1="914.8" y1="35.8" x2="915.3" y2="311.3"/>
	<line id="XMLID_147_" class="st4" x1="955.8" y1="30.6" x2="958.5" y2="294.4"/>
	<line id="XMLID_146_" class="st4" x1="1005.6" y1="46" x2="1003.6" y2="277.9"/>
</g>
<g>
	<path id="XMLID_175_" class="st0" d="M1600,260.7c0-122.4-36.1-221.6-80.6-221.6c-44.4,0-80.5,99-80.6,221.1l160,159.4
		C1598.9,419.1,1600,261.1,1600,260.7z"/>
	<path id="XMLID_174_" class="st1" d="M1463.6,285.5c0,0-15.8-224.7,64.5-244.9c0,0-48.1-22.3-78.9,107l-10.4,115.7L1463.6,285.5z"
		/>
	<path id="XMLID_172_" class="st2" d="M1449,130.7c-3.8-74.7-39.5-89.9-63-86.2c-80.9,14.7-45.5,252.9-45.6,386.8l104.7-166.2
		C1445.1,264.6,1449,131.2,1449,130.7z"/>
	<line id="XMLID_171_" class="st3" x1="1361.2" y1="67.6" x2="1372" y2="361.4"/>
	<line id="XMLID_170_" class="st4" x1="1386.8" y1="48.2" x2="1394.8" y2="337.2"/>
	<line id="XMLID_169_" class="st4" x1="1408.7" y1="51.1" x2="1411.5" y2="314.9"/>
	<line id="XMLID_168_" class="st4" x1="1434.3" y1="75.1" x2="1432.3" y2="282.9"/>
</g>
<g>
	<path id="XMLID_31_" class="st0" d="M2000,261.5c0-122.4-36.1-221.6-80.6-221.6c-44.4,0-80.5,99-80.6,221.1l160,159.4
		C1998.9,419.9,2000,261.9,2000,261.5z"/>
	<path id="XMLID_30_" class="st1" d="M1863.6,286.3c0,0-15.8-224.7,64.5-244.9c0,0-48.1-22.3-78.9,107l-10.4,115.7L1863.6,286.3z"/>
	<path id="XMLID_28_" class="st2" d="M1849,131.5c-3.8-74.7-5.7-81.8-5.7-81.8h-7.8c0,0,2.9,258.8,2.8,378.2l6.6-1.3l0.2-160.7
		C1845.1,265.4,1849,132,1849,131.5z"/>
</g>
<g>
	<path id="XMLID_69_" class="st0" d="M2399.2,262.9c0-122.4-36.1-221.6-80.6-221.6c-44.4,0-80.5,99-80.6,221.1l160,159.4
		C2398.1,421.3,2399.2,263.3,2399.2,262.9z"/>
	<path id="XMLID_68_" class="st1" d="M2262.8,287.7c0,0-15.8-224.7,64.5-244.9c0,0-48.1-22.3-78.9,107L2238,265.5L2262.8,287.7z"/>
	<path id="XMLID_70_" class="st2" d="M2387.7,422.5l-151.4-158.1c0-0.5-0.2-68.9,11.1-131.9c29.9-96.7,72.1-93.3,79.4-90.2
		s21.9,4.9,42.2,46.7c25.8,57.5,36.4,129.6,28.3,332.4"/>
	<path id="XMLID_10_" class="st5" d="M2395.5,415.7l-7.2,0.5c0,0,10.9-190.4,0.5-241.6c-0.7-14.2-7.5-48.9-7.5-48.9
		c13.6,34.3,16.7,126.7,16.7,126.7S2397.9,332.8,2395.5,415.7z"/>
	<line id="XMLID_71_" class="st6" x1="2266" y1="87.3" x2="2253.5" y2="278.9"/>
	<line id="XMLID_72_" class="st6" x1="2287.2" y1="59" x2="2271.5" y2="296.2"/>
	<line id="XMLID_73_" class="st6" x1="2324.1" y1="42.5" x2="2303.7" y2="332.3"/>
	<line id="XMLID_74_" class="st6" x1="2351.6" y1="61.4" x2="2328.1" y2="355.9"/>
	<line id="XMLID_75_" class="st6" x1="2378.3" y1="126.5" x2="2358.7" y2="388.1"/>
</g>
<rect class="st7" width="400" height="431.3"/>
<rect x="400" class="st7" width="400" height="431.3"/>
<rect x="800" class="st7" width="400" height="431.3"/>
<rect x="1200" class="st7" width="400" height="431.3"/>
<rect x="1600" class="st7" width="400" height="431.3"/>
<rect x="2000" class="st7" width="400" height="431.3"/>
</svg>
