<?xml version="1.0" encoding="utf-8"?>
<!-- Generator: Adobe Illustrator 19.0.0, SVG Export Plug-In . SVG Version: 6.00 Build 0)  -->
<svg version="1.1" id="Layer_1" xmlns="http://www.w3.org/2000/svg" xmlns:xlink="http://www.w3.org/1999/xlink" x="0px" y="0px"
	 viewBox="0 0 325.5 456" style="enable-background:new 0 0 325.5 456;" xml:space="preserve">
<style type="text/css">
	.st0{fill:#BA6304;}
	.st1{fill:#C66E0E;}
	.st2{fill:#D67E09;}
	.st3{fill:#DD8112;}
	.st4{fill:#EEEEEE;}
	.st5{fill:#F4BD31;}
	.st6{fill:#111111;}
	.st7{fill:#EA8D1F;}
	.st8{fill:none;stroke:#F4BD31;stroke-miterlimit:10;}
	.st9{fill:#222222;}
</style>
<path id="XMLID_6_" class="st0" d="M244.9,101.1c0,2.2,0,265.3,0,265.3l-27.4,0.7c-4.5,14.7-19.6,24.5-37.3,22.6
	c-15.3-1.7-27-11.7-30.8-24.3c-1.1-1.9-1.7-3.7-1.9-5.5l-29.5-7.3l25.9-268.9C143.9,83.5,244.9,98.9,244.9,101.1z"/>
<path id="XMLID_5_" class="st1" d="M191.6,78.5c7.6,0.7,11-10.6,20.3-10.5c3.8,0.1,6.9,1.5,11.7,6.2c15.6,15.6,24.8,21.3,24.8,21.3
	l-4.3-5.7c0,0-5.7-3.5,1.4-5.7c7.1-2.1,9.9-3.5,11.3,0.7c1.4,4.3,5,6.4,0,13.5c-5,7.1-12.8,6.4-12.8,6.4s-40.4-11.3-52.5-8.5
	c0,0-33.3-9.2-41.8-7.8c-8.5,1.4-12.8-0.7-12.8-0.7s-4.3-4.3-4.3-10.6c0-6.4,1.4-9.2,6.4-9.9c5-0.7,9.2-2.8,9.2,1.4
	s-2.1,12.1-5.7,12.1c-0.5,0-0.8,0-0.8,0c0,0.4,7.1-2.9,13.6-5.7c15.2-6.5,15.8-10,20.6-9.2C184.1,67.1,184.3,77.8,191.6,78.5z"/>
<path id="XMLID_14_" class="st2" d="M236.9,110.4c0,2.1,0,256.8,0,256.8l-27.5,0.7c-4.3,14.2-19.4,23.7-36.5,21.8
	c-14.8-1.6-26.4-11.3-30-23.5c-1.1-1.8-1.7-3.6-2-5.3l-28.6-7.1l26-260.3C138.3,93.4,236.9,108.3,236.9,110.4z"/>
<path id="XMLID_17_" class="st3" d="M185.9,84.2c7.6,0.7,11-10.6,20.3-10.5c3.8,0.1,6.9,1.5,11.7,6.2c15.6,15.6,24.8,21.3,24.8,21.3
	l-4.3-5.7c0,0-5.7-3.5,1.4-5.7c7.1-2.1,9.9-3.5,11.3,0.7c1.4,4.3,5,6.4,0,13.5c-5,7.1-12.8,6.4-12.8,6.4s-40.4-11.3-52.5-8.5
	c0,0-33.3-9.2-41.8-7.8c-8.5,1.4-12.8-0.7-12.8-0.7s-4.3-4.3-4.3-10.6s1.4-9.2,6.4-9.9c5-0.7,9.2-2.8,9.2,1.4
	c0,4.3-2.1,12.1-5.7,12.1c-0.5,0-0.8,0-0.8,0c0,0.4,7.1-2.9,13.6-5.7c15.2-6.5,15.8-10,20.6-9.2C178.4,72.7,178.6,83.5,185.9,84.2z"
	/>
<path id="XMLID_2_" class="st4" d="M213,168.5l1.8-14.1c1.2-9.3-4-17.6-11.4-18.6c-7.4-0.9-14.4,5.9-15.6,15.2l-1.8,14.1
	c-0.2,1.6-0.2,3.1-0.1,4.6l26,3.2C212.4,171.5,212.8,170.1,213,168.5z"/>
<path id="XMLID_3_" class="st4" d="M177.8,162.6l-0.8-14.2c-0.5-9.3-7-16.7-14.5-16.3c-7.5,0.4-13.1,8.4-12.6,17.7l0.8,14.2
	c0.1,1.6,0.4,3.1,0.8,4.5l26.1-1.4C177.8,165.7,177.9,164.2,177.8,162.6z"/>
<path id="XMLID_9_" class="st5" d="M176.6,201.9c0,29.4-25.2,53.2-56.3,53.2c-7.1,0-14-1.3-20.3-3.6c-11.7-9.4-19.1-23.9-19.1-40
	c0-28.4,23-51.4,51.4-51.4c14.4,0,27.5,5.9,36.8,15.5C173.9,183.3,176.6,192.3,176.6,201.9z"/>
<path id="XMLID_18_" class="st4" d="M95.8,193.4c0,0,3.5-6.4,9.2-7.8c5.7-1.4,9.2-2.1,11.3-4.3c2.1-2.1,1.4-7.1,1.4-7.1
	S100.1,172.1,95.8,193.4z"/>
<ellipse id="XMLID_23_" class="st6" cx="165.3" cy="148.7" rx="3.5" ry="6.4"/>
<ellipse id="XMLID_24_" class="st6" cx="198.7" cy="154.4" rx="3.5" ry="6.4"/>
<path id="XMLID_25_" class="st0" d="M172.4,182c-1-2,9.2,0,9.2,0s19.9,21.3,5,31.9c-14.9,10.6-15.6,8.5-14.9,5.7
	S181.6,200.5,172.4,182z"/>
<path id="XMLID_27_" class="st7" d="M180.9,180.6c5.7,0,46.8,19.2,47.5,39s-27,55.3-27,55.3s-17.7,7.8-30.5,5
	c-12.8-2.8-25.5-7.8-30.5-6.4c-5,1.4-5,1.4-5,1.4s30.5-31.2,31.2-40.4c0.7-9.2,5-14.9,5-14.9l5,1.4c0,0,9.9-1.4,12.8-9.9
	c2.8-8.5,5-12.8,0.7-18.4C185.9,187,180.9,180.6,180.9,180.6z"/>
<path id="XMLID_26_" class="st7" d="M132,285.6c0,0,9.9,11.3,13.5,17.7s-0.7,14.9,7.1,25.5c7.8,10.6,14.9,22,24.8,19.9
	c9.9-2.1,17.7-5.7,22-14.9s20.6-49.7,23.4-61.7c2.8-12.1,2.1-36.9,2.1-36.9L201.5,275c0,0-14.9,5.7-20.6,5.7s-11.3,2.1-11.3,2.1
	S159,293.4,132,285.6z"/>
<ellipse id="XMLID_28_" class="st8" cx="134.5" cy="324.6" rx="7.4" ry="9.2"/>
<ellipse id="XMLID_29_" class="st8" cx="223.9" cy="330.6" rx="7.4" ry="9.6"/>
<path id="XMLID_8_" class="st6" d="M180.7,110.3c-15.4-6.5-33.9,2.2-41.2,19.5c-0.2,0.4-0.3,0.8-0.5,1.2c7.2-14,22.8-20.8,36-15.2
	c5.8,2.5,10.2,7,12.9,12.5l7.1-4.4C192,117.9,187.1,113,180.7,110.3z"/>
<path id="XMLID_1_" class="st6" d="M202.7,112.2c16.7-1.8,31.9,11.9,33.9,30.6c0,0.4,0.1,0.9,0.1,1.3c-2.9-15.5-15.9-26.5-30.1-24.9
	c-6.3,0.7-11.8,3.7-15.9,8.2l-5.6-6.2C189.7,116.3,195.8,113,202.7,112.2z"/>
<path id="XMLID_4_" class="st9" d="M237,110.4c-0.2-2.9,0,256.8,0,256.8S241.2,184.2,237,110.4z"/>
<path id="XMLID_7_" class="st6" d="M141.5,94.8c0,0,29.8,2.8,32.6,4.7S173.1,93.4,141.5,94.8z"/>
<path id="XMLID_12_" class="st6" d="M190.6,102.4c0,0,29.8,1.9,39.2,6.6C229.9,109,212.9,100.5,190.6,102.4z"/>
<path id="XMLID_10_" class="st1" d="M128.2,75.4l7.1-7.1l10.9-1.9l-4.7,5.2C141.5,71.6,136.3,70.2,128.2,75.4z"/>
<polygon id="XMLID_13_" class="st1" points="241.2,86.3 236.5,91 244.5,88.2 245.5,84.2 "/>
<path id="XMLID_19_" class="st6" d="M171,279.9c-12.9-6.2-35.5-5-35.5-5C137.2,275.9,177.4,283,171,279.9z"/>
<path id="XMLID_15_" class="st6" d="M171,279.9c0,0,11.1,0.2,14.9-1.7c3.8-1.9,3.8-1.9,3.8-1.9s-10.4,4.3-28.4,0.5
	C143.3,273.1,171,279.9,171,279.9z"/>
<path id="XMLID_22_" class="st6" d="M138.6,287.3l9-9.9l25.1,3.3C172.7,280.6,164.2,291.5,138.6,287.3z"/>
<path id="XMLID_11_" class="st3" d="M178.1,205.8c0,28.4-23,51.5-51.5,51.5c-12.3,0-23.5-4.3-32.3-11.4c6.3,2.3,13.2,3.6,20.3,3.6
	c31.1,0,56.3-23.8,56.3-53.2c0-9.6-2.7-18.6-7.4-26.4C172.5,179.1,178.1,191.8,178.1,205.8z"/>
</svg>
