<svg id="Layer_1" data-name="Layer 1" xmlns="http://www.w3.org/2000/svg" viewBox="0 0 550 150.59"><defs><style>.cls-1,.cls-10{fill:none;}.cls-2{fill:#ba6304;}.cls-3{fill:#c66e0e;}.cls-4{fill:#d67e09;}.cls-5{fill:#dd8112;}.cls-6{fill:#eee;}.cls-7{fill:#f4bd31;}.cls-8{fill:#111;}.cls-9{fill:#ea8d1f;}.cls-10{stroke:#f4bd31;}.cls-10,.cls-12{stroke-miterlimit:10;}.cls-11{fill:#222;}.cls-12{fill:#fff;stroke:#000405;}.cls-13{fill:#ef7f00;}.cls-14{fill:#000405;}</style></defs><title>handle_spriteSheet</title><rect class="cls-1" y="0.59" width="110" height="150"/><rect class="cls-1" x="110" y="0.59" width="110" height="150"/><rect class="cls-1" x="220" y="0.59" width="110" height="150"/><rect class="cls-1" x="330" y="0.59" width="110" height="150"/><rect class="cls-1" x="440" y="0.59" width="110" height="150"/><path id="_Path_" data-name="&lt;Path&gt;" class="cls-2" d="M102.11,16.83V139.21l-12.64.32c-2.08,6.78-9,11.3-17.2,10.42a16.42,16.42,0,0,1-14.21-11.21,6.42,6.42,0,0,1-.88-2.54l-13.61-3.37,11.95-124C55.52,8.72,102.11,15.82,102.11,16.83Z" transform="translate(1 -0.41)"/><path id="_Path_2" data-name="&lt;Path&gt;" class="cls-3" d="M77.52,6.41c3.51.32,5.07-4.89,9.36-4.84,1.75,0,3.18.69,5.4,2.86,7.2,7.2,11.44,9.82,11.44,9.82l-2-2.63S99.11,10,102.38,9s4.57-1.61,5.21.32,2.31,3,0,6.23a6.91,6.91,0,0,1-5.9,3s-18.63-5.21-24.22-3.92c0,0-15.36-4.24-19.28-3.6s-5.9-.32-5.9-.32a7.52,7.52,0,0,1-2-4.89c0-3,.65-4.24,3-4.57s4.24-1.29,4.24.65-1,5.58-2.63,5.58H54.5c0,.18,3.27-1.34,6.27-2.63,7-3,7.29-4.61,9.5-4.24C74.06,1.15,74.15,6.09,77.52,6.41Z" transform="translate(1 -0.41)"/><path id="_Path_3" data-name="&lt;Path&gt;" class="cls-4" d="M98.42,21.12V139.58l-12.68.32c-2,6.55-8.95,10.93-16.84,10.06-6.83-.74-12.18-5.21-13.84-10.84a7,7,0,0,1-.92-2.44l-13.19-3.27,12-120.07S98.42,20.16,98.42,21.12Z" transform="translate(1 -0.41)"/><path id="_Path_4" data-name="&lt;Path&gt;" class="cls-5" d="M74.89,9C78.4,9.36,80,4.15,84.26,4.2c1.75,0,3.18.69,5.4,2.86,7.2,7.2,11.44,9.82,11.44,9.82l-2-2.63s-2.63-1.61.65-2.63,4.57-1.61,5.21.32,2.31,3,0,6.23a6.91,6.91,0,0,1-5.9,3S80.43,15.91,74.85,17.2c0,0-15.36-4.24-19.28-3.6s-5.9-.32-5.9-.32a7.52,7.52,0,0,1-2-4.89c0-2.91.65-4.24,3-4.57s4.24-1.29,4.24.65-1,5.58-2.63,5.58h-.37c0,.18,3.27-1.34,6.27-2.63,7-3,7.29-4.61,9.5-4.24C71.43,3.73,71.53,8.72,74.89,9Z" transform="translate(1 -0.41)"/><path id="_Path_5" data-name="&lt;Path&gt;" class="cls-6" d="M87.39,47.92l.83-6.5c.55-4.29-1.85-8.12-5.26-8.58s-6.64,2.72-7.2,7l-.83,6.5a11,11,0,0,0,0,2.12l12,1.48A9.34,9.34,0,0,0,87.39,47.92Z" transform="translate(1 -0.41)"/><path id="_Path_6" data-name="&lt;Path&gt;" class="cls-6" d="M71.16,45.2l-.37-6.55c-.23-4.29-3.23-7.7-6.69-7.52s-6,3.87-5.81,8.16l.37,6.55A9.74,9.74,0,0,0,59,47.92l12-.65A10.13,10.13,0,0,0,71.16,45.2Z" transform="translate(1 -0.41)"/><path id="_Path_7" data-name="&lt;Path&gt;" class="cls-7" d="M70.6,63.33c0,13.56-11.62,24.54-26,24.54a27.38,27.38,0,0,1-9.36-1.66,23.71,23.71,0,1,1,31.87-35A22.83,22.83,0,0,1,70.6,63.33Z" transform="translate(1 -0.41)"/><path id="_Path_8" data-name="&lt;Path&gt;" class="cls-6" d="M33.33,59.41s1.61-3,4.24-3.6,4.24-1,5.21-2,.65-3.27.65-3.27S35.32,49.58,33.33,59.41Z" transform="translate(1 -0.41)"/><ellipse id="_Path_9" data-name="&lt;Path&gt;" class="cls-8" cx="66.39" cy="38.38" rx="1.61" ry="2.95"/><ellipse id="_Path_10" data-name="&lt;Path&gt;" class="cls-8" cx="81.8" cy="41" rx="1.61" ry="2.95"/><path id="_Path_11" data-name="&lt;Path&gt;" class="cls-2" d="M68.67,54.15c-.46-.92,4.24,0,4.24,0S82.09,64,75.22,68.86s-7.2,3.92-6.87,2.63S72.91,62.68,68.67,54.15Z" transform="translate(1 -0.41)"/><path id="_Path_12" data-name="&lt;Path&gt;" class="cls-9" d="M72.59,53.5c2.63,0,21.59,8.86,21.91,18S82,97,82,97,73.88,100.6,68,99.31s-11.76-3.6-14.07-3L51.6,97S65.67,82.61,66,78.37a14,14,0,0,1,2.31-6.87l2.31.65s4.57-.65,5.9-4.57,2.31-5.9.32-8.49S72.59,53.5,72.59,53.5Z" transform="translate(1 -0.41)"/><path id="_Path_13" data-name="&lt;Path&gt;" class="cls-9" d="M50,101.94a70.39,70.39,0,0,1,6.23,8.16c1.66,3-.32,6.87,3.27,11.76S66.41,132,71,131s8.16-2.63,10.15-6.87,9.5-22.92,10.79-28.46,1-17,1-17L82.09,97s-6.87,2.63-9.5,2.63a17,17,0,0,0-5.21,1S62.48,105.53,50,101.94Z" transform="translate(1 -0.41)"/><ellipse id="_Path_14" data-name="&lt;Path&gt;" class="cls-10" cx="52.18" cy="119.51" rx="3.41" ry="4.24"/><ellipse id="_Path_15" data-name="&lt;Path&gt;" class="cls-10" cx="93.42" cy="122.28" rx="3.41" ry="4.43"/><path id="_Path_16" data-name="&lt;Path&gt;" class="cls-8" d="M72.49,21.08c-7.1-3-15.64,1-19,9-.09.18-.14.37-.23.55,3.32-6.46,10.52-9.59,16.61-7a11.88,11.88,0,0,1,6,5.77l3.27-2A13.06,13.06,0,0,0,72.49,21.08Z" transform="translate(1 -0.41)"/><path id="_Path_17" data-name="&lt;Path&gt;" class="cls-8" d="M82.64,22c7.7-.83,14.71,5.49,15.64,14.11,0,.18,0,.42,0,.6C97,29.52,91,24.45,84.44,25.18A11.6,11.6,0,0,0,77.11,29l-2.58-2.86A13.2,13.2,0,0,1,82.64,22Z" transform="translate(1 -0.41)"/><path id="_Path_18" data-name="&lt;Path&gt;" class="cls-11" d="M98.46,21.12c-.09-1.34,0,118.45,0,118.45S100.4,55.17,98.46,21.12Z" transform="translate(1 -0.41)"/><path id="_Path_19" data-name="&lt;Path&gt;" class="cls-8" d="M54.41,13.93s13.75,1.29,15,2.17S69,13.28,54.41,13.93Z" transform="translate(1 -0.41)"/><path id="_Path_20" data-name="&lt;Path&gt;" class="cls-8" d="M77.06,17.43s13.75.88,18.08,3A36.79,36.79,0,0,0,77.06,17.43Z" transform="translate(1 -0.41)"/><path id="_Path_21" data-name="&lt;Path&gt;" class="cls-3" d="M48.28,5l3.27-3.27,5-.88-2.17,2.4S52,2.58,48.28,5Z" transform="translate(1 -0.41)"/><polygon id="_Path_22" data-name="&lt;Path&gt;" class="cls-3" points="101.4 9.59 99.23 11.76 102.92 10.47 103.38 8.62 101.4 9.59"/><path id="_Path_23" data-name="&lt;Path&gt;" class="cls-8" d="M68,99.31C62.07,96.45,51.65,97,51.65,97,52.43,97.46,71,100.74,68,99.31Z" transform="translate(1 -0.41)"/><path id="_Path_24" data-name="&lt;Path&gt;" class="cls-8" d="M68,99.31s5.12.09,6.87-.78l1.75-.88s-4.8,2-13.1.23S68,99.31,68,99.31Z" transform="translate(1 -0.41)"/><path id="_Path_25" data-name="&lt;Path&gt;" class="cls-8" d="M53.08,102.72l4.15-4.57L68.8,99.68S64.88,104.66,53.08,102.72Z" transform="translate(1 -0.41)"/><path id="_Path_26" data-name="&lt;Path&gt;" class="cls-5" d="M71.29,65.13a23.75,23.75,0,0,1-38.65,18.5A27.38,27.38,0,0,0,42,85.29c14.35,0,26-11,26-24.54a23.49,23.49,0,0,0-3.41-12.18A23.63,23.63,0,0,1,71.29,65.13Z" transform="translate(1 -0.41)"/><g id="_Group_" data-name="&lt;Group&gt;"><path id="_Path_27" data-name="&lt;Path&gt;" class="cls-2" d="M322.91,19.43c0,1-.32,120.08-.32,120.08l-12.67.32c-2,6.57-9,10.93-16.85,10.06-6.84-.78-12.17-5.23-13.82-10.84a6.82,6.82,0,0,1-.92-2.48l-13.18-3.26,12-119.9S322.91,18.46,322.91,19.43Z" transform="translate(1 -0.41)"/><path id="_Path_28" data-name="&lt;Path&gt;" class="cls-4" d="M319,21.22V139.51l-12.81.32c-2,6.57-9,10.93-16.9,10.06-6.84-.78-12.17-5.23-13.87-10.84a6.08,6.08,0,0,1-.92-2.48l-13.18-3.26,12.12-119.9S319,20.25,319,21.22Z" transform="translate(1 -0.41)"/><path id="_Path_29" data-name="&lt;Path&gt;" class="cls-6" d="M307.58,49.32l.83-6.47c.55-4.27-1.84-8.13-5.23-8.54s-6.66,2.71-7.16,7l-.83,6.47a10.91,10.91,0,0,0,0,2.11l11.94,1.47A8.49,8.49,0,0,0,307.58,49.32Z" transform="translate(1 -0.41)"/><path id="_Path_30" data-name="&lt;Path&gt;" class="cls-6" d="M291.41,46.61,291,40.09c-.23-4.32-3.26-7.67-6.66-7.49s-6.06,3.86-5.83,8.17l.37,6.52a9.7,9.7,0,0,0,.37,2.07l12-.64A10.85,10.85,0,0,0,291.41,46.61Z" transform="translate(1 -0.41)"/><ellipse id="_Path_31" data-name="&lt;Path&gt;" class="cls-8" cx="287.96" cy="39.77" rx="1.65" ry="2.94"/><ellipse id="_Path_32" data-name="&lt;Path&gt;" class="cls-8" cx="300.72" cy="42.39" rx="1.65" ry="2.94"/><path id="_Path_33" data-name="&lt;Path&gt;" class="cls-3" d="M288.93,54.24c-.46-.92,4.22,0,4.22,0s9.14,9.78,2.3,14.69-7.21,3.9-6.84,2.62S293.16,62.73,288.93,54.24Z" transform="translate(1 -0.41)"/><path id="_Path_34" data-name="&lt;Path&gt;" class="cls-9" d="M292.84,53.59c2.62,0,19,13.09,19.29,22.23S302.34,97,302.34,97s-8.17,3.58-14.05,2.3-11.39-3.77-13.73-4.22c-3.26-.64-1.65,0-1.65,0S286,82.71,286.32,78.44a13.94,13.94,0,0,1,2.3-6.84l2.3.64s4.59-.64,5.88-4.59,2.3-5.88.32-8.5S292.84,53.59,292.84,53.59Z" transform="translate(1 -0.41)"/><path id="_Path_35" data-name="&lt;Path&gt;" class="cls-9" d="M271.62,97.68s3.26,9.46,4.91,12.4.64,5.88,4.22,10.79,5.56,8.82,10.15,7.85,7.21-2.62,9.14-6.84,10.79-20.57,12.08-26.13-.64-18-.64-18l-10.15,17s-5.88,4.91-8.5,4.91a17.41,17.41,0,0,0-5.23,1S284,101.3,271.62,97.68Z" transform="translate(1 -0.41)"/><path id="_Path_36" data-name="&lt;Path&gt;" class="cls-8" d="M291.83,20.71c-7.44-1.88-15.34,2.85-17.63,10.52l-.14.55c2.43-6.29,9.14-10,15.48-8.4a11.62,11.62,0,0,1,6.66,4.5l3-2.25A13.15,13.15,0,0,0,291.83,20.71Z" transform="translate(1 -0.41)"/><path id="_Path_37" data-name="&lt;Path&gt;" class="cls-8" d="M302.89,22.92A14.11,14.11,0,0,1,316,38.07a2.24,2.24,0,0,1,0,.55,12.63,12.63,0,0,0-11.76-12.54,12.32,12.32,0,0,0-7.85,2.34l-2.07-3A14,14,0,0,1,302.89,22.92Z" transform="translate(1 -0.41)"/><path id="_Path_38" data-name="&lt;Path&gt;" class="cls-3" d="M297.75,6.52c3.49.32,5.05-4.87,9.32-4.82,1.74,0,3.17.69,5.37,2.85,7.21,7.21,11.43,9.78,11.43,9.78l-2-2.62s-2.62-1.65.64-2.62,4.59-1.65,5.23.32,2.3,2.94,0,6.2a6.88,6.88,0,0,1-5.88,2.94s-18.64-5.23-24.2-3.9c0,0-15.34-4.22-19.29-3.58s-5.88-.32-5.88-.32a7.53,7.53,0,0,1-2-4.91c0-2.94.64-4.22,2.94-4.59s4.22-1.29,4.22.64-1,5.56-2.62,5.56h-.37c0,.18,3.26-1.33,6.25-2.62,7-3,7.3-4.59,9.46-4.22C294.31,1.29,294.4,6.2,297.75,6.52Z" transform="translate(1 -0.41)"/><path id="_Path_39" data-name="&lt;Path&gt;" class="cls-5" d="M295.13,9.14c3.49.32,5.05-4.87,9.32-4.82,1.74,0,3.17.69,5.37,2.85,7.21,7.21,11.43,9.78,11.43,9.78l-2-2.62s-2.62-1.65.64-2.62,4.59-1.65,5.23.32,2.3,2.94,0,6.2a6.88,6.88,0,0,1-5.88,2.94s-18.64-5.23-24.2-3.9c0,0-15.34-4.22-19.29-3.58s-5.88-.32-5.88-.32a7.53,7.53,0,0,1-2-4.91c0-2.94.64-4.22,2.94-4.59s4.22-1.29,4.22.64-1,5.56-2.62,5.56h-.37c0,.18,3.26-1.33,6.25-2.62,7-3,7.3-4.59,9.46-4.22C291.69,3.91,291.78,8.82,295.13,9.14Z" transform="translate(1 -0.41)"/><g id="_Group_2" data-name="&lt;Group&gt;"><path id="_Path_40" data-name="&lt;Path&gt;" class="cls-7" d="M286.91,59.47c0,13.55-11.62,24.48-25.9,24.48a27.33,27.33,0,0,1-9.37-1.65,23.71,23.71,0,0,1,14.88-42.16,23.35,23.35,0,0,1,16.94,7.16A23.16,23.16,0,0,1,286.91,59.47Z" transform="translate(1 -0.41)"/><path id="_Path_41" data-name="&lt;Path&gt;" class="cls-6" d="M251,53s1.65-2.94,4.22-3.58,4.22-1,5.23-2,.64-3.26.64-3.26S253,43.12,251,53Z" transform="translate(1 -0.41)"/><path id="_Path_42" data-name="&lt;Path&gt;" class="cls-5" d="M290.22,63.88a23.69,23.69,0,0,1-23.7,23.7,23.42,23.42,0,0,1-14.88-5.28A27.33,27.33,0,0,0,261,83.95c14.33,0,25.9-11,25.9-24.48a23.39,23.39,0,0,0-3.4-12.12A23.64,23.64,0,0,1,290.22,63.88Z" transform="translate(1 -0.41)"/></g><ellipse id="_Path_43" data-name="&lt;Path&gt;" class="cls-10" cx="271.15" cy="120.82" rx="3.44" ry="4.22"/><ellipse id="_Path_44" data-name="&lt;Path&gt;" class="cls-10" cx="313.63" cy="123.57" rx="3.44" ry="4.41"/><path id="_Path_45" data-name="&lt;Path&gt;" class="cls-8" d="M273.41,14.05s16.67,1.47,17.31,2.43S287,13.23,273.41,14.05Z" transform="translate(1 -0.41)"/><path id="_Path_46" data-name="&lt;Path&gt;" class="cls-8" d="M296.74,17.64c-1.15,0,17.31,1.79,18.64,2.76S308.54,17.64,296.74,17.64Z" transform="translate(1 -0.41)"/><path id="_Path_47" data-name="&lt;Path&gt;" class="cls-8" d="M274.24,98.55l3-2.62,11,3.4S292.29,102.5,274.24,98.55Z" transform="translate(1 -0.41)"/></g><g id="_Group_3" data-name="&lt;Group&gt;"><path id="_Path_48" data-name="&lt;Path&gt;" class="cls-2" d="M212.43,21.1V139.5l-12.78.32c-2.07,6.57-9.1,10.94-17.24,10.07-7-.78-12.46-5.24-14.2-10.85a6.83,6.83,0,0,1-.92-2.48l-13.6-3.26,12-120S212.43,20.14,212.43,21.1Z" transform="translate(1 -0.41)"/><path id="_Path_49" data-name="&lt;Path&gt;" class="cls-12" d="M163.11,95S169,96.3,169,98.6s-6.85,11.12-6.2,16.36l10.48,1.65,11.12-15.35L171,93.08Z" transform="translate(1 -0.41)"/><path id="_Path_50" data-name="&lt;Path&gt;" class="cls-4" d="M208.75,21.1V139.5l-12.78.32c-2,6.57-9,10.94-16.91,10.07-6.85-.78-12.18-5.24-13.83-10.85a6.08,6.08,0,0,1-.92-2.48l-13.19-3.26,12.09-120S208.75,20.14,208.75,21.1Z" transform="translate(1 -0.41)"/><path id="_Path_51" data-name="&lt;Path&gt;" class="cls-9" d="M162.79,115s3.26,10.8,4.6,13.42,8.82,6.53,11.44,5.24,6.2-.64,11.44-10.48,13.1-23.53,14.06-31.07,1-6.2,1-6.2l-20.91,15.4s-8.18,14.06-9.15,14.39S174.88,118.27,162.79,115Z" transform="translate(1 -0.41)"/><path id="_Path_52" data-name="&lt;Path&gt;" class="cls-9" d="M178.83,71.48,161.82,95s9.47-2.94,22.57,6.2c0,0,4.6,2.3,8.18.64s11.44-12.73,12.73-16-.64-20.91-14.06-30.43l-7.86-1.29Z" transform="translate(1 -0.41)"/><path id="_Path_53" data-name="&lt;Path&gt;" class="cls-8" d="M172.26,96.67l.64,2.62L169,113.67l6.2,2,9.15-14.39S173.59,94,172.26,96.67Z" transform="translate(1 -0.41)"/><path id="_Path_54" data-name="&lt;Path&gt;" class="cls-6" d="M199.83,49.28,191,52.17a2.51,2.51,0,0,1-3.17-1.61l-2.07-6.25a9.19,9.19,0,0,1,5.88-11.58h0A5.25,5.25,0,0,1,198.18,36l3.26,10.07A2.47,2.47,0,0,1,199.83,49.28Z" transform="translate(1 -0.41)"/><path id="_Path_55" data-name="&lt;Path&gt;" class="cls-6" d="M176.95,50.15l-9-2.48a2.55,2.55,0,0,1-1.75-3.13l1.75-6.34a9.17,9.17,0,0,1,11.31-6.39h0a5.24,5.24,0,0,1,3.63,6.39L180,48.41A2.5,2.5,0,0,1,176.95,50.15Z" transform="translate(1 -0.41)"/><path id="_Path_56" data-name="&lt;Path&gt;" class="cls-3" d="M187.66,6.4c3.49.32,5.06-4.87,9.33-4.83,1.75,0,3.17.69,5.38,2.85,7.22,7.22,11.44,9.79,11.44,9.79l-2-2.62s-2.62-1.65.64-2.62,4.6-1.65,5.24.32,2.3,2.94,0,6.2a6.88,6.88,0,0,1-5.88,2.94s-18.66-5.24-24.22-3.91c0,0-15.35-4.23-19.3-3.59s-5.88-.32-5.88-.32a7.54,7.54,0,0,1-2-4.92c0-2.94.64-4.23,2.94-4.6s4.23-1.29,4.23.64-1,5.56-2.62,5.56h-.37c0,.18,3.26-1.33,6.25-2.62,7-3,7.31-4.6,9.47-4.23C184.21,1.16,184.3,6.07,187.66,6.4Z" transform="translate(1 -0.41)"/><path id="_Path_57" data-name="&lt;Path&gt;" class="cls-5" d="M185,9c3.49.32,5.06-4.87,9.33-4.83,1.75,0,3.17.69,5.38,2.85,7.22,7.22,11.44,9.79,11.44,9.79l-2-2.62s-2.62-1.65.64-2.62,4.6-1.65,5.24.32,2.3,2.94,0,6.2a6.88,6.88,0,0,1-5.88,2.94S190.55,15.82,185,17.15c0,0-15.35-4.23-19.3-3.59s-5.88-.32-5.88-.32a7.54,7.54,0,0,1-2-4.92c0-2.94.64-4.23,2.94-4.6S165,2.44,165,4.37s-1,5.56-2.62,5.56H162c0,.18,3.26-1.33,6.25-2.62,7-3,7.31-4.6,9.47-4.23C181.59,3.78,181.68,8.69,185,9Z" transform="translate(1 -0.41)"/><g id="_Group_4" data-name="&lt;Group&gt;"><path id="_Path_58" data-name="&lt;Path&gt;" class="cls-5" d="M180.12,61.18A23.72,23.72,0,0,1,156.4,84.9a23.44,23.44,0,0,1-14.89-5.29,27.35,27.35,0,0,0,9.38,1.65c14.34,0,25.92-11,25.92-24.5a23.41,23.41,0,0,0-3.4-12.13A23.66,23.66,0,0,1,180.12,61.18Z" transform="translate(1 -0.41)"/><path id="_Path_59" data-name="&lt;Path&gt;" class="cls-7" d="M176.81,56.77c0,13.56-11.63,24.5-25.92,24.5a27.35,27.35,0,0,1-9.38-1.65A23.73,23.73,0,0,1,156.4,37.42a23.37,23.37,0,0,1,17,7.17A23.3,23.3,0,0,1,176.81,56.77Z" transform="translate(1 -0.41)"/><path id="_Path_60" data-name="&lt;Path&gt;" class="cls-6" d="M139.81,51.9s1.38-3.08,4-3.91,4.14-1.33,5.06-2.39.37-3.31.37-3.31S141,42,139.81,51.9Z" transform="translate(1 -0.41)"/></g><ellipse id="_Path_61" data-name="&lt;Path&gt;" class="cls-8" cx="179.14" cy="38.38" rx="1.65" ry="2.94"/><ellipse id="_Path_62" data-name="&lt;Path&gt;" class="cls-8" cx="189.3" cy="39.67" rx="1.65" ry="2.94"/><path id="_Path_63" data-name="&lt;Path&gt;" class="cls-2" d="M178.83,54.15c-.46-.92,4.23,0,4.23,0s9.15,9.79,2.3,14.71-7.22,3.91-6.85,2.62S183.06,62.65,178.83,54.15Z" transform="translate(1 -0.41)"/><ellipse id="_Path_64" data-name="&lt;Path&gt;" class="cls-10" cx="162.32" cy="119.46" rx="3.45" ry="4.23"/><ellipse id="_Path_65" data-name="&lt;Path&gt;" class="cls-10" cx="203.55" cy="122.26" rx="3.45" ry="4.41"/><path id="_Path_66" data-name="&lt;Path&gt;" class="cls-8" d="M182.87,21.33c-7-3.36-15.67.28-19.44,8.09a2.81,2.81,0,0,0-.23.55c3.63-6.3,10.94-9.05,16.91-6.2a11.64,11.64,0,0,1,5.65,6L189.13,28A12.73,12.73,0,0,0,182.87,21.33Z" transform="translate(1 -0.41)"/><path id="_Path_67" data-name="&lt;Path&gt;" class="cls-8" d="M192.11,23c7.72-.23,14.2,6.62,14.43,15.31v.6c-.74-7.22-6.3-12.73-12.92-12.55A11.72,11.72,0,0,0,186,29.56l-2.34-3.08A13.08,13.08,0,0,1,192.11,23Z" transform="translate(1 -0.41)"/><path id="_Path_68" data-name="&lt;Path&gt;" class="cls-3" d="M160.49,95.7c-.92.37,8.82,0,8.5,2.94s-6.53,16.68-6.2,16.36,10.16,3.91,11.77,2.3S168,114,169,113.72s3.91-13.1,3.91-13.1l-.64-3.91,1-1.29S164.77,94,160.49,95.7Z" transform="translate(1 -0.41)"/><polygon id="_Path_69" data-name="&lt;Path&gt;" class="cls-3" points="159.56 4.19 162.96 1.11 167.56 0.1 165.58 2.9 159.56 4.19"/><path id="_Path_70" data-name="&lt;Path&gt;" class="cls-3" d="M212.52,9l-.18,1.79-3.91,1.47L211,9.84" transform="translate(1 -0.41)"/><path id="_Path_71" data-name="&lt;Path&gt;" class="cls-8" d="M164.9,14.26A35.92,35.92,0,0,1,179,15.91S168,12.14,164.9,14.26Z" transform="translate(1 -0.41)"/><path id="_Path_72" data-name="&lt;Path&gt;" class="cls-8" d="M187.79,17.38s9.65-.18,16.5,2.3C204.34,19.63,190.73,17.38,187.79,17.38Z" transform="translate(1 -0.41)"/></g><g id="_Group_5" data-name="&lt;Group&gt;"><path id="_Path_73" data-name="&lt;Path&gt;" class="cls-2" d="M431.92,20.73c0,1,1.29,117.3,1.29,117.3l-13,.46c-1.93,6.53-9,10.94-16.92,10.16-6.85-.69-12.32-5.06-14-10.62a6.28,6.28,0,0,1-1-2.44L375,132.51l11-119S431.92,19.76,431.92,20.73Z" transform="translate(1 -0.41)"/><path id="_Path_74" data-name="&lt;Path&gt;" class="cls-13" d="M428.79,22.34v117.3l-12.6.28c-2,6.48-8.92,10.85-16.74,10-6.76-.74-12-5.2-13.7-10.76a6.94,6.94,0,0,1-.92-2.44l-13.06-3.22,12-118.91S428.79,21.37,428.79,22.34Z" transform="translate(1 -0.41)"/><path id="_Path_75" data-name="&lt;Path&gt;" class="cls-6" d="M397.71,52.59,389.94,48a2.25,2.25,0,0,1-.78-3.08l5.47-9.29a4.63,4.63,0,0,1,6.3-1.61l3.72,2.16a4.63,4.63,0,0,1,1.61,6.3l-5.47,9.33A2.25,2.25,0,0,1,397.71,52.59Z" transform="translate(1 -0.41)"/><path id="_Path_76" data-name="&lt;Path&gt;" class="cls-6" d="M420.56,53.24l-7.86,2.12a2.28,2.28,0,0,1-2.76-1.56l-3-11a4.64,4.64,0,0,1,3.26-5.66l3.31-.87a4.64,4.64,0,0,1,5.66,3.26l3,11A2.26,2.26,0,0,1,420.56,53.24Z" transform="translate(1 -0.41)"/><path id="_Path_77" data-name="&lt;Path&gt;" class="cls-9" d="M407.32,60.27s18.35,35.64,16.74,44.05-10.16,22-17.66,23.63-16.09-9.06-16.09-9.06-10.71-12.64-3.77-28.83S398.3,67.4,398.3,67.4Z" transform="translate(1 -0.41)"/><ellipse id="_Path_78" data-name="&lt;Path&gt;" class="cls-8" cx="403.74" cy="41.14" rx="2.9" ry="1.61" transform="translate(191.72 386.15) rotate(-64.16)"/><ellipse id="_Path_79" data-name="&lt;Path&gt;" class="cls-8" cx="410.89" cy="42.02" rx="1.61" ry="2.9"/><path id="_Path_80" data-name="&lt;Path&gt;" class="cls-2" d="M399.22,55.08c-.46-.92,4.23,0,4.23,0s9.06,9.7,2.25,14.58-7.13,3.91-6.81,2.57S403.41,63.49,399.22,55.08Z" transform="translate(1 -0.41)"/><path id="_Path_81" data-name="&lt;Path&gt;" class="cls-8" d="M402.08,20.31c-7.4-2-15.22,3-17.47,11.36l-.14.55c2.39-6.76,9.06-10.81,15.36-9.06A11.57,11.57,0,0,1,406.4,28l2.94-2.39A12.59,12.59,0,0,0,402.08,20.31Z" transform="translate(1 -0.41)"/><path id="_Path_82" data-name="&lt;Path&gt;" class="cls-8" d="M413.06,22.7c7.63.41,13.47,7.72,13,16.32a2.62,2.62,0,0,1,0,.6c-.14-7.17-5.15-13.1-11.68-13.47a11.43,11.43,0,0,0-7.82,2.53l-2-3.22A12.56,12.56,0,0,1,413.06,22.7Z" transform="translate(1 -0.41)"/><g id="_Group_6" data-name="&lt;Group&gt;"><path id="_Path_83" data-name="&lt;Path&gt;" class="cls-3" d="M408,6.47c3.49.32,5-4.83,9.24-4.78,1.75,0,3.17.69,5.33,2.85,7.13,7.13,11.36,9.7,11.36,9.7L432,11.67s-2.57-1.61.64-2.57,4.55-1.61,5.2.32,2.25,2.9,0,6.16a6.82,6.82,0,0,1-5.84,2.9s-18.48-5.2-24-3.91c0,0-15.22-4.23-19.13-3.59s-5.84-.32-5.84-.32a7.43,7.43,0,0,1-1.93-4.87c0-2.94.64-4.23,2.9-4.55s4.23-1.29,4.23.64-1,5.52-2.57,5.52h-.37c0,.18,3.22-1.33,6.21-2.62,6.94-3,7.22-4.55,9.38-4.23C404.56,1.28,404.6,6.15,408,6.47Z" transform="translate(1 -0.41)"/><path id="_Path_84" data-name="&lt;Path&gt;" class="cls-5" d="M405.34,10.38c3.49.32,5-4.83,9.24-4.78,1.75,0,3.17.69,5.33,2.85,7.13,7.13,11.36,9.7,11.36,9.7l-1.93-2.57S426.77,14,430,13s4.55-1.61,5.2.32,2.25,2.9,0,6.16a6.68,6.68,0,0,1-5.84,2.9s-18.48-5.2-24-3.91c0,0-15.22-4.23-19.13-3.59s-5.84-.32-5.84-.32a7.43,7.43,0,0,1-1.93-4.87c0-2.94.64-4.23,2.9-4.55s4.23-1.29,4.23.64-1,5.52-2.57,5.52h-.37c0,.18,3.22-1.33,6.21-2.62,6.94-3,7.22-4.55,9.38-4.23C401.94,5.14,402,10.06,405.34,10.38Z" transform="translate(1 -0.41)"/></g><g id="_Group_7" data-name="&lt;Group&gt;"><path id="_Path_85" data-name="&lt;Path&gt;" class="cls-7" d="M398.49,59c0,13.43-11.5,24.28-25.7,24.28a27,27,0,0,1-9.29-1.66,23.51,23.51,0,1,1,31.59-34.72A22.83,22.83,0,0,1,398.49,59Z" transform="translate(1 -0.41)"/><path id="_Path_86" data-name="&lt;Path&gt;" class="cls-6" d="M360,57s5.52-5.84,8.09-6.48,3.22-2.57,4.23-3.59.64-3.22.64-3.22S361.93,47.3,360,57Z" transform="translate(1 -0.41)"/><path id="_Path_87" data-name="&lt;Path&gt;" class="cls-13" d="M401.8,63.35a23.47,23.47,0,0,1-38.26,18.25,27,27,0,0,0,9.29,1.66c14.21,0,25.7-10.85,25.7-24.28a23.09,23.09,0,0,0-3.4-12A23.38,23.38,0,0,1,401.8,63.35Z" transform="translate(1 -0.41)"/></g><ellipse id="_Path_88" data-name="&lt;Path&gt;" class="cls-10" cx="382.89" cy="119.77" rx="3.4" ry="4.23"/><ellipse id="_Path_89" data-name="&lt;Path&gt;" class="cls-10" cx="423.68" cy="123.82" rx="3.4" ry="4.37"/><path id="_Path_90" data-name="&lt;Path&gt;" class="cls-8" d="M389.25,104s0,1.61,4.83,2.25,7.49-2.9,10.16-.64a22.79,22.79,0,0,0,4.83,3.22s-8,2.57-8.55,4.23-6.44-1.29-9.66-1.61S396.74,111.13,389.25,104Z" transform="translate(1 -0.41)"/><path id="_Path_91" data-name="&lt;Path&gt;" class="cls-8" d="M385.29,15.39s9.06-.18,14.25,1.79C399.55,17.19,391.73,13.46,385.29,15.39Z" transform="translate(1 -0.41)"/><path id="_Path_92" data-name="&lt;Path&gt;" class="cls-8" d="M408.28,18.61s15.73.51,19.45,3.59A80.89,80.89,0,0,0,408.28,18.61Z" transform="translate(1 -0.41)"/><path id="_Path_93" data-name="&lt;Path&gt;" class="cls-14" d="M389.15,102.39s7.45-21.38,9.7-23Z" transform="translate(1 -0.41)"/></g><g id="_Group_8" data-name="&lt;Group&gt;"><path id="_Path_94" data-name="&lt;Path&gt;" class="cls-2" d="M541.56,20.62c0,1,1.29,118.57,1.29,118.57l-13.16.46c-1.93,6.58-9.11,11-17.17,10.26-7-.69-12.47-5.11-14.22-10.72a7.25,7.25,0,0,1-1-2.44l-13.44-3.13L495,13.26S541.56,19.61,541.56,20.62Z" transform="translate(1 -0.41)"/><path id="_Path_95" data-name="&lt;Path&gt;" class="cls-13" d="M537.51,22.09V139l-12.57.28c-2,6.49-8.88,10.82-16.66,9.94-6.77-.74-12-5.16-13.67-10.72a7,7,0,0,1-.92-2.44l-13-3.22L492.54,14.36S537.51,21.13,537.51,22.09Z" transform="translate(1 -0.41)"/><path id="_Path_96" data-name="&lt;Path&gt;" class="cls-9" d="M515.46,56S530,69.78,529,90.9s-4.14,33.32-4.14,33.32-.18,5.89-8,7.82-15.14-.28-19.06-2L499.44,113l.64-20.25s-9.39-8.84-4.28-11.37,9.67-5,9.67-5l2.12-6.72Z" transform="translate(1 -0.41)"/><path id="_Path_97" data-name="&lt;Path&gt;" d="M501.33,80.18s7.27,1.47,10.59,15a194.56,194.56,0,0,1,4.37,27.71l-12.66,4.19-.51-36.68S494.93,82.66,501.33,80.18Z" transform="translate(1 -0.41)"/><path id="_Path_98" data-name="&lt;Path&gt;" class="cls-2" d="M497.51,129.11s5.66-.55,8.15-2.21,4.92-4.56,6.72-4.42,4.42.28,4.42.28l-.18,1s-4.14-.55-5.89,1.06a31.7,31.7,0,0,1-6,3.59S502.21,130.4,497.51,129.11Z" transform="translate(1 -0.41)"/><path id="_Path_99" data-name="&lt;Path&gt;" class="cls-7" d="M504.6,52.56c0,13.81-11.83,24.95-26.42,24.95a28.19,28.19,0,0,1-9.53-1.66,24.15,24.15,0,0,1,15.19-42.94c6.77,0,12.61,3.36,17.31,7.27A23.74,23.74,0,0,1,504.6,52.56Z" transform="translate(1 -0.41)"/><path id="_Path_100" data-name="&lt;Path&gt;" class="cls-6" d="M465.06,50.22s5.48-5.8,8.05-6.44,3.22-2.58,4.19-3.54.64-3.22.64-3.22S467,40.5,465.06,50.22Z" transform="translate(1 -0.41)"/><path id="_Path_101" data-name="&lt;Path&gt;" class="cls-2" d="M506.76,51.92c-.37-1.1,6.58,2.53,6.58,2.53s10.72,14.45-1.66,14.91-12.52-.64-11.55-1.66S510.35,62.27,506.76,51.92Z" transform="translate(1 -0.41)"/><path id="_Path_102" data-name="&lt;Path&gt;" d="M512,23.34C506.12,19,495.62,19.05,493,26.6c0,.18-.09,0-.18.14a12.08,12.08,0,0,1,16.25-1.89,11.65,11.65,0,0,1,4.28,6.44l3.31-.92A12.9,12.9,0,0,0,512,23.34Z" transform="translate(1 -0.41)"/><path id="_Path_103" data-name="&lt;Path&gt;" d="M518.55,24.21c7-3,15.47,1,18.78,8.88.09.18.14.37.23.55-3.27-6.35-10.4-9.44-16.39-6.9-2.62,1.1-3,1.24-4.19,3.77l-3.45,1.06C514.86,28.81,515.65,25.45,518.55,24.21Z" transform="translate(1 -0.41)"/><g id="_Group_9" data-name="&lt;Group&gt;"><path id="_Path_104" data-name="&lt;Path&gt;" class="cls-3" d="M517.07,8.24c3.45.32,6-6.77,10.17-6.72,1.75,0,3.13.69,5.29,2.85,7.09,7.09,11.32,9.71,11.32,9.71l-1.93-2.58s-2.58-1.61.64-2.58,4.51-1.61,5.16.32,2.26,2.9,0,6.12a6.76,6.76,0,0,1-5.8,2.9S523.52,13.12,518,14.41c0,0-15.19-4.19-19.06-3.54s-5.8-.32-5.8-.32a7.4,7.4,0,0,1-1.93-4.83c0-2.9.64-4.19,2.9-4.51s4.19-1.29,4.19.64-1,5.48-2.58,5.48h-.37c0,.18,3.22-1.33,6.17-2.58,6.9-2.95,7.23-4.56,9.34-4.19C514.63,1.06,513.76,7.92,517.07,8.24Z" transform="translate(1 -0.41)"/><path id="_Path_105" data-name="&lt;Path&gt;" class="cls-5" d="M515.78,13.07c3.45.32,4.69-7.73,8.88-7.69,1.75,0,3.13.69,5.29,2.85C537,15.33,541.28,18,541.28,18l-1.93-2.58s-2.58-1.61.64-2.58,4.51-1.61,5.16.32,2.26,2.9,0,6.12a6.76,6.76,0,0,1-5.8,2.9S520.94,17,515.46,18.27c0,0-15.19-4.19-19.06-3.54s-5.8-.32-5.8-.32a7.4,7.4,0,0,1-1.93-4.83c0-2.9.64-4.19,2.9-4.51s4.19-1.29,4.19.64-1,5.48-2.58,5.48h-.37c0,.18,3.22-1.33,6.17-2.58,6.9-2.95,7.23-4.56,9.34-4.19C512.06,5,512.47,12.75,515.78,13.07Z" transform="translate(1 -0.41)"/></g><path id="_Path_106" data-name="&lt;Path&gt;" class="cls-5" d="M508,57a24.15,24.15,0,0,1-39.35,18.78,28.19,28.19,0,0,0,9.53,1.66c14.59,0,26.42-11.18,26.42-24.95a23.36,23.36,0,0,0-3.5-12.38A24.11,24.11,0,0,1,508,57Z" transform="translate(1 -0.41)"/><ellipse id="_Path_107" data-name="&lt;Path&gt;" class="cls-10" cx="490.46" cy="121.83" rx="3.41" ry="4.19"/><ellipse id="_Path_108" data-name="&lt;Path&gt;" class="cls-10" cx="532.43" cy="121.97" rx="3.41" ry="4.37"/><path id="_Path_109" data-name="&lt;Path&gt;" class="cls-2" d="M515.74,43.73s4.1-16.62,12-6.58c0,0,3,6.08-2.58,9.44S515.74,43.73,515.74,43.73Z" transform="translate(1 -0.41)"/><path id="_Path_110" data-name="&lt;Path&gt;" class="cls-2" d="M503.72,34.93s7.59-4.56,9.21,5.89c0,0-2.07,4.88-5.85,3.31S501.15,39.12,503.72,34.93Z" transform="translate(1 -0.41)"/><path id="_Path_111" data-name="&lt;Path&gt;" d="M504,36.55s3.64-1.24,6.44,3.91C510.49,40.46,509.43,37.79,504,36.55Z" transform="translate(1 -0.41)"/><path id="_Path_112" data-name="&lt;Path&gt;" d="M517.44,44.65s3.82-6.12,8.84-6.54C526.32,38.11,518.73,35.58,517.44,44.65Z" transform="translate(1 -0.41)"/><path id="_Path_113" data-name="&lt;Path&gt;" class="cls-14" d="M507.91,51.18s-1.29-5,5.62-2.81,7.09,5.39,7.09,5.39S511.37,44.74,507.91,51.18Z" transform="translate(1 -0.41)"/><path id="_Path_114" data-name="&lt;Path&gt;" class="cls-14" d="M511.6,47.73c-1.06.18,7.55-3,14.22,1.29C525.77,49,517.4,46.67,511.6,47.73Z" transform="translate(1 -0.41)"/><polygon id="_Path_115" data-name="&lt;Path&gt;" class="cls-3" points="490.41 5.34 493.4 1.01 497.96 0.37 496.21 4.05 490.41 5.34"/><polygon id="_Path_116" data-name="&lt;Path&gt;" class="cls-3" points="539.71 12.89 542.51 9.43 546.15 8.56 544.68 11.37 539.71 12.89"/><path id="_Path_117" data-name="&lt;Path&gt;" d="M494.8,15.23s14.22.87,15.7,1.93c0,0-13.12-3.68-16.57-1.52S494.8,15.23,494.8,15.23Z" transform="translate(1 -0.41)"/><path id="_Path_118" data-name="&lt;Path&gt;" d="M517.16,18.23s14.41.64,19.61,3.22C536.77,21.45,520.2,17.17,517.16,18.23Z" transform="translate(1 -0.41)"/></g></svg>