<?xml version="1.0" encoding="utf-8"?>
<!-- Generator: Adobe Illustrator 19.0.0, SVG Export Plug-In . SVG Version: 6.00 Build 0)  -->
<svg version="1.1" id="Layer_1" xmlns="http://www.w3.org/2000/svg" xmlns:xlink="http://www.w3.org/1999/xlink" x="0px" y="0px"
	 viewBox="0 0 325.5 456" style="enable-background:new 0 0 325.5 456;" xml:space="preserve">
<style type="text/css">
	.st0{fill:#BA6304;}
	.st1{fill:#EF7F00;}
	.st2{fill:#EEEEEE;}
	.st3{fill:#EA8D1F;}
	.st4{fill:#111111;}
	.st5{fill:#C66E0E;}
	.st6{fill:#DD8112;}
	.st7{fill:#F4BD31;}
	.st8{fill:none;stroke:#F4BD31;stroke-miterlimit:10;}
	.st9{fill:#000405;}
</style>
<g id="XMLID_103_">
	<path id="XMLID_101_" class="st0" d="M233.7,117.5c0,2.1,2.8,255.1,2.8,255.1l-28.3,1c-4.2,14.2-19.6,23.8-36.8,22.1
		c-14.9-1.5-26.8-11-30.5-23.1c-1.1-1.8-1.9-3.6-2.1-5.3l-28.9-6.7l24-258.9C133.8,101.7,233.7,115.4,233.7,117.5z"/>
	<path id="XMLID_100_" class="st1" d="M226.9,121c0,2.1,0,255.1,0,255.1l-27.4,0.6c-4.3,14.1-19.4,23.6-36.4,21.7
		c-14.7-1.6-26.2-11.3-29.8-23.4c-1.1-1.8-1.7-3.6-2-5.3l-28.4-7l26-258.6C128.8,104.1,226.9,118.9,226.9,121z"/>
	<path id="XMLID_99_" class="st2" d="M159.3,186.8l-16.9-10c-2.3-1.4-3.1-4.4-1.7-6.7l11.9-20.2c2.8-4.7,9-6.3,13.7-3.5l8.1,4.7
		c4.7,2.8,6.3,9,3.5,13.7L166,185.1C164.6,187.4,161.6,188.2,159.3,186.8z"/>
	<path id="XMLID_98_" class="st2" d="M209,188.2l-17.1,4.6c-2.6,0.7-5.3-0.9-6-3.4l-6.5-24c-1.4-5.3,1.7-10.8,7.1-12.3l7.2-1.9
		c5.3-1.4,10.8,1.7,12.3,7.1l6.5,24C213.1,184.9,211.6,187.5,209,188.2z"/>
	<path id="XMLID_97_" class="st3" d="M180.2,203.5c0,0,39.9,77.5,36.4,95.8c-3.5,18.3-22.1,47.9-38.4,51.4S143.2,331,143.2,331
		s-23.3-27.5-8.2-62.7s25.6-49.3,25.6-49.3L180.2,203.5z"/>
	
		<ellipse id="XMLID_96_" transform="matrix(0.9 0.4359 -0.4359 0.9 87.8232 -58.9707)" class="st4" cx="172.4" cy="161.9" rx="3.5" ry="6.3"/>
	<ellipse id="XMLID_95_" class="st4" cx="185.8" cy="164.7" rx="3.5" ry="6.3"/>
	<path id="XMLID_94_" class="st0" d="M162.6,192.2c-1-2,9.2,0,9.2,0s19.7,21.1,4.9,31.7c-14.8,10.6-15.5,8.5-14.8,5.6
		C162.6,226.7,171.7,210.5,162.6,192.2z"/>
	<path id="XMLID_93_" class="st4" d="M168.8,116.6c-16.1-4.4-33.1,6.6-38,24.7c-0.1,0.4-0.2,0.8-0.3,1.2
		c5.2-14.7,19.7-23.5,33.4-19.7c6,1.7,11,5.5,14.3,10.6l6.4-5.2C180.9,122.6,175.5,118.4,168.8,116.6z"/>
	<path id="XMLID_92_" class="st4" d="M192.7,121.8c16.6,0.9,29.3,16.8,28.2,35.5c0,0.4,0,0.9-0.1,1.3c-0.3-15.6-11.2-28.5-25.4-29.3
		c-6.3-0.4-12.1,1.7-17,5.5l-4.4-7C179.3,123.6,185.8,121.4,192.7,121.8z"/>
	<g id="XMLID_89_">
		<path id="XMLID_91_" class="st5" d="M181.6,86.5c7.6,0.7,10.9-10.5,20.1-10.4c3.8,0.1,6.9,1.5,11.6,6.2
			c15.5,15.5,24.7,21.1,24.7,21.1l-4.2-5.6c0,0-5.6-3.5,1.4-5.6c7-2.1,9.9-3.5,11.3,0.7c1.4,4.2,4.9,6.3,0,13.4
			c-4.9,7-12.7,6.3-12.7,6.3s-40.2-11.3-52.1-8.5c0,0-33.1-9.2-41.6-7.8c-8.5,1.4-12.7-0.7-12.7-0.7s-4.2-4.2-4.2-10.6
			s1.4-9.2,6.3-9.9s9.2-2.8,9.2,1.4s-2.1,12-5.6,12c-0.5,0-0.8,0-0.8,0c0,0.4,7-2.9,13.5-5.7c15.1-6.5,15.7-9.9,20.4-9.2
			C174.2,75.2,174.3,85.8,181.6,86.5z"/>
		<path id="XMLID_90_" class="st6" d="M175.9,95c7.6,0.7,10.9-10.5,20.1-10.4c3.8,0.1,6.9,1.5,11.6,6.2
			c15.5,15.5,24.7,21.1,24.7,21.1l-4.2-5.6c0,0-5.6-3.5,1.4-5.6c7-2.1,9.9-3.5,11.3,0.7c1.4,4.2,4.9,6.3,0,13.4s-12.7,6.3-12.7,6.3
			s-40.2-11.3-52.1-8.5c0,0-33.1-9.2-41.6-7.8c-8.5,1.4-12.7-0.7-12.7-0.7s-4.2-4.2-4.2-10.6s1.4-9.2,6.3-9.9
			c4.9-0.7,9.2-2.8,9.2,1.4c0,4.2-2.1,12-5.6,12c-0.5,0-0.8,0-0.8,0c0,0.4,7-2.9,13.5-5.7c15.1-6.5,15.7-9.9,20.4-9.2
			C168.5,83.6,168.7,94.3,175.9,95z"/>
	</g>
	<g id="XMLID_85_">
		<path id="XMLID_88_" class="st7" d="M161,200.7c0,29.2-25,52.8-55.9,52.8c-7.1,0-13.9-1.3-20.2-3.6c-11.6-9.4-19-23.7-19-39.8
			c0-28.2,22.9-51.1,51.1-51.1c14.3,0,27.3,5.9,36.6,15.4C158.4,182.2,161,191.1,161,200.7z"/>
		<path id="XMLID_87_" class="st2" d="M77.3,196.4c0,0,12-12.7,17.6-14.1c5.6-1.4,7-5.6,9.2-7.8c2.1-2.1,1.4-7,1.4-7
			S81.5,175.3,77.3,196.4z"/>
		<path id="XMLID_86_" class="st1" d="M168.2,210.2c0,28.2-22.9,51.1-51.1,51.1c-12.2,0-23.4-4.3-32.1-11.4
			c6.3,2.3,13.1,3.6,20.2,3.6c30.9,0,55.9-23.6,55.9-52.8c0-9.5-2.7-18.5-7.4-26.2C162.7,183.7,168.2,196.3,168.2,210.2z"/>
	</g>
	<ellipse id="XMLID_84_" class="st8" cx="124.9" cy="333.8" rx="7.4" ry="9.2"/>
	<ellipse id="XMLID_83_" class="st8" cx="213.6" cy="342.6" rx="7.4" ry="9.5"/>
	<path id="XMLID_82_" class="st4" d="M140.9,298.6c0,0,0,3.5,10.5,4.9c10.5,1.4,16.3-6.3,22.1-1.4s10.5,7,10.5,7s-17.5,5.6-18.6,9.2
		c-1.2,3.5-14-2.8-21-3.5C137.4,314.1,157.2,314.1,140.9,298.6z"/>
	<path id="XMLID_81_" class="st4" d="M132.3,105.9c0,0,19.7-0.4,31,3.9C163.3,109.8,146.3,101.7,132.3,105.9z"/>
	<path id="XMLID_80_" class="st4" d="M182.3,112.9c0,0,34.2,1.1,42.3,7.8C224.6,120.7,207.7,114.7,182.3,112.9z"/>
	<path id="XMLID_79_" class="st9" d="M140.7,295.1c0,0,16.2-46.5,21.1-50L140.7,295.1z"/>
</g>
</svg>
