<?xml version="1.0" encoding="utf-8"?>
<!-- Generator: Adobe Illustrator 19.0.0, SVG Export Plug-In . SVG Version: 6.00 Build 0)  -->
<svg version="1.1" id="Layer_1" xmlns="http://www.w3.org/2000/svg" xmlns:xlink="http://www.w3.org/1999/xlink" x="0px" y="0px"
	 viewBox="0 0 325.5 456" style="enable-background:new 0 0 325.5 456;" xml:space="preserve">
<style type="text/css">
	.st0{fill:#BA6304;}
	.st1{fill:#D67E09;}
	.st2{fill:#EEEEEE;}
	.st3{fill:#111111;}
	.st4{fill:#C66E0E;}
	.st5{fill:#EA8D1F;}
	.st6{fill:#DD8112;}
	.st7{fill:#F4BD31;}
	.st8{fill:none;stroke:#F4BD31;stroke-miterlimit:10;}
</style>
<g id="XMLID_101_">
	<path id="XMLID_100_" class="st0" d="M245.5,111.7c0,2.1-0.7,261.5-0.7,261.5l-27.6,0.7c-4.3,14.3-19.5,23.8-36.7,21.9
		c-14.9-1.7-26.5-11.4-30.1-23.6c-1.1-1.8-1.7-3.6-2-5.4l-28.7-7.1l26.1-261.1C145.8,98.6,245.5,109.6,245.5,111.7z"/>
	<path id="XMLID_99_" class="st1" d="M236.9,115.6c0,2.1,0,257.6,0,257.6l-27.9,0.7c-4.3,14.3-19.7,23.8-36.8,21.9
		c-14.9-1.7-26.5-11.4-30.2-23.6c-1.1-1.8-1.8-3.6-2-5.4l-28.7-7.1l26.4-261.1C137.7,98.6,236.9,113.5,236.9,115.6z"/>
	<path id="XMLID_98_" class="st2" d="M212.1,176.8l1.8-14.1c1.2-9.3-4-17.7-11.4-18.6c-7.4-0.9-14.5,5.9-15.6,15.3l-1.8,14.1
		c-0.2,1.6-0.2,3.1-0.1,4.6l26,3.2C211.6,179.8,211.9,178.3,212.1,176.8z"/>
	<path id="XMLID_97_" class="st2" d="M176.9,170.9l-0.8-14.2c-0.5-9.4-7.1-16.7-14.5-16.3c-7.5,0.4-13.2,8.4-12.7,17.8l0.8,14.2
		c0.1,1.6,0.4,3.1,0.8,4.5l26.2-1.4C176.9,174,177,172.4,176.9,170.9z"/>
	<ellipse id="XMLID_96_" class="st3" cx="167.2" cy="156.9" rx="3.6" ry="6.4"/>
	<ellipse id="XMLID_95_" class="st3" cx="195" cy="162.6" rx="3.6" ry="6.4"/>
	<path id="XMLID_94_" class="st4" d="M171.5,187.5c-1-2,9.2,0,9.2,0s19.9,21.3,5,32c-14.9,10.7-15.7,8.5-14.9,5.7
		C171.5,222.4,180.7,206,171.5,187.5z"/>
	<path id="XMLID_93_" class="st5" d="M180,186.1c5.7,0,41.3,28.5,42,48.4c0.7,19.9-21.3,46.2-21.3,46.2s-17.8,7.8-30.6,5
		c-12.8-2.8-24.8-8.2-29.9-9.2c-7.1-1.4-3.6,0-3.6,0s28.5-27,29.2-36.3c0.7-9.2,5-14.9,5-14.9l5,1.4c0,0,10-1.4,12.8-10
		c2.8-8.5,5-12.8,0.7-18.5S180,186.1,180,186.1z"/>
	<path id="XMLID_92_" class="st5" d="M133.8,282.1c0,0,7.1,20.6,10.7,27c3.6,6.4,1.4,12.8,9.2,23.5c7.8,10.7,12.1,19.2,22.1,17.1
		c10-2.1,15.7-5.7,19.9-14.9c4.3-9.2,23.5-44.8,26.3-56.9c2.8-12.1-1.4-39.1-1.4-39.1l-22.1,37c0,0-12.8,10.7-18.5,10.7
		c-5.7,0-11.4,2.1-11.4,2.1S160.8,290,133.8,282.1z"/>
	<path id="XMLID_91_" class="st3" d="M177.8,114.5c-16.2-4.1-33.4,6.2-38.4,22.9c-0.1,0.4-0.2,0.8-0.3,1.2
		c5.3-13.7,19.9-21.8,33.7-18.3c6.1,1.5,11.1,5.1,14.5,9.8l6.5-4.9C190,120.1,184.5,116.2,177.8,114.5z"/>
	<path id="XMLID_90_" class="st3" d="M201.9,119.3c16.8,0.9,29.5,15.7,28.5,33c0,0.4,0,0.8-0.1,1.2c-0.3-14.5-11.3-26.5-25.6-27.3
		c-6.3-0.3-12.3,1.6-17.1,5.1l-4.5-6.5C188.4,121.1,194.9,119,201.9,119.3z"/>
	<path id="XMLID_89_" class="st4" d="M190.7,83.6c7.6,0.7,11-10.6,20.3-10.5c3.8,0.1,6.9,1.5,11.7,6.2
		c15.7,15.7,24.9,21.3,24.9,21.3l-4.3-5.7c0,0-5.7-3.6,1.4-5.7c7.1-2.1,10-3.6,11.4,0.7c1.4,4.3,5,6.4,0,13.5
		c-5,7.1-12.8,6.4-12.8,6.4s-40.6-11.4-52.7-8.5c0,0-33.4-9.2-42-7.8c-8.5,1.4-12.8-0.7-12.8-0.7s-4.3-4.3-4.3-10.7s1.4-9.2,6.4-10
		c5-0.7,9.2-2.8,9.2,1.4c0,4.3-2.1,12.1-5.7,12.1c-0.5,0-0.8,0-0.8,0c0,0.4,7.1-2.9,13.6-5.7c15.2-6.5,15.9-10,20.6-9.2
		C183.2,72.2,183.4,82.9,190.7,83.6z"/>
	<path id="XMLID_88_" class="st6" d="M185,89.3c7.6,0.7,11-10.6,20.3-10.5c3.8,0.1,6.9,1.5,11.7,6.2c15.7,15.7,24.9,21.3,24.9,21.3
		l-4.3-5.7c0,0-5.7-3.6,1.4-5.7c7.1-2.1,10-3.6,11.4,0.7c1.4,4.3,5,6.4,0,13.5c-5,7.1-12.8,6.4-12.8,6.4s-40.6-11.4-52.7-8.5
		c0,0-33.4-9.2-42-7.8s-12.8-0.7-12.8-0.7s-4.3-4.3-4.3-10.7c0-6.4,1.4-9.2,6.4-10c5-0.7,9.2-2.8,9.2,1.4s-2.1,12.1-5.7,12.1
		c-0.5,0-0.8,0-0.8,0c0,0.4,7.1-2.9,13.6-5.7c15.2-6.5,15.9-10,20.6-9.2C177.5,77.9,177.7,88.6,185,89.3z"/>
	<g id="XMLID_84_">
		<path id="XMLID_87_" class="st7" d="M167.1,198.9c0,29.5-25.3,53.3-56.4,53.3c-7.2,0-14.1-1.3-20.4-3.6
			c-11.7-9.5-19.2-23.9-19.2-40.2c0-28.5,23.1-51.6,51.6-51.6c14.5,0,27.6,5.9,36.9,15.6C164.4,180.2,167.1,189.3,167.1,198.9z"/>
		<path id="XMLID_86_" class="st2" d="M88.9,184.7c0,0,3.6-6.4,9.2-7.8c5.7-1.4,9.2-2.1,11.4-4.3s1.4-7.1,1.4-7.1
			S93.2,163.3,88.9,184.7z"/>
		<path id="XMLID_85_" class="st6" d="M174.3,208.5c0,28.5-23.1,51.6-51.6,51.6c-12.3,0-23.6-4.3-32.4-11.5
			c6.3,2.3,13.2,3.6,20.4,3.6c31.2,0,56.4-23.9,56.4-53.3c0-9.6-2.7-18.6-7.4-26.4C168.7,181.7,174.3,194.5,174.3,208.5z"/>
	</g>
	<ellipse id="XMLID_83_" class="st8" cx="130.6" cy="333.4" rx="7.5" ry="9.2"/>
	<ellipse id="XMLID_82_" class="st8" cx="223.1" cy="339.4" rx="7.5" ry="9.6"/>
	<path id="XMLID_81_" class="st3" d="M137.7,100c0,0,36.3,3.2,37.7,5.3S167.2,98.2,137.7,100z"/>
	<path id="XMLID_80_" class="st3" d="M188.5,107.8c-2.5,0,37.7,3.9,40.6,6C231.9,116,214.2,107.8,188.5,107.8z"/>
	<path id="XMLID_79_" class="st3" d="M139.5,284l6.6-5.7l24,7.4C170,285.7,178.8,292.6,139.5,284z"/>
</g>
</svg>
