<?xml version="1.0" encoding="utf-8"?>
<!-- Generator: Adobe Illustrator 19.0.0, SVG Export Plug-In . SVG Version: 6.00 Build 0)  -->
<svg version="1.1" id="Layer_1" xmlns="http://www.w3.org/2000/svg" xmlns:xlink="http://www.w3.org/1999/xlink" x="0px" y="0px"
	 viewBox="0 0 325.5 456" style="enable-background:new 0 0 325.5 456;" xml:space="preserve">
<style type="text/css">
	.st0{fill:#BA6304;}
	.st1{fill:#EF7F00;}
	.st2{fill:#EA8D1F;}
	.st3{fill:#F4BD31;}
	.st4{fill:#EEEEEE;}
	.st5{fill:#C66E0E;}
	.st6{fill:#DD8112;}
	.st7{fill:none;stroke:#F4BD31;stroke-miterlimit:10;}
	.st8{fill:#000405;}
</style>
<g id="XMLID_102_">
	<path id="XMLID_27_" class="st0" d="M231.7,126.6c0,2.1,2.8,257.6,2.8,257.6l-28.6,1c-4.2,14.3-19.8,24-37.3,22.3
		c-15.1-1.5-27.1-11.1-30.9-23.3c-1.1-1.8-1.9-3.6-2.2-5.3l-29.2-6.8l24.2-261.5C130.6,110.6,231.7,124.4,231.7,126.6z"/>
	<path id="XMLID_26_" class="st1" d="M222.9,129.8c0,2.1,0,254,0,254l-27.3,0.6c-4.3,14.1-19.3,23.5-36.2,21.6
		c-14.7-1.6-26.1-11.2-29.7-23.3c-1.1-1.8-1.7-3.6-2-5.3l-28.3-7L125.2,113C125.2,113,222.9,127.7,222.9,129.8z"/>
	<path id="XMLID_23_" class="st2" d="M175,203.5c0,0,31.6,29.9,29.4,75.8c-2.2,45.8-9,72.4-9,72.4s-0.4,12.8-17.3,17
		c-16.9,4.2-32.9-0.6-41.4-4.4l3.5-37.1l1.4-44c0,0-20.4-19.2-9.3-24.7c11.1-5.5,21-10.9,21-10.9l4.6-14.6L175,203.5z"/>
	<path id="XMLID_24_" d="M144.3,256c0,0,15.8,3.2,23,32.6c7.2,29.4,9.5,60.2,9.5,60.2l-27.5,9.1l-1.1-79.7
		C148.2,278.2,130.4,261.4,144.3,256z"/>
	<path id="XMLID_25_" class="st0" d="M136,362.3c0,0,12.3-1.2,17.7-4.8c5.4-3.6,10.7-9.9,14.6-9.6c3.9,0.3,9.6,0.6,9.6,0.6l-0.4,2.2
		c0,0-9-1.2-12.8,2.3s-13,7.8-13,7.8S146.2,365.1,136,362.3z"/>
	<path id="XMLID_12_" class="st3" d="M151.4,196c0,30-25.7,54.2-57.4,54.2c-7.3,0-14.3-1.3-20.7-3.6c-11.9-9.6-19.5-24.3-19.5-40.8
		c0-29,23.5-52.6,52.5-52.5c14.7,0.1,27.4,7.3,37.6,15.8C148.7,177,151.4,186.2,151.4,196z"/>
	<path id="XMLID_22_" class="st4" d="M65.5,190.9c0,0,11.9-12.6,17.5-14c5.6-1.4,7-5.6,9.1-7.7c2.1-2.1,1.4-7,1.4-7
		S69.7,169.8,65.5,190.9z"/>
	<path id="XMLID_19_" class="st0" d="M156.1,194.6c-0.8-2.4,14.3,5.5,14.3,5.5s23.3,31.4-3.6,32.4c-26.9,1-27.2-1.4-25.1-3.6
		C143.8,226.7,163.9,217.1,156.1,194.6z"/>
	<path id="XMLID_10_" d="M167.4,132.5c-12.7-9.5-35.5-9.3-41.1,7.1c-0.1,0.4-0.2,0-0.4,0.3c9.1-10.3,24.5-12.2,35.3-4.1
		c4.8,3.6,7.9,8.6,9.3,14l7.2-2C176.2,142,172.7,136.5,167.4,132.5z"/>
	<path id="XMLID_8_" d="M181.7,134.4c15.3-6.5,33.6,2.1,40.8,19.3c0.2,0.4,0.3,0.8,0.5,1.2c-7.1-13.8-22.6-20.5-35.6-15
		c-5.7,2.4-6.5,2.7-9.1,8.2l-7.5,2.3C173.7,144.4,175.4,137.1,181.7,134.4z"/>
	<g id="XMLID_5_">
		<path id="XMLID_7_" class="st5" d="M178.5,99.7c7.5,0.7,13-14.7,22.1-14.6c3.8,0.1,6.8,1.5,11.5,6.2
			c15.4,15.4,24.6,21.1,24.6,21.1l-4.2-5.6c0,0-5.6-3.5,1.4-5.6s9.8-3.5,11.2,0.7c1.4,4.2,4.9,6.3,0,13.3c-4.9,7-12.6,6.3-12.6,6.3
			s-40-11.2-51.9-8.4c0,0-33-9.1-41.4-7.7c-8.4,1.4-12.6-0.7-12.6-0.7s-4.2-4.2-4.2-10.5s1.4-9.1,6.3-9.8c4.9-0.7,9.1-2.8,9.1,1.4
			c0,4.2-2.1,11.9-5.6,11.9c-0.5,0-0.8,0-0.8,0c0,0.4,7-2.9,13.4-5.6c15-6.4,15.7-9.9,20.3-9.1C173.2,84.1,171.3,99,178.5,99.7z"/>
		<path id="XMLID_17_" class="st6" d="M175.7,110.2c7.5,0.7,10.2-16.8,19.3-16.7c3.8,0.1,6.8,1.5,11.5,6.2
			c15.4,15.4,24.6,21.1,24.6,21.1l-4.2-5.6c0,0-5.6-3.5,1.4-5.6s9.8-3.5,11.2,0.7c1.4,4.2,4.9,6.3,0,13.3c-4.9,7-12.6,6.3-12.6,6.3
			s-40-11.2-51.9-8.4c0,0-33-9.1-41.4-7.7c-8.4,1.4-12.6-0.7-12.6-0.7s-4.2-4.2-4.2-10.5s1.4-9.1,6.3-9.8c4.9-0.7,9.1-2.8,9.1,1.4
			c0,4.2-2.1,11.9-5.6,11.9c-0.5,0-0.8,0-0.8,0c0,0.4,7-2.9,13.4-5.6c15-6.4,15.7-9.9,20.3-9.1C167.6,92.6,168.5,109.5,175.7,110.2z
			"/>
	</g>
	<path id="XMLID_11_" class="st6" d="M158.8,205.7c0,29-23.5,52.5-52.5,52.5c-12.5,0-24-4.4-33-11.7c6.4,2.3,13.4,3.6,20.7,3.6
		c31.7,0,57.4-24.3,57.4-54.2c0-9.8-2.7-19-7.6-26.9C153.1,178.5,158.8,191.5,158.8,205.7z"/>
	<ellipse id="XMLID_28_" class="st7" cx="118.5" cy="347.4" rx="7.4" ry="9.1"/>
	<ellipse id="XMLID_29_" class="st7" cx="209.7" cy="347.7" rx="7.4" ry="9.5"/>
	<path id="XMLID_9_" class="st0" d="M175.6,176.8c0,0,8.9-36.1,26-14.3c0,0,6.5,13.2-5.6,20.5S175.6,176.8,175.6,176.8z"/>
	<path id="XMLID_14_" class="st0" d="M149.5,157.7c0,0,16.5-9.9,20,12.8c0,0-4.5,10.6-12.7,7.2C148.6,174.4,143.9,166.8,149.5,157.7
		z"/>
	<path id="XMLID_4_" d="M150.2,161.2c0,0,7.9-2.7,14,8.5C164.2,169.7,161.9,163.9,150.2,161.2z"/>
	<path id="XMLID_18_" d="M179.3,178.8c0,0,8.3-13.3,19.2-14.2C198.6,164.6,182.1,159.1,179.3,178.8z"/>
	<path id="XMLID_13_" class="st8" d="M158.6,193c0,0-2.8-10.8,12.2-6.1c15,4.7,15.4,11.7,15.4,11.7S166.1,179,158.6,193z"/>
	<path id="XMLID_15_" class="st8" d="M166.6,185.5c-2.3,0.4,16.4-6.5,30.9,2.8C197.4,188.3,179.2,183.2,166.6,185.5z"/>
	<polygon id="XMLID_2_" class="st5" points="118.4,94.3 124.9,84.9 134.8,83.5 131,91.5 	"/>
	<polygon id="XMLID_3_" class="st5" points="225.5,110.7 231.6,103.2 239.5,101.3 236.3,107.4 	"/>
	<path id="XMLID_6_" d="M130.1,114.9c0,0,30.9,1.9,34.1,4.2c0,0-28.5-8-36-3.3C120.7,120.5,130.1,114.9,130.1,114.9z"/>
	<path id="XMLID_1_" d="M178.7,121.4c0,0,31.3,1.4,42.6,7C221.3,128.4,185.3,119.1,178.7,121.4z"/>
</g>
</svg>
