<?xml version="1.0" encoding="utf-8"?>
<!-- Generator: Adobe Illustrator 19.0.0, SVG Export Plug-In . SVG Version: 6.00 Build 0)  -->
<svg version="1.1" id="Layer_1" xmlns="http://www.w3.org/2000/svg" xmlns:xlink="http://www.w3.org/1999/xlink" x="0px" y="0px"
	 viewBox="0 0 325.5 456" style="enable-background:new 0 0 325.5 456;" xml:space="preserve">
<style type="text/css">
	.st0{fill:#BA6304;}
	.st1{fill:#FFFFFF;stroke:#000405;stroke-miterlimit:10;}
	.st2{fill:#D67E09;}
	.st3{fill:#EA8D1F;}
	.st4{fill:#111111;}
	.st5{fill:#EEEEEE;}
	.st6{fill:#C66E0E;}
	.st7{fill:#DD8112;}
	.st8{fill:#F4BD31;}
	.st9{fill:none;stroke:#F4BD31;stroke-miterlimit:10;}
</style>
<g id="XMLID_102_">
	<path id="XMLID_27_" class="st0" d="M240.9,118.6c0,2.1,0,257.6,0,257.6l-27.8,0.7c-4.5,14.3-19.8,23.8-37.5,21.9
		c-15.3-1.7-27.1-11.4-30.9-23.6c-1.1-1.8-1.7-3.6-2-5.4l-29.6-7.1l26.2-261.1C139.4,101.6,240.9,116.5,240.9,118.6z"/>
	<path id="XMLID_26_" class="st1" d="M133.6,279.4c0,0,12.8,2.8,12.8,7.8s-14.9,24.2-13.5,35.6l22.8,3.6l24.2-33.4l-29.2-17.8
		L133.6,279.4z"/>
	<path id="XMLID_14_" class="st2" d="M232.9,118.6c0,2.1,0,257.6,0,257.6l-27.8,0.7c-4.3,14.3-19.6,23.8-36.8,21.9
		c-14.9-1.7-26.5-11.4-30.1-23.6c-1.1-1.8-1.8-3.6-2-5.4l-28.7-7.1l26.3-261.1C133.8,101.6,232.9,116.5,232.9,118.6z"/>
	<path id="XMLID_13_" class="st3" d="M132.9,322.8c0,0,7.1,23.5,10,29.2c2.8,5.7,19.2,14.2,24.9,11.4s13.5-1.4,24.9-22.8
		c11.4-21.3,28.5-51.2,30.6-67.6s2.1-13.5,2.1-13.5L179.9,293c0,0-17.8,30.6-19.9,31.3C157.8,325,159.2,330,132.9,322.8z"/>
	<path id="XMLID_10_" class="st3" d="M167.8,228.2l-37,51.2c0,0,20.6-6.4,49.1,13.5c0,0,10,5,17.8,1.4s24.9-27.7,27.7-34.9
		c2.8-7.1-1.4-45.5-30.6-66.2l-17.1-2.8L167.8,228.2z"/>
	<path id="XMLID_12_" class="st4" d="M153.5,283l1.4,5.7l-8.5,31.3l13.5,4.3l19.9-31.3C179.9,293,156.4,277.3,153.5,283z"/>
	<path id="XMLID_6_" class="st5" d="M213.5,179.9l-19.3,6.3c-2.9,0.9-6-0.6-6.9-3.5l-4.5-13.6c-3.4-10.5,2.3-21.8,12.8-25.2h0
		c5.9-1.9,12.3,1.3,14.3,7.2L217,173C218,175.9,216.4,179,213.5,179.9z"/>
	<path id="XMLID_7_" class="st5" d="M163.7,181.8l-19.6-5.4c-2.9-0.8-4.6-3.9-3.8-6.8l3.8-13.8c2.9-10.6,14-16.9,24.6-13.9l0,0
		c6,1.7,9.5,7.9,7.9,13.9l-6.2,22.2C169.6,180.9,166.6,182.6,163.7,181.8z"/>
	<path id="XMLID_5_" class="st6" d="M187,86.6c7.6,0.7,11-10.6,20.3-10.5c3.8,0.1,6.9,1.5,11.7,6.2c15.7,15.7,24.9,21.3,24.9,21.3
		l-4.3-5.7c0,0-5.7-3.6,1.4-5.7c7.1-2.1,10-3.6,11.4,0.7s5,6.4,0,13.5c-5,7.1-12.8,6.4-12.8,6.4s-40.6-11.4-52.7-8.5
		c0,0-33.4-9.2-42-7.8c-8.5,1.4-12.8-0.7-12.8-0.7s-4.3-4.3-4.3-10.7s1.4-9.2,6.4-10c5-0.7,9.2-2.8,9.2,1.4c0,4.3-2.1,12.1-5.7,12.1
		c-0.5,0-0.8,0-0.8,0c0,0.4,7.1-2.9,13.6-5.7c15.2-6.5,15.9-10,20.6-9.2C179.5,75.2,179.7,85.9,187,86.6z"/>
	<path id="XMLID_17_" class="st7" d="M181.3,92.3c7.6,0.7,11-10.6,20.3-10.5c3.8,0.1,6.9,1.5,11.7,6.2
		c15.7,15.7,24.9,21.3,24.9,21.3l-4.3-5.7c0,0-5.7-3.6,1.4-5.7c7.1-2.1,10-3.6,11.4,0.7c1.4,4.3,5,6.4,0,13.5
		c-5,7.1-12.8,6.4-12.8,6.4s-40.6-11.4-52.7-8.5c0,0-33.4-9.2-42-7.8s-12.8-0.7-12.8-0.7s-4.3-4.3-4.3-10.7c0-6.4,1.4-9.2,6.4-10
		c5-0.7,9.2-2.8,9.2,1.4s-2.1,12.1-5.7,12.1c-0.5,0-0.8,0-0.8,0c0,0.4,7.1-2.9,13.6-5.7c15.2-6.5,15.9-10,20.6-9.2
		C173.8,80.9,174,91.6,181.3,92.3z"/>
	<g id="XMLID_19_">
		<path id="XMLID_11_" class="st7" d="M170.6,205.8c0,28.5-23.1,51.6-51.6,51.6c-12.3,0-23.6-4.3-32.4-11.5
			c6.3,2.3,13.2,3.6,20.4,3.6c31.2,0,56.4-23.9,56.4-53.3c0-9.6-2.7-18.6-7.4-26.4C165,179,170.6,191.8,170.6,205.8z"/>
		<path id="XMLID_9_" class="st8" d="M163.4,196.2c0,29.5-25.3,53.3-56.4,53.3c-7.2,0-14.1-1.3-20.4-3.6
			c-11.7-9.5-19.2-23.9-19.2-40.2c0-28.5,23.1-51.6,51.6-51.6c14.5,0,27.6,5.9,36.9,15.6C160.7,177.6,163.4,186.6,163.4,196.2z"/>
		<path id="XMLID_18_" class="st5" d="M82.9,185.6c0,0,3-6.7,8.6-8.5c5.6-1.9,9-2.9,11-5.2c2-2.3,0.8-7.2,0.8-7.2
			S85.4,164,82.9,185.6z"/>
	</g>
	<ellipse id="XMLID_23_" class="st4" cx="166.3" cy="157.1" rx="3.6" ry="6.4"/>
	<ellipse id="XMLID_24_" class="st4" cx="188.4" cy="159.9" rx="3.6" ry="6.4"/>
	<path id="XMLID_25_" class="st0" d="M167.8,190.5c-1-2,9.2,0,9.2,0s19.9,21.3,5,32c-14.9,10.7-15.7,8.5-14.9,5.7
		C167.8,225.4,177,209,167.8,190.5z"/>
	<ellipse id="XMLID_28_" class="st9" cx="129.7" cy="333.5" rx="7.5" ry="9.2"/>
	<ellipse id="XMLID_29_" class="st9" cx="219.4" cy="339.6" rx="7.5" ry="9.6"/>
	<path id="XMLID_8_" class="st4" d="M176.6,119.1c-15.2-7.3-34.1,0.6-42.3,17.6c-0.2,0.4-0.4,0.8-0.5,1.2
		c7.9-13.7,23.8-19.7,36.8-13.5c5.7,2.7,9.9,7.5,12.3,13.1l7.3-4C187.5,127.2,182.9,122.1,176.6,119.1z"/>
	<path id="XMLID_4_" class="st4" d="M196.7,122.7c16.8-0.5,30.9,14.4,31.4,33.3c0,0.4,0,0.9,0,1.3c-1.6-15.7-13.7-27.7-28.1-27.3
		c-6.3,0.2-12.1,2.8-16.6,7l-5.1-6.7C183.4,125.7,189.7,122.9,196.7,122.7z"/>
	<path id="XMLID_3_" class="st6" d="M127.9,280.9c-2,0.8,19.2,0,18.5,6.4c-0.7,6.4-14.2,36.3-13.5,35.6s22.1,8.5,25.6,5
		c3.6-3.6-14.2-7.1-12.1-7.8s8.5-28.5,8.5-28.5l-1.4-8.5l2.1-2.8C155.7,280.2,137.2,277.3,127.9,280.9z"/>
	<polygon id="XMLID_15_" class="st6" points="123.7,82.7 131.1,76 141.1,73.8 136.8,79.9 	"/>
	<path id="XMLID_2_" class="st6" d="M241.1,92.3l-0.4,3.9l-8.5,3.2l5.7-5.3"/>
	<path id="XMLID_1_" class="st4" d="M137.5,103.7c0,0,12.8-1.8,30.6,3.6C168.1,107.3,144.3,99.1,137.5,103.7z"/>
	<path id="XMLID_22_" class="st4" d="M187.3,110.5c0,0,21-0.4,35.9,5C223.3,115.4,193.7,110.5,187.3,110.5z"/>
</g>
</svg>
