<svg xmlns="http://www.w3.org/2000/svg" viewBox="0 0 1219.89 707.25"><defs><style>.cls-1{fill:#c19425;}</style></defs><title>Asset 1</title><g id="Layer_2" data-name="Layer 2"><g id="Layer_1-2" data-name="Layer 1"><path class="cls-1" d="M1159.89,297.49V201.24c0-18.22-15.22-32.75-33.44-32.75h-28.5a32.84,32.84,0,0,0-33.06,32.75v96.25h-49V247.74a30,30,0,0,0-60,0v49.75h-47V153.35a20.88,20.88,0,0,0-21-20.86H857.85a20.88,20.88,0,0,0-21,20.86V297.49H661.31c-122.82-6-224.91-43.17-279.6-67.62a148.81,148.81,0,1,0-262.9-25.21,148.9,148.9,0,0,0,2.48,292.14A148.88,148.88,0,1,0,382.1,477.87c59-26.32,172.62-67.38,307.79-68.38h530v-112Zm-903-230.33a81.75,81.75,0,1,1-25.51,159.41,148.49,148.49,0,0,0-25-13.43,81.73,81.73,0,0,1,50.52-146ZM67.12,350.5a81.75,81.75,0,0,1,107.26-77.66,148.49,148.49,0,0,0,25,13.43A81.74,81.74,0,1,1,67.12,350.5ZM256.86,640.13a81.75,81.75,0,1,1,81.75-81.75A81.75,81.75,0,0,1,256.86,640.13Z"/></g></g></svg>