<svg xmlns="http://www.w3.org/2000/svg" xmlns:xlink="http://www.w3.org/1999/xlink" viewBox="0 0 569.13 423.9"><defs><style>.cls-1{fill:none;}.cls-2{clip-path:url(#clip-path);}.cls-3{opacity:0.4;}.cls-4{clip-path:url(#clip-path-3);}.cls-5{fill:#282828;}.cls-6{fill:#aaa;}.cls-7{fill:#f7d06f;}.cls-8{fill:#d1a843;}.cls-9{fill:#eabb47;}.cls-10{fill:#fccd49;}.cls-11{fill:#c9e6f7;}.cls-12{fill:#e0f3fc;}.cls-13{fill:#d4f2fc;}</style><clipPath id="clip-path" transform="translate(-43.33 -33.89)"><rect class="cls-1" width="640" height="480"/></clipPath><clipPath id="clip-path-3" transform="translate(-43.33 -33.89)"><rect class="cls-1" x="43.32" y="49.83" width="545.23" height="407.96"/></clipPath></defs><title>Asset 1</title><g id="Layer_2" data-name="Layer 2"><g id="Layer_1-2" data-name="Layer 1"><g class="cls-2"><g class="cls-2"><g class="cls-3"><g class="cls-4"><rect class="cls-5" y="15.94" width="545.23" height="407.96"/></g></g></g><rect class="cls-6" x="49.82" y="40.33" width="475.48" height="325.7"/><polygon class="cls-7" points="568.64 409.5 568.65 0 525.31 43.49 525.31 366.03 568.64 409.5"/><polygon class="cls-8" points="525.38 366.03 54.75 366.03 11.86 409.38 568.64 409.51 525.38 366.03"/><polygon class="cls-9" points="11.87 0.01 11.86 409.51 55.2 365.96 55.2 43.48 11.87 0.01"/><polygon class="cls-10" points="55.61 43.49 525.28 43.49 569.13 0.14 12.35 0.01 55.61 43.49"/></g><rect class="cls-11" x="55.82" y="55.11" width="457.85" height="309.92"/><path class="cls-12" d="M167.32,118.85c-21.16,23.78-36.59,48.39-50.06,77.1-8.29,17.68-14.41,23.62,4.69,27.27,11.81,2.26,40.33-29.81,51.94-20.47,11.41,9.18-4.67,32.06-1.29,42.39,9.71,29.67,67.94-9.47,89.69,18.91,10.09,13.17,6.71,30.78,20.33,42.75,16.51,14.51,39.93,11,59.87,15.9,23.49,5.72,40.6,9.48,60.33,21.05,3.33-19.86-26.74-21.52-40.83-28.86s-34.37-11.56-46.55-21.4c-16.29-13.17-11.17-31.53-12.11-50.2C301.28,202.37,270,205.42,238,215.62c-44.1,14.07-10.36-31.42-20.84-56-11.3-26.53-33.58-1.25-49.73,3.57-1.34-10.81,4.35-33.71-.12-44.32" transform="translate(-43.33 -33.89)"/><path class="cls-13" d="M170.21,108.38c-21.16,23.78-36.59,48.39-50.06,77.1-8.29,17.68-19.85,32.59,4.69,27.27,11.75-2.55,40.33-29.8,51.94-20.47,11.41,9.18-4.67,32.06-1.29,42.39,9.71,29.68,67.94-9.47,89.69,18.91,10.09,13.17,6.71,30.78,20.33,42.75,16.51,14.51,39.93,11,59.87,15.9,23.49,5.72,37.71,19.95,57.44,31.52,3.33-19.86-23.85-32-37.94-39.33s-34.37-11.55-46.55-21.4c-16.29-13.17-11.17-31.53-12.11-50.2-2.05-40.92-33.32-37.87-65.32-27.66-44.1,14.07-10.36-31.42-20.84-56-11.3-26.52-33.58-1.25-49.73,3.57-1.34-10.81,4.35-33.71-.12-44.32" transform="translate(-43.33 -33.89)"/><path class="cls-1" d="M257.17,145.15c-4.51,26.58,1.51,28.4,25.71,34.39,21.06,5.21,31.57,13.15,40.59,33.08,7,15.47,4.6,32,10.28,47.16,7.9,21.06,28.81,24.05,47.5,33" transform="translate(-43.33 -33.89)"/><path class="cls-12" d="M245.83,150.37c-15,39.36-4.22,43.29,32.94,36.87C304.5,182.8,313,181.85,318.71,207c4.45,19.71.86,46.44,10.87,64.6,10.31,18.69,28.49,13.44,45.09,18.9,17.11,5.63,26.35,6,34.82,20.74-6.41-33.76-62.66-26.64-71.88-65.83-5.12-21.73,9.78-52.89-8.61-70.82-13.33-13-34.13-7-50.63-5-16.66,2.06-36.6,3-29.76-21.76" transform="translate(-43.33 -33.89)"/><path class="cls-13" d="M248.11,144.08c-15,39.36-3.78,41.78,33.38,35.36,25.73-4.44,36.35-1.39,42,23.79,4.45,19.71-.88,47.48,10.87,64.6,11,16,28.49,13.44,45.09,18.9,17.11,5.63,26.23,17.48,34.7,32.23,3.31-41.77-62.54-38.12-71.76-77.32-5.11-21.73,9.78-52.9-8.61-70.82-13.33-13-34.13-7-50.63-5-16.66,2.06-40.67,3.61-33.84-21.15" transform="translate(-43.33 -33.89)"/></g></g></svg>