<svg xmlns="http://www.w3.org/2000/svg" viewBox="0 0 541.61 668"><defs><style>.cls-1{fill:#9aaace;}.cls-2{fill:#e8afaf;}.cls-3{fill:#fff;}.cls-4{fill:#528dc0;}.cls-5{fill:#e6e6e6;}.cls-13,.cls-16,.cls-17,.cls-6,.cls-9{stroke:#000;}.cls-10,.cls-12,.cls-13,.cls-14,.cls-15,.cls-16,.cls-17,.cls-6,.cls-9{stroke-miterlimit:10;}.cls-7{fill:#ccc;}.cls-8{fill:#f1a09c;}.cls-12,.cls-14,.cls-16,.cls-17,.cls-9{fill:none;}.cls-9{stroke-width:2px;}.cls-10,.cls-11{fill:#bd4468;}.cls-10{stroke:#c1272d;}.cls-12,.cls-14,.cls-15{stroke:#8c6239;}.cls-12{stroke-width:7px;}.cls-13{fill:#f7e9d7;stroke-width:15px;}.cls-14,.cls-15{stroke-width:5px;}.cls-15{fill:#8c6239;}.cls-16{stroke-width:4px;}.cls-17{stroke-width:8px;}</style></defs><title>Asset 1</title><g id="Layer_2" data-name="Layer 2"><g id="Layer_19" data-name="Layer 19"><path class="cls-1" d="M315.34,274C278.25,304.47,244.25,338.91,207,369c-40.29,32.56-35.25,62.45-6.57,98.48,23.81,29.9,62.82,53.32,103.4,46.33,43.25-7.45,47.62-39.9,49.39-78.19,2-44.14,9.6-91.34,14.74-135.46"/><ellipse class="cls-2" cx="514.5" cy="300.88" rx="27.7" ry="20.92" transform="matrix(0.95, -0.31, 0.31, 0.95, -68.49, 176.92)"/><ellipse class="cls-3" cx="181.71" cy="394.5" rx="27.1" ry="31.53" transform="translate(-244.95 313.21) rotate(-54.48)"/><path class="cls-1" d="M331.34,281C294.25,311.47,260.25,345.91,223,376c-40.29,32.56-35.25,62.45-6.57,98.48,23.81,29.9,62.82,53.32,103.4,46.33,43.25-7.45,47.62-39.9,49.39-78.19,2-44.14,9.6-91.34,14.74-135.46"/><path class="cls-4" d="M349.34,295"/><path class="cls-4" d="M331.34,291C294.25,321.47,260.25,355.91,223,386c-40.29,32.56-35.25,62.45-6.57,98.48,23.81,29.9,62.82,53.32,103.4,46.33,43.25-7.45,47.62-39.9,49.39-78.19,2-44.14,9.6-91.34,14.74-135.46"/><path class="cls-3" d="M285.75,612c28,3.17,55.75,9.62,83.38,14.83,22,4.15,64.35,23,84.83,7.07,20.16-15.64,8-38.61-9.28-49.55-24.49-15.53-54.28-13-81.39-8-29.48,5.42-53.74,16.62-80,30.3"/><path class="cls-3" d="M283.12,607.32c9.09-27.86,24.92-61.56,36.54-88.72,52,2.06-8.48,63.13-25.71,84.48"/><path class="cls-3" d="M409.07,131.73C364.52,90.92,376.69,44.47,311,14.2c-60.66-27.94-128.14-8.67-190.07,6.92C82.11,30.9,56.36,37.24,21.61,53.05c-5.82,31.2,102.07,27.85,131.84,27.2,54.23-1.18,111.58.13,158.85,23.38,23.36,11.49,45.08,23.8,61.36,41.73"/><path class="cls-3" d="M438.55,326.32c-52.24,4.9-105.71-9.07-127.09-63.27s.84-113.75,49.65-133,96.74,13.53,127.09,63.27c18.25,29.89,36.13,78.38,22.91,104.38C501.28,317,461.36,324.19,438.55,326.32Z"/><ellipse class="cls-5" cx="465.62" cy="240.81" rx="23.76" ry="33.5" transform="translate(-57.16 202.22) rotate(-23.13)"/><ellipse class="cls-6" cx="478.64" cy="253.07" rx="7.82" ry="15.86" transform="matrix(1, -0.06, 0.06, 1, -15.14, 30.98)"/><path class="cls-7" d="M442.51,252.31c13.66-5.92,52.9-36,26.33-47.53-27.86-12.11-32.3,27.84-26.61,41.45"/><ellipse class="cls-8" cx="511.22" cy="300.18" rx="24.5" ry="18.5" transform="translate(-68.43 175.86) rotate(-18.32)"/><path class="cls-9" d="M506.57,297.2C452.6,269.16,384,268,370,295"/><path class="cls-9" d="M502.91,304.9c-44.83-9-93.2-2.73-96.26,12.5"/><path class="cls-10" d="M379.15,329.31c28.26-2.31,69.85-5,70,31.12,0,8.72-4.05,42.71-13.93,44.4-13.24,2.27-22.63-11.72-32.33-23.11-12.75-15-26.2-28.17-38.67-43.42,1.77-3.26,4.39-4.46,7.61-5.64"/><path class="cls-10" d="M353.25,319.82c-14.35-24.45-36.1-60-65.71-39.42-7.16,5-32.62,27.86-28.33,36.92,5.76,12.14,22.6,11.78,37.49,13.17,19.59,1.82,38.11,5.25,57.76,6.69,1.65-3.32,1.13-6.15.24-9.47"/><path class="cls-11" d="M374.88,340.58c-3.76,7.24-13.42,9.68-21.56,5.45s-11.69-13.53-7.93-20.77,13.42-9.68,21.56-5.45A17.23,17.23,0,0,1,376.18,332,13.59,13.59,0,0,1,374.88,340.58Z"/><path class="cls-3" d="M115.33,521.71c21.31,23.9,40,50.45,59.47,75.83,15.55,20.25,37.16,68.29,66.58,70.36,29,2,36.07-26.69,29.73-49.07-9-31.75-36.18-52.2-63-68.54-29.12-17.77-58.19-26.68-90.88-35"/><path class="cls-3" d="M116.68,515.72c28.85-16.73,67.85-33.3,98.3-47.53,42.56,41.21-55.09,47.11-85.9,52.15"/><path class="cls-12" d="M94,431.36c51.54-20.4,76.73-45,131.27-16.3,35.77,18.8,56.28,38,98.31,41.17,19.86,1.52,36.3,3.55,50.42-12.87"/><ellipse class="cls-13" cx="59.5" cy="475.36" rx="51.5" ry="52.43" transform="translate(-328.18 193.91) rotate(-46.89)"/><path class="cls-14" d="M55.68,479.15l22.61-24.41"/><polygon class="cls-15" points="67.06 454.82 79.5 466.47 81.05 452.35 67.06 454.82"/><path class="cls-14" d="M55.13,476.9l14,23.22"/><polygon class="cls-15" points="72.92 490.54 58.27 499.25 70.32 502.85 72.92 490.54"/><path class="cls-8" d="M334.5,118.06c-35.68-36.69-146-39.56-201.63-37.63,52.44-35.54,186.61-40.55,201.66,32.9"/><path class="cls-3" d="M310.7,428.31C346.1,416.2,398,389.44,397.78,445c-9.69,4.36-19.61,4.48-23.16-3.95-5.87,16.81-44.36-9.82-65.64-9.77"/><path class="cls-3" d="M308.7,431.31s-.2-.15-.53-.44-.82-.72-1.35-1.28a34.06,34.06,0,0,1-3.83-4.76,40.48,40.48,0,0,1-3.77-7.06,45.73,45.73,0,0,1-2.56-8.45,45.18,45.18,0,0,1-.9-8.78,41.35,41.35,0,0,1,.2-4.16c.12-1.34.35-2.62.57-3.81s.52-2.3.82-3.29.61-1.86.9-2.59.59-1.31.76-1.7.32-.61.32-.61.2.15.53.44.82.72,1.35,1.28,1.17,1.25,1.83,2,1.34,1.71,2,2.72,1.36,2.11,2,3.3a41.56,41.56,0,0,1,1.78,3.77,45.26,45.26,0,0,1,2.54,8.46,45.8,45.8,0,0,1,.88,8.79,40.39,40.39,0,0,1-.77,8,34,34,0,0,1-1.71,5.87c-.27.72-.58,1.31-.75,1.7S308.7,431.31,308.7,431.31Z"/><line class="cls-4" x1="223.29" y1="488.51" x2="202.13" y2="459.41"/><line class="cls-16" x1="29.99" y1="439.34" x2="36.95" y2="448.42"/><line class="cls-16" x1="81.99" y1="500.34" x2="88.95" y2="509.42"/><line class="cls-16" x1="92.67" y1="440.99" x2="84.28" y2="448.77"/><line class="cls-16" x1="37.67" y1="500.99" x2="29.28" y2="508.77"/><path d="M49,439.86a1.5,1.5,0,0,0,0-3,1.5,1.5,0,0,0,0,3Z"/><path d="M67,440.86a1.5,1.5,0,0,0,0-3,1.5,1.5,0,0,0,0,3Z"/><path d="M93,466.86a1.5,1.5,0,0,0,0-3,1.5,1.5,0,0,0,0,3Z"/><path d="M93,491.86a1.5,1.5,0,0,0,0-3,1.5,1.5,0,0,0,0,3Z"/><path d="M71,514.86a1.5,1.5,0,0,0,0-3,1.5,1.5,0,0,0,0,3Z"/><path d="M48,513.86a1.5,1.5,0,0,0,0-3,1.5,1.5,0,0,0,0,3Z"/><path d="M23,489.86a1.5,1.5,0,0,0,0-3,1.5,1.5,0,0,0,0,3Z"/><path d="M23,463.86a1.5,1.5,0,0,0,0-3,1.5,1.5,0,0,0,0,3Z"/><path class="cls-17" d="M470.13,195.54c-4.51-2.48-11-8.49-15.35-9.17-13-2.07-19.77,8.27-26,23.92"/></g></g></svg>