<?xml version="1.0" encoding="utf-8"?>
<!-- Generator: Adobe Illustrator 19.0.0, SVG Export Plug-In . SVG Version: 6.00 Build 0)  -->
<svg version="1.1" xmlns="http://www.w3.org/2000/svg" xmlns:xlink="http://www.w3.org/1999/xlink" x="0px" y="0px"
	 viewBox="0 0 1195 768" style="enable-background:new 0 0 1195 768;" xml:space="preserve">
<style type="text/css">
	.st0{fill:#1A4647;}
	.st1{fill:#1F575B;}
	.st2{fill:#246770;}
	.st3{display:none;}
	.st4{display:inline;}
	.st5{fill:#B3B3B3;}
	.st6{fill:#939393;}
	.st7{fill:#513708;}
	.st8{fill:none;stroke:#000000;stroke-miterlimit:10;}
	.st9{fill:none;stroke:#000000;stroke-width:0.4871;stroke-miterlimit:10;}
	.st10{fill:#2D1B0E;}
	.st11{opacity:0.48;fill:url(#XMLID_15_);}
	.st12{fill:#301C0E;}
	.st13{fill:#3D2807;}
	.st14{fill:none;stroke:#000000;stroke-width:2;stroke-linecap:round;stroke-linejoin:round;stroke-dasharray:0,9.9441;}
	.st15{opacity:0.37;fill:#282828;}
	.st16{fill:#D3A746;}
	.st17{fill:#FCCD49;}
	.st18{fill:#E5B84A;}
	.st19{fill:#FFFFFF;}
	.st20{fill:#F7D06F;}
	.st21{fill:#D1A843;}
	.st22{fill:#EABB47;}
	.st23{opacity:0.4;fill:#282828;}
	.st24{fill:none;stroke:#000000;stroke-width:3;stroke-miterlimit:10;}
	.st25{fill:url(#XMLID_60_);}
	.st26{fill:#9E9E9E;}
	.st27{fill:#CCCCCC;}
	.st28{fill:#444444;}
</style>
<g id="Layer_1">
	<rect id="XMLID_16_" y="505.3" class="st0" width="1195" height="259.7"/>
	<rect id="XMLID_1_" class="st1" width="891" height="505.3"/>
	<polygon id="XMLID_2_" class="st2" points="891,505.3 1197,810 1195,0 891,0 	"/>
</g>
<g id="door" class="st3">
	<g id="XMLID_25_" class="st4">
		<path id="XMLID_23_" class="st5" d="M1090,640.2c0-47.6-14-86.2-31.3-86.2c-17.3,0-31.3,38.5-31.3,86l62.3,62
			C1089.6,701.8,1090,640.4,1090,640.2z"/>
		<path id="XMLID_22_" class="st6" d="M1036.9,649.8c0,0-6.2-87.4,25.1-95.3c0,0-18.7-8.7-30.7,41.6l-4.1,45L1036.9,649.8z"/>
		<g id="XMLID_24_">
			<path id="XMLID_18_" class="st7" d="M1031.3,589.6c-1.5-29.1-17-52.2-40.8-53.6c-19.7-1.2-46.7,35.2-46.8,87.3l86,18.6
				C1029.7,641.7,1031.3,589.8,1031.3,589.6z"/>
			<line id="XMLID_17_" class="st8" x1="963.5" y1="555" x2="963.5" y2="626"/>
			<line id="XMLID_19_" class="st9" x1="979.4" y1="539.6" x2="979.6" y2="630.3"/>
			<line id="XMLID_20_" class="st9" x1="994.8" y1="537.2" x2="995.9" y2="634.2"/>
			<line id="XMLID_21_" class="st9" x1="1014.4" y1="547.6" x2="1013.6" y2="637.6"/>
		</g>
	</g>
</g>
<g id="table">
	<g id="XMLID_32_">
		<polygon id="XMLID_31_" class="st10" points="220.3,595.1 220.5,622 226.8,622 227.4,595 		"/>
		
			<radialGradient id="XMLID_15_" cx="180.2453" cy="607.5098" r="109.6091" gradientTransform="matrix(0.9999 1.483039e-02 -4.449117e-03 0.3 2.7227 422.6038)" gradientUnits="userSpaceOnUse">
			<stop  offset="6.180965e-03" style="stop-color:#000000"/>
			<stop  offset="0.819" style="stop-color:#4D4D4D"/>
		</radialGradient>
		<ellipse id="XMLID_61_" class="st11" cx="180.2" cy="607.5" rx="65.2" ry="15"/>
		<g id="XMLID_29_">
			<path id="XMLID_26_" class="st12" d="M216.7,471.9c2.1,79.6,0.7,95.6-2,112.7C203.7,624.5,165,651,165,651h11.1
				c0,0,36.5-23,47.9-55.1l1.9-123.2L216.7,471.9z"/>
			<path id="XMLID_30_" class="st12" d="M230.6,471.9c-2.1,79.6-0.7,95.6,2,112.7c10.9,39.9,49.6,66.4,49.6,66.4h-11.1
				c0,0-36.5-23-47.9-55.1l-1.9-123.2L230.6,471.9z"/>
		</g>
		<path id="XMLID_27_" class="st13" d="M362.2,442.8c0,19-61.3,34.3-135.5,34.3S91.3,461.8,91.3,442.8s61.3-34.3,135.5-34.3
			S362.2,423.9,362.2,442.8z"/>
		<ellipse id="XMLID_28_" class="st7" cx="226.8" cy="438.8" rx="134.2" ry="30.8"/>
	</g>
</g>
<g id="picture" class="st3">
	<g id="XMLID_33_" class="st4">
		<ellipse id="XMLID_41_" class="st14" cx="236" cy="193.9" rx="38" ry="59"/>
	</g>
	<g id="XMLID_38_" class="st4">
		<ellipse id="XMLID_58_" class="st15" cx="236.5" cy="196.8" rx="42.2" ry="66.1"/>
		<ellipse id="XMLID_37_" class="st16" cx="239.5" cy="194.8" rx="42.2" ry="66.1"/>
		<ellipse id="XMLID_35_" class="st17" cx="241.5" cy="193" rx="43.2" ry="67.2"/>
		<ellipse id="XMLID_36_" class="st18" cx="241.5" cy="193" rx="34.2" ry="53.2"/>
		<ellipse id="XMLID_34_" class="st19" cx="240.5" cy="194" rx="33.8" ry="52.7"/>
	</g>
	<g id="XMLID_57_" class="st4">
		<rect id="XMLID_49_" x="405.5" y="107.9" class="st15" width="127.5" height="177.2"/>
		<g id="XMLID_43_">
			<rect id="XMLID_39_" x="421.7" y="117.9" class="st19" width="104" height="151.8"/>
			<polygon id="XMLID_42_" class="st17" points="539.6,104 408.9,104 422.8,117.8 525.7,117.8 			"/>
			<polygon id="XMLID_45_" class="st20" points="525.7,117.8 525.7,268.1 539.6,281.8 539.6,104 			"/>
			<polygon id="XMLID_48_" class="st21" points="408.9,281.8 539.6,281.8 525.7,267.9 422.7,267.9 			"/>
			<polygon id="XMLID_47_" class="st22" points="422.8,267.8 422.8,117.9 408.9,103.9 408.9,281.6 			"/>
		</g>
	</g>
	<g id="XMLID_59_" class="st4">
		<rect id="XMLID_56_" x="639.2" y="141" class="st23" width="129.8" height="97.1"/>
		<g id="XMLID_50_">
			<rect id="XMLID_55_" x="651" y="146.8" class="st19" width="113.2" height="77.5"/>
			<polygon id="XMLID_54_" class="st20" points="774.6,234.7 774.6,137.2 764.3,147.5 764.3,224.3 			"/>
			<polygon id="XMLID_53_" class="st21" points="764.3,224.3 652.2,224.3 642,234.7 774.6,234.7 			"/>
			<polygon id="XMLID_52_" class="st22" points="642,137.2 642,234.7 652.3,224.3 652.3,147.5 			"/>
			<polygon id="XMLID_51_" class="st17" points="652.4,147.5 764.2,147.5 774.7,137.2 642.1,137.2 			"/>
		</g>
	</g>
</g>
<g id="lamp" class="st3">
	<g id="XMLID_13_" class="st4">
		<line id="XMLID_4_" class="st24" x1="216.5" y1="0" x2="216.5" y2="107"/>
		<g id="XMLID_3_">
			
				<radialGradient id="XMLID_60_" cx="215.9591" cy="131.1747" r="18.1887" fx="220.2342" fy="131.1772" gradientUnits="userSpaceOnUse">
				<stop  offset="0" style="stop-color:#FCEE21"/>
				<stop  offset="1" style="stop-color:#FFFFFF"/>
			</radialGradient>
			<path id="XMLID_11_" class="st25" d="M215.9,145c0,0,7.8,0.4,11.1-9c1.2-6.6-3.4-9.6-4.3-13.6s-0.5-4.2-1.1-5.4
				c-0.2-0.4-0.7-1-1.1-1.2c-1.2-0.5-4.5-0.1-4.5-0.1s-3.5-0.4-4.7,0.1c-0.4,0.1-0.9,0.8-1.1,1.2c-0.6,1.3-0.2,1.5-1.1,5.4
				s-5.5,7-4.3,13.6c3.4,9.5,11.1,9,11.1,9"/>
			<path id="XMLID_6_" class="st26" d="M211.6,111.4c0,0,3.8,0.4,7.5-0.7c3.7-1-2.7,1.3-3.7,1.3S211.6,111.4,211.6,111.4z"/>
			<path id="XMLID_9_" class="st26" d="M211.6,110.4c0,0,3.8,0.4,7.5-0.7c3.7-1-2.7,1.3-3.7,1.3S211.6,110.4,211.6,110.4z"/>
			<path id="XMLID_7_" class="st26" d="M211.6,113.3c0,0,3.8,0.4,7.5-0.7c3.7-1-2.7,1.3-3.7,1.3S211.6,113.3,211.6,113.3z"/>
			<path id="XMLID_10_" class="st26" d="M211.6,114.2c0,0,3.8,0.4,7.5-0.7c3.7-1-2.7,1.3-3.7,1.3S211.6,114.2,211.6,114.2z"/>
			<path id="XMLID_8_" class="st26" d="M211.6,112.3c0,0,3.8,0.4,7.5-0.7c3.7-1-2.7,1.3-3.7,1.3S211.6,112.3,211.6,112.3z"/>
			<path id="XMLID_5_" class="st27" d="M220.7,116.3l-0.1-7.1l-2.8-2.1l-3.6,0l-2.9,2.5l-0.1,6.5
				C211.2,116.2,220.7,116.4,220.7,116.3z"/>
			<path id="XMLID_12_" class="st28" d="M214.2,107.2l0,0.6c1.8,0.3,3.6,0,3.6,0l0-0.6L214.2,107.2z"/>
		</g>
	</g>
</g>
</svg>
